<svg width="26" height="26" viewBox="0 0 26 26" fill="none" xmlns="http://www.w3.org/2000/svg">
<g transform="translate(6.05, 3.57)">
<path d="M2.26859 18.8573H0.992218L2.69339 15.3124H3.96976L2.26859 18.8573ZM11.2012 15.3124L12.9024 18.8573H11.626L9.92484 15.3124H11.2012Z" fill="#374151"/>
<path d="M0 2.70833C0 1.21256 1.21256 0 2.70833 0H11.1867C12.6825 0 13.895 1.21256 13.895 2.70833V15.1355C13.895 15.4346 13.6525 15.6771 13.3534 15.6771H0.541667C0.242513 15.6771 0 15.4346 0 15.1355V2.70833Z" fill="#9CA3AF"/>
<rect x="4.24523" y="1.45837" width="5.40362" height="0.729168" rx="0.364584" fill="#374151"/>
<path d="M3.86005 8.02052H2.08661C1.78757 8.02052 1.54479 7.77851 1.54462 7.4795V3.82325C1.54462 3.5241 1.78746 3.28126 2.08661 3.28126H3.86005V8.02052ZM9.26337 8.02052H4.63154V3.28126H9.26337V8.02052ZM11.8083 3.28126C12.1074 3.28126 12.3503 3.5241 12.3503 3.82325V7.4795C12.3501 7.77851 12.1073 8.02052 11.8083 8.02052H10.0349V3.28126H11.8083Z" fill="#374151"/>
<path d="M13.8945 15.1351C13.8945 15.4342 13.6526 15.677 13.3535 15.6771H0.541992C0.242838 15.6771 0 15.4343 0 15.1351V9.1146H13.8945V15.1351Z" fill="#FF5A3C"/>
<rect x="4.24523" y="13.4896" width="5.40362" height="1.45834" fill="#F2472A"/>
<ellipse cx="6.94722" cy="11.3021" rx="1.15792" ry="1.09375" fill="#FF7F6B"/>
</g>
</svg>
