<svg preserveAspectRatio="none" width="100%" height="100%" overflow="visible" style="display: block;" viewBox="0 0 16.7143 13" fill="none" xmlns="http://www.w3.org/2000/svg">
<g id="Group 1171276659">
<path id="Vector" d="M6.42138 1.92958C6.42138 1.92958 6.07619 0.746153 5.45733 0.292864C5.14655 0.0652364 4.82659 0.00430735 4.58504 6.22843e-05C4.3456 -0.00439459 4.16459 0.230955 4.16964 0.507907C4.18038 1.09672 4.08471 2.10743 4.71604 2.6726C5.64432 3.50363 6.58583 3.52251 6.58583 3.52251C6.58583 3.52251 6.27513 2.27255 6.42138 1.92958Z" fill="var(--fill-0, #1F94F2)"/>
<path id="Vector_2" d="M1.49893 1.92897C0.950194 1.92897 0.888356 2.40012 0.90937 2.6294C1.0321 3.96851 1.01809 5.12627 0.924348 5.40144C0.506181 6.62891 0.368213 8.61617 0.322858 10.0223L9.13773 10.2987C9.96007 10.3245 11.0682 9.39034 11.9177 8.40207C12.3009 7.9562 12.6801 7.4089 12.9853 7.23902C10.8786 5.98921 8.39207 5.07497 7.34435 4.08034C6.90386 3.66217 6.58512 2.54306 6.4213 1.92897H1.49893Z" fill="var(--fill-0, #53B7FF)"/>
<path id="Vector_3" d="M12.9863 7.23918C12.6811 7.40907 12.3019 7.68012 11.9187 8.12598C11.0692 9.11425 9.9614 10.0226 9.13868 10.0226H0.321432C0.28385 10.9654 0.303447 11.6519 0.303447 11.6519H16.4264C16.4264 9.72219 16.4264 7.84885 12.9863 7.23918Z" fill="var(--fill-0, #1F94F2)"/>
<path id="Vector_4" d="M16.339 10.8617C15.2197 11.1729 14.6945 11.2089 14.0084 11.2089H0.302512C-0.100837 11.2089 -0.100837 13 0.302512 13H13.9367C14.5634 13 15.5781 12.6839 16.2539 12.0631C17.2376 11.1595 16.339 10.8617 16.339 10.8617Z" fill="var(--fill-0, #ADD9FF)"/>
<path id="Vector_5" d="M11.1118 5.9343L10.5259 6.54231C10.3832 6.69031 10.3832 6.92862 10.5259 7.07662C10.6685 7.22463 10.8982 7.22463 11.0408 7.07662L11.6268 6.46861C11.7694 6.32061 11.7694 6.0823 11.6268 5.9343C11.4841 5.78629 11.2545 5.78629 11.1118 5.9343ZM9.29128 4.72919L8.70532 5.3372C8.56269 5.48521 8.56269 5.72351 8.70532 5.87152C8.84796 6.01952 9.07762 6.01952 9.22025 5.87152L9.80621 5.2635C9.94885 5.1155 9.94885 4.87719 9.80621 4.72919C9.66357 4.58118 9.43392 4.58118 9.29128 4.72919ZM7.57744 3.70648L6.99148 4.31449C6.84885 4.46249 6.84885 4.7008 6.99148 4.8488C7.13412 4.99681 7.36379 4.99681 7.50642 4.8488L8.09238 4.24079C8.23501 4.09279 8.23501 3.85448 8.09238 3.70648C7.94974 3.55847 7.72008 3.55847 7.57744 3.70648Z" fill="var(--fill-0, white)"/>
</g>
</svg>
