<svg preserveAspectRatio="none" width="100%" height="100%" overflow="visible" style="display: block;" viewBox="0 0 67.9206 72.6671" fill="none" xmlns="http://www.w3.org/2000/svg">
<g id="Group 1171276650">
<g id="Ellipse 2804">
</g>
<g id="Group 1171276648">
<path id="Rectangle 6668020" d="M20.2526 10.0961C21.8652 5.83928 25.9427 3.0237 30.4948 3.0237H37.2232C41.7752 3.0237 45.8527 5.83928 47.4653 10.0961L52.929 24.5182C54.2863 28.1011 51.6393 31.9345 47.8079 31.9345H19.91C16.0787 31.9345 13.4316 28.1011 14.789 24.5182L20.2526 10.0961Z" fill="var(--fill-0, #514B46)"/>
<path id="Ellipse 2796" d="M50.9885 17.1296C50.9885 26.5901 43.3194 31.9346 33.8589 31.9346C24.3985 31.9346 16.7293 26.5901 16.7293 17.1296C16.7293 7.66919 24.3985 0 33.8589 0C43.3194 0 50.9885 7.66919 50.9885 17.1296Z" fill="var(--fill-0, #514B46)"/>
<circle id="Ellipse 2797" cx="20.1553" cy="17.5103" r="6.47119" fill="var(--fill-0, #FFE5CF)"/>
<circle id="Ellipse 2798" cx="49.0851" cy="17.5103" r="6.47119" fill="var(--fill-0, #FFE5CF)"/>
<path id="Rectangle 6668011" d="M25.4325 34.2592H42.2854C42.2854 34.2592 45.4879 46.6025 45.9716 52.4388C46.2868 56.2411 44.8434 59.7416 43.7992 61.7196C43.2251 62.8069 42.0664 63.4 40.8368 63.4H26.8812C25.6515 63.4 24.4928 62.8069 23.9188 61.7196C22.8745 59.7416 21.4312 56.2411 21.7463 52.4388C22.23 46.6025 25.4325 34.2592 25.4325 34.2592Z" fill="var(--fill-0, #FF5A3C)"/>
<rect id="Rectangle 6668012" x="30.2256" y="26.1879" width="7.26634" height="11.5383" rx="3.63317" fill="var(--fill-0, #FFDDC0)"/>
<circle id="Ellipse 2799" cx="33.8589" cy="17.1296" r="15.2263" fill="var(--fill-0, #FFE8D5)"/>
<rect id="Rectangle 6668021" x="30.6228" y="11.6596" width="6.39406" height="7.52242" rx="3.19703" fill="var(--fill-0, #FF8D87)"/>
<g id="Intersect">
</g>
<circle id="Ellipse 2800" cx="42.8483" cy="14.7255" r="3.1671" fill="var(--fill-0, #FFDED5)"/>
<circle id="Ellipse 2801" cx="25.2244" cy="14.7255" r="3.1671" fill="var(--fill-0, #FFDED5)"/>
<g id="Group 1171276646">
<path id="Vector 9732" d="M26.7639 9.87436C26.7639 9.87436 27.6677 10.8354 29.1755 10.6235C30.6834 10.4116 31.2873 9.23863 31.2873 9.23863" stroke="var(--stroke-0, #33353B)" stroke-width="1.14198" stroke-linecap="round"/>
<path id="Vector 9733" d="M36.4304 9.23835C36.4304 9.23835 37.0343 10.4113 38.5421 10.6232C40.05 10.8351 40.9538 9.87408 40.9538 9.87408" stroke="var(--stroke-0, #33353B)" stroke-width="1.14198" stroke-linecap="round"/>
</g>
<path id="Rectangle 6668013" d="M19.048 66.5734C15.4116 67.2267 12.0696 64.4316 12.0696 60.7369C12.0696 57.748 14.2941 55.2263 17.2597 54.8534L30.615 53.1739C32.3706 52.9531 34.147 52.9531 35.9026 53.1739L49.258 54.8534C52.2235 55.2263 54.448 57.748 54.448 60.7369C54.448 64.4316 51.106 67.2267 47.4696 66.5734L36.0266 64.5177C34.1961 64.1888 32.3216 64.1888 30.491 64.5177L19.048 66.5734Z" fill="var(--fill-0, #53B7FF)"/>
<rect id="Rectangle 6668014" x="3.03893" y="56.9233" width="12.321" height="17.3837" rx="6.16051" transform="rotate(-36.9762 3.03893 56.9233)" fill="var(--fill-0, #FFE8D5)"/>
<rect id="Rectangle 6668015" width="12.321" height="17.3969" rx="6.16051" transform="matrix(-0.798885 -0.601484 -0.601484 0.798885 63.4029 56.9126)" fill="var(--fill-0, #FFE8D5)"/>
<ellipse id="Ellipse 2802" cx="33.8588" cy="54.3423" rx="12.1222" ry="2.25641" fill="var(--fill-0, #FF5A3C)"/>
<rect id="Rectangle 6668004" x="40.3303" y="33.2804" width="7.26634" height="26.504" rx="3.63317" transform="rotate(19.4017 40.3303 33.2804)" fill="var(--fill-0, #FFE8D5)"/>
<rect id="Rectangle 6668017" width="7.26634" height="26.7729" rx="3.63317" transform="matrix(-0.943213 0.33219 0.33219 0.943213 27.4274 33.2804)" fill="var(--fill-0, #FFE8D5)"/>
<path id="Rectangle 6668005" d="M39.1234 36.7073C39.7899 34.8147 41.8645 33.8208 43.7571 34.4874V34.4874C45.6497 35.1539 46.6436 37.2285 45.9771 39.1211L44.5905 43.058L37.7368 40.6442L39.1234 36.7073Z" fill="var(--fill-0, #FF5A3C)"/>
<path id="Rectangle 6668018" d="M28.6343 36.7073C27.9677 34.8147 25.8931 33.8208 24.0005 34.4874V34.4874C22.1079 35.1539 21.114 37.2285 21.7806 39.1211L23.1671 43.058L30.0208 40.6442L28.6343 36.7073Z" fill="var(--fill-0, #FF5A3C)"/>
</g>
<path id="Union" d="M29.9445 1.33685C30.188 1.33696 30.3884 1.49435 30.4617 1.70639C30.5356 1.49137 30.7393 1.33685 30.9793 1.33685H36.738C36.9709 1.33693 37.1691 1.48261 37.2481 1.68767C37.3265 1.48498 37.5229 1.33685 37.7594 1.33685H39.8814C40.0354 1.33686 40.182 1.40175 40.2857 1.51547L46.6947 8.4351L38.6546 7.33986C38.3902 7.33977 38.1636 7.15028 38.1161 6.8901L37.2856 3.98031V6.79223C37.2855 7.09452 37.0402 7.33975 36.738 7.33986H30.9793C30.677 7.33986 30.4318 7.09458 30.4317 6.79223V3.90704L29.5878 6.8901C29.5403 7.15033 29.3133 7.33986 29.0488 7.33986L21.0093 8.4351L27.4177 1.51547C27.5214 1.40173 27.6685 1.33685 27.8225 1.33685H29.9445Z" fill="var(--fill-0, #514B46)"/>
</g>
</svg>
