<svg preserveAspectRatio="none" width="100%" height="100%" overflow="visible" style="display: block;" viewBox="0 0 48.3085 53.1661" fill="none" xmlns="http://www.w3.org/2000/svg">
<g id="Group 1171276653">
<g id="Group 1171276652">
<g id="Ellipse 2803">
</g>
<g id="Group 1171276647">
<ellipse id="Ellipse 2796" cx="24.0822" cy="12.6332" rx="12.1834" ry="11.8617" fill="var(--fill-0, #514B46)"/>
<path id="Vector 9743" d="M18.1662 1.90625C19.6093 -0.0902992 20.8506 0.819437 21.3428 1.59142C21.3728 1.63845 21.3586 1.70007 21.3126 1.73169L15.6158 5.65108C15.5136 5.72136 15.3885 5.58678 15.4654 5.48951C16.0699 4.72498 17.0479 3.45352 18.1662 1.90625Z" fill="var(--fill-0, #514B46)"/>
<path id="Vector 9744" d="M28.4917 1.12059C26.075 -0.855659 23.7135 0.225773 22.8384 1.01137C22.7819 1.06212 22.8012 1.15191 22.8716 1.18053L33.2628 5.40594C33.358 5.44466 33.445 5.34162 33.3875 5.25642C32.5189 3.96934 31.0148 2.78535 28.4917 1.12059Z" fill="var(--fill-0, #514B46)"/>
<path id="Vector 9741" d="M18.8146 24.1277C18.233 23.5271 16.7121 22.098 15.6631 21.1233C15.5757 21.042 15.6674 20.9003 15.7777 20.9458L21.9803 23.5034C22.0204 23.5199 22.0465 23.5587 22.0465 23.602V24.8472C22.0465 24.9193 21.9768 24.9694 21.913 24.9358C21.4913 24.7132 21.0549 24.0837 20.8201 23.6757C20.7813 23.6083 20.6982 23.6089 20.6859 23.6857C20.6544 23.884 20.6802 24.1971 20.7124 24.4359C20.7234 24.5168 20.6471 24.5775 20.5772 24.5353C20.0593 24.2229 19.1914 23.2824 19.0537 23.3024C19.0292 23.3059 19.0441 23.3415 19.0573 23.3624C19.1634 23.5303 19.1202 23.8042 19.0783 24.0444C19.0604 24.1467 18.8868 24.2023 18.8146 24.1277Z" fill="var(--fill-0, #514B46)"/>
<path id="Vector 9742" d="M29.3279 24.1277C29.9095 23.5271 31.4304 22.098 32.4794 21.1233C32.5668 21.042 32.4751 20.9003 32.3648 20.9458L26.1622 23.5034C26.1221 23.5199 26.096 23.5587 26.096 23.602V24.8472C26.096 24.9193 26.1657 24.9694 26.2295 24.9358C26.6512 24.7132 27.0876 24.0837 27.3224 23.6757C27.3612 23.6083 27.4443 23.6089 27.4566 23.6857C27.4881 23.884 27.4623 24.1971 27.4301 24.4359C27.4191 24.5168 27.4954 24.5775 27.5653 24.5353C28.0832 24.2229 28.9511 23.2824 29.0888 23.3024C29.1133 23.3059 29.0984 23.3415 29.0852 23.3624C28.9791 23.5303 29.0223 23.8042 29.0643 24.0444C29.0821 24.1467 29.2557 24.2023 29.3279 24.1277Z" fill="var(--fill-0, #514B46)"/>
<circle id="Ellipse 2797" cx="14.3354" cy="13.9358" r="4.60263" fill="var(--fill-0, #FFE5CF)"/>
<circle id="Ellipse 2798" cx="34.9119" cy="13.9358" r="4.60263" fill="var(--fill-0, #FFE5CF)"/>
<path id="Rectangle 6668011" d="M18.0889 25.8483H30.0755C30.0755 25.8483 32.3533 34.6275 32.6973 38.7785C32.9214 41.4829 31.8949 43.9726 31.1521 45.3795C30.7438 46.1529 29.9197 46.5747 29.0451 46.5747H19.1192C18.2447 46.5747 17.4205 46.1529 17.0122 45.3795C16.2695 43.9726 15.2429 41.4829 15.4671 38.7785C15.8111 34.6275 18.0889 25.8483 18.0889 25.8483Z" fill="var(--fill-0, #0F8A5C)"/>
<rect id="Rectangle 6668012" x="21.4981" y="20.108" width="5.16818" height="8.20663" rx="2.58409" fill="var(--fill-0, #FFDDC0)"/>
<circle id="Ellipse 2799" cx="24.0822" cy="13.6651" r="10.8297" fill="var(--fill-0, #FFE8D5)"/>
<circle id="Ellipse 2800" cx="30.476" cy="12.2225" r="2.2526" fill="var(--fill-0, #FFDED5)"/>
<circle id="Ellipse 2801" cx="17.9409" cy="12.2225" r="2.2526" fill="var(--fill-0, #FFDED5)"/>
<g id="Group 1171276646">
<path id="Vector 9732" d="M19.0359 8.77202C19.0359 8.77202 19.6788 9.45554 20.7512 9.30482C21.8236 9.1541 22.2532 8.31986 22.2532 8.31986" stroke="var(--stroke-0, #33353B)" stroke-width="0.812229" stroke-linecap="round"/>
<path id="Vector 9733" d="M25.9111 8.32005C25.9111 8.32005 26.3407 9.15429 27.4131 9.30501C28.4856 9.45573 29.1284 8.77221 29.1284 8.77221" stroke="var(--stroke-0, #33353B)" stroke-width="0.812229" stroke-linecap="round"/>
</g>
<path id="Vector 9736" d="M22.5751 10.3441L25.2012 10.3441" stroke="var(--stroke-0, #FF5656)" stroke-width="0.541486" stroke-linecap="round"/>
<path id="Vector 9737" d="M25.2361 9.58669C25.166 9.9405 25.1542 10.7388 25.6673 11.1014" stroke="var(--stroke-0, #FF5656)" stroke-width="0.541486" stroke-linecap="round"/>
<path id="Rectangle 6668013" d="M13.548 48.8318C10.9616 49.2964 8.58459 47.3084 8.58459 44.6806C8.58459 42.5547 10.1667 40.7611 12.276 40.4959L21.775 39.3014C23.0237 39.1443 24.2871 39.1443 25.5358 39.3014L35.0348 40.4959C37.144 40.7611 38.7262 42.5547 38.7262 44.6806C38.7262 47.3084 36.3492 49.2964 33.7628 48.8318L25.624 47.3696C24.322 47.1357 22.9888 47.1357 21.6868 47.3696L13.548 48.8318Z" fill="var(--fill-0, #4B5563)"/>
<rect id="Rectangle 6668014" x="2.16152" y="41.9683" width="8.76331" height="12.3642" rx="4.38166" transform="rotate(-36.9762 2.16152 41.9683)" fill="var(--fill-0, #FFE8D5)"/>
<rect id="Rectangle 6668015" width="8.76331" height="12.3735" rx="4.38166" transform="matrix(-0.798885 -0.601484 -0.601484 0.798885 45.0954 41.9608)" fill="var(--fill-0, #FFE8D5)"/>
<ellipse id="Ellipse 2802" cx="24.0822" cy="40.1326" rx="8.62194" ry="1.60487" fill="var(--fill-0, #0F8A5C)"/>
<rect id="Rectangle 6668004" x="28.685" y="25.1524" width="5.16818" height="18.8509" rx="2.58409" transform="rotate(19.4017 28.685 25.1524)" fill="var(--fill-0, #FFE8D5)"/>
<rect id="Rectangle 6668017" width="5.16818" height="19.0422" rx="2.58409" transform="matrix(-0.943213 0.33219 0.33219 0.943213 19.5078 25.1524)" fill="var(--fill-0, #FFE8D5)"/>
<path id="Rectangle 6668005" d="M27.8266 27.5897C28.3007 26.2436 29.7762 25.5367 31.1223 26.0108V26.0108C32.4684 26.4849 33.1753 27.9604 32.7013 29.3065L31.7151 32.1067L26.8404 30.3899L27.8266 27.5897Z" fill="var(--fill-0, #0F8A5C)"/>
<path id="Rectangle 6668018" d="M20.3662 27.5897C19.8921 26.2436 18.4166 25.5367 17.0705 26.0108V26.0108C15.7243 26.4849 15.0174 27.9604 15.4915 29.3065L16.4777 32.1067L21.3524 30.3899L20.3662 27.5897Z" fill="var(--fill-0, #0F8A5C)"/>
<path id="Vector 9739" d="M20.4144 3.49878C20.7723 2.94818 21.0398 2.93662 21.1911 3.04895C21.2549 3.09627 21.3587 3.10593 21.3824 3.03013C21.4803 2.71628 20.9995 2.50932 18.4394 3.49878C15.5785 4.6045 14.3955 7.65108 14.128 9.17948C14.1151 9.25348 14.1821 9.3149 14.2543 9.29418C15.7018 8.87897 17.1427 7.27867 17.6413 6.67397C17.7042 6.59762 17.8172 6.63721 17.7977 6.73423C17.7517 6.96307 17.6465 7.21227 17.5469 7.40839C17.5023 7.49602 17.5831 7.59564 17.6723 7.55422C19.1297 6.87698 19.8567 4.35684 20.4144 3.49878Z" fill="var(--fill-0, #514B46)"/>
</g>
</g>
<path id="Vector 9740" d="M24.6263 1.82151C24.1911 1.60388 24.0142 2.08064 23.9663 2.43219C23.9575 2.49669 23.8973 2.54324 23.8336 2.52967C22.145 2.16987 20.4193 1.43519 26.2545 1.18192C32.1064 0.927933 35.384 6.03002 36.3605 8.77095C36.3878 8.84754 36.3208 8.92182 36.2411 8.90572C33.6045 8.37337 31.405 6.71196 30.3161 5.64001C30.2313 5.55647 30.075 5.65285 30.1165 5.76447L30.2504 6.12509C30.2776 6.1983 30.2166 6.27468 30.1388 6.26742C25.1476 5.80178 25.2306 2.12364 24.6263 1.82151Z" fill="var(--fill-0, #514B46)"/>
</g>
</svg>
