<svg preserveAspectRatio="none" width="100%" height="100%" overflow="visible" style="display: block;" viewBox="0 0 48.3085 51.6843" fill="none" xmlns="http://www.w3.org/2000/svg">
<g id="Group 1171276650">
<g id="Ellipse 2804">
</g>
<g id="Group 1171276648">
<path id="Rectangle 6668020" d="M14.4046 7.1811C15.5516 4.15346 18.4517 2.15088 21.6893 2.15088H26.4749C29.7126 2.15088 32.6127 4.15346 33.7597 7.1811L37.6457 17.4388C38.6111 19.9871 36.7284 22.7137 34.0033 22.7137H14.161C11.4359 22.7137 9.55322 19.9871 10.5186 17.4388L14.4046 7.1811Z" fill="var(--fill-0, #514B46)"/>
<path id="Ellipse 2796" d="M36.2655 12.1837C36.2655 18.9124 30.8108 22.7137 24.0821 22.7137C17.3534 22.7137 11.8986 18.9124 11.8986 12.1837C11.8986 5.45493 17.3534 0.000221946 24.0821 0.000221946C30.8108 0.000221946 36.2655 5.45493 36.2655 12.1837Z" fill="var(--fill-0, #514B46)"/>
<circle id="Ellipse 2797" cx="14.3353" cy="12.4544" r="4.60263" fill="var(--fill-0, #FFE5CF)"/>
<circle id="Ellipse 2798" cx="34.9118" cy="12.4544" r="4.60263" fill="var(--fill-0, #FFE5CF)"/>
<path id="Rectangle 6668011" d="M18.0888 24.3672H30.0753C30.0753 24.3672 32.3531 33.1464 32.6971 37.2974C32.9213 40.0018 31.8947 42.4915 31.152 43.8984C30.7437 44.6718 29.9195 45.0936 29.045 45.0936H19.1191C18.2445 45.0936 17.4204 44.6718 17.0121 43.8984C16.2693 42.4915 15.2428 40.0018 15.4669 37.2974C15.811 33.1464 18.0888 24.3672 18.0888 24.3672Z" fill="var(--fill-0, #FF5A3C)"/>
<rect id="Rectangle 6668012" x="21.498" y="18.6264" width="5.16818" height="8.20663" rx="2.58409" fill="var(--fill-0, #FFDDC0)"/>
<circle id="Ellipse 2799" cx="24.0821" cy="12.1837" r="10.8297" fill="var(--fill-0, #FFE8D5)"/>
<rect id="Rectangle 6668021" x="21.7805" y="8.2931" width="4.54777" height="5.35031" rx="2.27388" fill="var(--fill-0, #FF8D87)"/>
<g id="Intersect">
</g>
<circle id="Ellipse 2800" cx="30.476" cy="10.4738" r="2.2526" fill="var(--fill-0, #FFDED5)"/>
<circle id="Ellipse 2801" cx="17.9408" cy="10.4738" r="2.2526" fill="var(--fill-0, #FFDED5)"/>
<g id="Group 1171276646">
<path id="Vector 9732" d="M19.0357 7.02357C19.0357 7.02357 19.6786 7.70709 20.7511 7.55637C21.8235 7.40565 22.253 6.57141 22.253 6.57141" stroke="var(--stroke-0, #33353B)" stroke-width="0.812229" stroke-linecap="round"/>
<path id="Vector 9733" d="M25.9109 6.57133C25.9109 6.57133 26.3405 7.40557 27.4129 7.5563C28.4854 7.70702 29.1282 7.0235 29.1282 7.0235" stroke="var(--stroke-0, #33353B)" stroke-width="0.812229" stroke-linecap="round"/>
</g>
<path id="Rectangle 6668013" d="M13.5479 47.3507C10.9615 47.8153 8.5845 45.8273 8.5845 43.1995C8.5845 41.0736 10.1667 39.28 12.2759 39.0148L21.7749 37.8203C23.0236 37.6632 24.287 37.6632 25.5357 37.8203L35.0347 39.0148C37.1439 39.28 38.7261 41.0736 38.7261 43.1995C38.7261 45.8273 36.3491 47.8153 33.7627 47.3507L25.6239 45.8885C24.3219 45.6546 22.9887 45.6546 21.6867 45.8885L13.5479 47.3507Z" fill="var(--fill-0, #53B7FF)"/>
<ellipse id="Ellipse 2802" cx="24.082" cy="38.6513" rx="8.62194" ry="1.60487" fill="var(--fill-0, #FF5A3C)"/>
<rect id="Rectangle 6668004" x="28.685" y="23.671" width="5.16818" height="18.8509" rx="2.58409" transform="rotate(19.4017 28.685 23.671)" fill="var(--fill-0, #FFE8D5)"/>
<rect id="Rectangle 6668017" width="5.16818" height="19.0422" rx="2.58409" transform="matrix(-0.943213 0.33219 0.33219 0.943213 19.5077 23.671)" fill="var(--fill-0, #FFE8D5)"/>
<path id="Rectangle 6668005" d="M27.8265 26.1084C28.3006 24.7623 29.7762 24.0554 31.1223 24.5294V24.5294C32.4684 25.0035 33.1753 26.4791 32.7012 27.8252L31.7151 30.6253L26.8404 28.9085L27.8265 26.1084Z" fill="var(--fill-0, #FF5A3C)"/>
<path id="Rectangle 6668018" d="M20.3661 26.1084C19.892 24.7623 18.4165 24.0554 17.0704 24.5294V24.5294C15.7243 25.0035 15.0173 26.4791 15.4914 27.8252L16.4776 30.6253L21.3523 28.9085L20.3661 26.1084Z" fill="var(--fill-0, #FF5A3C)"/>
<rect id="Rectangle 6668015" width="8.76331" height="12.3735" rx="4.38166" transform="matrix(-0.798885 -0.601484 -0.601484 0.798885 42.7071 40.0381)" fill="var(--fill-0, #FFE8D5)"/>
<rect id="Rectangle 6668014" x="4.26374" y="40.0381" width="8.76331" height="12.3642" rx="4.38166" transform="rotate(-36.9762 4.26374 40.0381)" fill="var(--fill-0, #FFE8D5)"/>
</g>
<path id="Union" d="M21.298 0.950928C21.4712 0.951007 21.6138 1.06295 21.6659 1.21376C21.7184 1.06083 21.8633 0.950928 22.0341 0.950928H26.1299C26.2955 0.950987 26.4365 1.0546 26.4927 1.20045C26.5484 1.05628 26.6882 0.950928 26.8564 0.950928H28.3657C28.4752 0.950933 28.5794 0.99709 28.6532 1.07797L33.2116 5.99956L27.4931 5.22056C27.305 5.2205 27.1438 5.08572 27.1101 4.90067L26.5194 2.83109V4.83106C26.5193 5.04607 26.3449 5.22049 26.1299 5.22056H22.0341C21.819 5.22056 21.6446 5.04611 21.6446 4.83106V2.77898L21.0443 4.90067C21.0106 5.08577 20.8491 5.22056 20.6609 5.22056L14.9428 5.99956L19.5008 1.07797C19.5746 0.997073 19.6792 0.950928 19.7887 0.950928H21.298Z" fill="var(--fill-0, #514B46)"/>
</g>
</svg>
