<svg preserveAspectRatio="none" width="100%" height="100%" overflow="visible" style="display: block;" viewBox="0 0 48.3085 51.6842" fill="none" xmlns="http://www.w3.org/2000/svg">
<g id="Group 1171276649">
<g id="Ellipse 2803">
</g>
<g id="Group 1171276647">
<circle id="Ellipse 2796" cx="24.0821" cy="12.1834" r="12.1834" fill="var(--fill-0, #514B46)"/>
<rect id="Rectangle 6668009" x="12.4401" y="11.3712" width="11.6419" height="17.1891" rx="5.82097" fill="var(--fill-0, #514B46)"/>
<rect id="Rectangle 6668010" x="24.0821" y="11.3712" width="11.6419" height="17.1891" rx="5.82097" fill="var(--fill-0, #514B46)"/>
<circle id="Ellipse 2797" cx="14.3353" cy="12.4542" r="4.60263" fill="var(--fill-0, #FFE5CF)"/>
<circle id="Ellipse 2798" cx="34.9118" cy="12.4542" r="4.60263" fill="var(--fill-0, #FFE5CF)"/>
<path id="Rectangle 6668011" d="M18.0889 24.3667H30.0754C30.0754 24.3667 32.3532 33.1459 32.6973 37.2969C32.9214 40.0013 31.8948 42.491 31.1521 43.8979C30.7438 44.6713 29.9197 45.0931 29.0451 45.0931H19.1192C18.2446 45.0931 17.4205 44.6713 17.0122 43.8979C16.2695 42.491 15.2429 40.0013 15.467 37.2969C15.8111 33.1459 18.0889 24.3667 18.0889 24.3667Z" fill="var(--fill-0, #7FC3FF)"/>
<rect id="Rectangle 6668012" x="21.498" y="18.6262" width="5.16818" height="8.20663" rx="2.58409" fill="var(--fill-0, #FFDDC0)"/>
<circle id="Ellipse 2799" cx="24.0821" cy="12.1835" r="10.8297" fill="var(--fill-0, #FFE8D5)"/>
<circle id="Ellipse 2800" cx="30.476" cy="10.4736" r="2.2526" fill="var(--fill-0, #FFDED5)"/>
<circle id="Ellipse 2801" cx="17.9408" cy="10.4736" r="2.2526" fill="var(--fill-0, #FFDED5)"/>
<g id="Group 1171276646">
<path id="Vector 9732" d="M19.0359 7.02266C19.0359 7.02266 19.6788 7.70618 20.7512 7.55546C21.8236 7.40474 22.2532 6.5705 22.2532 6.5705" stroke="var(--stroke-0, #33353B)" stroke-width="0.812229" stroke-linecap="round"/>
<path id="Vector 9733" d="M25.9111 6.57069C25.9111 6.57069 26.3406 7.40493 27.4131 7.55565C28.4855 7.70637 29.1284 7.02285 29.1284 7.02285" stroke="var(--stroke-0, #33353B)" stroke-width="0.812229" stroke-linecap="round"/>
</g>
<path id="Union" d="M22.2488 1.41644C25.071 0.684265 31.4205 1.4984 34.0431 7.9341C31.5623 7.20665 25.9328 5.06284 22.8351 2.09963C22.5805 1.85603 22.1616 1.8906 21.9487 2.17138C19.7366 5.08797 15.9067 7.13323 14.1392 7.85469C16.0389 2.42668 20.1989 1.3251 22.2488 1.41644Z" fill="var(--fill-0, #514B46)"/>
<path id="Rectangle 6668013" d="M13.5479 47.3502C10.9615 47.8148 8.58448 45.8268 8.58448 43.199C8.58448 41.0731 10.1666 39.2796 12.2759 39.0143L21.7749 37.8198C23.0236 37.6628 24.287 37.6628 25.5357 37.8198L35.0347 39.0143C37.1439 39.2796 38.7261 41.0731 38.7261 43.199C38.7261 45.8268 36.3491 47.8148 33.7627 47.3502L25.6239 45.8881C24.3219 45.6542 22.9887 45.6542 21.6867 45.8881L13.5479 47.3502Z" fill="var(--fill-0, #912416)"/>
<rect id="Rectangle 6668014" x="2.16141" y="40.4867" width="8.76331" height="12.3642" rx="4.38166" transform="rotate(-36.9762 2.16141 40.4867)" fill="var(--fill-0, #FFE8D5)"/>
<rect id="Rectangle 6668015" width="8.76331" height="12.3735" rx="4.38166" transform="matrix(-0.798885 -0.601484 -0.601484 0.798885 45.0953 40.4792)" fill="var(--fill-0, #FFE8D5)"/>
<ellipse id="Ellipse 2802" cx="24.082" cy="38.6508" rx="8.62194" ry="1.60487" fill="var(--fill-0, #7FC3FF)"/>
<rect id="Rectangle 6668004" x="28.6849" y="23.6705" width="5.16818" height="18.8509" rx="2.58409" transform="rotate(19.4017 28.6849 23.6705)" fill="var(--fill-0, #FFE8D5)"/>
<rect id="Rectangle 6668017" width="5.16818" height="19.0422" rx="2.58409" transform="matrix(-0.943213 0.33219 0.33219 0.943213 19.5077 23.6705)" fill="var(--fill-0, #FFE8D5)"/>
<path id="Rectangle 6668005" d="M27.8265 26.1079C28.3006 24.7618 29.7762 24.0549 31.1223 24.529V24.529C32.4684 25.003 33.1753 26.4786 32.7012 27.8247L31.715 30.6248L26.8403 28.908L27.8265 26.1079Z" fill="var(--fill-0, #7FC3FF)"/>
<path id="Rectangle 6668018" d="M20.3661 26.1079C19.892 24.7618 18.4165 24.0549 17.0703 24.529V24.529C15.7242 25.003 15.0173 26.4786 15.4914 27.8247L16.4776 30.6248L21.3523 28.908L20.3661 26.1079Z" fill="var(--fill-0, #7FC3FF)"/>
<path id="Vector 9738" d="M22.5813 8.98178C22.9687 9.00855 23.7932 8.87676 23.9918 8.13548C24.0609 8.41758 24.3984 8.98178 25.1949 8.98178" stroke="var(--stroke-0, #FF5656)" stroke-width="0.541486" stroke-linecap="round" stroke-linejoin="round"/>
</g>
</g>
</svg>
