<svg width="96" height="96" viewBox="0 0 96 96" fill="none" xmlns="http://www.w3.org/2000/svg">
<g clip-path="url(#clip0_3103_63422)">
<path d="M0 48C0 21.4903 21.4903 0 48 0C74.5097 0 96 21.4903 96 48C96 74.5097 74.5097 96 48 96C21.4903 96 0 74.5097 0 48Z" fill="#DBDDE3"/>
<path d="M38.1319 35.5447C39.2789 32.5171 42.179 30.5145 45.4166 30.5145H50.2022C53.4398 30.5145 56.3399 32.5171 57.4869 35.5447L61.3729 45.8025C62.3383 48.3508 60.4556 51.0773 57.7305 51.0773H37.8882C35.1632 51.0773 33.2805 48.3508 34.2459 45.8025L38.1319 35.5447Z" fill="#514B46"/>
<path d="M59.9928 40.5473C59.9928 47.276 54.5381 51.0773 47.8093 51.0773C41.0806 51.0773 35.6259 47.276 35.6259 40.5473C35.6259 33.8186 41.0806 28.3639 47.8093 28.3639C54.5381 28.3639 59.9928 33.8186 59.9928 40.5473Z" fill="#514B46"/>
<circle cx="38.0626" cy="40.8181" r="4.60263" fill="#FFE5CF"/>
<circle cx="58.6391" cy="40.8181" r="4.60263" fill="#FFE5CF"/>
<path d="M41.816 52.7308H53.8026C53.8026 52.7308 56.0804 61.51 56.4244 65.661C56.6486 68.3654 55.622 70.8551 54.8793 72.262C54.4709 73.0354 53.6468 73.4572 52.7722 73.4572H42.8463C41.9718 73.4572 41.1476 73.0354 40.7393 72.262C39.9966 70.8551 38.97 68.3654 39.1942 65.661C39.5382 61.51 41.816 52.7308 41.816 52.7308Z" fill="#FF5A3C"/>
<rect x="45.2253" y="46.99" width="5.16818" height="8.20663" rx="2.58409" fill="#FFDDC0"/>
<circle cx="47.8094" cy="40.5474" r="10.8297" fill="#FFE8D5"/>
<rect x="45.5078" y="36.6567" width="4.54777" height="5.35031" rx="2.27388" fill="#FF8D87"/>
<circle cx="54.2033" cy="38.8374" r="2.2526" fill="#FFDED5"/>
<circle cx="41.6681" cy="38.8374" r="2.2526" fill="#FFDED5"/>
<path d="M42.763 35.3872C42.763 35.3872 43.4059 36.0707 44.4783 35.92C45.5508 35.7693 45.9803 34.935 45.9803 34.935" stroke="#33353B" stroke-width="0.812229" stroke-linecap="round"/>
<path d="M49.6382 34.9351C49.6382 34.9351 50.0677 35.7693 51.1402 35.92C52.2126 36.0707 52.8555 35.3872 52.8555 35.3872" stroke="#33353B" stroke-width="0.812229" stroke-linecap="round"/>
<path d="M37.2752 75.7143C34.6888 76.1789 32.3118 74.1909 32.3118 71.5631C32.3118 69.4373 33.8939 67.6437 36.0032 67.3784L45.5022 66.1839C46.7508 66.0269 48.0143 66.0269 49.263 66.1839L58.762 67.3784C60.8712 67.6437 62.4534 69.4373 62.4534 71.5631C62.4534 74.1909 60.0764 76.1789 57.49 75.7143L49.3512 74.2522C48.0492 74.0183 46.7159 74.0183 45.414 74.2522L37.2752 75.7143Z" fill="#53B7FF"/>
<ellipse cx="47.8093" cy="67.0149" rx="8.62194" ry="1.60487" fill="#FF5A3C"/>
<rect x="52.4122" y="52.0347" width="5.16818" height="18.8509" rx="2.58409" transform="rotate(19.4017 52.4122 52.0347)" fill="#FFE8D5"/>
<rect width="5.16818" height="19.0422" rx="2.58409" transform="matrix(-0.943213 0.33219 0.33219 0.943213 43.235 52.0347)" fill="#FFE8D5"/>
<path d="M51.5538 54.472C52.0279 53.1259 53.5034 52.419 54.8495 52.8931C56.1957 53.3672 56.9026 54.8427 56.4285 56.1888L55.4423 58.989L50.5676 57.2721L51.5538 54.472Z" fill="#FF5A3C"/>
<path d="M44.0934 54.472C43.6193 53.1259 42.1437 52.419 40.7976 52.8931C39.4515 53.3672 38.7446 54.8427 39.2187 56.1888L40.2049 58.989L45.0795 57.2721L44.0934 54.472Z" fill="#FF5A3C"/>
<rect width="8.76331" height="12.3735" rx="4.38166" transform="matrix(-0.798885 -0.601484 -0.601484 0.798885 66.4344 68.4017)" fill="#FFE8D5"/>
<rect x="27.991" y="68.4017" width="8.76331" height="12.3642" rx="4.38166" transform="rotate(-36.9762 27.991 68.4017)" fill="#FFE8D5"/>
<path d="M45.0253 29.3146C45.1985 29.3147 45.341 29.4266 45.3931 29.5774C45.4457 29.4245 45.5905 29.3146 45.7613 29.3146H49.8571C50.0228 29.3146 50.1637 29.4182 50.22 29.5641C50.2757 29.4199 50.4154 29.3146 50.5836 29.3146H52.0929C52.2024 29.3146 52.3067 29.3607 52.3805 29.4416L56.9388 34.3632L51.2204 33.5842C51.0323 33.5842 50.8711 33.4494 50.8373 33.2643L50.2466 31.1947V33.1947C50.2465 33.4097 50.0721 33.5841 49.8571 33.5842H45.7613C45.5462 33.5842 45.3719 33.4098 45.3718 33.1947V31.1426L44.7716 33.2643C44.7378 33.4494 44.5763 33.5842 44.3882 33.5842L38.6701 34.3632L43.2281 29.4416C43.3019 29.3607 43.4065 29.3146 43.516 29.3146H45.0253Z" fill="#514B46"/>
<circle cx="79.6642" cy="45.0191" r="12.1834" fill="#514B46"/>
<rect x="68.0222" y="44.2069" width="11.6419" height="17.1891" rx="5.82097" fill="#514B46"/>
<rect x="79.6643" y="44.2069" width="11.6419" height="17.1891" rx="5.82097" fill="#514B46"/>
<circle cx="69.9174" cy="45.2899" r="4.60263" fill="#FFE5CF"/>
<circle cx="90.494" cy="45.2899" r="4.60263" fill="#FFE5CF"/>
<path d="M73.671 57.2024H85.6576C85.6576 57.2024 87.9354 65.9816 88.2794 70.1326C88.5036 72.837 87.477 75.3267 86.7343 76.7335C86.326 77.5069 85.5018 77.9288 84.6273 77.9288H74.7014C73.8268 77.9288 73.0027 77.5069 72.5943 76.7335C71.8516 75.3267 70.825 72.837 71.0492 70.1326C71.3932 65.9816 73.671 57.2024 73.671 57.2024Z" fill="#7FC3FF"/>
<rect x="77.0802" y="51.4618" width="5.16818" height="8.20663" rx="2.58409" fill="#FFDDC0"/>
<circle cx="79.6643" cy="45.0192" r="10.8297" fill="#FFE8D5"/>
<circle cx="86.0581" cy="43.3092" r="2.2526" fill="#FFDED5"/>
<circle cx="73.523" cy="43.3092" r="2.2526" fill="#FFDED5"/>
<path d="M74.6181 39.8583C74.6181 39.8583 75.2609 40.5418 76.3334 40.3911C77.4058 40.2404 77.8354 39.4061 77.8354 39.4061" stroke="#33353B" stroke-width="0.812229" stroke-linecap="round"/>
<path d="M81.4933 39.4064C81.4933 39.4064 81.9228 40.2406 82.9953 40.3913C84.0677 40.5421 84.7106 39.8585 84.7106 39.8585" stroke="#33353B" stroke-width="0.812229" stroke-linecap="round"/>
<path d="M77.8309 34.2521C80.6532 33.5199 87.0026 34.334 89.6253 40.7697C87.1445 40.0423 81.515 37.8985 78.4173 34.9353C78.1626 34.6917 77.7438 34.7262 77.5308 35.007C75.3188 37.9236 71.4888 39.9689 69.7213 40.6903C71.6211 35.2623 75.781 34.1607 77.8309 34.2521Z" fill="#514B46"/>
<path d="M69.13 80.1859C66.5437 80.6505 64.1667 78.6625 64.1667 76.0347C64.1667 73.9088 65.7488 72.1152 67.8581 71.85L77.3571 70.6555C78.6057 70.4984 79.8692 70.4984 81.1178 70.6555L90.6168 71.85C92.7261 72.1152 94.3082 73.9088 94.3082 76.0347C94.3082 78.6625 91.9313 80.6505 89.3449 80.1859L81.2061 78.7237C79.9041 78.4898 78.5708 78.4898 77.2688 78.7237L69.13 80.1859Z" fill="#912416"/>
<rect x="57.7436" y="73.3224" width="8.76331" height="12.3642" rx="4.38166" transform="rotate(-36.9762 57.7436 73.3224)" fill="#FFE8D5"/>
<rect width="8.76331" height="12.3735" rx="4.38166" transform="matrix(-0.798885 -0.601484 -0.601484 0.798885 100.677 73.3149)" fill="#FFE8D5"/>
<ellipse cx="79.6642" cy="71.4865" rx="8.62194" ry="1.60487" fill="#7FC3FF"/>
<rect x="84.2671" y="56.5062" width="5.16818" height="18.8509" rx="2.58409" transform="rotate(19.4017 84.2671 56.5062)" fill="#FFE8D5"/>
<rect width="5.16818" height="19.0422" rx="2.58409" transform="matrix(-0.943213 0.33219 0.33219 0.943213 75.0898 56.5062)" fill="#FFE8D5"/>
<path d="M83.4087 58.9436C83.8828 57.5975 85.3583 56.8905 86.7044 57.3646C88.0505 57.8387 88.7575 59.3143 88.2834 60.6604L87.2972 63.4605L82.4225 61.7437L83.4087 58.9436Z" fill="#7FC3FF"/>
<path d="M75.9483 58.9436C75.4742 57.5975 73.9986 56.8905 72.6525 57.3646C71.3064 57.8387 70.5995 59.3143 71.0736 60.6604L72.0597 63.4605L76.9344 61.7437L75.9483 58.9436Z" fill="#7FC3FF"/>
<path d="M78.1635 41.8175C78.5509 41.8443 79.3754 41.7125 79.574 40.9712C79.6431 41.2533 79.9805 41.8175 80.777 41.8175" stroke="#FF5656" stroke-width="0.541486" stroke-linecap="round" stroke-linejoin="round"/>
<ellipse cx="16.1731" cy="43.7683" rx="12.1834" ry="11.8617" fill="#514B46"/>
<path d="M10.2572 33.0414C11.7002 31.0448 12.9415 31.9546 13.4337 32.7266C13.4637 32.7736 13.4495 32.8352 13.4035 32.8668L7.70666 36.7862C7.60451 36.8565 7.4794 36.7219 7.5563 36.6247C8.16078 35.8601 9.13882 34.5887 10.2572 33.0414Z" fill="#514B46"/>
<path d="M20.5826 32.2557C18.1659 30.2795 15.8044 31.3609 14.9293 32.1465C14.8728 32.1973 14.8921 32.2871 14.9625 32.3157L25.3537 36.5411C25.4489 36.5798 25.5359 36.4768 25.4784 36.3916C24.6098 35.1045 23.1057 33.9205 20.5826 32.2557Z" fill="#514B46"/>
<path d="M10.9055 55.2629C10.3239 54.6623 8.80299 53.2332 7.75401 52.2585C7.66657 52.1772 7.75825 52.0355 7.86859 52.081L14.0712 54.6386C14.1113 54.6551 14.1374 54.6939 14.1374 54.7372V55.9824C14.1374 56.0545 14.0677 56.1046 14.0039 56.071C13.5822 55.8484 13.1458 55.2189 12.911 54.8109C12.8722 54.7435 12.7891 54.7441 12.7768 54.8209C12.7453 55.0192 12.7711 55.3323 12.8033 55.5711C12.8143 55.652 12.738 55.7127 12.6681 55.6705C12.1502 55.3581 11.2823 54.4176 11.1446 54.4376C11.1201 54.4411 11.135 54.4767 11.1482 54.4976C11.2543 54.6655 11.2111 54.9394 11.1692 55.1796C11.1513 55.2819 10.9777 55.3375 10.9055 55.2629Z" fill="#514B46"/>
<path d="M21.4188 55.2629C22.0004 54.6623 23.5213 53.2332 24.5703 52.2585C24.6577 52.1772 24.5661 52.0355 24.4557 52.081L18.2531 54.6386C18.213 54.6551 18.1869 54.6939 18.1869 54.7372V55.9824C18.1869 56.0545 18.2566 56.1046 18.3204 56.071C18.7421 55.8484 19.1785 55.2189 19.4133 54.8109C19.4521 54.7435 19.5352 54.7441 19.5475 54.8209C19.579 55.0192 19.5532 55.3323 19.521 55.5711C19.5101 55.652 19.5863 55.7127 19.6562 55.6705C20.1741 55.3581 21.042 54.4176 21.1797 54.4376C21.2042 54.4411 21.1893 54.4767 21.1761 54.4976C21.07 54.6655 21.1132 54.9394 21.1552 55.1796C21.173 55.2819 21.3466 55.3375 21.4188 55.2629Z" fill="#514B46"/>
<circle cx="6.4263" cy="45.0709" r="4.60263" fill="#FFE5CF"/>
<circle cx="27.0028" cy="45.0709" r="4.60263" fill="#FFE5CF"/>
<path d="M10.1798 56.9835H22.1664C22.1664 56.9835 24.4442 65.7627 24.7882 69.9137C25.0124 72.6181 23.9858 75.1078 23.2431 76.5147C22.8347 77.2881 22.0106 77.7099 21.136 77.7099H11.2101C10.3356 77.7099 9.51144 77.2881 9.10314 76.5147C8.3604 75.1078 7.33383 72.6181 7.55798 69.9137C7.90202 65.7627 10.1798 56.9835 10.1798 56.9835Z" fill="#0F8A5C"/>
<rect x="13.589" y="51.2432" width="5.16818" height="8.20663" rx="2.58409" fill="#FFDDC0"/>
<circle cx="16.1731" cy="44.8002" r="10.8297" fill="#FFE8D5"/>
<circle cx="22.5669" cy="43.3577" r="2.2526" fill="#FFDED5"/>
<circle cx="10.0319" cy="43.3577" r="2.2526" fill="#FFDED5"/>
<path d="M11.1268 39.9071C11.1268 39.9071 11.7697 40.5906 12.8421 40.4399C13.9146 40.2892 14.3441 39.4549 14.3441 39.4549" stroke="#33353B" stroke-width="0.812229" stroke-linecap="round"/>
<path d="M18.0021 39.4552C18.0021 39.4552 18.4316 40.2894 19.5041 40.4402C20.5765 40.5909 21.2194 39.9074 21.2194 39.9074" stroke="#33353B" stroke-width="0.812229" stroke-linecap="round"/>
<path d="M14.666 41.4792L17.2921 41.4792" stroke="#FF5656" stroke-width="0.541486" stroke-linecap="round"/>
<path d="M17.327 40.7218C17.2569 41.0756 17.2452 41.8739 17.7582 42.2366" stroke="#FF5656" stroke-width="0.541486" stroke-linecap="round"/>
<path d="M5.63889 79.9669C3.0525 80.4315 0.675506 78.4435 0.675506 75.8157C0.675506 73.6898 2.25766 71.8962 4.3669 71.631L13.8659 70.4365C15.1146 70.2794 16.378 70.2794 17.6267 70.4365L27.1257 71.631C29.2349 71.8962 30.8171 73.6898 30.8171 75.8157C30.8171 78.4435 28.4401 80.4315 25.8537 79.9669L17.7149 78.5047C16.4129 78.2708 15.0797 78.2708 13.7777 78.5047L5.63889 79.9669Z" fill="#4B5563"/>
<rect x="-5.74759" y="73.1034" width="8.76331" height="12.3642" rx="4.38166" transform="rotate(-36.9762 -5.74759 73.1034)" fill="#FFE8D5"/>
<rect width="8.76331" height="12.3735" rx="4.38166" transform="matrix(-0.798885 -0.601484 -0.601484 0.798885 37.1862 73.0959)" fill="#FFE8D5"/>
<ellipse cx="16.1731" cy="71.2677" rx="8.62194" ry="1.60487" fill="#0F8A5C"/>
<rect x="20.7759" y="56.2875" width="5.16818" height="18.8509" rx="2.58409" transform="rotate(19.4017 20.7759 56.2875)" fill="#FFE8D5"/>
<rect width="5.16818" height="19.0422" rx="2.58409" transform="matrix(-0.943213 0.33219 0.33219 0.943213 11.5987 56.2875)" fill="#FFE8D5"/>
<path d="M19.9175 58.7248C20.3916 57.3787 21.8671 56.6718 23.2132 57.1459C24.5593 57.62 25.2662 59.0955 24.7922 60.4416L23.806 63.2418L18.9313 61.525L19.9175 58.7248Z" fill="#0F8A5C"/>
<path d="M12.4571 58.7248C11.983 57.3787 10.5075 56.6718 9.16135 57.1459C7.81524 57.62 7.10833 59.0955 7.58241 60.4416L8.56859 63.2418L13.4433 61.525L12.4571 58.7248Z" fill="#0F8A5C"/>
<path d="M12.5053 34.6339C12.8632 34.0833 13.1307 34.0717 13.282 34.1841C13.3458 34.2314 13.4496 34.241 13.4733 34.1653C13.5712 33.8514 13.0904 33.6444 10.5303 34.6339C7.66942 35.7396 6.48639 38.7862 6.21895 40.3146C6.206 40.3886 6.27301 40.45 6.34521 40.4293C7.79276 40.0141 9.23362 38.4138 9.73218 37.8091C9.79513 37.7327 9.90811 37.7723 9.88862 37.8693C9.84264 38.0982 9.73745 38.3474 9.63778 38.5435C9.59324 38.6311 9.67405 38.7308 9.76319 38.6893C11.2206 38.0121 11.9476 35.492 12.5053 34.6339Z" fill="#514B46"/>
<path d="M16.7173 32.9566C16.282 32.739 16.1051 33.2157 16.0572 33.5673C16.0484 33.6318 15.9882 33.6783 15.9245 33.6647C14.236 33.3049 12.5102 32.5703 18.3454 32.317C24.1973 32.063 27.4749 37.1651 28.4514 39.906C28.4787 39.9826 28.4117 40.0569 28.332 40.0408C25.6955 39.5084 23.4959 37.847 22.407 36.7751C22.3222 36.6915 22.166 36.7879 22.2074 36.8996L22.3414 37.2602C22.3686 37.3334 22.3075 37.4098 22.2297 37.4025C17.2386 36.9369 17.3215 33.2587 16.7173 32.9566Z" fill="#514B46"/>
<rect x="-7.90906" y="84.1772" width="112.276" height="5.37793" fill="#F3F4F6"/>
<ellipse cx="48.229" cy="88.7061" rx="56.1381" ry="19.2473" fill="#F3F4F6"/>
<ellipse cx="48.229" cy="83.611" rx="56.1381" ry="19.2473" fill="white"/>
</g>
<defs>
<clipPath id="clip0_3103_63422">
<path d="M0 48C0 21.4903 21.4903 0 48 0C74.5097 0 96 21.4903 96 48C96 74.5097 74.5097 96 48 96C21.4903 96 0 74.5097 0 48Z" fill="white"/>
</clipPath>
</defs>
</svg>
