<svg width="96" height="96" viewBox="0 0 96 96" fill="none" xmlns="http://www.w3.org/2000/svg">
<g clip-path="url(#clip0_3103_63387)">
<path d="M0 48C0 21.4903 21.4903 0 48 0C74.5097 0 96 21.4903 96 48C96 74.5097 74.5097 96 48 96C21.4903 96 0 74.5097 0 48Z" fill="#DBDDE3"/>
<path d="M34.2736 26.2195C35.8863 21.9627 39.9638 19.1471 44.5158 19.1471H51.2442C55.7962 19.1471 59.8737 21.9627 61.4864 26.2195L66.95 40.6416C68.3073 44.2245 65.6603 48.0579 61.8289 48.0579H33.9311C30.0997 48.0579 27.4527 44.2245 28.81 40.6416L34.2736 26.2195Z" fill="#514B46"/>
<path d="M65.0096 33.253C65.0096 42.7135 57.3404 48.058 47.8799 48.058C38.4195 48.058 30.7503 42.7135 30.7503 33.253C30.7503 23.7926 38.4195 16.1234 47.8799 16.1234C57.3404 16.1234 65.0096 23.7926 65.0096 33.253Z" fill="#514B46"/>
<circle cx="34.1763" cy="33.6337" r="6.47119" fill="#FFE5CF"/>
<circle cx="63.1061" cy="33.6337" r="6.47119" fill="#FFE5CF"/>
<path d="M39.4536 50.3827H56.3064C56.3064 50.3827 59.5089 62.726 59.9926 68.5622C60.3078 72.3646 58.8644 75.865 57.8202 77.843C57.2461 78.9304 56.0874 79.5235 54.8578 79.5235H40.9022C39.6725 79.5235 38.5138 78.9304 37.9398 77.843C36.8955 75.865 35.4522 72.3646 35.7673 68.5622C36.251 62.726 39.4536 50.3827 39.4536 50.3827Z" fill="#FF5A3C"/>
<rect x="44.2466" y="42.3114" width="7.26634" height="11.5383" rx="3.63317" fill="#FFDDC0"/>
<circle cx="47.8799" cy="33.2529" r="15.2263" fill="#FFE8D5"/>
<rect x="44.6438" y="27.7831" width="6.39406" height="7.52242" rx="3.19703" fill="#FF8D87"/>
<circle cx="56.8693" cy="30.849" r="3.1671" fill="#FFDED5"/>
<circle cx="39.2454" cy="30.849" r="3.1671" fill="#FFDED5"/>
<path d="M40.7849 25.9978C40.7849 25.9978 41.6888 26.9588 43.1966 26.7469C44.7044 26.535 45.3083 25.3621 45.3083 25.3621" stroke="#33353B" stroke-width="1.14198" stroke-linecap="round"/>
<path d="M50.4514 25.3618C50.4514 25.3618 51.0554 26.5347 52.5632 26.7467C54.071 26.9586 54.9748 25.9975 54.9748 25.9975" stroke="#33353B" stroke-width="1.14198" stroke-linecap="round"/>
<path d="M33.069 82.6968C29.4326 83.3501 26.0906 80.5549 26.0906 76.8603C26.0906 73.8714 28.3151 71.3497 31.2807 70.9768L44.636 69.2973C46.3917 69.0765 48.168 69.0765 49.9236 69.2973L63.279 70.9768C66.2445 71.3497 68.469 73.8714 68.469 76.8603C68.469 80.5549 65.127 83.3501 61.4906 82.6968L50.0476 80.6411C48.2171 80.3122 46.3426 80.3122 44.512 80.6411L33.069 82.6968Z" fill="#53B7FF"/>
<rect x="17.06" y="73.0468" width="12.321" height="17.3837" rx="6.16051" transform="rotate(-36.9762 17.06 73.0468)" fill="#FFE8D5"/>
<rect width="12.321" height="17.3969" rx="6.16051" transform="matrix(-0.798885 -0.601484 -0.601484 0.798885 77.4239 73.036)" fill="#FFE8D5"/>
<ellipse cx="47.8798" cy="70.4656" rx="12.1222" ry="2.25641" fill="#FF5A3C"/>
<rect x="54.3513" y="49.4039" width="7.26634" height="26.504" rx="3.63317" transform="rotate(19.4017 54.3513 49.4039)" fill="#FFE8D5"/>
<rect width="7.26634" height="26.7729" rx="3.63317" transform="matrix(-0.943213 0.33219 0.33219 0.943213 41.4484 49.4039)" fill="#FFE8D5"/>
<path d="M53.1444 52.8308C53.8109 50.9382 55.8855 49.9443 57.7781 50.6108C59.6707 51.2774 60.6646 53.352 59.9981 55.2446L58.6115 59.1815L51.7578 56.7677L53.1444 52.8308Z" fill="#FF5A3C"/>
<path d="M42.6553 52.8308C41.9887 50.9382 39.9141 49.9443 38.0215 50.6108C36.1289 51.2774 35.135 53.352 35.8016 55.2446L37.1881 59.1815L44.0418 56.7677L42.6553 52.8308Z" fill="#FF5A3C"/>
<path d="M43.9655 17.4603C44.209 17.4604 44.4094 17.6178 44.4827 17.8299C44.5566 17.6149 44.7603 17.4603 45.0004 17.4603H50.759C50.9919 17.4604 51.1901 17.6061 51.2692 17.8111C51.3475 17.6085 51.5439 17.4603 51.7804 17.4603H53.9025C54.0564 17.4603 54.203 17.5252 54.3068 17.6389L60.7157 24.5586L52.6757 23.4633C52.4112 23.4633 52.1846 23.2738 52.1371 23.0136L51.3066 20.1038V22.9157C51.3065 23.218 51.0613 23.4632 50.759 23.4633H45.0004C44.698 23.4633 44.4528 23.2181 44.4527 22.9157V20.0305L43.6088 23.0136C43.5614 23.2738 43.3343 23.4633 43.0698 23.4633L35.0303 24.5586L41.4387 17.6389C41.5424 17.5252 41.6895 17.4603 41.8435 17.4603H43.9655Z" fill="#514B46"/>
<rect x="-8.02228" y="86.7507" width="112.276" height="5.37793" fill="#F3F4F6"/>
<ellipse cx="48.1158" cy="91.2796" rx="56.1381" ry="19.2473" fill="#F3F4F6"/>
<ellipse cx="48.3881" cy="83.2473" rx="56.1381" ry="19.2473" fill="white"/>
</g>
<defs>
<clipPath id="clip0_3103_63387">
<path d="M0 48C0 21.4903 21.4903 0 48 0C74.5097 0 96 21.4903 96 48C96 74.5097 74.5097 96 48 96C21.4903 96 0 74.5097 0 48Z" fill="white"/>
</clipPath>
</defs>
</svg>
