<svg width="53" height="52" viewBox="0 0 53 52" fill="none" xmlns="http://www.w3.org/2000/svg">
<circle cx="17.9854" cy="20.3481" r="3.99219" fill="#514B46"/>
<ellipse cx="24.3269" cy="47.5965" rx="24.3269" ry="4.23077" fill="#F3F4F6"/>
<path d="M40.6069 12.2204C40.6069 18.9696 35.1356 22.7824 28.3864 22.7824C21.6373 22.7824 16.166 18.9696 16.166 12.2204C16.166 5.47127 21.6373 0 28.3864 0C35.1356 0 40.6069 5.47127 40.6069 12.2204Z" fill="#514B46"/>
<circle cx="18.6098" cy="12.4921" r="4.6166" fill="#FFE5CF"/>
<circle cx="39.2484" cy="12.4921" r="4.6166" fill="#FFE5CF"/>
<path d="M22.3751 24.4409H34.398C34.398 24.4409 36.6828 33.2467 37.0278 37.4104C37.2527 40.123 36.223 42.6202 35.478 44.0314C35.0684 44.8071 34.2418 45.2302 33.3646 45.2302H23.4085C22.5313 45.2302 21.7047 44.8071 21.2951 44.0314C20.5502 42.6202 19.5205 40.123 19.7453 37.4104C20.0904 33.2467 22.3751 24.4409 22.3751 24.4409Z" fill="#7FC3FF"/>
<rect x="25.7949" y="18.6826" width="5.18387" height="8.23155" rx="2.59193" fill="#FFDDC0"/>
<circle cx="28.387" cy="12.2205" r="10.8626" fill="#FFE8D5"/>
<rect x="26.0781" y="8.31836" width="4.56157" height="5.36656" rx="2.28079" fill="#FF8D87"/>
<circle cx="34.7985" cy="10.5055" r="2.25944" fill="#FFDED5"/>
<circle cx="22.2262" cy="10.5055" r="2.25944" fill="#FFDED5"/>
<path d="M23.3252 7.04443C23.3252 7.04443 23.97 7.73003 25.0457 7.57885C26.1214 7.42767 26.5523 6.5909 26.5523 6.5909" stroke="#33353B" stroke-width="0.814695" stroke-linecap="round"/>
<path d="M30.2217 6.59106C30.2217 6.59106 30.6525 7.42784 31.7282 7.57902C32.8039 7.7302 33.4487 7.0446 33.4487 7.0446" stroke="#33353B" stroke-width="0.814695" stroke-linecap="round"/>
<path d="M17.8202 47.4938C15.226 47.9599 12.8418 45.9658 12.8418 43.33C12.8418 41.1977 14.4288 39.3987 16.5444 39.1327L26.0722 37.9345C27.3247 37.777 28.592 37.777 29.8444 37.9345L39.3723 39.1327C41.4879 39.3987 43.0749 41.1977 43.0749 43.33C43.0749 45.9658 40.6907 47.9599 38.0964 47.4938L29.9329 46.0273C28.627 45.7927 27.2897 45.7927 25.9838 46.0273L17.8202 47.4938Z" fill="#1F94F2"/>
<rect x="6.39844" y="40.6099" width="8.78992" height="12.4017" rx="4.39496" transform="rotate(-36.9762 6.39844 40.6099)" fill="#FFE8D5"/>
<rect width="8.78992" height="12.4111" rx="4.39496" transform="matrix(-0.798885 -0.601484 -0.601484 0.798885 49.4629 40.6021)" fill="#FFE8D5"/>
<ellipse cx="28.3864" cy="38.7684" rx="8.64812" ry="1.60974" fill="#7FC3FF"/>
<rect x="33.0029" y="23.7427" width="5.18387" height="18.9082" rx="2.59193" transform="rotate(19.4017 33.0029 23.7427)" fill="#FFE8D5"/>
<rect width="5.18387" height="19.1" rx="2.59193" transform="matrix(-0.943213 0.33219 0.33219 0.943213 23.7979 23.7427)" fill="#FFE8D5"/>
<path d="M32.1419 26.1874C32.6174 24.8372 34.0975 24.1282 35.4477 24.6037C36.7979 25.0792 37.5069 26.5593 37.0314 27.9094L36.0422 30.7181L31.1527 28.9961L32.1419 26.1874Z" fill="#7FC3FF"/>
<path d="M24.6589 26.1874C24.1833 24.8372 22.7033 24.1282 21.3531 24.6037C20.0029 25.0792 19.2939 26.5593 19.7694 27.9094L20.7586 30.7181L25.648 28.9961L24.6589 26.1874Z" fill="#7FC3FF"/>
<path d="M25.5932 0.953613C25.7669 0.953693 25.9099 1.06598 25.9622 1.21725C26.0149 1.06385 26.1602 0.953613 26.3315 0.953613H30.4397C30.6059 0.953673 30.7473 1.0576 30.8037 1.20389C30.8596 1.05929 30.9997 0.953613 31.1684 0.953613H32.6823C32.7921 0.953619 32.8967 0.999915 32.9708 1.08104L37.5429 6.01757L31.8071 5.23621C31.6184 5.23615 31.4568 5.10096 31.4229 4.91535L30.8304 2.83948V4.84553C30.8303 5.06118 30.6554 5.23613 30.4397 5.23621H26.3315C26.1158 5.23621 25.9409 5.06123 25.9408 4.84553V2.78721L25.3388 4.91535C25.3049 5.10101 25.1429 5.23621 24.9542 5.23621L19.2188 6.01757L23.7905 1.08104C23.8646 0.999898 23.9695 0.953613 24.0794 0.953613H25.5932Z" fill="#514B46"/>
</svg>
