<svg width="53" height="53" viewBox="0 0 53 53" fill="none" xmlns="http://www.w3.org/2000/svg">
<ellipse cx="27.9177" cy="48.5931" rx="24.3269" ry="4.23077" fill="#F3F4F6"/>
<path d="M36.3754 12.2204C36.3754 18.9696 30.9041 22.7824 24.155 22.7824C17.4058 22.7824 11.9346 18.9696 11.9346 12.2204C11.9346 5.47127 17.4058 0 24.155 0C30.9041 0 36.3754 5.47127 36.3754 12.2204Z" fill="#514B46"/>
<circle cx="14.3783" cy="12.4918" r="4.6166" fill="#FFE5CF"/>
<circle cx="35.018" cy="12.4918" r="4.6166" fill="#FFE5CF"/>
<path d="M18.1446 24.4404H30.1676C30.1676 24.4404 32.4523 33.2463 32.7974 37.4099C33.0222 40.1225 31.9925 42.6198 31.2475 44.0309C30.838 44.8066 30.0113 45.2297 29.1341 45.2297H19.1781C18.3009 45.2297 17.4742 44.8066 17.0647 44.0309C16.3197 42.6198 15.29 40.1225 15.5148 37.4099C15.8599 33.2463 18.1446 24.4404 18.1446 24.4404Z" fill="#16B77B"/>
<rect x="21.5625" y="18.6826" width="5.18387" height="8.23155" rx="2.59193" fill="#FFDDC0"/>
<circle cx="24.1546" cy="12.2205" r="10.8626" fill="#FFE8D5"/>
<rect x="21.8467" y="8.31812" width="4.56157" height="5.36656" rx="2.28079" fill="#FF8D87"/>
<circle cx="30.568" cy="10.5053" r="2.25944" fill="#FFDED5"/>
<circle cx="17.9958" cy="10.5053" r="2.25944" fill="#FFDED5"/>
<path d="M19.0938 7.04443C19.0938 7.04443 19.7386 7.73003 20.8143 7.57885C21.8899 7.42767 22.3208 6.5909 22.3208 6.5909" stroke="#33353B" stroke-width="0.814695" stroke-linecap="round"/>
<path d="M25.9902 6.59082C25.9902 6.59082 26.4211 7.42759 27.4968 7.57877C28.5725 7.72995 29.2173 7.04435 29.2173 7.04435" stroke="#33353B" stroke-width="0.814695" stroke-linecap="round"/>
<path d="M13.5898 47.4941C10.9955 47.9601 8.61133 45.9661 8.61133 43.3303C8.61133 41.198 10.1983 39.3989 12.3139 39.1329L21.8418 37.9347C23.0942 37.7772 24.3615 37.7772 25.614 37.9347L35.1418 39.1329C37.2575 39.3989 38.8444 41.198 38.8444 43.3303C38.8444 45.9661 36.4602 47.9601 33.866 47.4941L25.7025 46.0275C24.3965 45.7929 23.0592 45.7929 21.7533 46.0275L13.5898 47.4941Z" fill="#1F94F2"/>
<rect x="2.16797" y="40.6096" width="8.78992" height="12.4017" rx="4.39496" transform="rotate(-36.9762 2.16797 40.6096)" fill="#FFE8D5"/>
<rect width="8.78992" height="12.4111" rx="4.39496" transform="matrix(-0.798885 -0.601484 -0.601484 0.798885 45.2314 40.6021)" fill="#FFE8D5"/>
<ellipse cx="24.155" cy="38.7682" rx="8.64812" ry="1.60974" fill="#16B77B"/>
<rect x="28.7725" y="23.7424" width="5.18387" height="18.9082" rx="2.59193" transform="rotate(19.4017 28.7725 23.7424)" fill="#FFE8D5"/>
<rect width="5.18387" height="19.1" rx="2.59193" transform="matrix(-0.943213 0.33219 0.33219 0.943213 19.5674 23.7424)" fill="#FFE8D5"/>
<path d="M27.9114 26.1872C28.387 24.837 29.867 24.1279 31.2172 24.6034C32.5674 25.079 33.2765 26.559 32.8009 27.9092L31.8118 30.7178L26.9223 28.9958L27.9114 26.1872Z" fill="#16B77B"/>
<path d="M20.4284 26.1872C19.9529 24.837 18.4728 24.1279 17.1226 24.6034C15.7724 25.079 15.0634 26.559 15.5389 27.9092L16.5281 30.7178L21.4176 28.9958L20.4284 26.1872Z" fill="#16B77B"/>
<path d="M24.1357 1.16933C24.5746 1.02747 25.5778 1.05386 27.5742 1.47304C31.6993 2.33922 33.5028 5.65313 33.8887 7.20155L26.8302 5.8391C26.1142 5.7009 25.4891 5.32116 25.3907 4.59861C25.3383 4.21334 25.3101 3.70468 25.332 3.0453C25.3915 1.25719 24.5599 1.55561 24.1367 1.92812L24.1357 1.92714L24.1348 1.92812C23.7116 1.55561 22.88 1.25719 22.9395 3.0453C22.9614 3.70468 22.9332 4.21334 22.8808 4.59861C22.7824 5.32116 22.1573 5.7009 21.4413 5.8391L14.3828 7.20155C14.7687 5.65313 16.5722 2.33922 20.6973 1.47304C22.6937 1.05386 23.6969 1.02747 24.1357 1.16933Z" fill="#514B46"/>
</svg>
