<svg width="57" height="53" viewBox="0 0 57 53" fill="none" xmlns="http://www.w3.org/2000/svg">
<ellipse cx="32.1599" cy="48.6878" rx="24.3269" ry="4.23077" fill="#F3F4F6"/>
<path d="M36.3754 12.2204C36.3754 18.9696 30.9041 22.7824 24.155 22.7824C17.4058 22.7824 11.9346 18.9696 11.9346 12.2204C11.9346 5.47127 17.4058 0 24.155 0C30.9041 0 36.3754 5.47127 36.3754 12.2204Z" fill="#514B46"/>
<path d="M12.5896 28.136C10.4705 24.0518 13.9586 21.0089 15.9675 19.998C16.9913 18.7697 18.6781 17.2727 17.2348 21.1113C15.7915 24.9498 16.7614 27.3938 17.4268 28.136H14.663L14.1256 26.9075V28.136H12.5896Z" fill="#514B46"/>
<circle cx="14.3783" cy="12.4921" r="4.6166" fill="#FFE5CF"/>
<circle cx="35.018" cy="12.4921" r="4.6166" fill="#FFE5CF"/>
<path d="M18.1437 24.4409H30.1666C30.1666 24.4409 32.4513 33.2467 32.7964 37.4104C33.0212 40.123 31.9915 42.6202 31.2466 44.0314C30.837 44.8071 30.0104 45.2302 29.1331 45.2302H19.1771C18.2999 45.2302 17.4733 44.8071 17.0637 44.0314C16.3187 42.6202 15.289 40.123 15.5139 37.4104C15.8589 33.2467 18.1437 24.4409 18.1437 24.4409Z" fill="#1F94F2"/>
<rect x="21.5635" y="18.6826" width="5.18387" height="8.23155" rx="2.59193" fill="#FFDDC0"/>
<circle cx="24.1556" cy="12.22" r="10.8626" fill="#FFE8D5"/>
<rect x="21.8467" y="8.31787" width="4.56157" height="5.36656" rx="2.28079" fill="#FF8D87"/>
<circle cx="30.568" cy="10.5055" r="2.25944" fill="#FFDED5"/>
<circle cx="17.9948" cy="10.5053" r="2.25944" fill="#FFDED5"/>
<path d="M19.0938 7.04492C19.0938 7.04492 19.7386 7.73052 20.8143 7.57934C21.8899 7.42816 22.3208 6.59139 22.3208 6.59139" stroke="#33353B" stroke-width="0.814695" stroke-linecap="round"/>
<path d="M25.9902 6.59082C25.9902 6.59082 26.4211 7.42759 27.4968 7.57877C28.5725 7.72995 29.2173 7.04435 29.2173 7.04435" stroke="#33353B" stroke-width="0.814695" stroke-linecap="round"/>
<path d="M13.5888 47.4941C10.9946 47.9601 8.61035 45.9661 8.61035 43.3303C8.61035 41.198 10.1973 39.3989 12.313 39.1329L21.8408 37.9347C23.0933 37.7772 24.3605 37.7772 25.613 37.9347L35.1408 39.1329C37.2565 39.3989 38.8434 41.198 38.8434 43.3303C38.8434 45.9661 36.4592 47.9601 33.865 47.4941L25.7015 46.0275C24.3955 45.7929 23.0583 45.7929 21.7523 46.0275L13.5888 47.4941Z" fill="#7EECC4"/>
<rect x="2.16699" y="40.6094" width="8.78992" height="12.4017" rx="4.39496" transform="rotate(-36.9762 2.16699 40.6094)" fill="#FFE8D5"/>
<rect width="8.78992" height="12.4111" rx="4.39496" transform="matrix(-0.798885 -0.601484 -0.601484 0.798885 45.2324 40.6021)" fill="#FFE8D5"/>
<ellipse cx="24.155" cy="38.7679" rx="8.64812" ry="1.60974" fill="#1F94F2"/>
<rect x="28.7725" y="23.7427" width="5.18387" height="18.9082" rx="2.59193" transform="rotate(19.4017 28.7725 23.7427)" fill="#FFE8D5"/>
<rect width="5.18387" height="19.1" rx="2.59193" transform="matrix(-0.943213 0.33219 0.33219 0.943213 19.5664 23.7427)" fill="#FFE8D5"/>
<path d="M27.9114 26.1874C28.387 24.8372 29.867 24.1282 31.2172 24.6037C32.5674 25.0792 33.2765 26.5593 32.8009 27.9094L31.8118 30.7181L26.9223 28.9961L27.9114 26.1874Z" fill="#1F94F2"/>
<path d="M20.4274 26.1874C19.9519 24.8372 18.4719 24.1282 17.1217 24.6037C15.7715 25.0792 15.0624 26.5593 15.5379 27.9094L16.5271 30.7181L21.4166 28.9961L20.4274 26.1874Z" fill="#1F94F2"/>
<path d="M21.3618 0.953613C21.5355 0.953693 21.6785 1.06598 21.7307 1.21725C21.7835 1.06385 21.9288 0.953613 22.1 0.953613H26.2083C26.3744 0.953673 26.5158 1.0576 26.5723 1.20389C26.6281 1.05929 26.7683 0.953613 26.937 0.953613H28.4509C28.5607 0.953619 28.6653 0.999915 28.7393 1.08104L33.3115 6.01757L27.5757 5.23621C27.387 5.23615 27.2253 5.10096 27.1915 4.91535L26.599 2.83948V4.84553C26.5989 5.06118 26.4239 5.23613 26.2083 5.23621H22.1C21.8843 5.23621 21.7094 5.06123 21.7094 4.84553V2.78721L21.1073 4.91535C21.0734 5.10101 20.9115 5.23621 20.7227 5.23621L14.9873 6.01757L19.5591 1.08104C19.6331 0.999898 19.7381 0.953613 19.8479 0.953613H21.3618Z" fill="#514B46"/>
</svg>
