<svg width="50" height="55" viewBox="0 0 50 55" fill="none" xmlns="http://www.w3.org/2000/svg">
<ellipse cx="25.0193" cy="49.8821" rx="24.3269" ry="4.23077" fill="#F3F4F6"/>
<ellipse cx="24.154" cy="12.6711" rx="12.2204" ry="11.8977" fill="#514B46"/>
<path d="M18.2203 1.912C19.6678 -0.0906096 20.9128 0.821889 21.4065 1.59621C21.4366 1.64339 21.4223 1.7052 21.3762 1.73691L15.6621 5.6682C15.5596 5.73869 15.4341 5.6037 15.5113 5.50615C16.1176 4.73929 17.0986 3.46397 18.2203 1.912Z" fill="#514B46"/>
<path d="M28.5777 1.12377C26.1537 -0.85848 23.785 0.226235 22.9073 1.01422C22.8506 1.06512 22.87 1.15519 22.9406 1.18389L33.3633 5.42213C33.4588 5.46096 33.5461 5.35761 33.4884 5.27215C32.6171 3.98117 31.1085 2.79358 28.5777 1.12377Z" fill="#514B46"/>
<path d="M18.8715 24.2009C18.2882 23.5985 16.7627 22.165 15.7105 21.1873C15.6228 21.1058 15.7148 20.9636 15.8254 21.0093L22.0469 23.5746C22.0871 23.5912 22.1133 23.6301 22.1133 23.6736V24.9225C22.1133 24.9948 22.0433 25.0451 21.9794 25.0114C21.5564 24.7881 21.1186 24.1567 20.8832 23.7475C20.8443 23.6799 20.7608 23.6805 20.7486 23.7575C20.7169 23.9564 20.7428 24.2704 20.7752 24.51C20.7861 24.5911 20.7096 24.652 20.6395 24.6097C20.12 24.2964 19.2495 23.353 19.1114 23.3731C19.0869 23.3766 19.1018 23.4122 19.115 23.4332C19.2214 23.6017 19.1781 23.8763 19.136 24.1173C19.1181 24.2199 18.944 24.2757 18.8715 24.2009Z" fill="#514B46"/>
<path d="M29.4166 24.2009C29.9999 23.5985 31.5254 22.165 32.5776 21.1873C32.6653 21.1058 32.5733 20.9636 32.4626 21.0093L26.2412 23.5746C26.201 23.5912 26.1748 23.6301 26.1748 23.6736V24.9225C26.1748 24.9948 26.2447 25.0451 26.3087 25.0114C26.7316 24.7881 27.1694 24.1567 27.4049 23.7475C27.4438 23.6799 27.5272 23.6805 27.5395 23.7575C27.5712 23.9564 27.5453 24.2704 27.5129 24.51C27.502 24.5911 27.5785 24.652 27.6486 24.6097C28.168 24.2964 29.0386 23.353 29.1767 23.3731C29.2012 23.3766 29.1863 23.4122 29.1731 23.4332C29.0667 23.6017 29.11 23.8763 29.1521 24.1173C29.17 24.2199 29.3441 24.2757 29.4166 24.2009Z" fill="#514B46"/>
<circle cx="14.3783" cy="13.9777" r="4.6166" fill="#FFE5CF"/>
<circle cx="35.017" cy="13.9779" r="4.6166" fill="#FFE5CF"/>
<path d="M18.1427 25.9268H30.1656C30.1656 25.9268 32.4503 34.7326 32.7954 38.8962C33.0203 41.6088 31.9906 44.1061 31.2456 45.5172C30.836 46.2929 30.0094 46.716 29.1322 46.716H19.1761C18.2989 46.716 17.4723 46.2929 17.0627 45.5172C16.3177 44.1061 15.288 41.6088 15.5129 38.8962C15.858 34.7326 18.1427 25.9268 18.1427 25.9268Z" fill="#7FC3FF"/>
<rect x="21.5625" y="20.1687" width="5.18387" height="8.23155" rx="2.59193" fill="#FFDDC0"/>
<circle cx="24.1556" cy="13.7063" r="10.8626" fill="#FFE8D5"/>
<circle cx="30.568" cy="12.2594" r="2.25944" fill="#FFDED5"/>
<circle cx="17.9938" cy="12.2594" r="2.25944" fill="#FFDED5"/>
<path d="M19.0938 8.79834C19.0938 8.79834 19.7386 9.48394 20.8143 9.33276C21.8899 9.18158 22.3208 8.34481 22.3208 8.34481" stroke="#33353B" stroke-width="0.814695" stroke-linecap="round"/>
<path d="M25.9893 8.34497C25.9893 8.34497 26.4201 9.18175 27.4958 9.33292C28.5715 9.4841 29.2163 8.79851 29.2163 8.79851" stroke="#33353B" stroke-width="0.814695" stroke-linecap="round"/>
<path d="M22.6426 10.3755L25.2766 10.3755" stroke="#FF5656" stroke-width="0.54313" stroke-linecap="round"/>
<path d="M25.3123 9.61572C25.2421 9.97061 25.2303 10.7713 25.7449 11.1351" stroke="#FF5656" stroke-width="0.54313" stroke-linecap="round"/>
<path d="M13.5878 48.9797C10.9936 49.4457 8.60937 47.4516 8.60937 44.8159C8.60937 42.6836 10.1963 40.8845 12.312 40.6185L21.8398 39.4203C23.0923 39.2628 24.3596 39.2628 25.612 39.4203L35.1399 40.6185C37.2555 40.8845 38.8425 42.6836 38.8425 44.8159C38.8425 47.4516 36.4583 49.4457 33.864 48.9797L25.7005 47.5131C24.3946 47.2785 23.0573 47.2785 21.7513 47.5131L13.5878 48.9797Z" fill="#6B7280"/>
<rect x="2.16797" y="42.0957" width="8.78992" height="12.4017" rx="4.39496" transform="rotate(-36.9762 2.16797 42.0957)" fill="#FFE8D5"/>
<rect width="8.78992" height="12.4111" rx="4.39496" transform="matrix(-0.798885 -0.601484 -0.601484 0.798885 45.2314 42.0876)" fill="#FFE8D5"/>
<ellipse cx="24.155" cy="40.2543" rx="8.64812" ry="1.60974" fill="#7FC3FF"/>
<rect x="28.7715" y="25.2285" width="5.18387" height="18.9082" rx="2.59193" transform="rotate(19.4017 28.7715 25.2285)" fill="#FFE8D5"/>
<rect width="5.18387" height="19.1" rx="2.59193" transform="matrix(-0.943213 0.33219 0.33219 0.943213 19.5664 25.2285)" fill="#FFE8D5"/>
<path d="M27.9105 27.6733C28.386 26.3231 29.866 25.614 31.2162 26.0895C32.5664 26.5651 33.2755 28.0451 32.8 29.3953L31.8108 32.2039L26.9213 30.4819L27.9105 27.6733Z" fill="#7FC3FF"/>
<path d="M20.4274 27.6733C19.9519 26.3231 18.4719 25.614 17.1217 26.0895C15.7715 26.5651 15.0624 28.0451 15.5379 29.3953L16.5271 32.2039L21.4166 30.4819L20.4274 27.6733Z" fill="#7FC3FF"/>
<path d="M20.4766 3.50916C20.8356 2.95688 21.1039 2.94529 21.2557 3.05797C21.3196 3.10543 21.4238 3.11511 21.4475 3.03909C21.5457 2.72428 21.0635 2.5167 18.4956 3.50916C15.626 4.61823 14.4394 7.67407 14.1711 9.20711C14.1582 9.28133 14.2254 9.34293 14.2978 9.32216C15.7497 8.90569 17.195 7.30052 17.695 6.69399C17.7582 6.61741 17.8715 6.65712 17.852 6.75443C17.8058 6.98396 17.7003 7.23392 17.6003 7.43064C17.5557 7.51854 17.6367 7.61846 17.7261 7.57691C19.188 6.89761 19.9172 4.36982 20.4766 3.50916Z" fill="#514B46"/>
<path d="M22.6695 2.12425C22.2363 1.89795 22.0628 2.40055 22.0175 2.76353C22.0099 2.82435 21.9529 2.86808 21.8931 2.85479C20.227 2.48461 18.5164 1.7266 24.2744 1.46547C30.0543 1.20334 33.2866 6.47966 34.2422 9.29878C34.2665 9.37053 34.2033 9.43874 34.1292 9.42319C31.5071 8.87334 29.3222 7.13849 28.2555 6.03385C28.1779 5.9535 28.0303 6.0416 28.0677 6.14686L28.2192 6.57289C28.2434 6.64122 28.1861 6.71153 28.1139 6.70458C23.1832 6.22933 23.2655 2.43566 22.6695 2.12425Z" fill="#514B46"/>
</svg>
