<svg width="57" height="61" viewBox="0 0 57 61" fill="none" xmlns="http://www.w3.org/2000/svg">
<ellipse cx="26.9712" cy="54.6093" rx="26.9712" ry="6.34615" fill="#F3F4F6"/>
<circle cx="1.80178" cy="1.80178" r="1.80178" transform="matrix(-1 0 0 1 23.8262 19.4092)" fill="#8F7560"/>
<circle cx="1.80178" cy="1.80178" r="1.80178" transform="matrix(-1 0 0 1 25.8564 21.4385)" fill="#8F7560"/>
<circle cx="1.80178" cy="1.80178" r="1.80178" transform="matrix(-1 0 0 1 28.4258 22.7803)" fill="#8F7560"/>
<circle cx="1.80178" cy="1.80178" r="1.80178" transform="matrix(-1 0 0 1 30.6943 23.6748)" fill="#8F7560"/>
<circle cx="41.8926" cy="21.211" r="1.80178" fill="#8F7560"/>
<circle cx="39.8623" cy="23.2403" r="1.80178" fill="#8F7560"/>
<circle cx="37.293" cy="24.5821" r="1.80178" fill="#8F7560"/>
<circle cx="35.0244" cy="25.4766" r="1.80178" fill="#8F7560"/>
<circle cx="3.01856" cy="3.01856" r="3.01856" transform="matrix(-1 0 0 1 46.7666 8.18066)" fill="#8F7560"/>
<circle cx="20.3193" cy="11.1025" r="3.47656" fill="#8F7560"/>
<circle cx="2.77063" cy="2.77063" r="2.77063" transform="matrix(-1 0 0 1 44.4346 3.82764)" fill="#8F7560"/>
<circle cx="25.3989" cy="4.17727" r="1.93313" fill="#8F7560"/>
<circle cx="1.93313" cy="1.93313" r="1.93313" transform="matrix(-1 0 0 1 40.5166 2.24414)" fill="#8F7560"/>
<circle cx="2.9219" cy="2.9219" r="2.9219" transform="matrix(-1 0 0 1 37.5527 0)" fill="#8F7560"/>
<circle cx="2.91455" cy="2.91455" r="2.91455" transform="matrix(-1 0 0 1 32.2861 0.00732422)" fill="#8F7560"/>
<ellipse cx="32.2859" cy="15.1335" rx="12.2204" ry="11.8977" fill="#8F7560"/>
<circle cx="22.5102" cy="16.4401" r="4.6166" fill="#FFE5CF"/>
<circle cx="43.1498" cy="16.4398" r="4.6166" fill="#FFE5CF"/>
<path d="M26.2745 28.3887H38.2975C38.2975 28.3887 40.5822 37.1945 40.9273 41.3581C41.1521 44.0707 40.1224 46.568 39.3774 47.9791C38.9679 48.7549 38.1412 49.178 37.264 49.178H27.308C26.4307 49.178 25.6041 48.7549 25.1946 47.9791C24.4496 46.568 23.4199 44.0707 23.6447 41.3581C23.9898 37.1945 26.2745 28.3887 26.2745 28.3887Z" fill="#FF7F6B"/>
<rect x="29.6943" y="22.6311" width="5.18387" height="8.23155" rx="2.59193" fill="#FFDDC0"/>
<circle cx="32.2864" cy="16.1687" r="10.8626" fill="#FFE8D5"/>
<circle cx="38.6999" cy="14.7218" r="2.25944" fill="#FFDED5"/>
<circle cx="26.1256" cy="14.7218" r="2.25944" fill="#FFDED5"/>
<path d="M27.2256 11.2607C27.2256 11.2607 27.8704 11.9463 28.9461 11.7952C30.0218 11.644 30.4527 10.8072 30.4527 10.8072" stroke="#33353B" stroke-width="0.814695" stroke-linecap="round"/>
<path d="M34.1201 10.8074C34.1201 10.8074 34.551 11.6441 35.6267 11.7953C36.7024 11.9465 37.3472 11.2609 37.3472 11.2609" stroke="#33353B" stroke-width="0.814695" stroke-linecap="round"/>
<path d="M30.7744 12.8379L33.4085 12.8379" stroke="#FF5656" stroke-width="0.54313" stroke-linecap="round"/>
<path d="M33.4432 12.0781C33.373 12.433 33.3611 13.2337 33.8757 13.5975" stroke="#FF5656" stroke-width="0.54313" stroke-linecap="round"/>
<path d="M21.7197 51.4425C19.1254 51.9086 16.7412 49.9145 16.7412 47.2788C16.7412 45.1465 18.3282 43.3474 20.4438 43.0814L29.9717 41.8832C31.2241 41.7257 32.4914 41.7257 33.7439 41.8832L43.2717 43.0814C45.3874 43.3474 46.9743 45.1464 46.9743 47.2788C46.9743 49.9145 44.5901 51.9086 41.9959 51.4425L33.8323 49.976C32.5264 49.7414 31.1891 49.7414 29.8832 49.976L21.7197 51.4425Z" fill="#16B77B"/>
<rect x="10.2998" y="44.5576" width="8.78992" height="12.4017" rx="4.39496" transform="rotate(-36.9762 10.2998 44.5576)" fill="#FFE8D5"/>
<rect width="8.78992" height="12.4111" rx="4.39496" transform="matrix(-0.798885 -0.601484 -0.601484 0.798885 53.3633 44.55)" fill="#FFE8D5"/>
<ellipse cx="32.2868" cy="42.7162" rx="8.64812" ry="1.60974" fill="#FF7F6B"/>
<rect x="36.9033" y="27.6904" width="5.18387" height="18.9082" rx="2.59193" transform="rotate(19.4017 36.9033 27.6904)" fill="#FFE8D5"/>
<rect width="5.18387" height="19.1" rx="2.59193" transform="matrix(-0.943213 0.33219 0.33219 0.943213 27.6982 27.6904)" fill="#FFE8D5"/>
<path d="M36.0423 30.1352C36.5178 28.785 37.9979 28.0759 39.3481 28.5514C40.6983 29.027 41.4073 30.507 40.9318 31.8572L39.9426 34.6658L35.0531 32.9438L36.0423 30.1352Z" fill="#FF7F6B"/>
<path d="M28.5593 30.1352C28.0837 28.785 26.6037 28.0759 25.2535 28.5514C23.9033 29.027 23.1942 30.507 23.6698 31.8572L24.6589 34.6658L29.5484 32.9438L28.5593 30.1352Z" fill="#FF7F6B"/>
<circle cx="2.88391" cy="2.88391" r="2.88391" transform="matrix(-1 0 0 1 38.4229 2.42188)" fill="#8F7560"/>
<circle cx="2.88391" cy="2.88391" r="2.88391" transform="matrix(-1 0 0 1 33.6416 1.91602)" fill="#8F7560"/>
<circle cx="2.41711" cy="2.41711" r="2.41711" transform="matrix(-1 0 0 1 28.4258 4.39502)" fill="#8F7560"/>
<circle cx="2.41711" cy="2.41711" r="2.41711" transform="matrix(-1 0 0 1 41.7295 4.85498)" fill="#8F7560"/>
<circle cx="1.87219" cy="1.87219" r="1.87219" transform="matrix(-1 0 0 1 43.3027 8.62598)" fill="#8F7560"/>
<circle cx="2.41711" cy="2.41711" r="2.41711" transform="matrix(-1 0 0 1 25.5137 7.68359)" fill="#8F7560"/>
<circle cx="3.09082" cy="3.09082" r="3.09082" transform="matrix(-1 0 0 1 25.6006 3.50781)" fill="#8F7560"/>
</svg>
