<svg width="51" height="53" viewBox="0 0 51 53" fill="none" xmlns="http://www.w3.org/2000/svg">
<ellipse cx="26.0633" cy="48.118" rx="24.3269" ry="4.23077" fill="#F3F4F6"/>
<circle cx="24.155" cy="12.2204" r="12.2204" fill="#514B46"/>
<rect x="12.4785" y="11.4058" width="11.6773" height="17.2413" rx="5.83864" fill="#514B46"/>
<rect x="24.1553" y="11.4058" width="11.6773" height="17.2413" rx="5.83864" fill="#514B46"/>
<circle cx="14.3783" cy="12.4921" r="4.6166" fill="#FFE5CF"/>
<circle cx="35.018" cy="12.4921" r="4.6166" fill="#FFE5CF"/>
<path d="M18.1427 24.4409H30.1656C30.1656 24.4409 32.4503 33.2467 32.7954 37.4104C33.0203 40.123 31.9906 42.6202 31.2456 44.0314C30.836 44.8071 30.0094 45.2302 29.1322 45.2302H19.1761C18.2989 45.2302 17.4723 44.8071 17.0627 44.0314C16.3177 42.6202 15.288 40.123 15.5129 37.4104C15.858 33.2467 18.1427 24.4409 18.1427 24.4409Z" fill="#FFBB00"/>
<rect x="21.5635" y="18.6829" width="5.18387" height="8.23155" rx="2.59193" fill="#FFDDC0"/>
<circle cx="24.1546" cy="12.2205" r="10.8626" fill="#FFE8D5"/>
<circle cx="30.568" cy="10.505" r="2.25944" fill="#FFDED5"/>
<circle cx="17.9938" cy="10.505" r="2.25944" fill="#FFDED5"/>
<path d="M19.0928 7.04419C19.0928 7.04419 19.7376 7.72979 20.8133 7.57861C21.889 7.42743 22.3198 6.59066 22.3198 6.59066" stroke="#33353B" stroke-width="0.814695" stroke-linecap="round"/>
<path d="M25.9893 6.59058C25.9893 6.59058 26.4201 7.42735 27.4958 7.57853C28.5715 7.72971 29.2163 7.04411 29.2163 7.04411" stroke="#33353B" stroke-width="0.814695" stroke-linecap="round"/>
<path d="M22.3159 1.42035C25.1467 0.685956 31.5154 1.50257 34.146 7.9578C31.6577 7.22814 26.0111 5.07782 22.904 2.10562C22.6486 1.86128 22.2284 1.89595 22.0148 2.17759C19.7961 5.10303 15.9545 7.1545 14.1816 7.87815C16.0871 2.43366 20.2597 1.32874 22.3159 1.42035Z" fill="#514B46"/>
<path d="M13.5878 47.4938C10.9936 47.9599 8.60937 45.9658 8.60937 43.33C8.60937 41.1977 10.1963 39.3987 12.312 39.1327L21.8398 37.9345C23.0923 37.777 24.3596 37.777 25.612 37.9345L35.1399 39.1327C37.2555 39.3987 38.8425 41.1977 38.8425 43.33C38.8425 45.9658 36.4583 47.9599 33.864 47.4938L25.7005 46.0273C24.3946 45.7927 23.0573 45.7927 21.7513 46.0273L13.5878 47.4938Z" fill="#ADD9FF"/>
<rect x="2.16797" y="40.6099" width="8.78992" height="12.4017" rx="4.39496" transform="rotate(-36.9762 2.16797 40.6099)" fill="#FFE8D5"/>
<rect width="8.78992" height="12.4111" rx="4.39496" transform="matrix(-0.798885 -0.601484 -0.601484 0.798885 45.2314 40.6021)" fill="#FFE8D5"/>
<ellipse cx="24.155" cy="38.7679" rx="8.64812" ry="1.60974" fill="#FFBB00"/>
<rect x="28.7725" y="23.7427" width="5.18387" height="18.9082" rx="2.59193" transform="rotate(19.4017 28.7725 23.7427)" fill="#FFE8D5"/>
<rect width="5.18387" height="19.1" rx="2.59193" transform="matrix(-0.943213 0.33219 0.33219 0.943213 19.5654 23.7427)" fill="#FFE8D5"/>
<path d="M27.9114 26.1874C28.387 24.8372 29.867 24.1282 31.2172 24.6037C32.5674 25.0792 33.2765 26.5593 32.8009 27.9094L31.8118 30.7181L26.9223 28.9961L27.9114 26.1874Z" fill="#FFBB00"/>
<path d="M20.4264 26.1874C19.9509 24.8372 18.4709 24.1282 17.1207 24.6037C15.7705 25.0792 15.0614 26.5593 15.537 27.9094L16.5261 30.7181L21.4156 28.9961L20.4264 26.1874Z" fill="#FFBB00"/>
<path d="M22.6494 9.00952C23.038 9.03637 23.8649 8.90418 24.0642 8.16064C24.1335 8.4436 24.4719 9.00952 25.2709 9.00952" stroke="#FF5656" stroke-width="0.54313" stroke-linecap="round" stroke-linejoin="round"/>
</svg>
