<svg width="59" height="56" viewBox="0 0 59 56" fill="none" xmlns="http://www.w3.org/2000/svg">
<ellipse cx="26.9712" cy="48.8755" rx="26.9712" ry="6.34615" fill="#F3F4F6"/>
<ellipse cx="34.3744" cy="11.7701" rx="12.8744" ry="11.5416" fill="#514B46"/>
<rect x="22.6973" width="11.6773" height="17.2413" rx="5.83864" fill="#514B46"/>
<rect x="34.375" width="11.6773" height="17.2413" rx="5.83864" fill="#514B46"/>
<circle cx="24.598" cy="12.7211" r="4.6166" fill="#FFE5CF"/>
<circle cx="45.2367" cy="12.7211" r="4.6166" fill="#FFE5CF"/>
<path d="M28.3624 24.6697H40.3853C40.3853 24.6697 42.6701 33.4755 43.0152 37.6391C43.24 40.3517 42.2103 42.849 41.4653 44.2601C41.0558 45.0359 40.2291 45.459 39.3519 45.459H29.3959C28.5186 45.459 27.692 45.0359 27.2825 44.2601C26.5375 42.849 25.5078 40.3517 25.7326 37.6391C26.0777 33.4755 28.3624 24.6697 28.3624 24.6697Z" fill="#FFAB9E"/>
<rect x="31.7822" y="18.9116" width="5.18387" height="8.23155" rx="2.59193" fill="#FFDDC0"/>
<circle cx="34.3743" cy="12.4495" r="10.8626" fill="#FFE8D5"/>
<circle cx="40.7878" cy="10.734" r="2.25944" fill="#FFDED5"/>
<circle cx="28.2145" cy="10.734" r="2.25944" fill="#FFDED5"/>
<path d="M29.3135 7.27319C29.3135 7.27319 29.9583 7.95879 31.034 7.80761C32.1097 7.65643 32.5405 6.81966 32.5405 6.81966" stroke="#33353B" stroke-width="0.814695" stroke-linecap="round"/>
<path d="M36.209 6.81982C36.209 6.81982 36.6399 7.6566 37.7155 7.80778C38.7912 7.95895 39.436 7.27336 39.436 7.27336" stroke="#33353B" stroke-width="0.814695" stroke-linecap="round"/>
<path d="M32.5366 1.64935C35.3674 0.91496 41.7361 1.73157 44.3667 8.1868C41.8784 7.45715 36.2318 5.30683 33.1247 2.33463C32.8693 2.09029 32.4491 2.12495 32.2355 2.40659C30.0168 5.33203 26.1752 7.3835 24.4023 8.10716C26.3078 2.66267 30.4804 1.55774 32.5366 1.64935Z" fill="#514B46"/>
<path d="M23.8076 47.7228C21.2133 48.1889 18.8291 46.1948 18.8291 43.559C18.8291 41.4267 20.4161 39.6277 22.5317 39.3617L32.0595 38.1635C33.312 38.006 34.5793 38.006 35.8317 38.1635L45.3596 39.3617C47.4752 39.6277 49.0622 41.4267 49.0622 43.559C49.0622 46.1948 46.678 48.1889 44.0837 47.7228L35.9202 46.2563C34.6143 46.0217 33.277 46.0217 31.9711 46.2563L23.8076 47.7228Z" fill="#B82F1A"/>
<rect x="12.3867" y="40.8384" width="8.78992" height="12.4017" rx="4.39496" transform="rotate(-36.9762 12.3867 40.8384)" fill="#FFE8D5"/>
<rect width="8.78992" height="12.4111" rx="4.39496" transform="matrix(-0.798885 -0.601484 -0.601484 0.798885 55.4512 40.8311)" fill="#FFE8D5"/>
<ellipse cx="34.3737" cy="38.9969" rx="8.64812" ry="1.60974" fill="#FFAB9E"/>
<rect x="38.9912" y="23.9717" width="5.18387" height="18.9082" rx="2.59193" transform="rotate(19.4017 38.9912 23.9717)" fill="#FFE8D5"/>
<rect width="5.18387" height="19.1" rx="2.59193" transform="matrix(-0.943213 0.33219 0.33219 0.943213 29.7852 23.9714)" fill="#FFE8D5"/>
<path d="M38.1302 26.4164C38.6057 25.0662 40.0858 24.3572 41.436 24.8327C42.7861 25.3082 43.4952 26.7883 43.0197 28.1385L42.0305 30.9471L37.141 29.2251L38.1302 26.4164Z" fill="#FFAB9E"/>
<path d="M30.6462 26.4162C30.1706 25.066 28.6906 24.3569 27.3404 24.8324C25.9902 25.308 25.2812 26.788 25.7567 28.1382L26.7459 30.9468L31.6353 29.2248L30.6462 26.4162Z" fill="#FFAB9E"/>
<path d="M32.8682 9.23804C33.2567 9.26488 34.0837 9.13269 34.2829 8.38916C34.3523 8.67212 34.6907 9.23804 35.4896 9.23804" stroke="#FF5656" stroke-width="0.54313" stroke-linecap="round" stroke-linejoin="round"/>
</svg>
