<svg width="57" height="55" viewBox="0 0 57 55" fill="none" xmlns="http://www.w3.org/2000/svg">
<ellipse cx="24.3269" cy="50.5179" rx="24.3269" ry="4.23077" fill="#F3F4F6"/>
<ellipse cx="32.4284" cy="13.9968" rx="12.2204" ry="11.8977" fill="#514B46"/>
<path d="M26.6943 1.73287C26.0877 2.94552 24.7632 4.5036 24.1768 5.13106L36.9139 3.02857C32.171 0.486018 31.9999 -0.00293487 31.6087 0.510466C31.2176 1.02387 31.0709 1.41493 30.533 0.974875C29.9952 0.534817 29.5796 -0.345251 29.2373 0.143702C28.895 0.632655 28.6017 2.02618 28.0883 1.19496C27.5749 0.363737 27.4526 0.217051 26.6943 1.73287Z" fill="#514B46"/>
<circle cx="22.6527" cy="15.3036" r="4.6166" fill="#FFE5CF"/>
<circle cx="43.2904" cy="15.3036" r="4.6166" fill="#FFE5CF"/>
<path d="M26.4171 27.2522H38.44C38.44 27.2522 40.7247 36.058 41.0698 40.2216C41.2947 42.9343 40.265 45.4315 39.52 46.8426C39.1104 47.6184 38.2838 48.0415 37.4066 48.0415H27.4505C26.5733 48.0415 25.7467 47.6184 25.3371 46.8426C24.5922 45.4315 23.5625 42.9343 23.7873 40.2216C24.1324 36.058 26.4171 27.2522 26.4171 27.2522Z" fill="#25DC96"/>
<rect x="29.8369" y="21.4941" width="5.18387" height="8.23155" rx="2.59193" fill="#FFDDC0"/>
<circle cx="32.429" cy="15.032" r="10.8626" fill="#FFE8D5"/>
<circle cx="38.8415" cy="13.5851" r="2.25944" fill="#FFDED5"/>
<circle cx="26.2682" cy="13.5851" r="2.25944" fill="#FFDED5"/>
<path d="M27.3672 10.124C27.3672 10.124 28.012 10.8096 29.0877 10.6584C30.1634 10.5073 30.5943 9.67049 30.5943 9.67049" stroke="#33353B" stroke-width="0.814695" stroke-linecap="round"/>
<path d="M34.2627 9.67065C34.2627 9.67065 34.6936 10.5074 35.7693 10.6586C36.8449 10.8098 37.4898 10.1242 37.4898 10.1242" stroke="#33353B" stroke-width="0.814695" stroke-linecap="round"/>
<path d="M35.1211 6.81641C35.235 6.81649 36.6655 6.81641 36.9375 6.81641" stroke="#514B46" stroke-width="0.814695" stroke-linecap="round"/>
<path d="M27.9287 6.81641C28.0426 6.81649 29.4732 6.81641 29.7451 6.81641" stroke="#514B46" stroke-width="0.814695" stroke-linecap="round"/>
<path d="M30.916 11.7012L33.5501 11.7012" stroke="#FF5656" stroke-width="0.54313" stroke-linecap="round"/>
<path d="M33.5858 10.9414C33.5155 11.2963 33.5037 12.097 34.0183 12.4608" stroke="#FF5656" stroke-width="0.54313" stroke-linecap="round"/>
<path d="M21.8613 50.3053C19.267 50.7714 16.8828 48.7773 16.8828 46.1416C16.8828 44.0092 18.4698 42.2102 20.5854 41.9442L30.1133 40.746C31.3657 40.5885 32.633 40.5885 33.8855 40.746L43.4133 41.9442C45.529 42.2102 47.1159 44.0092 47.1159 46.1416C47.1159 48.7773 44.7317 50.7714 42.1375 50.3053L33.9739 48.8388C32.668 48.6042 31.3307 48.6042 30.0248 48.8388L21.8613 50.3053Z" fill="#ADD9FF"/>
<rect x="10.4414" y="43.4209" width="8.78992" height="12.4017" rx="4.39496" transform="rotate(-36.9762 10.4414 43.4209)" fill="#FFE8D5"/>
<rect width="8.78992" height="12.4111" rx="4.39496" transform="matrix(-0.798885 -0.601484 -0.601484 0.798885 53.5059 43.4136)" fill="#FFE8D5"/>
<ellipse cx="32.4274" cy="41.5795" rx="8.64812" ry="1.60974" fill="#25DC96"/>
<rect x="37.0449" y="26.5537" width="5.18387" height="18.9082" rx="2.59193" transform="rotate(19.4017 37.0449 26.5537)" fill="#FFE8D5"/>
<rect width="5.18387" height="19.1" rx="2.59193" transform="matrix(-0.943213 0.33219 0.33219 0.943213 27.8398 26.554)" fill="#FFE8D5"/>
<path d="M36.1839 28.9985C36.6594 27.6483 38.1395 26.9392 39.4897 27.4147C40.8399 27.8902 41.5489 29.3703 41.0734 30.7205L40.0842 33.5291L35.1947 31.8071L36.1839 28.9985Z" fill="#25DC96"/>
<path d="M28.7009 28.9987C28.2253 27.6485 26.7453 26.9394 25.3951 27.415C24.0449 27.8905 23.3358 29.3705 23.8114 30.7207L24.8005 33.5294L29.69 31.8073L28.7009 28.9987Z" fill="#25DC96"/>
</svg>
