<svg width="375" height="180" viewBox="0 0 375 180" fill="none" xmlns="http://www.w3.org/2000/svg">
<ellipse cx="143.108" cy="133.535" rx="48.5159" ry="8.43754" fill="#F3F4F6"/>
<ellipse cx="230.698" cy="133.535" rx="48.5159" ry="8.43754" fill="#F3F4F6"/>
<ellipse cx="143.368" cy="61.9813" rx="24.4706" ry="23.8243" fill="#514B46"/>
<path d="M131.486 40.4361C134.385 36.426 136.878 38.2532 137.867 39.8037C137.927 39.8982 137.898 40.022 137.806 40.0855L126.364 47.9576C126.159 48.0988 125.907 47.8285 126.062 47.6331C127.276 46.0975 129.24 43.5438 131.486 40.4361Z" fill="#514B46"/>
<path d="M152.225 38.8584C147.371 34.8891 142.628 37.0612 140.87 38.6391C140.757 38.741 140.796 38.9213 140.937 38.9788L161.808 47.4656C161.999 47.5434 162.174 47.3364 162.058 47.1653C160.314 44.5802 157.293 42.2021 152.225 38.8584Z" fill="#514B46"/>
<path d="M132.789 85.0685C131.621 83.8622 128.566 80.9919 126.459 79.0341C126.284 78.8709 126.468 78.5862 126.689 78.6775L139.147 83.8145C139.228 83.8477 139.28 83.9256 139.28 84.0126V86.5135C139.28 86.6584 139.14 86.7591 139.012 86.6915C138.165 86.2444 137.289 84.9802 136.817 84.1606C136.739 84.0252 136.572 84.0265 136.548 84.1808C136.484 84.579 136.536 85.2078 136.601 85.6875C136.623 85.85 136.47 85.9719 136.329 85.8872C135.289 85.2598 133.546 83.3707 133.269 83.4109C133.22 83.418 133.25 83.4893 133.277 83.5313C133.49 83.8687 133.403 84.4186 133.319 84.9012C133.283 85.1066 132.934 85.2183 132.789 85.0685Z" fill="#514B46"/>
<path d="M153.904 85.0685C155.072 83.8622 158.127 80.9919 160.234 79.0341C160.41 78.8709 160.226 78.5862 160.004 78.6775L147.546 83.8145C147.466 83.8477 147.413 83.9256 147.413 84.0126V86.5135C147.413 86.6584 147.553 86.7591 147.681 86.6915C148.528 86.2444 149.405 84.9802 149.876 84.1606C149.954 84.0252 150.121 84.0265 150.146 84.1808C150.209 84.579 150.157 85.2078 150.093 85.6875C150.071 85.85 150.224 85.9719 150.364 85.8872C151.404 85.2598 153.148 83.3707 153.424 83.4109C153.473 83.418 153.443 83.4893 153.417 83.5313C153.204 83.8687 153.291 84.4186 153.375 84.9012C153.411 85.1066 153.759 85.2183 153.904 85.0685Z" fill="#514B46"/>
<circle cx="123.791" cy="64.5977" r="9.24444" fill="#FFE5CF"/>
<circle cx="165.119" cy="64.5977" r="9.24444" fill="#FFE5CF"/>
<path d="M131.331 88.5244H155.406C155.406 88.5244 159.981 106.157 160.672 114.495C161.122 119.927 159.06 124.927 157.569 127.753C156.748 129.306 155.093 130.154 153.337 130.154H133.4C131.644 130.154 129.988 129.306 129.168 127.753C127.677 124.927 125.615 119.927 126.065 114.495C126.756 106.157 131.331 88.5244 131.331 88.5244Z" fill="#25DC96"/>
<rect x="138.179" y="76.9944" width="10.3804" height="16.4831" rx="5.19018" fill="#FFDDC0"/>
<circle cx="143.369" cy="64.0541" r="21.7516" fill="#FFE8D5"/>
<circle cx="156.211" cy="61.1569" r="4.52438" fill="#FFDED5"/>
<circle cx="131.033" cy="61.1569" r="4.52438" fill="#FFDED5"/>
<path d="M133.233 54.2263C133.233 54.2263 134.525 55.5992 136.679 55.2965C138.833 54.9937 139.695 53.3181 139.695 53.3181" stroke="#33353B" stroke-width="1.63137" stroke-linecap="round"/>
<path d="M147.042 53.3184C147.042 53.3184 147.905 54.9939 150.059 55.2967C152.213 55.5994 153.504 54.2265 153.504 54.2265" stroke="#33353B" stroke-width="1.63137" stroke-linecap="round"/>
<path d="M140.341 57.384L145.615 57.384" stroke="#FF5656" stroke-width="1.08758" stroke-linecap="round"/>
<path d="M145.686 55.8628C145.546 56.5734 145.522 58.1768 146.552 58.9052" stroke="#FF5656" stroke-width="1.08758" stroke-linecap="round"/>
<path d="M122.21 134.687C117.015 135.62 112.241 131.627 112.241 126.349C112.241 122.079 115.419 118.477 119.655 117.944L138.734 115.545C141.242 115.23 143.78 115.23 146.288 115.545L165.367 117.944C169.603 118.477 172.781 122.079 172.781 126.349C172.781 131.627 168.007 135.62 162.812 134.687L146.465 131.75C143.85 131.28 141.172 131.28 138.557 131.75L122.21 134.687Z" fill="#ADD9FF"/>
<rect x="99.3408" y="120.901" width="17.6012" height="24.8336" rx="8.80061" transform="rotate(-36.9762 99.3408 120.901)" fill="#FFE8D5"/>
<rect width="17.6012" height="24.8523" rx="8.80061" transform="matrix(-0.798885 -0.601484 -0.601484 0.798885 185.574 120.886)" fill="#FFE8D5"/>
<ellipse cx="143.368" cy="117.214" rx="17.3173" ry="3.2234" fill="#25DC96"/>
<rect x="152.613" y="87.1262" width="10.3804" height="37.8623" rx="5.19018" transform="rotate(19.4017 152.613 87.1262)" fill="#FFE8D5"/>
<rect width="10.3804" height="38.2466" rx="5.19018" transform="matrix(-0.943213 0.33219 0.33219 0.943213 134.181 87.1262)" fill="#FFE8D5"/>
<path d="M150.889 92.0217C151.841 89.318 154.805 87.8981 157.509 88.8503C160.212 89.8026 161.632 92.7662 160.68 95.4699L158.699 101.094L148.908 97.6458L150.889 92.0217Z" fill="#25DC96"/>
<path d="M135.905 92.0217C134.953 89.318 131.989 87.8981 129.285 88.8503C126.582 89.8026 125.162 92.7662 126.114 95.4699L128.095 101.094L137.886 97.6458L135.905 92.0217Z" fill="#25DC96"/>
<path d="M136.002 43.6351C136.721 42.5292 137.258 42.506 137.562 42.7316C137.69 42.8266 137.898 42.846 137.946 42.6938C138.143 42.0634 137.177 41.6477 132.035 43.6351C126.289 45.8559 123.913 51.975 123.376 55.0448C123.35 55.1935 123.484 55.3168 123.629 55.2752C126.537 54.4413 129.431 51.227 130.432 50.0125C130.558 49.8592 130.785 49.9387 130.746 50.1335C130.654 50.5931 130.442 51.0937 130.242 51.4876C130.153 51.6636 130.315 51.8637 130.494 51.7805C133.421 50.4202 134.882 45.3585 136.002 43.6351Z" fill="#514B46"/>
<path d="M143.027 41.0063C142.238 40.5788 141.945 41.5941 141.884 42.2509C141.879 42.3123 141.821 42.3561 141.761 42.3425C138.842 41.6823 135.717 40.2938 145.814 39.8185C155.938 39.3419 161.562 49.0207 163.169 54.0703C163.192 54.1424 163.128 54.2085 163.054 54.1931C158.196 53.1797 154.186 49.7173 152.444 47.7412C152.37 47.6571 152.225 47.7407 152.262 47.8467L152.706 49.1453C152.73 49.2136 152.672 49.283 152.6 49.2764C143.918 48.4701 144.067 41.5704 143.027 41.0063Z" fill="#514B46"/>
<path d="M212.312 51.0307C214.616 44.9497 220.441 40.9275 226.943 40.9275H236.555C243.058 40.9275 248.883 44.9497 251.187 51.0308L258.992 71.6336C260.931 76.7519 257.149 82.2281 251.676 82.2281H211.823C206.349 82.2281 202.568 76.7519 204.507 71.6335L212.312 51.0307Z" fill="#514B46"/>
<path d="M256.219 61.0787C256.219 74.5935 245.264 82.2284 231.749 82.2284C218.234 82.2284 207.278 74.5935 207.278 61.0787C207.278 47.564 218.234 36.6082 231.749 36.6082C245.264 36.6082 256.219 47.564 256.219 61.0787Z" fill="#514B46"/>
<circle cx="212.172" cy="61.6226" r="9.24444" fill="#FFE5CF"/>
<circle cx="253.5" cy="61.6226" r="9.24444" fill="#FFE5CF"/>
<path d="M219.712 85.5496H243.787C243.787 85.5496 248.362 103.183 249.053 111.52C249.503 116.952 247.441 121.952 245.949 124.778C245.129 126.332 243.474 127.179 241.717 127.179H221.781C220.025 127.179 218.369 126.332 217.549 124.778C216.057 121.952 213.996 116.952 214.446 111.52C215.137 103.183 219.712 85.5496 219.712 85.5496Z" fill="#7FC3FF"/>
<rect x="226.559" y="74.0193" width="10.3804" height="16.4831" rx="5.19018" fill="#FFDDC0"/>
<circle cx="231.749" cy="61.079" r="21.7516" fill="#FFE8D5"/>
<rect x="227.126" y="53.2649" width="9.13425" height="10.7462" rx="4.56713" fill="#FF8D87"/>
<circle cx="244.591" cy="57.6442" r="4.52438" fill="#FFDED5"/>
<circle cx="219.414" cy="57.6445" r="4.52438" fill="#FFDED5"/>
<path d="M221.613 50.7141C221.613 50.7141 222.904 52.087 225.058 51.7842C227.212 51.4815 228.075 49.8059 228.075 49.8059" stroke="#33353B" stroke-width="1.63137" stroke-linecap="round"/>
<path d="M235.423 49.8059C235.423 49.8059 236.286 51.4815 238.44 51.7842C240.594 52.0869 241.885 50.7141 241.885 50.7141" stroke="#33353B" stroke-width="1.63137" stroke-linecap="round"/>
<path d="M210.591 131.712C205.396 132.645 200.622 128.653 200.622 123.375C200.622 119.105 203.8 115.502 208.036 114.97L227.115 112.57C229.623 112.255 232.161 112.255 234.669 112.57L253.748 114.97C257.984 115.502 261.162 119.105 261.162 123.375C261.162 128.653 256.388 132.645 251.193 131.712L234.846 128.776C232.231 128.306 229.553 128.306 226.938 128.776L210.591 131.712Z" fill="#1F94F2"/>
<rect x="187.721" y="117.927" width="17.6012" height="24.8336" rx="8.80061" transform="rotate(-36.9762 187.721 117.927)" fill="#FFE8D5"/>
<rect width="17.6012" height="24.8523" rx="8.80061" transform="matrix(-0.798885 -0.601484 -0.601484 0.798885 273.954 117.911)" fill="#FFE8D5"/>
<ellipse cx="231.749" cy="114.239" rx="17.3173" ry="3.2234" fill="#7FC3FF"/>
<rect x="240.994" y="84.1511" width="10.3804" height="37.8623" rx="5.19018" transform="rotate(19.4017 240.994 84.1511)" fill="#FFE8D5"/>
<rect width="10.3804" height="38.2466" rx="5.19018" transform="matrix(-0.943213 0.33219 0.33219 0.943213 222.562 84.1511)" fill="#FFE8D5"/>
<path d="M239.27 89.0466C240.222 86.3429 243.186 84.923 245.89 85.8752C248.593 86.8275 250.013 89.7911 249.061 92.4948L247.08 98.1189L237.289 94.6707L239.27 89.0466Z" fill="#7FC3FF"/>
<path d="M224.286 89.0466C223.333 86.3429 220.37 84.923 217.666 85.8752C214.962 86.8275 213.543 89.7911 214.495 92.4948L216.476 98.1189L226.266 94.6707L224.286 89.0466Z" fill="#7FC3FF"/>
<path d="M226.157 38.5178C226.505 38.518 226.791 38.7428 226.896 39.0457C227.001 38.7386 227.292 38.5178 227.635 38.5178H235.862C236.195 38.5179 236.478 38.7261 236.591 39.019C236.703 38.7294 236.983 38.5178 237.321 38.5178H240.352C240.572 38.5178 240.782 38.6105 240.93 38.773L250.086 48.6581L238.6 47.0934C238.222 47.0933 237.898 46.8226 237.831 46.4509L236.644 42.2942V46.3111C236.644 46.743 236.294 47.0933 235.862 47.0934H227.635C227.203 47.0934 226.853 46.7431 226.853 46.3111V42.1895L225.648 46.4509C225.58 46.8227 225.255 47.0934 224.877 47.0934L213.393 48.6581L222.547 38.773C222.696 38.6105 222.906 38.5178 223.126 38.5178H226.157Z" fill="#514B46"/>
</svg>
