<svg width="375" height="180" viewBox="0 0 375 180" fill="none" xmlns="http://www.w3.org/2000/svg">
<ellipse cx="176.942" cy="75.9368" rx="24.3269" ry="4.23077" fill="#F3F4F6"/>
<ellipse cx="101.488" cy="68.0765" rx="24.3269" ry="4.23077" fill="#F3F4F6"/>
<ellipse cx="234.033" cy="74.6873" rx="24.3269" ry="4.23077" fill="#F3F4F6"/>
<ellipse cx="274.96" cy="145.475" rx="24.3269" ry="4.23077" fill="#F3F4F6"/>
<ellipse cx="191.047" cy="151.394" rx="24.3269" ry="4.23077" fill="#F3F4F6"/>
<ellipse cx="135.692" cy="84.3987" rx="24.3269" ry="4.23077" fill="#F3F4F6"/>
<path d="M169.834 34.28C170.984 31.2432 173.893 29.2345 177.141 29.2345H181.941C185.188 29.2345 188.097 31.2432 189.248 34.28L193.145 44.5689C194.114 47.1249 192.225 49.8597 189.492 49.8597H169.589C166.856 49.8597 164.968 47.1249 165.936 44.5689L169.834 34.28Z" fill="#764747"/>
<path d="M191.76 39.2977C191.76 46.0468 186.289 49.8597 179.54 49.8597C172.791 49.8597 167.319 46.0468 167.319 39.2977C167.319 32.5485 172.791 27.0773 179.54 27.0773C186.289 27.0773 191.76 32.5485 191.76 39.2977Z" fill="#764747"/>
<circle cx="169.764" cy="39.5696" r="4.6166" fill="#FFE5CF"/>
<circle cx="190.403" cy="39.5699" r="4.6166" fill="#FFE5CF"/>
<path d="M173.528 51.5182H185.551C185.551 51.5182 187.836 60.324 188.181 64.4876C188.406 67.2002 187.376 69.6975 186.631 71.1086C186.222 71.8844 185.395 72.3075 184.518 72.3075H174.562C173.685 72.3075 172.858 71.8844 172.448 71.1086C171.703 69.6975 170.674 67.2002 170.899 64.4876C171.244 60.324 173.528 51.5182 173.528 51.5182Z" fill="#FF5A3C"/>
<rect x="176.948" y="45.76" width="5.18387" height="8.23155" rx="2.59193" fill="#FFDDC0"/>
<circle cx="179.54" cy="39.2977" r="10.8626" fill="#FFE8D5"/>
<rect x="177.231" y="35.3955" width="4.56157" height="5.36656" rx="2.28079" fill="#FF8D87"/>
<circle cx="185.953" cy="37.5827" r="2.25944" fill="#FFDED5"/>
<circle cx="173.381" cy="37.5828" r="2.25944" fill="#FFDED5"/>
<path d="M174.479 34.1217C174.479 34.1217 175.123 34.8073 176.199 34.6561C177.275 34.5049 177.706 33.6682 177.706 33.6682" stroke="#33353B" stroke-width="0.814695" stroke-linecap="round"/>
<path d="M181.375 33.6683C181.375 33.6683 181.806 34.5051 182.882 34.6563C183.957 34.8075 184.602 34.1219 184.602 34.1219" stroke="#33353B" stroke-width="0.814695" stroke-linecap="round"/>
<path d="M168.975 74.5716C166.38 75.0376 163.996 73.0436 163.996 70.4078C163.996 68.2755 165.583 66.4765 167.699 66.2104L177.227 65.0123C178.479 64.8548 179.746 64.8548 180.999 65.0123L190.527 66.2104C192.642 66.4765 194.229 68.2755 194.229 70.4078C194.229 73.0436 191.845 75.0376 189.251 74.5716L181.087 73.105C179.781 72.8704 178.444 72.8704 177.138 73.105L168.975 74.5716Z" fill="#1F94F2"/>
<rect x="157.553" y="67.6869" width="8.78992" height="12.4017" rx="4.39496" transform="rotate(-36.9762 157.553 67.6869)" fill="#FFE8D5"/>
<rect width="8.78992" height="12.4111" rx="4.39496" transform="matrix(-0.798885 -0.601484 -0.601484 0.798885 200.617 67.6794)" fill="#FFE8D5"/>
<ellipse cx="179.541" cy="65.8457" rx="8.64812" ry="1.60974" fill="#FF5A3C"/>
<rect x="184.157" y="50.8199" width="5.18387" height="18.9082" rx="2.59193" transform="rotate(19.4017 184.157 50.8199)" fill="#FFE8D5"/>
<rect width="5.18387" height="19.1" rx="2.59193" transform="matrix(-0.943213 0.33219 0.33219 0.943213 174.952 50.8199)" fill="#FFE8D5"/>
<path d="M183.296 53.2647C183.772 51.9145 185.252 51.2054 186.602 51.681C187.952 52.1565 188.661 53.6365 188.186 54.9867L187.197 57.7954L182.307 56.0733L183.296 53.2647Z" fill="#FF5A3C"/>
<path d="M175.813 53.2647C175.338 51.9145 173.858 51.2054 172.507 51.681C171.157 52.1565 170.448 53.6365 170.924 54.9867L171.913 57.7954L176.802 56.0733L175.813 53.2647Z" fill="#FF5A3C"/>
<path d="M176.748 28.0311C176.921 28.0312 177.064 28.1435 177.116 28.2948C177.169 28.1414 177.314 28.0311 177.486 28.0311H181.594C181.76 28.0312 181.902 28.1351 181.958 28.2814C182.014 28.1368 182.154 28.0311 182.323 28.0311H183.837C183.946 28.0311 184.051 28.0774 184.125 28.1586L188.697 33.0951L182.961 32.3137C182.773 32.3137 182.611 32.1785 182.577 31.9929L181.985 29.917V31.923C181.985 32.1387 181.81 32.3136 181.594 32.3137H177.486C177.27 32.3137 177.095 32.1387 177.095 31.923V29.8647L176.493 31.9929C176.459 32.1785 176.297 32.3137 176.108 32.3137L170.373 33.0951L174.945 28.1586C175.019 28.0774 175.124 28.0311 175.234 28.0311H176.748Z" fill="#764747"/>
<ellipse cx="99.6228" cy="30.8653" rx="12.2204" ry="11.8977" fill="#514B46"/>
<path d="M93.6891 20.1063C95.1365 18.1037 96.3815 19.0162 96.8753 19.7905C96.9054 19.8377 96.8911 19.8995 96.845 19.9312L91.1308 23.8625C91.0284 23.933 90.9029 23.798 90.98 23.7005C91.5863 22.9336 92.5673 21.6583 93.6891 20.1063Z" fill="#514B46"/>
<path d="M104.046 19.3181C101.622 17.3359 99.2538 18.4206 98.376 19.2086C98.3193 19.2595 98.3387 19.3495 98.4093 19.3782L108.832 23.6165C108.928 23.6553 109.015 23.5519 108.957 23.4665C108.086 22.1755 106.577 20.9879 104.046 19.3181Z" fill="#514B46"/>
<path d="M94.3403 42.3952C93.757 41.7928 92.2314 40.3594 91.1793 39.3816C91.0916 39.3002 91.1835 39.158 91.2942 39.2036L97.5156 41.769C97.5558 41.7855 97.582 41.8244 97.582 41.8679V43.1168C97.582 43.1892 97.5121 43.2395 97.4481 43.2057C97.0252 42.9825 96.5874 42.3511 96.3519 41.9418C96.313 41.8742 96.2296 41.8748 96.2173 41.9519C96.1857 42.1508 96.2115 42.4648 96.2439 42.7043C96.2549 42.7855 96.1783 42.8464 96.1082 42.8041C95.5888 42.4907 94.7182 41.5473 94.5801 41.5674C94.5556 41.571 94.5705 41.6066 94.5838 41.6275C94.6902 41.796 94.6468 42.0707 94.6048 42.3117C94.5869 42.4142 94.4127 42.47 94.3403 42.3952Z" fill="#514B46"/>
<path d="M104.885 42.3952C105.469 41.7928 106.994 40.3594 108.046 39.3816C108.134 39.3002 108.042 39.158 107.931 39.2036L101.71 41.769C101.67 41.7855 101.644 41.8244 101.644 41.8679V43.1168C101.644 43.1892 101.713 43.2395 101.777 43.2057C102.2 42.9825 102.638 42.3511 102.874 41.9418C102.913 41.8742 102.996 41.8748 103.008 41.9519C103.04 42.1508 103.014 42.4648 102.982 42.7043C102.971 42.7855 103.047 42.8464 103.117 42.8041C103.637 42.4907 104.507 41.5473 104.645 41.5674C104.67 41.571 104.655 41.6066 104.642 41.6275C104.535 41.796 104.579 42.0707 104.621 42.3117C104.639 42.4142 104.813 42.47 104.885 42.3952Z" fill="#514B46"/>
<circle cx="89.8471" cy="32.1721" r="4.6166" fill="#FFE5CF"/>
<circle cx="110.486" cy="32.1723" r="4.6166" fill="#FFE5CF"/>
<path d="M93.6114 44.1211H105.634C105.634 44.1211 107.919 52.9269 108.264 57.0905C108.489 59.8032 107.459 62.3004 106.714 63.7115C106.305 64.4873 105.478 64.9104 104.601 64.9104H94.6449C93.7677 64.9104 92.941 64.4873 92.5315 63.7115C91.7865 62.3004 90.7568 59.8032 90.9816 57.0905C91.3267 52.9269 93.6114 44.1211 93.6114 44.1211Z" fill="#7FC3FF"/>
<rect x="97.0312" y="38.363" width="5.18387" height="8.23155" rx="2.59193" fill="#FFDDC0"/>
<circle cx="99.6243" cy="31.9008" r="10.8626" fill="#FFE8D5"/>
<circle cx="106.037" cy="30.4538" r="2.25944" fill="#FFDED5"/>
<circle cx="93.4626" cy="30.4538" r="2.25944" fill="#FFDED5"/>
<path d="M94.5625 26.9927C94.5625 26.9927 95.2073 27.6783 96.283 27.5271C97.3587 27.3759 97.7896 26.5391 97.7896 26.5391" stroke="#33353B" stroke-width="0.814695" stroke-linecap="round"/>
<path d="M101.458 26.5396C101.458 26.5396 101.889 27.3763 102.965 27.5275C104.04 27.6787 104.685 26.9931 104.685 26.9931" stroke="#33353B" stroke-width="0.814695" stroke-linecap="round"/>
<path d="M98.1113 28.5698L100.745 28.5698" stroke="#FF5656" stroke-width="0.54313" stroke-linecap="round"/>
<path d="M100.781 27.8101C100.711 28.1649 100.699 28.9657 101.214 29.3294" stroke="#FF5656" stroke-width="0.54313" stroke-linecap="round"/>
<path d="M89.0566 67.174C86.4623 67.64 84.0781 65.646 84.0781 63.0102C84.0781 60.8779 85.6651 59.0789 87.7807 58.8128L97.3086 57.6147C98.561 57.4572 99.8283 57.4572 101.081 57.6147L110.609 58.8128C112.724 59.0789 114.311 60.8779 114.311 63.0102C114.311 65.646 111.927 67.64 109.333 67.174L101.169 65.7074C99.8633 65.4728 98.526 65.4728 97.2201 65.7074L89.0566 67.174Z" fill="#6B7280"/>
<rect x="77.6367" y="60.29" width="8.78992" height="12.4017" rx="4.39496" transform="rotate(-36.9762 77.6367 60.29)" fill="#FFE8D5"/>
<rect width="8.78992" height="12.4111" rx="4.39496" transform="matrix(-0.798885 -0.601484 -0.601484 0.798885 120.7 60.282)" fill="#FFE8D5"/>
<ellipse cx="99.6237" cy="58.4486" rx="8.64812" ry="1.60974" fill="#7FC3FF"/>
<rect x="104.24" y="43.4229" width="5.18387" height="18.9082" rx="2.59193" transform="rotate(19.4017 104.24 43.4229)" fill="#FFE8D5"/>
<rect width="5.18387" height="19.1" rx="2.59193" transform="matrix(-0.943213 0.33219 0.33219 0.943213 95.0352 43.4229)" fill="#FFE8D5"/>
<path d="M103.379 45.8676C103.855 44.5174 105.335 43.8083 106.685 44.2839C108.035 44.7594 108.744 46.2394 108.269 47.5896L107.28 50.3983L102.39 48.6762L103.379 45.8676Z" fill="#7FC3FF"/>
<path d="M95.8962 45.8676C95.4206 44.5174 93.9406 43.8083 92.5904 44.2839C91.2402 44.7594 90.5312 46.2394 91.0067 47.5896L91.9959 50.3983L96.8853 48.6762L95.8962 45.8676Z" fill="#7FC3FF"/>
<path d="M95.9454 21.7035C96.3043 21.1512 96.5726 21.1396 96.7244 21.2523C96.7884 21.2998 96.8925 21.3094 96.9162 21.2334C97.0145 20.9186 96.5322 20.711 93.9644 21.7035C91.0948 22.8126 89.9081 25.8684 89.6399 27.4014C89.6269 27.4757 89.6941 27.5373 89.7665 27.5165C91.2185 27.1 92.6637 25.4949 93.1638 24.8883C93.2269 24.8117 93.3403 24.8515 93.3207 24.9488C93.2746 25.1783 93.1691 25.4283 93.0691 25.625C93.0244 25.7129 93.1055 25.8128 93.1949 25.7712C94.6567 25.0919 95.386 22.5642 95.9454 21.7035Z" fill="#514B46"/>
<path d="M98.1382 20.3186C97.7051 20.0923 97.5315 20.5949 97.4863 20.9579C97.4787 21.0187 97.4217 21.0624 97.3619 21.0491C95.6957 20.6789 93.9852 19.9209 99.7431 19.6598C105.523 19.3977 108.755 24.674 109.711 27.4931C109.735 27.5649 109.672 27.6331 109.598 27.6175C106.976 27.0677 104.791 25.3328 103.724 24.2282C103.647 24.1478 103.499 24.2359 103.536 24.3412L103.688 24.7672C103.712 24.8356 103.655 24.9059 103.583 24.8989C98.652 24.4237 98.7343 20.63 98.1382 20.3186Z" fill="#514B46"/>
<path d="M241.491 38.3147C241.491 45.0638 236.019 48.8766 229.27 48.8766C222.521 48.8766 217.05 45.0638 217.05 38.3147C217.05 31.5655 222.521 26.0942 229.27 26.0942C236.019 26.0942 241.491 31.5655 241.491 38.3147Z" fill="#514B46"/>
<circle cx="219.494" cy="38.5862" r="4.6166" fill="#FFE5CF"/>
<circle cx="240.133" cy="38.5862" r="4.6166" fill="#FFE5CF"/>
<path d="M223.26 50.5352H235.283C235.283 50.5352 237.568 59.341 237.913 63.5046C238.137 66.2172 237.108 68.7145 236.363 70.1256C235.953 70.9013 235.127 71.3244 234.249 71.3244H224.293C223.416 71.3244 222.589 70.9013 222.18 70.1256C221.435 68.7145 220.405 66.2172 220.63 63.5046C220.975 59.341 223.26 50.5352 223.26 50.5352Z" fill="#16B77B"/>
<rect x="226.678" y="44.7773" width="5.18387" height="8.23155" rx="2.59193" fill="#FFDDC0"/>
<circle cx="229.27" cy="38.3147" r="10.8626" fill="#FFE8D5"/>
<rect x="226.962" y="34.4125" width="4.56157" height="5.36656" rx="2.28079" fill="#FF8D87"/>
<circle cx="235.683" cy="36.5995" r="2.25944" fill="#FFDED5"/>
<circle cx="223.111" cy="36.5995" r="2.25944" fill="#FFDED5"/>
<path d="M224.209 33.1387C224.209 33.1387 224.854 33.8243 225.929 33.6731C227.005 33.5219 227.436 32.6851 227.436 32.6851" stroke="#33353B" stroke-width="0.814695" stroke-linecap="round"/>
<path d="M231.105 32.6851C231.105 32.6851 231.536 33.5218 232.612 33.673C233.688 33.8242 234.333 33.1386 234.333 33.1386" stroke="#33353B" stroke-width="0.814695" stroke-linecap="round"/>
<path d="M218.705 73.5882C216.111 74.0542 213.727 72.0602 213.727 69.4244C213.727 67.2921 215.314 65.4931 217.429 65.227L226.957 64.0289C228.209 63.8714 229.477 63.8714 230.729 64.0289L240.257 65.227C242.373 65.4931 243.96 67.2921 243.96 69.4244C243.96 72.0602 241.575 74.0542 238.981 73.5882L230.818 72.1216C229.512 71.887 228.174 71.887 226.869 72.1216L218.705 73.5882Z" fill="#1F94F2"/>
<rect x="207.283" y="66.7037" width="8.78992" height="12.4017" rx="4.39496" transform="rotate(-36.9762 207.283 66.7037)" fill="#FFE8D5"/>
<rect width="8.78992" height="12.4111" rx="4.39496" transform="matrix(-0.798885 -0.601484 -0.601484 0.798885 250.347 66.6963)" fill="#FFE8D5"/>
<ellipse cx="229.27" cy="64.8623" rx="8.64812" ry="1.60974" fill="#16B77B"/>
<rect x="233.888" y="49.8368" width="5.18387" height="18.9082" rx="2.59193" transform="rotate(19.4017 233.888 49.8368)" fill="#FFE8D5"/>
<rect width="5.18387" height="19.1" rx="2.59193" transform="matrix(-0.943213 0.33219 0.33219 0.943213 224.683 49.8368)" fill="#FFE8D5"/>
<path d="M233.027 52.2815C233.502 50.9313 234.982 50.2223 236.332 50.6978C237.683 51.1733 238.392 52.6534 237.916 54.0036L236.927 56.8122L232.038 55.0902L233.027 52.2815Z" fill="#16B77B"/>
<path d="M225.544 52.2815C225.068 50.9313 223.588 50.2223 222.238 50.6978C220.888 51.1733 220.179 52.6534 220.654 54.0036L221.643 56.8122L226.533 55.0902L225.544 52.2815Z" fill="#16B77B"/>
<path d="M229.251 27.2636C229.69 27.1217 230.693 27.1481 232.689 27.5673C236.815 28.4335 238.618 31.7474 239.004 33.2958L231.945 31.9333C231.229 31.7951 230.604 31.4154 230.506 30.6928C230.454 30.3076 230.425 29.7989 230.447 29.1395C230.507 27.3514 229.675 27.6498 229.252 28.0224L229.251 28.0214L229.25 28.0224C228.827 27.6498 227.995 27.3514 228.055 29.1395C228.077 29.7989 228.048 30.3076 227.996 30.6928C227.898 31.4154 227.273 31.7951 226.557 31.9333L219.498 33.2958C219.884 31.7474 221.687 28.4335 225.812 27.5673C227.809 27.1481 228.812 27.1217 229.251 27.2636Z" fill="#514B46"/>
<path d="M194.262 114.927C194.262 121.676 188.791 125.489 182.042 125.489C175.293 125.489 169.821 121.676 169.821 114.927C169.821 108.178 175.293 102.707 182.042 102.707C188.791 102.707 194.262 108.178 194.262 114.927Z" fill="#514B46"/>
<path d="M170.476 130.842C168.357 126.758 171.845 123.715 173.854 122.705C174.878 121.476 176.565 119.979 175.122 123.818C173.678 127.656 174.648 130.1 175.313 130.842H172.55L172.012 129.614V130.842H170.476Z" fill="#514B46"/>
<circle cx="172.265" cy="115.199" r="4.6166" fill="#FFE5CF"/>
<circle cx="192.905" cy="115.199" r="4.6166" fill="#FFE5CF"/>
<path d="M176.03 127.147H188.053C188.053 127.147 190.338 135.953 190.683 140.117C190.908 142.829 189.878 145.327 189.133 146.738C188.724 147.514 187.897 147.937 187.02 147.937H177.064C176.187 147.937 175.36 147.514 174.95 146.738C174.205 145.327 173.176 142.829 173.401 140.117C173.746 135.953 176.03 127.147 176.03 127.147Z" fill="#1F94F2"/>
<rect x="179.45" y="121.389" width="5.18387" height="8.23155" rx="2.59193" fill="#FFDDC0"/>
<circle cx="182.042" cy="114.927" r="10.8626" fill="#FFE8D5"/>
<rect x="179.733" y="111.024" width="4.56157" height="5.36656" rx="2.28079" fill="#FF8D87"/>
<circle cx="188.455" cy="113.212" r="2.25944" fill="#FFDED5"/>
<circle cx="175.882" cy="113.212" r="2.25944" fill="#FFDED5"/>
<path d="M176.98 109.751C176.98 109.751 177.625 110.437 178.701 110.285C179.777 110.134 180.208 109.297 180.208 109.297" stroke="#33353B" stroke-width="0.814695" stroke-linecap="round"/>
<path d="M183.877 109.297C183.877 109.297 184.308 110.134 185.384 110.285C186.459 110.436 187.104 109.751 187.104 109.751" stroke="#33353B" stroke-width="0.814695" stroke-linecap="round"/>
<path d="M171.476 150.201C168.881 150.667 166.497 148.673 166.497 146.037C166.497 143.905 168.084 142.105 170.2 141.839L179.728 140.641C180.98 140.484 182.247 140.484 183.5 140.641L193.028 141.839C195.143 142.105 196.73 143.905 196.73 146.037C196.73 148.673 194.346 150.667 191.752 150.201L183.588 148.734C182.282 148.499 180.945 148.499 179.639 148.734L171.476 150.201Z" fill="#7EECC4"/>
<rect x="160.054" y="143.316" width="8.78992" height="12.4017" rx="4.39496" transform="rotate(-36.9762 160.054 143.316)" fill="#FFE8D5"/>
<rect width="8.78992" height="12.4111" rx="4.39496" transform="matrix(-0.798885 -0.601484 -0.601484 0.798885 203.119 143.309)" fill="#FFE8D5"/>
<ellipse cx="182.042" cy="141.475" rx="8.64812" ry="1.60974" fill="#1F94F2"/>
<rect x="186.659" y="126.449" width="5.18387" height="18.9082" rx="2.59193" transform="rotate(19.4017 186.659 126.449)" fill="#FFE8D5"/>
<rect width="5.18387" height="19.1" rx="2.59193" transform="matrix(-0.943213 0.33219 0.33219 0.943213 177.453 126.449)" fill="#FFE8D5"/>
<path d="M185.798 128.894C186.274 127.544 187.754 126.835 189.104 127.31C190.454 127.786 191.163 129.266 190.688 130.616L189.698 133.425L184.809 131.703L185.798 128.894Z" fill="#1F94F2"/>
<path d="M178.314 128.894C177.839 127.544 176.359 126.835 175.008 127.31C173.658 127.786 172.949 129.266 173.425 130.616L174.414 133.425L179.303 131.702L178.314 128.894Z" fill="#1F94F2"/>
<path d="M179.249 103.66C179.422 103.66 179.565 103.773 179.617 103.924C179.67 103.77 179.815 103.66 179.987 103.66H184.095C184.261 103.66 184.403 103.764 184.459 103.91C184.515 103.766 184.655 103.66 184.824 103.66H186.338C186.447 103.66 186.552 103.706 186.626 103.788L191.198 108.724L185.462 107.943C185.274 107.943 185.112 107.808 185.078 107.622L184.486 105.546V107.552C184.486 107.768 184.311 107.943 184.095 107.943H179.987C179.771 107.943 179.596 107.768 179.596 107.552V105.494L178.994 107.622C178.96 107.808 178.798 107.943 178.609 107.943L172.874 108.724L177.446 103.788C177.52 103.706 177.625 103.66 177.735 103.66H179.249Z" fill="#514B46"/>
<ellipse cx="142.794" cy="47.8778" rx="12.2204" ry="11.8977" fill="#514B46"/>
<path d="M137.06 35.6137C136.453 36.8264 135.128 38.3845 134.542 39.0119L147.279 36.9094C142.536 34.3669 142.365 33.8779 141.974 34.3913C141.583 34.9047 141.436 35.2958 140.898 34.8557C140.36 34.4157 139.945 33.5356 139.603 34.0246C139.26 34.5135 138.967 35.907 138.453 35.0758C137.94 34.2446 137.818 34.0979 137.06 35.6137Z" fill="#514B46"/>
<circle cx="133.018" cy="49.1845" r="4.6166" fill="#FFE5CF"/>
<circle cx="153.656" cy="49.1845" r="4.6166" fill="#FFE5CF"/>
<path d="M136.782 61.1331H148.805C148.805 61.1331 151.09 69.9389 151.435 74.1025C151.66 76.8151 150.63 79.3124 149.885 80.7235C149.476 81.4992 148.649 81.9223 147.772 81.9223H137.816C136.939 81.9223 136.112 81.4992 135.702 80.7235C134.957 79.3124 133.928 76.8151 134.153 74.1025C134.498 69.9389 136.782 61.1331 136.782 61.1331Z" fill="#25DC96"/>
<rect x="140.202" y="55.375" width="5.18387" height="8.23155" rx="2.59193" fill="#FFDDC0"/>
<circle cx="142.794" cy="48.9129" r="10.8626" fill="#FFE8D5"/>
<circle cx="149.207" cy="47.466" r="2.25944" fill="#FFDED5"/>
<circle cx="136.633" cy="47.4659" r="2.25944" fill="#FFDED5"/>
<path d="M137.732 44.0049C137.732 44.0049 138.377 44.6905 139.453 44.5393C140.529 44.3881 140.959 43.5513 140.959 43.5513" stroke="#33353B" stroke-width="0.814695" stroke-linecap="round"/>
<path d="M144.628 43.5515C144.628 43.5515 145.059 44.3883 146.134 44.5395C147.21 44.6906 147.855 44.005 147.855 44.005" stroke="#33353B" stroke-width="0.814695" stroke-linecap="round"/>
<path d="M145.486 40.6973C145.6 40.6973 147.031 40.6973 147.303 40.6973" stroke="#514B46" stroke-width="0.814695" stroke-linecap="round"/>
<path d="M138.294 40.6973C138.408 40.6973 139.838 40.6973 140.11 40.6973" stroke="#514B46" stroke-width="0.814695" stroke-linecap="round"/>
<path d="M141.281 45.5819L143.915 45.5819" stroke="#FF5656" stroke-width="0.54313" stroke-linecap="round"/>
<path d="M143.951 44.8223C143.881 45.1772 143.869 45.9779 144.384 46.3416" stroke="#FF5656" stroke-width="0.54313" stroke-linecap="round"/>
<path d="M132.226 84.1863C129.632 84.6524 127.248 82.6583 127.248 80.0225C127.248 77.8902 128.835 76.0912 130.951 75.8252L140.478 74.627C141.731 74.4695 142.998 74.4695 144.251 74.627L153.779 75.8252C155.894 76.0912 157.481 77.8902 157.481 80.0225C157.481 82.6583 155.097 84.6524 152.503 84.1863L144.339 82.7198C143.033 82.4852 141.696 82.4852 140.39 82.7198L132.226 84.1863Z" fill="#ADD9FF"/>
<rect x="120.807" y="77.3018" width="8.78992" height="12.4017" rx="4.39496" transform="rotate(-36.9762 120.807 77.3018)" fill="#FFE8D5"/>
<rect width="8.78992" height="12.4111" rx="4.39496" transform="matrix(-0.798885 -0.601484 -0.601484 0.798885 163.871 77.2944)" fill="#FFE8D5"/>
<ellipse cx="142.793" cy="75.4603" rx="8.64812" ry="1.60974" fill="#25DC96"/>
<rect x="147.41" y="60.4346" width="5.18387" height="18.9082" rx="2.59193" transform="rotate(19.4017 147.41 60.4346)" fill="#FFE8D5"/>
<rect width="5.18387" height="19.1" rx="2.59193" transform="matrix(-0.943213 0.33219 0.33219 0.943213 138.205 60.4348)" fill="#FFE8D5"/>
<path d="M146.549 62.8793C147.025 61.5291 148.505 60.8201 149.855 61.2956C151.205 61.7711 151.914 63.2511 151.439 64.6013L150.449 67.41L145.56 65.688L146.549 62.8793Z" fill="#25DC96"/>
<path d="M139.066 62.8796C138.591 61.5294 137.111 60.8203 135.76 61.2958C134.41 61.7714 133.701 63.2514 134.177 64.6016L135.166 67.4102L140.055 65.6882L139.066 62.8796Z" fill="#25DC96"/>
<ellipse cx="133.368" cy="165.841" rx="26.9712" ry="6.34615" fill="#F3F4F6"/>
<circle cx="1.80178" cy="1.80178" r="1.80178" transform="matrix(-1 0 0 1 129.223 130.641)" fill="#8F7560"/>
<circle cx="1.80178" cy="1.80178" r="1.80178" transform="matrix(-1 0 0 1 131.253 132.67)" fill="#8F7560"/>
<circle cx="1.80178" cy="1.80178" r="1.80178" transform="matrix(-1 0 0 1 133.822 134.012)" fill="#8F7560"/>
<circle cx="1.80178" cy="1.80178" r="1.80178" transform="matrix(-1 0 0 1 136.091 134.906)" fill="#8F7560"/>
<circle cx="147.289" cy="132.442" r="1.80178" fill="#8F7560"/>
<circle cx="145.259" cy="134.472" r="1.80178" fill="#8F7560"/>
<circle cx="142.689" cy="135.813" r="1.80178" fill="#8F7560"/>
<circle cx="140.421" cy="136.708" r="1.80178" fill="#8F7560"/>
<circle cx="3.01856" cy="3.01856" r="3.01856" transform="matrix(-1 0 0 1 152.163 119.412)" fill="#8F7560"/>
<circle cx="125.716" cy="122.334" r="3.47656" fill="#8F7560"/>
<circle cx="2.77063" cy="2.77063" r="2.77063" transform="matrix(-1 0 0 1 149.831 115.059)" fill="#8F7560"/>
<circle cx="130.795" cy="115.409" r="1.93313" fill="#8F7560"/>
<circle cx="1.93313" cy="1.93313" r="1.93313" transform="matrix(-1 0 0 1 145.913 113.476)" fill="#8F7560"/>
<circle cx="2.9219" cy="2.9219" r="2.9219" transform="matrix(-1 0 0 1 142.949 111.231)" fill="#8F7560"/>
<circle cx="2.91455" cy="2.91455" r="2.91455" transform="matrix(-1 0 0 1 137.683 111.239)" fill="#8F7560"/>
<ellipse cx="137.682" cy="126.365" rx="12.2204" ry="11.8977" fill="#8F7560"/>
<circle cx="127.907" cy="127.672" r="4.6166" fill="#FFE5CF"/>
<circle cx="148.546" cy="127.671" r="4.6166" fill="#FFE5CF"/>
<path d="M131.671 139.62H143.694C143.694 139.62 145.979 148.426 146.324 152.59C146.549 155.302 145.519 157.799 144.774 159.211C144.364 159.986 143.538 160.409 142.66 160.409H132.704C131.827 160.409 131.001 159.986 130.591 159.211C129.846 157.799 128.816 155.302 129.041 152.59C129.386 148.426 131.671 139.62 131.671 139.62Z" fill="#FF7F6B"/>
<rect x="135.091" y="133.863" width="5.18387" height="8.23155" rx="2.59193" fill="#FFDDC0"/>
<circle cx="137.683" cy="127.4" r="10.8626" fill="#FFE8D5"/>
<circle cx="144.096" cy="125.953" r="2.25944" fill="#FFDED5"/>
<circle cx="131.522" cy="125.953" r="2.25944" fill="#FFDED5"/>
<path d="M132.622 122.492C132.622 122.492 133.267 123.178 134.343 123.027C135.418 122.875 135.849 122.039 135.849 122.039" stroke="#33353B" stroke-width="0.814695" stroke-linecap="round"/>
<path d="M139.517 122.039C139.517 122.039 139.947 122.876 141.023 123.027C142.099 123.178 142.744 122.493 142.744 122.493" stroke="#33353B" stroke-width="0.814695" stroke-linecap="round"/>
<path d="M136.171 124.069L138.805 124.069" stroke="#FF5656" stroke-width="0.54313" stroke-linecap="round"/>
<path d="M138.84 123.31C138.769 123.664 138.758 124.465 139.272 124.829" stroke="#FF5656" stroke-width="0.54313" stroke-linecap="round"/>
<path d="M127.116 162.674C124.522 163.14 122.138 161.146 122.138 158.51C122.138 156.378 123.725 154.579 125.84 154.313L135.368 153.115C136.621 152.957 137.888 152.957 139.14 153.115L148.668 154.313C150.784 154.579 152.371 156.378 152.371 158.51C152.371 161.146 149.987 163.14 147.392 162.674L139.229 161.207C137.923 160.973 136.586 160.973 135.28 161.207L127.116 162.674Z" fill="#16B77B"/>
<rect x="115.696" y="155.789" width="8.78992" height="12.4017" rx="4.39496" transform="rotate(-36.9762 115.696 155.789)" fill="#FFE8D5"/>
<rect width="8.78992" height="12.4111" rx="4.39496" transform="matrix(-0.798885 -0.601484 -0.601484 0.798885 158.76 155.781)" fill="#FFE8D5"/>
<ellipse cx="137.683" cy="153.948" rx="8.64812" ry="1.60974" fill="#FF7F6B"/>
<rect x="142.3" y="138.922" width="5.18387" height="18.9082" rx="2.59193" transform="rotate(19.4017 142.3 138.922)" fill="#FFE8D5"/>
<rect width="5.18387" height="19.1" rx="2.59193" transform="matrix(-0.943213 0.33219 0.33219 0.943213 133.095 138.922)" fill="#FFE8D5"/>
<path d="M141.439 141.367C141.914 140.016 143.394 139.307 144.745 139.783C146.095 140.258 146.804 141.738 146.328 143.089L145.339 145.897L140.45 144.175L141.439 141.367Z" fill="#FF7F6B"/>
<path d="M133.956 141.367C133.48 140.016 132 139.307 130.65 139.783C129.3 140.258 128.591 141.738 129.066 143.089L130.055 145.897L134.945 144.175L133.956 141.367Z" fill="#FF7F6B"/>
<circle cx="2.88391" cy="2.88391" r="2.88391" transform="matrix(-1 0 0 1 143.819 113.653)" fill="#8F7560"/>
<circle cx="2.88391" cy="2.88391" r="2.88391" transform="matrix(-1 0 0 1 139.038 113.147)" fill="#8F7560"/>
<circle cx="2.41711" cy="2.41711" r="2.41711" transform="matrix(-1 0 0 1 133.822 115.626)" fill="#8F7560"/>
<circle cx="2.41711" cy="2.41711" r="2.41711" transform="matrix(-1 0 0 1 147.126 116.086)" fill="#8F7560"/>
<circle cx="1.87219" cy="1.87219" r="1.87219" transform="matrix(-1 0 0 1 148.699 119.857)" fill="#8F7560"/>
<circle cx="2.41711" cy="2.41711" r="2.41711" transform="matrix(-1 0 0 1 130.91 118.915)" fill="#8F7560"/>
<circle cx="3.09082" cy="3.09082" r="3.09082" transform="matrix(-1 0 0 1 130.997 114.739)" fill="#8F7560"/>
<ellipse cx="225.498" cy="161.33" rx="24.3269" ry="4.23077" fill="#F3F4F6"/>
<path d="M283.265 109.718C283.265 116.467 277.794 120.28 271.045 120.28C264.295 120.28 258.824 116.467 258.824 109.718C258.824 102.969 264.295 97.4976 271.045 97.4976C277.794 97.4976 283.265 102.969 283.265 109.718Z" fill="#514B46"/>
<circle cx="261.268" cy="109.99" r="4.6166" fill="#FFE5CF"/>
<circle cx="281.908" cy="109.99" r="4.6166" fill="#FFE5CF"/>
<path d="M265.033 121.938H277.056C277.056 121.938 279.341 130.744 279.686 134.908C279.911 137.62 278.881 140.118 278.136 141.529C277.727 142.305 276.9 142.728 276.023 142.728H266.067C265.19 142.728 264.363 142.305 263.953 141.529C263.208 140.118 262.179 137.62 262.404 134.908C262.749 130.744 265.033 121.938 265.033 121.938Z" fill="#374151"/>
<rect x="268.453" y="116.18" width="5.18387" height="8.23155" rx="2.59193" fill="#FFDDC0"/>
<circle cx="271.045" cy="109.718" r="10.8626" fill="#FFE8D5"/>
<path d="M269.407 106.118C269.796 106.145 270.623 106.013 270.822 105.27C270.891 105.552 271.23 106.118 272.029 106.118" stroke="#ED8080" stroke-width="0.54313" stroke-linecap="round" stroke-linejoin="round"/>
<circle cx="277.458" cy="108.003" r="2.25944" fill="#FFDED5"/>
<circle cx="264.884" cy="108.003" r="2.25944" fill="#FFDED5"/>
<path d="M265.983 104.542C265.983 104.542 266.628 105.228 267.704 105.076C268.78 104.925 269.21 104.088 269.21 104.088" stroke="#33353B" stroke-width="0.814695" stroke-linecap="round"/>
<path d="M272.88 104.088C272.88 104.088 273.311 104.925 274.386 105.076C275.462 105.227 276.107 104.542 276.107 104.542" stroke="#33353B" stroke-width="0.814695" stroke-linecap="round"/>
<path d="M260.478 144.992C257.884 145.458 255.5 143.464 255.5 140.828C255.5 138.696 257.087 136.897 259.203 136.63L268.73 135.432C269.983 135.275 271.25 135.275 272.503 135.432L282.03 136.63C284.146 136.897 285.733 138.696 285.733 140.828C285.733 143.464 283.349 145.458 280.755 144.992L272.591 143.525C271.285 143.29 269.948 143.29 268.642 143.525L260.478 144.992Z" fill="#FFAB9E"/>
<rect x="249.057" y="138.107" width="8.78992" height="12.4017" rx="4.39496" transform="rotate(-36.9762 249.057 138.107)" fill="#FFE8D5"/>
<rect width="8.78992" height="12.4111" rx="4.39496" transform="matrix(-0.798885 -0.601484 -0.601484 0.798885 292.122 138.1)" fill="#FFE8D5"/>
<ellipse cx="271.045" cy="136.266" rx="8.64812" ry="1.60974" fill="#374151"/>
<rect x="275.662" y="121.24" width="5.18387" height="18.9082" rx="2.59193" transform="rotate(19.4017 275.662 121.24)" fill="#FFE8D5"/>
<rect width="5.18387" height="19.1" rx="2.59193" transform="matrix(-0.943213 0.33219 0.33219 0.943213 266.456 121.24)" fill="#FFE8D5"/>
<path d="M274.801 123.685C275.277 122.335 276.757 121.626 278.107 122.101C279.457 122.577 280.166 124.057 279.691 125.407L278.701 128.216L273.812 126.494L274.801 123.685Z" fill="#374151"/>
<path d="M267.317 123.685C266.842 122.335 265.362 121.626 264.011 122.101C262.661 122.577 261.952 124.057 262.428 125.407L263.417 128.216L268.306 126.493L267.317 123.685Z" fill="#374151"/>
<path d="M268.251 98.4512C268.425 98.4513 268.568 98.5635 268.62 98.7148C268.673 98.5614 268.818 98.4512 268.99 98.4512H273.098C273.264 98.4512 273.405 98.5552 273.462 98.7015C273.518 98.5568 273.658 98.4512 273.827 98.4512H275.341C275.45 98.4512 275.555 98.4975 275.629 98.5786L280.201 103.515L274.465 102.734C274.277 102.734 274.115 102.599 274.081 102.413L273.489 100.337V102.343C273.489 102.559 273.314 102.734 273.098 102.734H268.99C268.774 102.734 268.599 102.559 268.599 102.343V100.285L267.997 102.413C267.963 102.599 267.801 102.734 267.612 102.734L261.877 103.515L266.449 98.5786C266.523 98.4975 266.628 98.4512 266.738 98.4512H268.251Z" fill="#514B46"/>
<circle cx="222.59" cy="125.432" r="12.2204" fill="#514B46"/>
<rect x="210.913" y="124.618" width="11.6773" height="17.2413" rx="5.83864" fill="#514B46"/>
<rect x="222.59" y="124.618" width="11.6773" height="17.2413" rx="5.83864" fill="#514B46"/>
<circle cx="212.813" cy="125.704" r="4.6166" fill="#FFE5CF"/>
<circle cx="233.453" cy="125.704" r="4.6166" fill="#FFE5CF"/>
<path d="M216.577 137.652H228.6C228.6 137.652 230.885 146.458 231.23 150.622C231.455 153.334 230.425 155.832 229.68 157.243C229.271 158.019 228.444 158.442 227.567 158.442H217.611C216.733 158.442 215.907 158.019 215.497 157.243C214.752 155.832 213.723 153.334 213.947 150.622C214.293 146.458 216.577 137.652 216.577 137.652Z" fill="#FFBB00"/>
<rect x="219.998" y="131.895" width="5.18387" height="8.23155" rx="2.59193" fill="#FFDDC0"/>
<circle cx="222.589" cy="125.432" r="10.8626" fill="#FFE8D5"/>
<circle cx="229.003" cy="123.717" r="2.25944" fill="#FFDED5"/>
<circle cx="216.428" cy="123.717" r="2.25944" fill="#FFDED5"/>
<path d="M217.527 120.256C217.527 120.256 218.172 120.942 219.248 120.791C220.324 120.639 220.754 119.803 220.754 119.803" stroke="#33353B" stroke-width="0.814695" stroke-linecap="round"/>
<path d="M224.424 119.802C224.424 119.802 224.855 120.639 225.93 120.79C227.006 120.942 227.651 120.256 227.651 120.256" stroke="#33353B" stroke-width="0.814695" stroke-linecap="round"/>
<path d="M220.75 114.633C223.581 113.898 229.95 114.715 232.581 121.17C230.092 120.441 224.446 118.29 221.339 115.318C221.083 115.074 220.663 115.108 220.449 115.39C218.231 118.315 214.389 120.367 212.616 121.091C214.522 115.646 218.694 114.541 220.75 114.633Z" fill="#514B46"/>
<path d="M212.022 160.706C209.428 161.172 207.044 159.178 207.044 156.542C207.044 154.41 208.631 152.611 210.747 152.345L220.274 151.146C221.527 150.989 222.794 150.989 224.047 151.146L233.574 152.345C235.69 152.611 237.277 154.41 237.277 156.542C237.277 159.178 234.893 161.172 232.299 160.706L224.135 159.239C222.829 159.005 221.492 159.005 220.186 159.239L212.022 160.706Z" fill="#ADD9FF"/>
<rect x="200.603" y="153.821" width="8.78992" height="12.4017" rx="4.39496" transform="rotate(-36.9762 200.603 153.821)" fill="#FFE8D5"/>
<rect width="8.78992" height="12.4111" rx="4.39496" transform="matrix(-0.798885 -0.601484 -0.601484 0.798885 243.666 153.814)" fill="#FFE8D5"/>
<ellipse cx="222.59" cy="151.98" rx="8.64812" ry="1.60974" fill="#FFBB00"/>
<rect x="227.207" y="136.954" width="5.18387" height="18.9082" rx="2.59193" transform="rotate(19.4017 227.207 136.954)" fill="#FFE8D5"/>
<rect width="5.18387" height="19.1" rx="2.59193" transform="matrix(-0.943213 0.33219 0.33219 0.943213 218 136.954)" fill="#FFE8D5"/>
<path d="M226.346 139.399C226.822 138.049 228.302 137.34 229.652 137.815C231.002 138.291 231.711 139.771 231.236 141.121L230.246 143.93L225.357 142.207L226.346 139.399Z" fill="#FFBB00"/>
<path d="M218.861 139.399C218.385 138.049 216.905 137.34 215.555 137.815C214.205 138.291 213.496 139.771 213.972 141.121L214.961 143.93L219.85 142.207L218.861 139.399Z" fill="#FFBB00"/>
<path d="M221.084 122.221C221.473 122.248 222.3 122.116 222.499 121.372C222.568 121.655 222.907 122.221 223.705 122.221" stroke="#FF5656" stroke-width="0.54313" stroke-linecap="round" stroke-linejoin="round"/>
</svg>
