<svg width="375" height="181" viewBox="0 0 375 181" fill="none" xmlns="http://www.w3.org/2000/svg">
<circle cx="95.4854" cy="33.8809" r="3.99219" fill="#514B46"/>
<ellipse cx="153.125" cy="135.167" rx="26.9712" ry="6.34615" fill="#F3F4F6"/>
<ellipse cx="158.942" cy="75.9368" rx="24.3269" ry="4.23077" fill="#F3F4F6"/>
<ellipse cx="215" cy="89.6868" rx="24.3269" ry="4.23077" fill="#F3F4F6"/>
<ellipse cx="273.173" cy="62.1868" rx="24.3269" ry="4.23077" fill="#F3F4F6"/>
<ellipse cx="258.365" cy="124.591" rx="24.3269" ry="4.23077" fill="#F3F4F6"/>
<ellipse cx="215" cy="159.494" rx="24.3269" ry="4.23077" fill="#F3F4F6"/>
<ellipse cx="101.827" cy="61.1292" rx="24.3269" ry="4.23077" fill="#F3F4F6"/>
<ellipse cx="117.692" cy="84.3987" rx="24.3269" ry="4.23077" fill="#F3F4F6"/>
<path d="M152.834 34.28C153.984 31.2432 156.893 29.2345 160.141 29.2345H164.941C168.188 29.2345 171.097 31.2432 172.248 34.28L176.145 44.5689C177.114 47.1249 175.225 49.8597 172.492 49.8597H152.589C149.856 49.8597 147.968 47.1249 148.936 44.5689L152.834 34.28Z" fill="#764747"/>
<path d="M174.76 39.2977C174.76 46.0468 169.289 49.8597 162.54 49.8597C155.791 49.8597 150.319 46.0468 150.319 39.2977C150.319 32.5485 155.791 27.0773 162.54 27.0773C169.289 27.0773 174.76 32.5485 174.76 39.2977Z" fill="#764747"/>
<circle cx="152.764" cy="39.5696" r="4.6166" fill="#FFE5CF"/>
<circle cx="173.403" cy="39.5699" r="4.6166" fill="#FFE5CF"/>
<path d="M156.528 51.5182H168.551C168.551 51.5182 170.836 60.324 171.181 64.4876C171.406 67.2002 170.376 69.6975 169.631 71.1086C169.222 71.8844 168.395 72.3075 167.518 72.3075H157.562C156.685 72.3075 155.858 71.8844 155.448 71.1086C154.703 69.6975 153.674 67.2002 153.899 64.4876C154.244 60.324 156.528 51.5182 156.528 51.5182Z" fill="#FF5A3C"/>
<rect x="159.948" y="45.76" width="5.18387" height="8.23155" rx="2.59193" fill="#FFDDC0"/>
<circle cx="162.54" cy="39.2977" r="10.8626" fill="#FFE8D5"/>
<rect x="160.231" y="35.3955" width="4.56157" height="5.36656" rx="2.28079" fill="#FF8D87"/>
<circle cx="168.953" cy="37.5827" r="2.25944" fill="#FFDED5"/>
<circle cx="156.381" cy="37.5828" r="2.25944" fill="#FFDED5"/>
<path d="M157.479 34.1217C157.479 34.1217 158.123 34.8073 159.199 34.6561C160.275 34.5049 160.706 33.6682 160.706 33.6682" stroke="#33353B" stroke-width="0.814695" stroke-linecap="round"/>
<path d="M164.375 33.6683C164.375 33.6683 164.806 34.5051 165.882 34.6563C166.957 34.8075 167.602 34.1219 167.602 34.1219" stroke="#33353B" stroke-width="0.814695" stroke-linecap="round"/>
<path d="M151.975 74.5716C149.38 75.0376 146.996 73.0436 146.996 70.4078C146.996 68.2755 148.583 66.4765 150.699 66.2104L160.227 65.0123C161.479 64.8548 162.746 64.8548 163.999 65.0123L173.527 66.2104C175.642 66.4765 177.229 68.2755 177.229 70.4078C177.229 73.0436 174.845 75.0376 172.251 74.5716L164.087 73.105C162.781 72.8704 161.444 72.8704 160.138 73.105L151.975 74.5716Z" fill="#1F94F2"/>
<rect x="140.553" y="67.6869" width="8.78992" height="12.4017" rx="4.39496" transform="rotate(-36.9762 140.553 67.6869)" fill="#FFE8D5"/>
<rect width="8.78992" height="12.4111" rx="4.39496" transform="matrix(-0.798885 -0.601484 -0.601484 0.798885 183.617 67.6794)" fill="#FFE8D5"/>
<ellipse cx="162.541" cy="65.8457" rx="8.64812" ry="1.60974" fill="#FF5A3C"/>
<rect x="167.157" y="50.8199" width="5.18387" height="18.9082" rx="2.59193" transform="rotate(19.4017 167.157 50.8199)" fill="#FFE8D5"/>
<rect width="5.18387" height="19.1" rx="2.59193" transform="matrix(-0.943213 0.33219 0.33219 0.943213 157.952 50.8199)" fill="#FFE8D5"/>
<path d="M166.296 53.2647C166.772 51.9145 168.252 51.2054 169.602 51.681C170.952 52.1565 171.661 53.6365 171.186 54.9867L170.197 57.7954L165.307 56.0733L166.296 53.2647Z" fill="#FF5A3C"/>
<path d="M158.813 53.2647C158.338 51.9145 156.858 51.2054 155.507 51.681C154.157 52.1565 153.448 53.6365 153.924 54.9867L154.913 57.7954L159.802 56.0733L158.813 53.2647Z" fill="#FF5A3C"/>
<path d="M159.748 28.0311C159.921 28.0312 160.064 28.1435 160.116 28.2948C160.169 28.1414 160.314 28.0311 160.486 28.0311H164.594C164.76 28.0312 164.902 28.1351 164.958 28.2814C165.014 28.1368 165.154 28.0311 165.323 28.0311H166.837C166.946 28.0311 167.051 28.0774 167.125 28.1586L171.697 33.0951L165.961 32.3137C165.773 32.3137 165.611 32.1785 165.577 31.9929L164.985 29.917V31.923C164.985 32.1387 164.81 32.3136 164.594 32.3137H160.486C160.27 32.3137 160.095 32.1387 160.095 31.923V29.8647L159.493 31.9929C159.459 32.1785 159.297 32.3137 159.108 32.3137L153.373 33.0951L157.945 28.1586C158.019 28.0774 158.124 28.0311 158.234 28.0311H159.748Z" fill="#764747"/>
<ellipse cx="214.134" cy="52.4757" rx="12.2204" ry="11.8977" fill="#514B46"/>
<path d="M208.201 41.7167C209.648 39.7141 210.893 40.6266 211.387 41.4009C211.417 41.4481 211.403 41.5099 211.357 41.5416L205.643 45.4729C205.54 45.5434 205.415 45.4084 205.492 45.3108C206.098 44.544 207.079 43.2687 208.201 41.7167Z" fill="#514B46"/>
<path d="M218.558 40.9285C216.134 38.9462 213.765 40.0309 212.888 40.8189C212.831 40.8698 212.85 40.9599 212.921 40.9886L223.344 45.2268C223.439 45.2656 223.527 45.1623 223.469 45.0768C222.598 43.7859 221.089 42.5983 218.558 40.9285Z" fill="#514B46"/>
<path d="M208.852 64.0056C208.269 63.4031 206.743 61.9697 205.691 60.992C205.603 60.9105 205.695 60.7683 205.806 60.814L212.027 63.3793C212.068 63.3959 212.094 63.4348 212.094 63.4783V64.7272C212.094 64.7995 212.024 64.8498 211.96 64.8161C211.537 64.5928 211.099 63.9614 210.864 63.5521C210.825 63.4845 210.741 63.4852 210.729 63.5622C210.697 63.7611 210.723 64.0751 210.756 64.3147C210.767 64.3958 210.69 64.4567 210.62 64.4144C210.101 64.1011 209.23 63.1577 209.092 63.1777C209.067 63.1813 209.082 63.2169 209.095 63.2379C209.202 63.4064 209.159 63.681 209.116 63.922C209.099 64.0246 208.924 64.0804 208.852 64.0056Z" fill="#514B46"/>
<path d="M219.397 64.0056C219.98 63.4031 221.506 61.9697 222.558 60.992C222.646 60.9105 222.554 60.7683 222.443 60.814L216.222 63.3793C216.181 63.3959 216.155 63.4348 216.155 63.4783V64.7272C216.155 64.7995 216.225 64.8498 216.289 64.8161C216.712 64.5928 217.15 63.9614 217.385 63.5521C217.424 63.4845 217.508 63.4852 217.52 63.5622C217.552 63.7611 217.526 64.0751 217.493 64.3147C217.482 64.3958 217.559 64.4567 217.629 64.4144C218.149 64.1011 219.019 63.1577 219.157 63.1777C219.182 63.1813 219.167 63.2169 219.154 63.2379C219.047 63.4064 219.09 63.681 219.133 63.922C219.15 64.0246 219.325 64.0804 219.397 64.0056Z" fill="#514B46"/>
<circle cx="204.359" cy="53.7825" r="4.6166" fill="#FFE5CF"/>
<circle cx="224.997" cy="53.7826" r="4.6166" fill="#FFE5CF"/>
<path d="M208.123 65.7314H220.146C220.146 65.7314 222.431 74.5373 222.776 78.7009C223.001 81.4135 221.971 83.9108 221.226 85.3219C220.816 86.0976 219.99 86.5207 219.113 86.5207H209.157C208.279 86.5207 207.453 86.0976 207.043 85.3219C206.298 83.9108 205.269 81.4135 205.493 78.7009C205.838 74.5373 208.123 65.7314 208.123 65.7314Z" fill="#7FC3FF"/>
<rect x="211.543" y="59.9734" width="5.18387" height="8.23155" rx="2.59193" fill="#FFDDC0"/>
<circle cx="214.136" cy="53.5112" r="10.8626" fill="#FFE8D5"/>
<circle cx="220.549" cy="52.0641" r="2.25944" fill="#FFDED5"/>
<circle cx="207.974" cy="52.0641" r="2.25944" fill="#FFDED5"/>
<path d="M209.074 48.603C209.074 48.603 209.719 49.2886 210.795 49.1374C211.87 48.9863 212.301 48.1495 212.301 48.1495" stroke="#33353B" stroke-width="0.814695" stroke-linecap="round"/>
<path d="M215.97 48.1499C215.97 48.1499 216.401 48.9867 217.476 49.1379C218.552 49.289 219.197 48.6034 219.197 48.6034" stroke="#33353B" stroke-width="0.814695" stroke-linecap="round"/>
<path d="M212.623 50.1802L215.257 50.1802" stroke="#FF5656" stroke-width="0.54313" stroke-linecap="round"/>
<path d="M215.293 49.4204C215.223 49.7753 215.211 50.576 215.725 50.9398" stroke="#FF5656" stroke-width="0.54313" stroke-linecap="round"/>
<path d="M203.568 88.7843C200.974 89.2504 198.59 87.2563 198.59 84.6206C198.59 82.4882 200.177 80.6892 202.292 80.4232L211.82 79.225C213.073 79.0675 214.34 79.0675 215.592 79.225L225.12 80.4232C227.236 80.6892 228.823 82.4882 228.823 84.6206C228.823 87.2563 226.439 89.2504 223.844 88.7843L215.681 87.3178C214.375 87.0832 213.038 87.0832 211.732 87.3178L203.568 88.7843Z" fill="#6B7280"/>
<rect x="192.148" y="81.9004" width="8.78992" height="12.4017" rx="4.39496" transform="rotate(-36.9762 192.148 81.9004)" fill="#FFE8D5"/>
<rect width="8.78992" height="12.4111" rx="4.39496" transform="matrix(-0.798885 -0.601484 -0.601484 0.798885 235.212 81.8923)" fill="#FFE8D5"/>
<ellipse cx="214.135" cy="80.059" rx="8.64812" ry="1.60974" fill="#7FC3FF"/>
<rect x="218.752" y="65.0332" width="5.18387" height="18.9082" rx="2.59193" transform="rotate(19.4017 218.752 65.0332)" fill="#FFE8D5"/>
<rect width="5.18387" height="19.1" rx="2.59193" transform="matrix(-0.943213 0.33219 0.33219 0.943213 209.547 65.0332)" fill="#FFE8D5"/>
<path d="M217.891 67.4779C218.366 66.1278 219.847 65.4187 221.197 65.8942C222.547 66.3697 223.256 67.8498 222.78 69.2L221.791 72.0086L216.902 70.2866L217.891 67.4779Z" fill="#7FC3FF"/>
<path d="M210.408 67.4779C209.932 66.1278 208.452 65.4187 207.102 65.8942C205.752 66.3697 205.043 67.8498 205.518 69.2L206.508 72.0086L211.397 70.2866L210.408 67.4779Z" fill="#7FC3FF"/>
<path d="M210.457 43.3138C210.816 42.7616 211.084 42.75 211.236 42.8627C211.3 42.9101 211.404 42.9198 211.428 42.8438C211.526 42.529 211.044 42.3214 208.476 43.3138C205.606 44.4229 204.42 47.4788 204.152 49.0118C204.139 49.086 204.206 49.1476 204.278 49.1268C205.73 48.7104 207.175 47.1052 207.676 46.4987C207.739 46.4221 207.852 46.4618 207.832 46.5591C207.786 46.7886 207.681 47.0386 207.581 47.2353C207.536 47.3232 207.617 47.4231 207.707 47.3816C209.168 46.7023 209.898 44.1745 210.457 43.3138Z" fill="#514B46"/>
<path d="M212.65 41.9289C212.217 41.7026 212.043 42.2052 211.998 42.5682C211.99 42.629 211.933 42.6728 211.874 42.6595C210.207 42.2893 208.497 41.5313 214.255 41.2702C220.035 41.008 223.267 46.2843 224.223 49.1035C224.247 49.1752 224.184 49.2434 224.11 49.2279C221.488 48.678 219.303 46.9432 218.236 45.8385C218.158 45.7582 218.011 45.8463 218.048 45.9516L218.2 46.3776C218.224 46.4459 218.167 46.5162 218.094 46.5093C213.164 46.034 213.246 42.2404 212.65 41.9289Z" fill="#514B46"/>
<path d="M118.107 25.7533C118.107 32.5024 112.636 36.3152 105.886 36.3152C99.1373 36.3152 93.666 32.5024 93.666 25.7533C93.666 19.0041 99.1373 13.5328 105.886 13.5328C112.636 13.5328 118.107 19.0041 118.107 25.7533Z" fill="#514B46"/>
<circle cx="96.1098" cy="26.0248" r="4.6166" fill="#FFE5CF"/>
<circle cx="116.748" cy="26.0248" r="4.6166" fill="#FFE5CF"/>
<path d="M99.8751 37.9736H111.898C111.898 37.9736 114.183 46.7795 114.528 50.9431C114.753 53.6557 113.723 56.153 112.978 57.5641C112.568 58.3398 111.742 58.7629 110.865 58.7629H100.909C100.031 58.7629 99.2047 58.3398 98.7951 57.5641C98.0502 56.153 97.0205 53.6557 97.2453 50.9431C97.5904 46.7795 99.8751 37.9736 99.8751 37.9736Z" fill="#7FC3FF"/>
<rect x="103.295" y="32.2153" width="5.18387" height="8.23155" rx="2.59193" fill="#FFDDC0"/>
<circle cx="105.887" cy="25.7531" r="10.8626" fill="#FFE8D5"/>
<rect x="103.578" y="21.8511" width="4.56157" height="5.36656" rx="2.28079" fill="#FF8D87"/>
<circle cx="112.299" cy="24.0382" r="2.25944" fill="#FFDED5"/>
<circle cx="99.7262" cy="24.0382" r="2.25944" fill="#FFDED5"/>
<path d="M100.825 20.5771C100.825 20.5771 101.47 21.2627 102.546 21.1116C103.621 20.9604 104.052 20.1236 104.052 20.1236" stroke="#33353B" stroke-width="0.814695" stroke-linecap="round"/>
<path d="M107.722 20.1238C107.722 20.1238 108.153 20.9606 109.228 21.1117C110.304 21.2629 110.949 20.5773 110.949 20.5773" stroke="#33353B" stroke-width="0.814695" stroke-linecap="round"/>
<path d="M95.3202 61.0265C92.726 61.4926 90.3418 59.4985 90.3418 56.8627C90.3418 54.7304 91.9288 52.9314 94.0444 52.6654L103.572 51.4672C104.825 51.3097 106.092 51.3097 107.344 51.4672L116.872 52.6654C118.988 52.9314 120.575 54.7304 120.575 56.8627C120.575 59.4985 118.191 61.4926 115.596 61.0265L107.433 59.56C106.127 59.3254 104.79 59.3254 103.484 59.56L95.3202 61.0265Z" fill="#1F94F2"/>
<rect x="83.8984" y="54.1426" width="8.78992" height="12.4017" rx="4.39496" transform="rotate(-36.9762 83.8984 54.1426)" fill="#FFE8D5"/>
<rect width="8.78992" height="12.4111" rx="4.39496" transform="matrix(-0.798885 -0.601484 -0.601484 0.798885 126.963 54.1348)" fill="#FFE8D5"/>
<ellipse cx="105.886" cy="52.3011" rx="8.64812" ry="1.60974" fill="#7FC3FF"/>
<rect x="110.503" y="37.2754" width="5.18387" height="18.9082" rx="2.59193" transform="rotate(19.4017 110.503 37.2754)" fill="#FFE8D5"/>
<rect width="5.18387" height="19.1" rx="2.59193" transform="matrix(-0.943213 0.33219 0.33219 0.943213 101.298 37.2754)" fill="#FFE8D5"/>
<path d="M109.642 39.7201C110.117 38.3699 111.597 37.6609 112.948 38.1364C114.298 38.6119 115.007 40.092 114.531 41.4422L113.542 44.2508L108.653 42.5288L109.642 39.7201Z" fill="#7FC3FF"/>
<path d="M102.159 39.7201C101.683 38.3699 100.203 37.6609 98.8531 38.1364C97.5029 38.6119 96.7939 40.092 97.2694 41.4422L98.2586 44.2508L103.148 42.5288L102.159 39.7201Z" fill="#7FC3FF"/>
<path d="M103.093 14.4863C103.267 14.4864 103.41 14.5987 103.462 14.75C103.515 14.5966 103.66 14.4863 103.831 14.4863H107.94C108.106 14.4864 108.247 14.5903 108.304 14.7366C108.36 14.592 108.5 14.4863 108.668 14.4863H110.182C110.292 14.4863 110.397 14.5326 110.471 14.6138L115.043 19.5503L109.307 18.7689C109.118 18.7689 108.957 18.6337 108.923 18.4481L108.33 16.3722V18.3782C108.33 18.5939 108.155 18.7688 107.94 18.7689H103.831C103.616 18.7689 103.441 18.5939 103.441 18.3782V16.3199L102.839 18.4481C102.805 18.6337 102.643 18.7689 102.454 18.7689L96.7188 19.5503L101.291 14.6138C101.365 14.5326 101.47 14.4863 101.579 14.4863H103.093Z" fill="#514B46"/>
<path d="M281.63 25.8142C281.63 32.5633 276.159 36.3761 269.41 36.3761C262.661 36.3761 257.189 32.5633 257.189 25.8142C257.189 19.065 262.661 13.5938 269.41 13.5938C276.159 13.5938 281.63 19.065 281.63 25.8142Z" fill="#514B46"/>
<circle cx="259.633" cy="26.0857" r="4.6166" fill="#FFE5CF"/>
<circle cx="280.273" cy="26.0857" r="4.6166" fill="#FFE5CF"/>
<path d="M263.4 38.0342H275.422C275.422 38.0342 277.707 46.84 278.052 51.0036C278.277 53.7162 277.247 56.2135 276.502 57.6246C276.093 58.4004 275.266 58.8235 274.389 58.8235H264.433C263.556 58.8235 262.729 58.4004 262.32 57.6246C261.575 56.2135 260.545 53.7162 260.77 51.0036C261.115 46.84 263.4 38.0342 263.4 38.0342Z" fill="#16B77B"/>
<rect x="266.817" y="32.2764" width="5.18387" height="8.23155" rx="2.59193" fill="#FFDDC0"/>
<circle cx="269.409" cy="25.8143" r="10.8626" fill="#FFE8D5"/>
<rect x="267.102" y="21.912" width="4.56157" height="5.36656" rx="2.28079" fill="#FF8D87"/>
<circle cx="275.823" cy="24.099" r="2.25944" fill="#FFDED5"/>
<circle cx="263.251" cy="24.099" r="2.25944" fill="#FFDED5"/>
<path d="M264.349 20.6382C264.349 20.6382 264.993 21.3238 266.069 21.1726C267.145 21.0214 267.576 20.1846 267.576 20.1846" stroke="#33353B" stroke-width="0.814695" stroke-linecap="round"/>
<path d="M271.245 20.1846C271.245 20.1846 271.676 21.0213 272.752 21.1725C273.827 21.3237 274.472 20.6381 274.472 20.6381" stroke="#33353B" stroke-width="0.814695" stroke-linecap="round"/>
<path d="M258.845 61.0877C256.25 61.5537 253.866 59.5597 253.866 56.9239C253.866 54.7916 255.453 52.9926 257.569 52.7265L267.097 51.5284C268.349 51.3709 269.616 51.3709 270.869 51.5284L280.397 52.7265C282.512 52.9926 284.099 54.7916 284.099 56.9239C284.099 59.5597 281.715 61.5537 279.121 61.0877L270.957 59.6211C269.651 59.3865 268.314 59.3865 267.008 59.6211L258.845 61.0877Z" fill="#1F94F2"/>
<rect x="247.423" y="54.2032" width="8.78992" height="12.4017" rx="4.39496" transform="rotate(-36.9762 247.423 54.2032)" fill="#FFE8D5"/>
<rect width="8.78992" height="12.4111" rx="4.39496" transform="matrix(-0.798885 -0.601484 -0.601484 0.798885 290.486 54.1958)" fill="#FFE8D5"/>
<ellipse cx="269.41" cy="52.3618" rx="8.64812" ry="1.60974" fill="#16B77B"/>
<rect x="274.027" y="37.3363" width="5.18387" height="18.9082" rx="2.59193" transform="rotate(19.4017 274.027 37.3363)" fill="#FFE8D5"/>
<rect width="5.18387" height="19.1" rx="2.59193" transform="matrix(-0.943213 0.33219 0.33219 0.943213 264.822 37.3363)" fill="#FFE8D5"/>
<path d="M273.166 39.781C273.642 38.4309 275.122 37.7218 276.472 38.1973C277.822 38.6728 278.531 40.1529 278.056 41.5031L277.067 44.3117L272.177 42.5897L273.166 39.781Z" fill="#16B77B"/>
<path d="M265.683 39.781C265.208 38.4309 263.728 37.7218 262.378 38.1973C261.027 38.6728 260.318 40.1529 260.794 41.5031L261.783 44.3117L266.672 42.5897L265.683 39.781Z" fill="#16B77B"/>
<path d="M269.391 14.7631C269.829 14.6212 270.833 14.6476 272.829 15.0668C276.954 15.933 278.758 19.2469 279.144 20.7953L272.085 19.4329C271.369 19.2946 270.744 18.9149 270.646 18.1924C270.593 17.8071 270.565 17.2984 270.587 16.6391C270.646 14.8509 269.815 15.1494 269.392 15.5219L269.391 15.5209L269.39 15.5219C268.966 15.1494 268.135 14.8509 268.194 16.6391C268.216 17.2984 268.188 17.8071 268.136 18.1924C268.037 18.9149 267.412 19.2946 266.696 19.4329L259.638 20.7953C260.024 19.2469 261.827 15.933 265.952 15.0668C267.949 14.6476 268.952 14.6212 269.391 14.7631Z" fill="#514B46"/>
<ellipse cx="160.529" cy="98.0621" rx="12.8744" ry="11.5416" fill="#514B46"/>
<rect x="148.852" y="86.292" width="11.6773" height="17.2413" rx="5.83864" fill="#514B46"/>
<rect x="160.529" y="86.292" width="11.6773" height="17.2413" rx="5.83864" fill="#514B46"/>
<circle cx="150.752" cy="99.0131" r="4.6166" fill="#FFE5CF"/>
<circle cx="171.391" cy="99.0131" r="4.6166" fill="#FFE5CF"/>
<path d="M154.517 110.962H166.54C166.54 110.962 168.824 119.767 169.169 123.931C169.394 126.644 168.365 129.141 167.62 130.552C167.21 131.328 166.383 131.751 165.506 131.751H155.55C154.673 131.751 153.846 131.328 153.437 130.552C152.692 129.141 151.662 126.644 151.887 123.931C152.232 119.767 154.517 110.962 154.517 110.962Z" fill="#FFAB9E"/>
<rect x="157.937" y="105.204" width="5.18387" height="8.23155" rx="2.59193" fill="#FFDDC0"/>
<circle cx="160.529" cy="98.7414" r="10.8626" fill="#FFE8D5"/>
<circle cx="166.942" cy="97.026" r="2.25944" fill="#FFDED5"/>
<circle cx="154.369" cy="97.026" r="2.25944" fill="#FFDED5"/>
<path d="M155.468 93.5651C155.468 93.5651 156.113 94.2507 157.188 94.0995C158.264 93.9483 158.695 93.1115 158.695 93.1115" stroke="#33353B" stroke-width="0.814695" stroke-linecap="round"/>
<path d="M162.363 93.1116C162.363 93.1116 162.794 93.9483 163.87 94.0995C164.946 94.2507 165.59 93.5651 165.59 93.5651" stroke="#33353B" stroke-width="0.814695" stroke-linecap="round"/>
<path d="M158.691 87.9413C161.522 87.207 167.89 88.0236 170.521 94.4788C168.033 93.7491 162.386 91.5988 159.279 88.6266C159.024 88.3823 158.603 88.4169 158.39 88.6986C156.171 91.624 152.33 93.6755 150.557 94.3991C152.462 88.9547 156.635 87.8497 158.691 87.9413Z" fill="#514B46"/>
<path d="M149.962 134.015C147.368 134.481 144.983 132.487 144.983 129.851C144.983 127.719 146.57 125.92 148.686 125.654L158.214 124.455C159.466 124.298 160.734 124.298 161.986 124.455L171.514 125.654C173.63 125.92 175.216 127.719 175.216 129.851C175.216 132.487 172.832 134.481 170.238 134.015L162.075 132.548C160.769 132.314 159.431 132.314 158.125 132.548L149.962 134.015Z" fill="#B82F1A"/>
<rect x="138.541" y="127.13" width="8.78992" height="12.4017" rx="4.39496" transform="rotate(-36.9762 138.541 127.13)" fill="#FFE8D5"/>
<rect width="8.78992" height="12.4111" rx="4.39496" transform="matrix(-0.798885 -0.601484 -0.601484 0.798885 181.605 127.123)" fill="#FFE8D5"/>
<ellipse cx="160.528" cy="125.289" rx="8.64812" ry="1.60974" fill="#FFAB9E"/>
<rect x="165.146" y="110.264" width="5.18387" height="18.9082" rx="2.59193" transform="rotate(19.4017 165.146 110.264)" fill="#FFE8D5"/>
<rect width="5.18387" height="19.1" rx="2.59193" transform="matrix(-0.943213 0.33219 0.33219 0.943213 155.939 110.263)" fill="#FFE8D5"/>
<path d="M164.284 112.708C164.76 111.358 166.24 110.649 167.59 111.125C168.94 111.6 169.65 113.08 169.174 114.43L168.185 117.239L163.295 115.517L164.284 112.708Z" fill="#FFAB9E"/>
<path d="M156.8 112.708C156.325 111.358 154.845 110.649 153.495 111.124C152.145 111.6 151.435 113.08 151.911 114.43L152.9 117.239L157.79 115.517L156.8 112.708Z" fill="#FFAB9E"/>
<path d="M159.022 95.53C159.411 95.5569 160.238 95.4247 160.437 94.6812C160.507 94.9641 160.845 95.53 161.644 95.53" stroke="#FF5656" stroke-width="0.54313" stroke-linecap="round" stroke-linejoin="round"/>
<path d="M219.215 123.027C219.215 129.776 213.744 133.589 206.995 133.589C200.246 133.589 194.774 129.776 194.774 123.027C194.774 116.278 200.246 110.807 206.995 110.807C213.744 110.807 219.215 116.278 219.215 123.027Z" fill="#514B46"/>
<path d="M195.429 138.943C193.31 134.858 196.798 131.816 198.807 130.805C199.831 129.576 201.518 128.079 200.075 131.918C198.631 135.756 199.601 138.2 200.267 138.943H197.503L196.965 137.714V138.943H195.429Z" fill="#514B46"/>
<circle cx="197.218" cy="123.299" r="4.6166" fill="#FFE5CF"/>
<circle cx="217.858" cy="123.299" r="4.6166" fill="#FFE5CF"/>
<path d="M200.983 135.247H213.006C213.006 135.247 215.291 144.053 215.636 148.217C215.861 150.929 214.831 153.427 214.086 154.838C213.677 155.614 212.85 156.037 211.973 156.037H202.017C201.14 156.037 200.313 155.614 199.904 154.838C199.159 153.427 198.129 150.929 198.354 148.217C198.699 144.053 200.983 135.247 200.983 135.247Z" fill="#1F94F2"/>
<rect x="204.403" y="129.489" width="5.18387" height="8.23155" rx="2.59193" fill="#FFDDC0"/>
<circle cx="206.995" cy="123.027" r="10.8626" fill="#FFE8D5"/>
<rect x="204.687" y="119.125" width="4.56157" height="5.36656" rx="2.28079" fill="#FF8D87"/>
<circle cx="213.408" cy="121.312" r="2.25944" fill="#FFDED5"/>
<circle cx="200.835" cy="121.312" r="2.25944" fill="#FFDED5"/>
<path d="M201.934 117.852C201.934 117.852 202.578 118.537 203.654 118.386C204.73 118.235 205.161 117.398 205.161 117.398" stroke="#33353B" stroke-width="0.814695" stroke-linecap="round"/>
<path d="M208.83 117.398C208.83 117.398 209.261 118.234 210.337 118.386C211.412 118.537 212.057 117.851 212.057 117.851" stroke="#33353B" stroke-width="0.814695" stroke-linecap="round"/>
<path d="M196.429 158.301C193.834 158.767 191.45 156.773 191.45 154.137C191.45 152.005 193.037 150.206 195.153 149.94L204.681 148.741C205.933 148.584 207.2 148.584 208.453 148.741L217.981 149.94C220.096 150.206 221.683 152.005 221.683 154.137C221.683 156.773 219.299 158.767 216.705 158.301L208.541 156.834C207.235 156.6 205.898 156.6 204.592 156.834L196.429 158.301Z" fill="#7EECC4"/>
<rect x="185.007" y="151.416" width="8.78992" height="12.4017" rx="4.39496" transform="rotate(-36.9762 185.007 151.416)" fill="#FFE8D5"/>
<rect width="8.78992" height="12.4111" rx="4.39496" transform="matrix(-0.798885 -0.601484 -0.601484 0.798885 228.072 151.409)" fill="#FFE8D5"/>
<ellipse cx="206.995" cy="149.575" rx="8.64812" ry="1.60974" fill="#1F94F2"/>
<rect x="211.612" y="134.549" width="5.18387" height="18.9082" rx="2.59193" transform="rotate(19.4017 211.612 134.549)" fill="#FFE8D5"/>
<rect width="5.18387" height="19.1" rx="2.59193" transform="matrix(-0.943213 0.33219 0.33219 0.943213 202.406 134.549)" fill="#FFE8D5"/>
<path d="M210.751 136.994C211.227 135.644 212.707 134.935 214.057 135.41C215.407 135.886 216.116 137.366 215.641 138.716L214.652 141.525L209.762 139.803L210.751 136.994Z" fill="#1F94F2"/>
<path d="M203.267 136.994C202.792 135.644 201.312 134.935 199.962 135.41C198.611 135.886 197.902 137.366 198.378 138.716L199.367 141.525L204.256 139.803L203.267 136.994Z" fill="#1F94F2"/>
<path d="M204.202 111.76C204.375 111.76 204.518 111.873 204.571 112.024C204.623 111.87 204.769 111.76 204.94 111.76H209.048C209.214 111.76 209.356 111.864 209.412 112.011C209.468 111.866 209.608 111.76 209.777 111.76H211.291C211.401 111.76 211.505 111.807 211.579 111.888L216.151 116.824L210.416 116.043C210.227 116.043 210.065 115.908 210.031 115.722L209.439 113.646V115.652C209.439 115.868 209.264 116.043 209.048 116.043H204.94C204.724 116.043 204.549 115.868 204.549 115.652V113.594L203.947 115.722C203.913 115.908 203.751 116.043 203.563 116.043L197.827 116.824L202.399 111.888C202.473 111.807 202.578 111.76 202.688 111.76H204.202Z" fill="#514B46"/>
<ellipse cx="125.794" cy="47.8778" rx="12.2204" ry="11.8977" fill="#514B46"/>
<path d="M120.06 35.6137C119.453 36.8264 118.128 38.3845 117.542 39.0119L130.279 36.9094C125.536 34.3669 125.365 33.8779 124.974 34.3913C124.583 34.9047 124.436 35.2958 123.898 34.8557C123.36 34.4157 122.945 33.5356 122.603 34.0246C122.26 34.5135 121.967 35.907 121.453 35.0758C120.94 34.2446 120.818 34.0979 120.06 35.6137Z" fill="#514B46"/>
<circle cx="116.018" cy="49.1845" r="4.6166" fill="#FFE5CF"/>
<circle cx="136.656" cy="49.1845" r="4.6166" fill="#FFE5CF"/>
<path d="M119.782 61.1331H131.805C131.805 61.1331 134.09 69.9389 134.435 74.1025C134.66 76.8151 133.63 79.3124 132.885 80.7235C132.476 81.4992 131.649 81.9223 130.772 81.9223H120.816C119.939 81.9223 119.112 81.4992 118.702 80.7235C117.957 79.3124 116.928 76.8151 117.153 74.1025C117.498 69.9389 119.782 61.1331 119.782 61.1331Z" fill="#25DC96"/>
<rect x="123.202" y="55.375" width="5.18387" height="8.23155" rx="2.59193" fill="#FFDDC0"/>
<circle cx="125.794" cy="48.9129" r="10.8626" fill="#FFE8D5"/>
<circle cx="132.207" cy="47.466" r="2.25944" fill="#FFDED5"/>
<circle cx="119.633" cy="47.4659" r="2.25944" fill="#FFDED5"/>
<path d="M120.732 44.0049C120.732 44.0049 121.377 44.6905 122.453 44.5393C123.529 44.3881 123.959 43.5513 123.959 43.5513" stroke="#33353B" stroke-width="0.814695" stroke-linecap="round"/>
<path d="M127.628 43.5515C127.628 43.5515 128.059 44.3883 129.134 44.5395C130.21 44.6906 130.855 44.005 130.855 44.005" stroke="#33353B" stroke-width="0.814695" stroke-linecap="round"/>
<path d="M128.486 40.6973C128.6 40.6973 130.031 40.6973 130.303 40.6973" stroke="#514B46" stroke-width="0.814695" stroke-linecap="round"/>
<path d="M121.294 40.6973C121.408 40.6973 122.838 40.6973 123.11 40.6973" stroke="#514B46" stroke-width="0.814695" stroke-linecap="round"/>
<path d="M124.281 45.5819L126.915 45.5819" stroke="#FF5656" stroke-width="0.54313" stroke-linecap="round"/>
<path d="M126.951 44.8223C126.881 45.1772 126.869 45.9779 127.384 46.3416" stroke="#FF5656" stroke-width="0.54313" stroke-linecap="round"/>
<path d="M115.226 84.1863C112.632 84.6524 110.248 82.6583 110.248 80.0225C110.248 77.8902 111.835 76.0912 113.951 75.8252L123.478 74.627C124.731 74.4695 125.998 74.4695 127.251 74.627L136.779 75.8252C138.894 76.0912 140.481 77.8902 140.481 80.0225C140.481 82.6583 138.097 84.6524 135.503 84.1863L127.339 82.7198C126.033 82.4852 124.696 82.4852 123.39 82.7198L115.226 84.1863Z" fill="#ADD9FF"/>
<rect x="103.807" y="77.3018" width="8.78992" height="12.4017" rx="4.39496" transform="rotate(-36.9762 103.807 77.3018)" fill="#FFE8D5"/>
<rect width="8.78992" height="12.4111" rx="4.39496" transform="matrix(-0.798885 -0.601484 -0.601484 0.798885 146.871 77.2944)" fill="#FFE8D5"/>
<ellipse cx="125.793" cy="75.4603" rx="8.64812" ry="1.60974" fill="#25DC96"/>
<rect x="130.41" y="60.4346" width="5.18387" height="18.9082" rx="2.59193" transform="rotate(19.4017 130.41 60.4346)" fill="#FFE8D5"/>
<rect width="5.18387" height="19.1" rx="2.59193" transform="matrix(-0.943213 0.33219 0.33219 0.943213 121.205 60.4348)" fill="#FFE8D5"/>
<path d="M129.549 62.8793C130.025 61.5291 131.505 60.8201 132.855 61.2956C134.205 61.7711 134.914 63.2511 134.439 64.6013L133.449 67.41L128.56 65.688L129.549 62.8793Z" fill="#25DC96"/>
<path d="M122.066 62.8796C121.591 61.5294 120.111 60.8203 118.76 61.2958C117.41 61.7714 116.701 63.2514 117.177 64.6016L118.166 67.4102L123.055 65.6882L122.066 62.8796Z" fill="#25DC96"/>
<ellipse cx="115.368" cy="165.841" rx="26.9712" ry="6.34615" fill="#F3F4F6"/>
<circle cx="1.80178" cy="1.80178" r="1.80178" transform="matrix(-1 0 0 1 112.223 130.641)" fill="#8F7560"/>
<circle cx="1.80178" cy="1.80178" r="1.80178" transform="matrix(-1 0 0 1 114.253 132.67)" fill="#8F7560"/>
<circle cx="1.80178" cy="1.80178" r="1.80178" transform="matrix(-1 0 0 1 116.822 134.012)" fill="#8F7560"/>
<circle cx="1.80178" cy="1.80178" r="1.80178" transform="matrix(-1 0 0 1 119.091 134.906)" fill="#8F7560"/>
<circle cx="130.289" cy="132.442" r="1.80178" fill="#8F7560"/>
<circle cx="128.259" cy="134.472" r="1.80178" fill="#8F7560"/>
<circle cx="125.689" cy="135.813" r="1.80178" fill="#8F7560"/>
<circle cx="123.421" cy="136.708" r="1.80178" fill="#8F7560"/>
<circle cx="3.01856" cy="3.01856" r="3.01856" transform="matrix(-1 0 0 1 135.163 119.412)" fill="#8F7560"/>
<circle cx="108.716" cy="122.334" r="3.47656" fill="#8F7560"/>
<circle cx="2.77063" cy="2.77063" r="2.77063" transform="matrix(-1 0 0 1 132.831 115.059)" fill="#8F7560"/>
<circle cx="113.795" cy="115.409" r="1.93313" fill="#8F7560"/>
<circle cx="1.93313" cy="1.93313" r="1.93313" transform="matrix(-1 0 0 1 128.913 113.476)" fill="#8F7560"/>
<circle cx="2.9219" cy="2.9219" r="2.9219" transform="matrix(-1 0 0 1 125.949 111.231)" fill="#8F7560"/>
<circle cx="2.91455" cy="2.91455" r="2.91455" transform="matrix(-1 0 0 1 120.683 111.239)" fill="#8F7560"/>
<ellipse cx="120.682" cy="126.365" rx="12.2204" ry="11.8977" fill="#8F7560"/>
<circle cx="110.907" cy="127.672" r="4.6166" fill="#FFE5CF"/>
<circle cx="131.546" cy="127.671" r="4.6166" fill="#FFE5CF"/>
<path d="M114.671 139.62H126.694C126.694 139.62 128.979 148.426 129.324 152.59C129.549 155.302 128.519 157.799 127.774 159.211C127.364 159.986 126.538 160.409 125.66 160.409H115.704C114.827 160.409 114.001 159.986 113.591 159.211C112.846 157.799 111.816 155.302 112.041 152.59C112.386 148.426 114.671 139.62 114.671 139.62Z" fill="#FF7F6B"/>
<rect x="118.091" y="133.863" width="5.18387" height="8.23155" rx="2.59193" fill="#FFDDC0"/>
<circle cx="120.683" cy="127.4" r="10.8626" fill="#FFE8D5"/>
<circle cx="127.096" cy="125.953" r="2.25944" fill="#FFDED5"/>
<circle cx="114.522" cy="125.953" r="2.25944" fill="#FFDED5"/>
<path d="M115.622 122.492C115.622 122.492 116.267 123.178 117.343 123.027C118.418 122.875 118.849 122.039 118.849 122.039" stroke="#33353B" stroke-width="0.814695" stroke-linecap="round"/>
<path d="M122.517 122.039C122.517 122.039 122.947 122.876 124.023 123.027C125.099 123.178 125.744 122.493 125.744 122.493" stroke="#33353B" stroke-width="0.814695" stroke-linecap="round"/>
<path d="M119.171 124.069L121.805 124.069" stroke="#FF5656" stroke-width="0.54313" stroke-linecap="round"/>
<path d="M121.84 123.31C121.769 123.664 121.758 124.465 122.272 124.829" stroke="#FF5656" stroke-width="0.54313" stroke-linecap="round"/>
<path d="M110.116 162.674C107.522 163.14 105.138 161.146 105.138 158.51C105.138 156.378 106.725 154.579 108.84 154.313L118.368 153.115C119.621 152.957 120.888 152.957 122.14 153.115L131.668 154.313C133.784 154.579 135.371 156.378 135.371 158.51C135.371 161.146 132.987 163.14 130.392 162.674L122.229 161.207C120.923 160.973 119.586 160.973 118.28 161.207L110.116 162.674Z" fill="#16B77B"/>
<rect x="98.6963" y="155.789" width="8.78992" height="12.4017" rx="4.39496" transform="rotate(-36.9762 98.6963 155.789)" fill="#FFE8D5"/>
<rect width="8.78992" height="12.4111" rx="4.39496" transform="matrix(-0.798885 -0.601484 -0.601484 0.798885 141.76 155.781)" fill="#FFE8D5"/>
<ellipse cx="120.683" cy="153.948" rx="8.64812" ry="1.60974" fill="#FF7F6B"/>
<rect x="125.3" y="138.922" width="5.18387" height="18.9082" rx="2.59193" transform="rotate(19.4017 125.3 138.922)" fill="#FFE8D5"/>
<rect width="5.18387" height="19.1" rx="2.59193" transform="matrix(-0.943213 0.33219 0.33219 0.943213 116.095 138.922)" fill="#FFE8D5"/>
<path d="M124.439 141.367C124.914 140.016 126.394 139.307 127.745 139.783C129.095 140.258 129.804 141.738 129.328 143.089L128.339 145.897L123.45 144.175L124.439 141.367Z" fill="#FF7F6B"/>
<path d="M116.956 141.367C116.48 140.016 115 139.307 113.65 139.783C112.3 140.258 111.591 141.738 112.066 143.089L113.055 145.897L117.945 144.175L116.956 141.367Z" fill="#FF7F6B"/>
<circle cx="2.88391" cy="2.88391" r="2.88391" transform="matrix(-1 0 0 1 126.819 113.653)" fill="#8F7560"/>
<circle cx="2.88391" cy="2.88391" r="2.88391" transform="matrix(-1 0 0 1 122.038 113.147)" fill="#8F7560"/>
<circle cx="2.41711" cy="2.41711" r="2.41711" transform="matrix(-1 0 0 1 116.822 115.626)" fill="#8F7560"/>
<circle cx="2.41711" cy="2.41711" r="2.41711" transform="matrix(-1 0 0 1 130.126 116.086)" fill="#8F7560"/>
<circle cx="1.87219" cy="1.87219" r="1.87219" transform="matrix(-1 0 0 1 131.699 119.857)" fill="#8F7560"/>
<circle cx="2.41711" cy="2.41711" r="2.41711" transform="matrix(-1 0 0 1 113.91 118.915)" fill="#8F7560"/>
<circle cx="3.09082" cy="3.09082" r="3.09082" transform="matrix(-1 0 0 1 113.997 114.739)" fill="#8F7560"/>
<ellipse cx="247.645" cy="169.038" rx="24.3269" ry="4.23077" fill="#F3F4F6"/>
<path d="M267.67 88.8337C267.67 95.5829 262.199 99.3957 255.45 99.3957C248.701 99.3957 243.229 95.5829 243.229 88.8337C243.229 82.0846 248.701 76.6133 255.45 76.6133C262.199 76.6133 267.67 82.0846 267.67 88.8337Z" fill="#514B46"/>
<circle cx="245.673" cy="89.1054" r="4.6166" fill="#FFE5CF"/>
<circle cx="266.313" cy="89.1054" r="4.6166" fill="#FFE5CF"/>
<path d="M249.439 101.054H261.462C261.462 101.054 263.746 109.86 264.091 114.024C264.316 116.736 263.286 119.233 262.541 120.645C262.132 121.42 261.305 121.843 260.428 121.843H250.472C249.595 121.843 248.768 121.42 248.359 120.645C247.614 119.233 246.584 116.736 246.809 114.024C247.154 109.86 249.439 101.054 249.439 101.054Z" fill="#374151"/>
<rect x="252.858" y="95.2959" width="5.18387" height="8.23155" rx="2.59193" fill="#FFDDC0"/>
<circle cx="255.45" cy="88.8333" r="10.8626" fill="#FFE8D5"/>
<path d="M253.812 85.2346C254.201 85.2615 255.028 85.1293 255.227 84.3857C255.297 84.6687 255.635 85.2346 256.434 85.2346" stroke="#ED8080" stroke-width="0.54313" stroke-linecap="round" stroke-linejoin="round"/>
<circle cx="261.863" cy="87.1188" r="2.25944" fill="#FFDED5"/>
<circle cx="249.29" cy="87.1187" r="2.25944" fill="#FFDED5"/>
<path d="M250.389 83.6582C250.389 83.6582 251.033 84.3438 252.109 84.1926C253.185 84.0414 253.616 83.2047 253.616 83.2047" stroke="#33353B" stroke-width="0.814695" stroke-linecap="round"/>
<path d="M257.285 83.2042C257.285 83.2042 257.716 84.041 258.792 84.1922C259.867 84.3434 260.512 83.6578 260.512 83.6578" stroke="#33353B" stroke-width="0.814695" stroke-linecap="round"/>
<path d="M244.884 124.107C242.289 124.573 239.905 122.579 239.905 119.944C239.905 117.811 241.492 116.012 243.608 115.746L253.136 114.548C254.388 114.391 255.655 114.391 256.908 114.548L266.436 115.746C268.551 116.012 270.138 117.811 270.138 119.944C270.138 122.579 267.754 124.573 265.16 124.107L256.996 122.641C255.69 122.406 254.353 122.406 253.047 122.641L244.884 124.107Z" fill="#FFAB9E"/>
<rect x="233.462" y="117.223" width="8.78992" height="12.4017" rx="4.39496" transform="rotate(-36.9762 233.462 117.223)" fill="#FFE8D5"/>
<rect width="8.78992" height="12.4111" rx="4.39496" transform="matrix(-0.798885 -0.601484 -0.601484 0.798885 276.527 117.215)" fill="#FFE8D5"/>
<ellipse cx="255.45" cy="115.381" rx="8.64812" ry="1.60974" fill="#374151"/>
<rect x="260.067" y="100.356" width="5.18387" height="18.9082" rx="2.59193" transform="rotate(19.4017 260.067 100.356)" fill="#FFE8D5"/>
<rect width="5.18387" height="19.1" rx="2.59193" transform="matrix(-0.943213 0.33219 0.33219 0.943213 250.861 100.356)" fill="#FFE8D5"/>
<path d="M259.206 102.801C259.682 101.451 261.162 100.741 262.512 101.217C263.862 101.692 264.571 103.173 264.096 104.523L263.107 107.331L258.217 105.609L259.206 102.801Z" fill="#374151"/>
<path d="M251.722 102.801C251.247 101.45 249.767 100.741 248.417 101.217C247.066 101.692 246.357 103.172 246.833 104.523L247.822 107.331L252.712 105.609L251.722 102.801Z" fill="#374151"/>
<path d="M252.657 77.5669C252.83 77.567 252.973 77.6793 253.026 77.8305C253.078 77.6771 253.224 77.5669 253.395 77.5669H257.503C257.669 77.567 257.811 77.6709 257.867 77.8172C257.923 77.6726 258.063 77.5669 258.232 77.5669H259.746C259.856 77.5669 259.96 77.6132 260.034 77.6943L264.606 82.6309L258.871 81.8495C258.682 81.8494 258.52 81.7142 258.486 81.5286L257.894 79.4528V81.4588C257.894 81.6745 257.719 81.8494 257.503 81.8495H253.395C253.179 81.8495 253.004 81.6745 253.004 81.4588V79.4005L252.402 81.5286C252.368 81.7143 252.206 81.8495 252.018 81.8495L246.282 82.6309L250.854 77.6943C250.928 77.6132 251.033 77.5669 251.143 77.5669H252.657Z" fill="#514B46"/>
<circle cx="245.737" cy="133.141" r="12.2204" fill="#514B46"/>
<rect x="234.061" y="132.326" width="11.6773" height="17.2413" rx="5.83864" fill="#514B46"/>
<rect x="245.737" y="132.326" width="11.6773" height="17.2413" rx="5.83864" fill="#514B46"/>
<circle cx="235.96" cy="133.413" r="4.6166" fill="#FFE5CF"/>
<circle cx="256.6" cy="133.413" r="4.6166" fill="#FFE5CF"/>
<path d="M239.725 145.361H251.748C251.748 145.361 254.032 154.167 254.377 158.331C254.602 161.043 253.573 163.541 252.828 164.952C252.418 165.728 251.591 166.151 250.714 166.151H240.758C239.881 166.151 239.054 165.728 238.645 164.952C237.9 163.541 236.87 161.043 237.095 158.331C237.44 154.167 239.725 145.361 239.725 145.361Z" fill="#FFBB00"/>
<rect x="243.146" y="139.603" width="5.18387" height="8.23155" rx="2.59193" fill="#FFDDC0"/>
<circle cx="245.737" cy="133.141" r="10.8626" fill="#FFE8D5"/>
<circle cx="252.15" cy="131.425" r="2.25944" fill="#FFDED5"/>
<circle cx="239.576" cy="131.425" r="2.25944" fill="#FFDED5"/>
<path d="M240.675 127.965C240.675 127.965 241.32 128.65 242.395 128.499C243.471 128.348 243.902 127.511 243.902 127.511" stroke="#33353B" stroke-width="0.814695" stroke-linecap="round"/>
<path d="M247.571 127.511C247.571 127.511 248.002 128.348 249.078 128.499C250.154 128.65 250.798 127.965 250.798 127.965" stroke="#33353B" stroke-width="0.814695" stroke-linecap="round"/>
<path d="M243.898 122.341C246.729 121.606 253.097 122.423 255.728 128.878C253.24 128.149 247.593 125.998 244.486 123.026C244.231 122.782 243.81 122.816 243.597 123.098C241.378 126.023 237.537 128.075 235.764 128.799C237.669 123.354 241.842 122.249 243.898 122.341Z" fill="#514B46"/>
<path d="M235.17 168.414C232.576 168.88 230.191 166.886 230.191 164.25C230.191 162.118 231.778 160.319 233.894 160.053L243.422 158.855C244.674 158.697 245.942 158.697 247.194 158.855L256.722 160.053C258.838 160.319 260.425 162.118 260.425 164.25C260.425 166.886 258.04 168.88 255.446 168.414L247.283 166.948C245.977 166.713 244.639 166.713 243.333 166.948L235.17 168.414Z" fill="#ADD9FF"/>
<rect x="223.75" y="161.53" width="8.78992" height="12.4017" rx="4.39496" transform="rotate(-36.9762 223.75 161.53)" fill="#FFE8D5"/>
<rect width="8.78992" height="12.4111" rx="4.39496" transform="matrix(-0.798885 -0.601484 -0.601484 0.798885 266.813 161.522)" fill="#FFE8D5"/>
<ellipse cx="245.737" cy="159.688" rx="8.64812" ry="1.60974" fill="#FFBB00"/>
<rect x="250.354" y="144.663" width="5.18387" height="18.9082" rx="2.59193" transform="rotate(19.4017 250.354 144.663)" fill="#FFE8D5"/>
<rect width="5.18387" height="19.1" rx="2.59193" transform="matrix(-0.943213 0.33219 0.33219 0.943213 241.147 144.663)" fill="#FFE8D5"/>
<path d="M249.493 147.108C249.969 145.758 251.449 145.049 252.799 145.524C254.149 146 254.858 147.48 254.383 148.83L253.394 151.638L248.504 149.916L249.493 147.108Z" fill="#FFBB00"/>
<path d="M242.008 147.108C241.533 145.758 240.053 145.049 238.703 145.524C237.353 146 236.643 147.48 237.119 148.83L238.108 151.638L242.998 149.916L242.008 147.108Z" fill="#FFBB00"/>
<path d="M244.231 129.93C244.62 129.957 245.447 129.825 245.646 129.081C245.716 129.364 246.054 129.93 246.853 129.93" stroke="#FF5656" stroke-width="0.54313" stroke-linecap="round" stroke-linejoin="round"/>
</svg>
