<svg width="375" height="180" viewBox="0 0 375 180" fill="none" xmlns="http://www.w3.org/2000/svg">
<ellipse cx="180.601" cy="60.3095" rx="26.0176" ry="4.52479" fill="#F3F4F6"/>
<ellipse cx="260.554" cy="75.015" rx="26.0176" ry="4.52479" fill="#F3F4F6"/>
<ellipse cx="197.629" cy="109.717" rx="26.0176" ry="4.52479" fill="#F3F4F6"/>
<ellipse cx="116.483" cy="69.3595" rx="26.0176" ry="4.52479" fill="#F3F4F6"/>
<path d="M174.067 15.7575C175.298 12.5096 178.409 10.3613 181.882 10.3613H187.016C190.489 10.3613 193.6 12.5096 194.83 15.7575L198.999 26.7614C200.035 29.4951 198.015 32.4199 195.092 32.4199H173.806C170.883 32.4199 168.863 29.4951 169.899 26.7614L174.067 15.7575Z" fill="#764747"/>
<path d="M197.517 21.1239C197.517 28.3421 191.666 32.4199 184.448 32.4199C177.229 32.4199 171.378 28.3421 171.378 21.1239C171.378 13.9057 177.229 8.0542 184.448 8.0542C191.666 8.0542 197.517 13.9057 197.517 21.1239Z" fill="#764747"/>
<circle cx="173.993" cy="21.4147" r="4.93744" fill="#FFE5CF"/>
<circle cx="196.065" cy="21.415" r="4.93744" fill="#FFE5CF"/>
<path d="M178.019 34.1937H190.878C190.878 34.1937 193.321 43.6115 193.69 48.0645C193.931 50.9656 192.829 53.6365 192.033 55.1456C191.595 55.9753 190.71 56.4278 189.772 56.4278H179.124C178.186 56.4278 177.302 55.9753 176.864 55.1456C176.067 53.6365 174.966 50.9656 175.206 48.0645C175.576 43.6115 178.019 34.1937 178.019 34.1937Z" fill="#FF5A3C"/>
<rect x="181.677" y="28.0353" width="5.54413" height="8.80361" rx="2.77206" fill="#FFDDC0"/>
<circle cx="184.449" cy="21.124" r="11.6175" fill="#FFE8D5"/>
<rect x="181.979" y="16.9507" width="4.87859" height="5.73952" rx="2.43929" fill="#FF8D87"/>
<circle cx="191.307" cy="19.2899" r="2.41646" fill="#FFDED5"/>
<circle cx="177.861" cy="19.2899" r="2.41646" fill="#FFDED5"/>
<path d="M179.035 15.5884C179.035 15.5884 179.725 16.3216 180.875 16.1599C182.026 15.9983 182.486 15.1033 182.486 15.1033" stroke="#33353B" stroke-width="0.871314" stroke-linecap="round"/>
<path d="M186.411 15.1035C186.411 15.1035 186.872 15.9984 188.022 16.1601C189.173 16.3218 189.862 15.5886 189.862 15.5886" stroke="#33353B" stroke-width="0.871314" stroke-linecap="round"/>
<path d="M173.149 58.8493C170.374 59.3477 167.824 57.2151 167.824 54.3961C167.824 52.1156 169.521 50.1916 171.784 49.907L181.974 48.6256C183.314 48.4572 184.669 48.4572 186.008 48.6256L196.198 49.907C198.461 50.1916 200.158 52.1156 200.158 54.3961C200.158 57.2151 197.609 59.3477 194.834 58.8493L186.103 57.2808C184.706 57.0299 183.276 57.0299 181.88 57.2808L173.149 58.8493Z" fill="#1F94F2"/>
<rect x="160.933" y="51.4861" width="9.40079" height="13.2636" rx="4.70039" transform="rotate(-36.9762 160.933 51.4861)" fill="#FFE8D5"/>
<rect width="9.40079" height="13.2736" rx="4.70039" transform="matrix(-0.798885 -0.601484 -0.601484 0.798885 206.99 51.4783)" fill="#FFE8D5"/>
<ellipse cx="184.449" cy="49.5169" rx="9.24913" ry="1.72161" fill="#FF5A3C"/>
<rect x="189.387" y="33.4469" width="5.54413" height="20.2222" rx="2.77206" transform="rotate(19.4017 189.387 33.4469)" fill="#FFE8D5"/>
<rect width="5.54413" height="20.4274" rx="2.77206" transform="matrix(-0.943213 0.33219 0.33219 0.943213 179.541 33.4469)" fill="#FFE8D5"/>
<path d="M188.466 36.0615C188.974 34.6175 190.557 33.8592 192.001 34.3678C193.445 34.8763 194.204 36.4592 193.695 37.9032L192.637 40.9071L187.408 39.0654L188.466 36.0615Z" fill="#FF5A3C"/>
<path d="M180.462 36.0615C179.953 34.6175 178.37 33.8592 176.926 34.3678C175.482 34.8763 174.724 36.4592 175.233 37.9032L176.29 40.9071L181.52 39.0654L180.462 36.0615Z" fill="#FF5A3C"/>
<path d="M181.462 9.07434C181.648 9.07443 181.801 9.19451 181.857 9.35629C181.913 9.19224 182.068 9.07434 182.252 9.07434H186.645C186.823 9.0744 186.974 9.18556 187.035 9.34201C187.094 9.18736 187.244 9.07434 187.425 9.07434H189.044C189.161 9.07435 189.273 9.12386 189.352 9.21063L194.242 14.4902L188.108 13.6546C187.906 13.6545 187.733 13.5099 187.697 13.3114L187.063 11.0913V13.2367C187.063 13.4674 186.876 13.6545 186.645 13.6546H182.252C182.021 13.6546 181.834 13.4674 181.834 13.2367V11.0354L181.19 13.3114C181.154 13.51 180.98 13.6546 180.779 13.6546L174.645 14.4902L179.534 9.21063C179.613 9.12384 179.725 9.07434 179.843 9.07434H181.462Z" fill="#764747"/>
<ellipse cx="259.628" cy="35.2181" rx="13.0697" ry="12.7245" fill="#514B46"/>
<path d="M253.283 23.7112C254.831 21.5695 256.162 22.5454 256.69 23.3735C256.722 23.424 256.707 23.4901 256.658 23.524L250.547 27.7285C250.437 27.8039 250.303 27.6595 250.385 27.5552C251.034 26.735 252.083 25.3711 253.283 23.7112Z" fill="#514B46"/>
<path d="M264.359 22.8681C261.767 20.7481 259.233 21.9082 258.295 22.751C258.234 22.8054 258.255 22.9017 258.33 22.9324L269.477 27.4652C269.58 27.5067 269.673 27.3962 269.611 27.3048C268.679 25.9241 267.066 24.654 264.359 22.8681Z" fill="#514B46"/>
<path d="M253.979 47.549C253.355 46.9047 251.724 45.3717 250.598 44.326C250.505 44.2388 250.603 44.0868 250.721 44.1356L257.375 46.8792C257.418 46.897 257.446 46.9386 257.446 46.9851V48.3208C257.446 48.3981 257.371 48.4519 257.303 48.4158C256.851 48.1771 256.382 47.5018 256.131 47.0641C256.089 46.9918 256 46.9925 255.987 47.0749C255.953 47.2876 255.98 47.6234 256.015 47.8796C256.027 47.9664 255.945 48.0315 255.87 47.9863C255.314 47.6511 254.383 46.6422 254.236 46.6637C254.209 46.6675 254.225 46.7056 254.239 46.728C254.353 46.9082 254.307 47.2019 254.262 47.4597C254.243 47.5694 254.057 47.629 253.979 47.549Z" fill="#514B46"/>
<path d="M265.256 47.549C265.88 46.9047 267.512 45.3717 268.637 44.326C268.731 44.2388 268.632 44.0868 268.514 44.1356L261.86 46.8792C261.817 46.897 261.789 46.9386 261.789 46.9851V48.3208C261.789 48.3981 261.864 48.4519 261.932 48.4158C262.385 48.1771 262.853 47.5018 263.105 47.0641C263.146 46.9918 263.236 46.9925 263.249 47.0749C263.283 47.2876 263.255 47.6234 263.22 47.8796C263.209 47.9664 263.29 48.0315 263.365 47.9863C263.921 47.6511 264.852 46.6422 265 46.6637C265.026 46.6675 265.01 46.7056 264.996 46.728C264.882 46.9082 264.928 47.2019 264.973 47.4597C264.993 47.5694 265.179 47.629 265.256 47.549Z" fill="#514B46"/>
<circle cx="249.173" cy="36.6154" r="4.93744" fill="#FFE5CF"/>
<circle cx="271.246" cy="36.6157" r="4.93744" fill="#FFE5CF"/>
<path d="M253.199 49.3949H266.057C266.057 49.3949 268.501 58.8127 268.87 63.2657C269.11 66.1668 268.009 68.8376 267.212 70.3468C266.774 71.1765 265.89 71.629 264.952 71.629H254.304C253.366 71.629 252.482 71.1765 252.044 70.3468C251.247 68.8376 250.146 66.1668 250.386 63.2657C250.755 58.8127 253.199 49.3949 253.199 49.3949Z" fill="#7FC3FF"/>
<rect x="256.856" y="43.2367" width="5.54413" height="8.80361" rx="2.77206" fill="#FFDDC0"/>
<circle cx="259.63" cy="36.3252" r="11.6175" fill="#FFE8D5"/>
<circle cx="266.488" cy="34.7778" r="2.41646" fill="#FFDED5"/>
<circle cx="253.04" cy="34.7778" r="2.41646" fill="#FFDED5"/>
<path d="M254.217 31.0759C254.217 31.0759 254.906 31.8092 256.057 31.6475C257.207 31.4858 257.668 30.5909 257.668 30.5909" stroke="#33353B" stroke-width="0.871314" stroke-linecap="round"/>
<path d="M261.591 30.5911C261.591 30.5911 262.052 31.486 263.202 31.6477C264.353 31.8094 265.042 31.0761 265.042 31.0761" stroke="#33353B" stroke-width="0.871314" stroke-linecap="round"/>
<path d="M258.012 32.7628L260.829 32.7628" stroke="#FF5656" stroke-width="0.580876" stroke-linecap="round"/>
<path d="M260.867 31.9503C260.792 32.3299 260.78 33.1862 261.33 33.5753" stroke="#FF5656" stroke-width="0.580876" stroke-linecap="round"/>
<path d="M248.327 74.0499C245.553 74.5484 243.003 72.4157 243.003 69.5968C243.003 67.3163 244.7 65.3922 246.963 65.1077L257.153 63.8263C258.492 63.6578 259.848 63.6578 261.187 63.8263L271.377 65.1077C273.64 65.3922 275.337 67.3163 275.337 69.5968C275.337 72.4157 272.787 74.5484 270.013 74.0499L261.282 72.4815C259.885 72.2306 258.455 72.2306 257.058 72.4815L248.327 74.0499Z" fill="#6B7280"/>
<rect x="236.114" y="66.6875" width="9.40079" height="13.2636" rx="4.70039" transform="rotate(-36.9762 236.114 66.6875)" fill="#FFE8D5"/>
<rect width="9.40079" height="13.2736" rx="4.70039" transform="matrix(-0.798885 -0.601484 -0.601484 0.798885 282.171 66.679)" fill="#FFE8D5"/>
<ellipse cx="259.629" cy="64.7181" rx="9.24913" ry="1.72161" fill="#7FC3FF"/>
<rect x="264.566" y="48.6481" width="5.54413" height="20.2222" rx="2.77206" transform="rotate(19.4017 264.566 48.6481)" fill="#FFE8D5"/>
<rect width="5.54413" height="20.4274" rx="2.77206" transform="matrix(-0.943213 0.33219 0.33219 0.943213 254.722 48.6481)" fill="#FFE8D5"/>
<path d="M263.646 51.2627C264.154 49.8187 265.737 49.0604 267.181 49.5689C268.625 50.0775 269.383 51.6604 268.875 53.1044L267.817 56.1083L262.588 54.2665L263.646 51.2627Z" fill="#7FC3FF"/>
<path d="M255.643 51.2627C255.134 49.8187 253.551 49.0604 252.107 49.5689C250.663 50.0775 249.905 51.6604 250.413 53.1044L251.471 56.1083L256.7 54.2665L255.643 51.2627Z" fill="#7FC3FF"/>
<path d="M255.695 25.4193C256.079 24.8286 256.366 24.8162 256.528 24.9367C256.596 24.9875 256.708 24.9979 256.733 24.9166C256.838 24.5799 256.323 24.3579 253.576 25.4193C250.507 26.6054 249.238 29.8737 248.951 31.5132C248.937 31.5926 249.009 31.6585 249.087 31.6363C250.639 31.1909 252.185 29.4741 252.72 28.8255C252.788 28.7436 252.909 28.786 252.888 28.8901C252.838 29.1356 252.726 29.4029 252.619 29.6133C252.571 29.7073 252.658 29.8142 252.753 29.7697C254.317 29.0432 255.097 26.3398 255.695 25.4193Z" fill="#514B46"/>
<path d="M258.041 23.9381C257.577 23.6961 257.392 24.2336 257.343 24.6219C257.335 24.6869 257.274 24.7337 257.21 24.7195C255.428 24.3235 253.599 23.5129 259.757 23.2336C265.939 22.9532 269.396 28.5962 270.418 31.6113C270.444 31.688 270.376 31.761 270.297 31.7443C267.492 31.1563 265.156 29.3009 264.015 28.1195C263.932 28.0335 263.774 28.1277 263.814 28.2403L263.976 28.6959C264.002 28.769 263.941 28.8442 263.863 28.8368C258.59 28.3285 258.678 24.2712 258.041 23.9381Z" fill="#514B46"/>
<ellipse cx="125.148" cy="30.3003" rx="13.0697" ry="12.7245" fill="#514B46"/>
<path d="M119.016 17.1841C118.367 18.481 116.95 20.1474 116.323 20.8185L129.946 18.5699C124.873 15.8506 124.69 15.3277 124.272 15.8768C123.853 16.4258 123.696 16.8441 123.121 16.3734C122.546 15.9028 122.102 14.9616 121.735 15.4845C121.369 16.0074 121.056 17.4978 120.507 16.6088C119.957 15.7198 119.827 15.5629 119.016 17.1841Z" fill="#514B46"/>
<circle cx="114.693" cy="31.6979" r="4.93744" fill="#FFE5CF"/>
<circle cx="136.765" cy="31.6979" r="4.93744" fill="#FFE5CF"/>
<path d="M118.719 44.4769H131.578C131.578 44.4769 134.021 53.8947 134.39 58.3477C134.631 61.2488 133.529 63.9197 132.733 65.4288C132.295 66.2585 131.411 66.711 130.472 66.711H119.824C118.886 66.711 118.002 66.2585 117.564 65.4288C116.767 63.9197 115.666 61.2488 115.907 58.3477C116.276 53.8947 118.719 44.4769 118.719 44.4769Z" fill="#25DC96"/>
<rect x="122.376" y="38.3187" width="5.54413" height="8.80361" rx="2.77206" fill="#FFDDC0"/>
<circle cx="125.149" cy="31.4076" r="11.6175" fill="#FFE8D5"/>
<circle cx="132.006" cy="29.8601" r="2.41646" fill="#FFDED5"/>
<circle cx="118.56" cy="29.8601" r="2.41646" fill="#FFDED5"/>
<path d="M119.735 26.1584C119.735 26.1584 120.425 26.8917 121.575 26.73C122.726 26.5683 123.187 25.6734 123.187 25.6734" stroke="#33353B" stroke-width="0.871314" stroke-linecap="round"/>
<path d="M127.109 25.6735C127.109 25.6735 127.57 26.5684 128.721 26.7301C129.871 26.8918 130.561 26.1585 130.561 26.1585" stroke="#33353B" stroke-width="0.871314" stroke-linecap="round"/>
<path d="M128.028 22.6208C128.15 22.6209 129.68 22.6208 129.971 22.6208" stroke="#514B46" stroke-width="0.871314" stroke-linecap="round"/>
<path d="M120.336 22.6208C120.458 22.6209 121.988 22.6208 122.279 22.6208" stroke="#514B46" stroke-width="0.871314" stroke-linecap="round"/>
<path d="M123.53 27.8451L126.347 27.8451" stroke="#FF5656" stroke-width="0.580876" stroke-linecap="round"/>
<path d="M126.386 27.0326C126.311 27.4121 126.298 28.2685 126.849 28.6575" stroke="#FF5656" stroke-width="0.580876" stroke-linecap="round"/>
<path d="M113.847 69.1322C111.072 69.6307 108.522 67.498 108.522 64.6791C108.522 62.3986 110.22 60.4745 112.482 60.19L122.672 58.9086C124.012 58.7401 125.367 58.7401 126.707 58.9086L136.897 60.19C139.159 60.4745 140.857 62.3986 140.857 64.6791C140.857 67.498 138.307 69.6307 135.532 69.1322L126.801 67.5637C125.405 67.3128 123.974 67.3128 122.578 67.5637L113.847 69.1322Z" fill="#ADD9FF"/>
<rect x="101.633" y="61.7693" width="9.40079" height="13.2636" rx="4.70039" transform="rotate(-36.9762 101.633 61.7693)" fill="#FFE8D5"/>
<rect width="9.40079" height="13.2736" rx="4.70039" transform="matrix(-0.798885 -0.601484 -0.601484 0.798885 147.69 61.7615)" fill="#FFE8D5"/>
<ellipse cx="125.147" cy="59.7999" rx="9.24913" ry="1.72161" fill="#25DC96"/>
<rect x="130.085" y="43.7299" width="5.54413" height="20.2222" rx="2.77206" transform="rotate(19.4017 130.085 43.7299)" fill="#FFE8D5"/>
<rect width="5.54413" height="20.4274" rx="2.77206" transform="matrix(-0.943213 0.33219 0.33219 0.943213 120.24 43.7301)" fill="#FFE8D5"/>
<path d="M129.164 46.3445C129.673 44.9005 131.256 44.1421 132.7 44.6507C134.144 45.1593 134.902 46.7422 134.393 48.1862L133.335 51.19L128.106 49.3483L129.164 46.3445Z" fill="#25DC96"/>
<path d="M121.161 46.3447C120.653 44.9007 119.07 44.1424 117.626 44.651C116.182 45.1595 115.423 46.7424 115.932 48.1865L116.99 51.1903L122.219 49.3486L121.161 46.3447Z" fill="#25DC96"/>
<ellipse cx="133.998" cy="156.462" rx="28.8456" ry="6.78719" fill="#F3F4F6"/>
<circle cx="1.927" cy="1.927" r="1.927" transform="matrix(-1 0 0 1 130.634 118.815)" fill="#8F7560"/>
<circle cx="1.927" cy="1.927" r="1.927" transform="matrix(-1 0 0 1 132.806 120.985)" fill="#8F7560"/>
<circle cx="1.927" cy="1.927" r="1.927" transform="matrix(-1 0 0 1 135.553 122.421)" fill="#8F7560"/>
<circle cx="1.927" cy="1.927" r="1.927" transform="matrix(-1 0 0 1 137.979 123.377)" fill="#8F7560"/>
<circle cx="149.956" cy="120.742" r="1.927" fill="#8F7560"/>
<circle cx="147.784" cy="122.912" r="1.927" fill="#8F7560"/>
<circle cx="145.036" cy="124.348" r="1.927" fill="#8F7560"/>
<circle cx="142.611" cy="125.304" r="1.927" fill="#8F7560"/>
<circle cx="3.22834" cy="3.22834" r="3.22834" transform="matrix(-1 0 0 1 155.169 106.806)" fill="#8F7560"/>
<circle cx="126.883" cy="109.931" r="3.71817" fill="#8F7560"/>
<circle cx="2.96318" cy="2.96318" r="2.96318" transform="matrix(-1 0 0 1 152.675 102.151)" fill="#8F7560"/>
<circle cx="132.316" cy="102.525" r="2.06747" fill="#8F7560"/>
<circle cx="2.06747" cy="2.06747" r="2.06747" transform="matrix(-1 0 0 1 148.484 100.457)" fill="#8F7560"/>
<circle cx="3.12496" cy="3.12496" r="3.12496" transform="matrix(-1 0 0 1 145.314 98.0571)" fill="#8F7560"/>
<circle cx="3.1171" cy="3.1171" r="3.1171" transform="matrix(-1 0 0 1 139.682 98.0649)" fill="#8F7560"/>
<ellipse cx="139.681" cy="114.242" rx="13.0697" ry="12.7245" fill="#8F7560"/>
<circle cx="129.227" cy="115.64" r="4.93744" fill="#FFE5CF"/>
<circle cx="151.301" cy="115.639" r="4.93744" fill="#FFE5CF"/>
<path d="M133.252 128.419H146.111C146.111 128.419 148.554 137.837 148.923 142.289C149.164 145.191 148.063 147.861 147.266 149.371C146.828 150.2 145.944 150.653 145.006 150.653H134.358C133.42 150.653 132.535 150.2 132.097 149.371C131.301 147.861 130.199 145.191 130.44 142.289C130.809 137.837 133.252 128.419 133.252 128.419Z" fill="#FF7F6B"/>
<rect x="136.91" y="122.261" width="5.54413" height="8.80361" rx="2.77206" fill="#FFDDC0"/>
<circle cx="139.682" cy="115.35" r="11.6175" fill="#FFE8D5"/>
<circle cx="146.541" cy="113.802" r="2.41646" fill="#FFDED5"/>
<circle cx="133.093" cy="113.802" r="2.41646" fill="#FFDED5"/>
<path d="M134.27 110.1C134.27 110.1 134.959 110.834 136.11 110.672C137.26 110.51 137.721 109.615 137.721 109.615" stroke="#33353B" stroke-width="0.871314" stroke-linecap="round"/>
<path d="M141.644 109.616C141.644 109.616 142.104 110.511 143.255 110.672C144.405 110.834 145.095 110.101 145.095 110.101" stroke="#33353B" stroke-width="0.871314" stroke-linecap="round"/>
<path d="M138.065 111.787L140.883 111.787" stroke="#FF5656" stroke-width="0.580876" stroke-linecap="round"/>
<path d="M140.919 110.975C140.844 111.354 140.831 112.211 141.382 112.6" stroke="#FF5656" stroke-width="0.580876" stroke-linecap="round"/>
<path d="M128.381 153.075C125.607 153.573 123.057 151.441 123.057 148.622C123.057 146.341 124.754 144.417 127.017 144.132L137.207 142.851C138.546 142.683 139.901 142.683 141.241 142.851L151.431 144.132C153.694 144.417 155.391 146.341 155.391 148.622C155.391 151.441 152.841 153.573 150.066 153.075L141.336 151.506C139.939 151.255 138.509 151.255 137.112 151.506L128.381 153.075Z" fill="#16B77B"/>
<rect x="116.168" y="145.711" width="9.40079" height="13.2636" rx="4.70039" transform="rotate(-36.9762 116.168 145.711)" fill="#FFE8D5"/>
<rect width="9.40079" height="13.2736" rx="4.70039" transform="matrix(-0.798885 -0.601484 -0.601484 0.798885 162.224 145.703)" fill="#FFE8D5"/>
<ellipse cx="139.683" cy="143.742" rx="9.24913" ry="1.72161" fill="#FF7F6B"/>
<rect x="144.62" y="127.672" width="5.54413" height="20.2222" rx="2.77206" transform="rotate(19.4017 144.62 127.672)" fill="#FFE8D5"/>
<rect width="5.54413" height="20.4274" rx="2.77206" transform="matrix(-0.943213 0.33219 0.33219 0.943213 134.775 127.672)" fill="#FFE8D5"/>
<path d="M143.699 130.287C144.208 128.843 145.791 128.084 147.235 128.593C148.679 129.101 149.437 130.684 148.929 132.128L147.871 135.132L142.641 133.29L143.699 130.287Z" fill="#FF7F6B"/>
<path d="M135.696 130.287C135.188 128.843 133.605 128.084 132.161 128.593C130.717 129.101 129.958 130.684 130.467 132.128L131.525 135.132L136.754 133.29L135.696 130.287Z" fill="#FF7F6B"/>
<circle cx="3.08433" cy="3.08433" r="3.08433" transform="matrix(-1 0 0 1 146.245 100.647)" fill="#8F7560"/>
<circle cx="3.08433" cy="3.08433" r="3.08433" transform="matrix(-1 0 0 1 141.132 100.106)" fill="#8F7560"/>
<circle cx="2.5851" cy="2.5851" r="2.5851" transform="matrix(-1 0 0 1 135.553 102.758)" fill="#8F7560"/>
<circle cx="2.5851" cy="2.5851" r="2.5851" transform="matrix(-1 0 0 1 149.781 103.25)" fill="#8F7560"/>
<circle cx="2.0023" cy="2.0023" r="2.0023" transform="matrix(-1 0 0 1 151.464 107.283)" fill="#8F7560"/>
<circle cx="2.5851" cy="2.5851" r="2.5851" transform="matrix(-1 0 0 1 132.438 106.275)" fill="#8F7560"/>
<circle cx="3.30562" cy="3.30562" r="3.30562" transform="matrix(-1 0 0 1 132.531 101.809)" fill="#8F7560"/>
<ellipse cx="232.53" cy="151.637" rx="26.0176" ry="4.52479" fill="#F3F4F6"/>
<path d="M207.581 71.4746C207.581 78.6928 201.729 82.7706 194.511 82.7706C187.293 82.7706 181.441 78.6928 181.441 71.4746C181.441 64.2564 187.293 58.4049 194.511 58.4049C201.729 58.4049 207.581 64.2564 207.581 71.4746Z" fill="#514B46"/>
<circle cx="184.055" cy="71.7652" r="4.93744" fill="#FFE5CF"/>
<circle cx="206.129" cy="71.7652" r="4.93744" fill="#FFE5CF"/>
<path d="M188.082 84.5444H200.94C200.94 84.5444 203.384 93.9622 203.753 98.4152C203.993 101.316 202.892 103.987 202.095 105.496C201.657 106.326 200.773 106.779 199.835 106.779H189.187C188.249 106.779 187.365 106.326 186.927 105.496C186.13 103.987 185.029 101.316 185.269 98.4152C185.638 93.9622 188.082 84.5444 188.082 84.5444Z" fill="#374151"/>
<rect x="191.739" y="78.386" width="5.54413" height="8.80361" rx="2.77206" fill="#FFDDC0"/>
<circle cx="194.512" cy="71.4747" r="11.6175" fill="#FFE8D5"/>
<path d="M192.76 67.6249C193.175 67.6536 194.06 67.5122 194.273 66.717C194.347 67.0197 194.709 67.6249 195.563 67.6249" stroke="#ED8080" stroke-width="0.580876" stroke-linecap="round" stroke-linejoin="round"/>
<circle cx="201.37" cy="69.6401" r="2.41646" fill="#FFDED5"/>
<circle cx="187.922" cy="69.6403" r="2.41646" fill="#FFDED5"/>
<path d="M189.098 65.9388C189.098 65.9388 189.787 66.6721 190.938 66.5104C192.088 66.3487 192.549 65.4538 192.549 65.4538" stroke="#33353B" stroke-width="0.871314" stroke-linecap="round"/>
<path d="M196.474 65.4531C196.474 65.4531 196.934 66.3481 198.085 66.5097C199.235 66.6714 199.925 65.9382 199.925 65.9382" stroke="#33353B" stroke-width="0.871314" stroke-linecap="round"/>
<path d="M183.21 109.2C180.436 109.698 177.886 107.566 177.886 104.747C177.886 102.466 179.583 100.542 181.846 100.257L192.036 98.9761C193.375 98.8076 194.731 98.8076 196.07 98.9761L206.26 100.257C208.523 100.542 210.22 102.466 210.22 104.747C210.22 107.566 207.67 109.698 204.896 109.2L196.165 107.631C194.768 107.38 193.338 107.38 191.941 107.631L183.21 109.2Z" fill="#FFAB9E"/>
<rect x="170.995" y="101.837" width="9.40079" height="13.2636" rx="4.70039" transform="rotate(-36.9762 170.995 101.837)" fill="#FFE8D5"/>
<rect width="9.40079" height="13.2736" rx="4.70039" transform="matrix(-0.798885 -0.601484 -0.601484 0.798885 217.054 101.829)" fill="#FFE8D5"/>
<ellipse cx="194.511" cy="99.8676" rx="9.24913" ry="1.72161" fill="#374151"/>
<rect x="199.449" y="83.7976" width="5.54413" height="20.2222" rx="2.77206" transform="rotate(19.4017 199.449 83.7976)" fill="#FFE8D5"/>
<rect width="5.54413" height="20.4274" rx="2.77206" transform="matrix(-0.943213 0.33219 0.33219 0.943213 189.604 83.7976)" fill="#FFE8D5"/>
<path d="M198.528 86.4123C199.037 84.9682 200.62 84.2099 202.064 84.7185C203.508 85.227 204.266 86.8099 203.758 88.254L202.7 91.2578L197.47 89.4161L198.528 86.4123Z" fill="#374151"/>
<path d="M190.524 86.4123C190.016 84.9682 188.433 84.2099 186.989 84.7185C185.545 85.227 184.787 86.8099 185.295 88.254L186.353 91.2578L191.582 89.4161L190.524 86.4123Z" fill="#374151"/>
<path d="M191.524 59.4249C191.709 59.425 191.862 59.5451 191.918 59.7069C191.975 59.5428 192.13 59.4249 192.313 59.4249H196.707C196.885 59.425 197.036 59.5361 197.096 59.6926C197.156 59.5379 197.306 59.4249 197.486 59.4249H199.105C199.223 59.4249 199.335 59.4744 199.414 59.5612L204.304 64.8408L198.169 64.0052C197.967 64.0051 197.795 63.8605 197.758 63.662L197.125 61.4419V63.5873C197.125 63.818 196.937 64.0051 196.707 64.0052H192.313C192.082 64.0052 191.895 63.818 191.895 63.5873V61.386L191.251 63.662C191.215 63.8605 191.042 64.0052 190.84 64.0052L184.706 64.8408L189.596 59.5612C189.675 59.4744 189.787 59.4249 189.904 59.4249H191.524Z" fill="#514B46"/>
<circle cx="230.49" cy="113.245" r="13.0697" fill="#514B46"/>
<rect x="218.002" y="112.374" width="12.4888" height="18.4395" rx="6.24441" fill="#514B46"/>
<rect x="230.49" y="112.374" width="12.4888" height="18.4395" rx="6.24441" fill="#514B46"/>
<circle cx="220.033" cy="113.535" r="4.93744" fill="#FFE5CF"/>
<circle cx="242.107" cy="113.535" r="4.93744" fill="#FFE5CF"/>
<path d="M224.059 126.314H236.918C236.918 126.314 239.361 135.732 239.73 140.185C239.971 143.086 238.869 145.757 238.073 147.266C237.635 148.096 236.75 148.548 235.812 148.548H225.164C224.226 148.548 223.342 148.096 222.904 147.266C222.107 145.757 221.006 143.086 221.247 140.185C221.616 135.732 224.059 126.314 224.059 126.314Z" fill="#FFBB00"/>
<rect x="227.718" y="120.156" width="5.54413" height="8.80361" rx="2.77206" fill="#FFDDC0"/>
<circle cx="230.489" cy="113.245" r="11.6175" fill="#FFE8D5"/>
<circle cx="237.348" cy="111.411" r="2.41646" fill="#FFDED5"/>
<circle cx="223.9" cy="111.411" r="2.41646" fill="#FFDED5"/>
<path d="M225.075 107.709C225.075 107.709 225.765 108.442 226.915 108.281C228.066 108.119 228.527 107.224 228.527 107.224" stroke="#33353B" stroke-width="0.871314" stroke-linecap="round"/>
<path d="M232.451 107.224C232.451 107.224 232.912 108.119 234.062 108.28C235.213 108.442 235.903 107.709 235.903 107.709" stroke="#33353B" stroke-width="0.871314" stroke-linecap="round"/>
<path d="M228.523 101.695C231.55 100.909 238.362 101.783 241.175 108.687C238.514 107.906 232.475 105.606 229.152 102.428C228.879 102.166 228.429 102.203 228.201 102.505C225.828 105.633 221.719 107.827 219.823 108.601C221.861 102.778 226.324 101.597 228.523 101.695Z" fill="#514B46"/>
<path d="M219.188 150.97C216.413 151.468 213.863 149.335 213.863 146.516C213.863 144.236 215.561 142.312 217.823 142.027L228.013 140.746C229.353 140.578 230.708 140.578 232.048 140.746L242.238 142.027C244.5 142.312 246.197 144.236 246.197 146.516C246.197 149.335 243.648 151.468 240.873 150.97L232.142 149.401C230.746 149.15 229.315 149.15 227.919 149.401L219.188 150.97Z" fill="#ADD9FF"/>
<rect x="206.975" y="143.607" width="9.40079" height="13.2636" rx="4.70039" transform="rotate(-36.9762 206.975 143.607)" fill="#FFE8D5"/>
<rect width="9.40079" height="13.2736" rx="4.70039" transform="matrix(-0.798885 -0.601484 -0.601484 0.798885 253.03 143.599)" fill="#FFE8D5"/>
<ellipse cx="230.489" cy="141.637" rx="9.24913" ry="1.72161" fill="#FFBB00"/>
<rect x="235.428" y="125.567" width="5.54413" height="20.2222" rx="2.77206" transform="rotate(19.4017 235.428 125.567)" fill="#FFE8D5"/>
<rect width="5.54413" height="20.4274" rx="2.77206" transform="matrix(-0.943213 0.33219 0.33219 0.943213 225.581 125.567)" fill="#FFE8D5"/>
<path d="M234.507 128.182C235.015 126.738 236.598 125.98 238.042 126.488C239.486 126.997 240.245 128.58 239.736 130.024L238.678 133.027L233.449 131.186L234.507 128.182Z" fill="#FFBB00"/>
<path d="M226.502 128.182C225.993 126.738 224.41 125.98 222.966 126.488C221.522 126.997 220.764 128.58 221.273 130.024L222.331 133.027L227.56 131.186L226.502 128.182Z" fill="#FFBB00"/>
<path d="M228.879 109.81C229.294 109.839 230.179 109.698 230.392 108.902C230.466 109.205 230.828 109.81 231.683 109.81" stroke="#FF5656" stroke-width="0.580876" stroke-linecap="round" stroke-linejoin="round"/>
<ellipse cx="209.839" cy="167.421" rx="26.0176" ry="4.52479" fill="#F3F4F6"/>
<path d="M214.347 128.419C214.347 135.638 208.496 139.715 201.278 139.715C194.06 139.715 188.208 135.638 188.208 128.419C188.208 121.201 194.06 115.35 201.278 115.35C208.496 115.35 214.347 121.201 214.347 128.419Z" fill="#514B46"/>
<path d="M188.909 145.441C186.642 141.073 190.373 137.819 192.522 136.737C193.617 135.424 195.421 133.823 193.877 137.928C192.333 142.033 193.371 144.647 194.082 145.441H191.126L190.552 144.127V145.441H188.909Z" fill="#514B46"/>
<circle cx="190.822" cy="128.71" r="4.93744" fill="#FFE5CF"/>
<circle cx="212.895" cy="128.71" r="4.93744" fill="#FFE5CF"/>
<path d="M194.849 141.489H207.708C207.708 141.489 210.151 150.907 210.52 155.36C210.761 158.261 209.659 160.932 208.863 162.441C208.425 163.271 207.541 163.723 206.602 163.723H195.954C195.016 163.723 194.132 163.271 193.694 162.441C192.897 160.932 191.796 158.261 192.037 155.36C192.406 150.907 194.849 141.489 194.849 141.489Z" fill="#1F94F2"/>
<rect x="198.506" y="135.331" width="5.54413" height="8.80361" rx="2.77206" fill="#FFDDC0"/>
<circle cx="201.279" cy="128.419" r="11.6175" fill="#FFE8D5"/>
<rect x="198.81" y="124.246" width="4.87859" height="5.73952" rx="2.43929" fill="#FF8D87"/>
<circle cx="208.136" cy="126.585" r="2.41646" fill="#FFDED5"/>
<circle cx="194.69" cy="126.585" r="2.41646" fill="#FFDED5"/>
<path d="M195.865 122.884C195.865 122.884 196.555 123.617 197.705 123.455C198.856 123.294 199.317 122.399 199.317 122.399" stroke="#33353B" stroke-width="0.871314" stroke-linecap="round"/>
<path d="M203.24 122.398C203.24 122.398 203.701 123.293 204.851 123.455C206.002 123.616 206.692 122.883 206.692 122.883" stroke="#33353B" stroke-width="0.871314" stroke-linecap="round"/>
<path d="M189.978 166.144C187.203 166.643 184.653 164.51 184.653 161.691C184.653 159.411 186.351 157.487 188.613 157.202L198.803 155.921C200.143 155.752 201.498 155.752 202.838 155.921L213.028 157.202C215.29 157.487 216.988 159.411 216.988 161.691C216.988 164.51 214.438 166.643 211.663 166.144L202.932 164.576C201.536 164.325 200.105 164.325 198.709 164.576L189.978 166.144Z" fill="#7EECC4"/>
<rect x="177.762" y="158.782" width="9.40079" height="13.2636" rx="4.70039" transform="rotate(-36.9762 177.762 158.782)" fill="#FFE8D5"/>
<rect width="9.40079" height="13.2736" rx="4.70039" transform="matrix(-0.798885 -0.601484 -0.601484 0.798885 223.82 158.773)" fill="#FFE8D5"/>
<ellipse cx="201.277" cy="156.812" rx="9.24913" ry="1.72161" fill="#1F94F2"/>
<rect x="206.216" y="140.742" width="5.54413" height="20.2222" rx="2.77206" transform="rotate(19.4017 206.216 140.742)" fill="#FFE8D5"/>
<rect width="5.54413" height="20.4274" rx="2.77206" transform="matrix(-0.943213 0.33219 0.33219 0.943213 196.37 140.742)" fill="#FFE8D5"/>
<path d="M205.295 143.357C205.804 141.913 207.386 141.155 208.83 141.663C210.274 142.172 211.033 143.755 210.524 145.199L209.466 148.202L204.237 146.361L205.295 143.357Z" fill="#1F94F2"/>
<path d="M197.291 143.357C196.782 141.913 195.2 141.155 193.755 141.663C192.311 142.172 191.553 143.755 192.062 145.199L193.12 148.202L198.349 146.361L197.291 143.357Z" fill="#1F94F2"/>
<path d="M198.29 116.37C198.476 116.37 198.629 116.49 198.685 116.651C198.741 116.487 198.897 116.37 199.08 116.37H203.473C203.651 116.37 203.802 116.481 203.863 116.637C203.922 116.483 204.072 116.37 204.253 116.37H205.872C205.989 116.37 206.101 116.419 206.18 116.506L211.07 121.785L204.936 120.95C204.734 120.95 204.561 120.805 204.525 120.607L203.891 118.386V120.532C203.891 120.763 203.704 120.95 203.473 120.95H199.08C198.849 120.95 198.662 120.763 198.662 120.532V118.331L198.018 120.607C197.982 120.805 197.809 120.95 197.607 120.95L191.473 121.785L196.362 116.506C196.441 116.419 196.554 116.37 196.671 116.37H198.29Z" fill="#514B46"/>
</svg>
