<svg width="375" height="180" viewBox="0 0 375 180" fill="none" xmlns="http://www.w3.org/2000/svg">
<ellipse cx="81.7036" cy="136.88" rx="26.9712" ry="6.34615" fill="#F3F4F6"/>
<ellipse cx="167.442" cy="75.9368" rx="24.3269" ry="4.23077" fill="#F3F4F6"/>
<ellipse cx="223.5" cy="89.6868" rx="24.3269" ry="4.23077" fill="#F3F4F6"/>
<ellipse cx="268.345" cy="88.4354" rx="24.3269" ry="4.23077" fill="#F3F4F6"/>
<ellipse cx="277.884" cy="154.429" rx="24.3269" ry="4.23077" fill="#F3F4F6"/>
<ellipse cx="181.547" cy="151.394" rx="24.3269" ry="4.23077" fill="#F3F4F6"/>
<ellipse cx="126.192" cy="84.3987" rx="24.3269" ry="4.23077" fill="#F3F4F6"/>
<path d="M161.334 34.28C162.484 31.2432 165.393 29.2345 168.641 29.2345H173.441C176.688 29.2345 179.597 31.2432 180.748 34.28L184.645 44.5689C185.614 47.1249 183.725 49.8597 180.992 49.8597H161.089C158.356 49.8597 156.468 47.1249 157.436 44.5689L161.334 34.28Z" fill="#764747"/>
<path d="M183.26 39.2977C183.26 46.0468 177.789 49.8597 171.04 49.8597C164.291 49.8597 158.819 46.0468 158.819 39.2977C158.819 32.5485 164.291 27.0773 171.04 27.0773C177.789 27.0773 183.26 32.5485 183.26 39.2977Z" fill="#764747"/>
<circle cx="161.264" cy="39.5696" r="4.6166" fill="#FFE5CF"/>
<circle cx="181.903" cy="39.5699" r="4.6166" fill="#FFE5CF"/>
<path d="M165.028 51.5182H177.051C177.051 51.5182 179.336 60.324 179.681 64.4876C179.906 67.2002 178.876 69.6975 178.131 71.1086C177.722 71.8844 176.895 72.3075 176.018 72.3075H166.062C165.185 72.3075 164.358 71.8844 163.948 71.1086C163.203 69.6975 162.174 67.2002 162.399 64.4876C162.744 60.324 165.028 51.5182 165.028 51.5182Z" fill="#FF5A3C"/>
<rect x="168.448" y="45.76" width="5.18387" height="8.23155" rx="2.59193" fill="#FFDDC0"/>
<circle cx="171.04" cy="39.2977" r="10.8626" fill="#FFE8D5"/>
<rect x="168.731" y="35.3955" width="4.56157" height="5.36656" rx="2.28079" fill="#FF8D87"/>
<circle cx="177.453" cy="37.5827" r="2.25944" fill="#FFDED5"/>
<circle cx="164.881" cy="37.5828" r="2.25944" fill="#FFDED5"/>
<path d="M165.979 34.1217C165.979 34.1217 166.623 34.8073 167.699 34.6561C168.775 34.5049 169.206 33.6682 169.206 33.6682" stroke="#33353B" stroke-width="0.814695" stroke-linecap="round"/>
<path d="M172.875 33.6683C172.875 33.6683 173.306 34.5051 174.382 34.6563C175.457 34.8075 176.102 34.1219 176.102 34.1219" stroke="#33353B" stroke-width="0.814695" stroke-linecap="round"/>
<path d="M160.475 74.5716C157.88 75.0376 155.496 73.0436 155.496 70.4078C155.496 68.2755 157.083 66.4765 159.199 66.2104L168.727 65.0123C169.979 64.8548 171.246 64.8548 172.499 65.0123L182.027 66.2104C184.142 66.4765 185.729 68.2755 185.729 70.4078C185.729 73.0436 183.345 75.0376 180.751 74.5716L172.587 73.105C171.281 72.8704 169.944 72.8704 168.638 73.105L160.475 74.5716Z" fill="#1F94F2"/>
<rect x="149.053" y="67.6869" width="8.78992" height="12.4017" rx="4.39496" transform="rotate(-36.9762 149.053 67.6869)" fill="#FFE8D5"/>
<rect width="8.78992" height="12.4111" rx="4.39496" transform="matrix(-0.798885 -0.601484 -0.601484 0.798885 192.117 67.6794)" fill="#FFE8D5"/>
<ellipse cx="171.041" cy="65.8457" rx="8.64812" ry="1.60974" fill="#FF5A3C"/>
<rect x="175.657" y="50.8199" width="5.18387" height="18.9082" rx="2.59193" transform="rotate(19.4017 175.657 50.8199)" fill="#FFE8D5"/>
<rect width="5.18387" height="19.1" rx="2.59193" transform="matrix(-0.943213 0.33219 0.33219 0.943213 166.452 50.8199)" fill="#FFE8D5"/>
<path d="M174.796 53.2647C175.272 51.9145 176.752 51.2054 178.102 51.681C179.452 52.1565 180.161 53.6365 179.686 54.9867L178.697 57.7954L173.807 56.0733L174.796 53.2647Z" fill="#FF5A3C"/>
<path d="M167.313 53.2647C166.838 51.9145 165.358 51.2054 164.007 51.681C162.657 52.1565 161.948 53.6365 162.424 54.9867L163.413 57.7954L168.302 56.0733L167.313 53.2647Z" fill="#FF5A3C"/>
<path d="M168.248 28.0311C168.421 28.0312 168.564 28.1435 168.616 28.2948C168.669 28.1414 168.814 28.0311 168.986 28.0311H173.094C173.26 28.0312 173.402 28.1351 173.458 28.2814C173.514 28.1368 173.654 28.0311 173.823 28.0311H175.337C175.446 28.0311 175.551 28.0774 175.625 28.1586L180.197 33.0951L174.461 32.3137C174.273 32.3137 174.111 32.1785 174.077 31.9929L173.485 29.917V31.923C173.485 32.1387 173.31 32.3136 173.094 32.3137H168.986C168.77 32.3137 168.595 32.1387 168.595 31.923V29.8647L167.993 31.9929C167.959 32.1785 167.797 32.3137 167.608 32.3137L161.873 33.0951L166.445 28.1586C166.519 28.0774 166.624 28.0311 166.734 28.0311H168.248Z" fill="#764747"/>
<ellipse cx="222.634" cy="52.4757" rx="12.2204" ry="11.8977" fill="#514B46"/>
<path d="M216.701 41.7167C218.148 39.7141 219.393 40.6266 219.887 41.4009C219.917 41.4481 219.903 41.5099 219.857 41.5416L214.143 45.4729C214.04 45.5434 213.915 45.4084 213.992 45.3108C214.598 44.544 215.579 43.2687 216.701 41.7167Z" fill="#514B46"/>
<path d="M227.058 40.9285C224.634 38.9462 222.265 40.0309 221.388 40.8189C221.331 40.8698 221.35 40.9599 221.421 40.9886L231.844 45.2268C231.939 45.2656 232.027 45.1623 231.969 45.0768C231.098 43.7859 229.589 42.5983 227.058 40.9285Z" fill="#514B46"/>
<path d="M217.352 64.0056C216.769 63.4031 215.243 61.9697 214.191 60.992C214.103 60.9105 214.195 60.7683 214.306 60.814L220.527 63.3793C220.568 63.3959 220.594 63.4348 220.594 63.4783V64.7272C220.594 64.7995 220.524 64.8498 220.46 64.8161C220.037 64.5928 219.599 63.9614 219.364 63.5521C219.325 63.4845 219.241 63.4852 219.229 63.5622C219.197 63.7611 219.223 64.0751 219.256 64.3147C219.267 64.3958 219.19 64.4567 219.12 64.4144C218.601 64.1011 217.73 63.1577 217.592 63.1777C217.567 63.1813 217.582 63.2169 217.595 63.2379C217.702 63.4064 217.659 63.681 217.616 63.922C217.599 64.0246 217.424 64.0804 217.352 64.0056Z" fill="#514B46"/>
<path d="M227.897 64.0056C228.48 63.4031 230.006 61.9697 231.058 60.992C231.146 60.9105 231.054 60.7683 230.943 60.814L224.722 63.3793C224.681 63.3959 224.655 63.4348 224.655 63.4783V64.7272C224.655 64.7995 224.725 64.8498 224.789 64.8161C225.212 64.5928 225.65 63.9614 225.885 63.5521C225.924 63.4845 226.008 63.4852 226.02 63.5622C226.052 63.7611 226.026 64.0751 225.993 64.3147C225.982 64.3958 226.059 64.4567 226.129 64.4144C226.649 64.1011 227.519 63.1577 227.657 63.1777C227.682 63.1813 227.667 63.2169 227.654 63.2379C227.547 63.4064 227.59 63.681 227.633 63.922C227.65 64.0246 227.825 64.0804 227.897 64.0056Z" fill="#514B46"/>
<circle cx="212.859" cy="53.7825" r="4.6166" fill="#FFE5CF"/>
<circle cx="233.497" cy="53.7826" r="4.6166" fill="#FFE5CF"/>
<path d="M216.623 65.7314H228.646C228.646 65.7314 230.931 74.5373 231.276 78.7009C231.501 81.4135 230.471 83.9108 229.726 85.3219C229.316 86.0976 228.49 86.5207 227.613 86.5207H217.657C216.779 86.5207 215.953 86.0976 215.543 85.3219C214.798 83.9108 213.769 81.4135 213.993 78.7009C214.338 74.5373 216.623 65.7314 216.623 65.7314Z" fill="#7FC3FF"/>
<rect x="220.043" y="59.9734" width="5.18387" height="8.23155" rx="2.59193" fill="#FFDDC0"/>
<circle cx="222.636" cy="53.5112" r="10.8626" fill="#FFE8D5"/>
<circle cx="229.049" cy="52.0641" r="2.25944" fill="#FFDED5"/>
<circle cx="216.474" cy="52.0641" r="2.25944" fill="#FFDED5"/>
<path d="M217.574 48.603C217.574 48.603 218.219 49.2886 219.295 49.1374C220.37 48.9863 220.801 48.1495 220.801 48.1495" stroke="#33353B" stroke-width="0.814695" stroke-linecap="round"/>
<path d="M224.47 48.1499C224.47 48.1499 224.901 48.9867 225.976 49.1379C227.052 49.289 227.697 48.6034 227.697 48.6034" stroke="#33353B" stroke-width="0.814695" stroke-linecap="round"/>
<path d="M221.123 50.1802L223.757 50.1802" stroke="#FF5656" stroke-width="0.54313" stroke-linecap="round"/>
<path d="M223.793 49.4204C223.723 49.7753 223.711 50.576 224.225 50.9398" stroke="#FF5656" stroke-width="0.54313" stroke-linecap="round"/>
<path d="M212.068 88.7843C209.474 89.2504 207.09 87.2563 207.09 84.6206C207.09 82.4882 208.677 80.6892 210.792 80.4232L220.32 79.225C221.573 79.0675 222.84 79.0675 224.092 79.225L233.62 80.4232C235.736 80.6892 237.323 82.4882 237.323 84.6206C237.323 87.2563 234.939 89.2504 232.344 88.7843L224.181 87.3178C222.875 87.0832 221.538 87.0832 220.232 87.3178L212.068 88.7843Z" fill="#6B7280"/>
<rect x="200.648" y="81.9004" width="8.78992" height="12.4017" rx="4.39496" transform="rotate(-36.9762 200.648 81.9004)" fill="#FFE8D5"/>
<rect width="8.78992" height="12.4111" rx="4.39496" transform="matrix(-0.798885 -0.601484 -0.601484 0.798885 243.712 81.8923)" fill="#FFE8D5"/>
<ellipse cx="222.635" cy="80.059" rx="8.64812" ry="1.60974" fill="#7FC3FF"/>
<rect x="227.252" y="65.0332" width="5.18387" height="18.9082" rx="2.59193" transform="rotate(19.4017 227.252 65.0332)" fill="#FFE8D5"/>
<rect width="5.18387" height="19.1" rx="2.59193" transform="matrix(-0.943213 0.33219 0.33219 0.943213 218.047 65.0332)" fill="#FFE8D5"/>
<path d="M226.391 67.4779C226.866 66.1278 228.347 65.4187 229.697 65.8942C231.047 66.3697 231.756 67.8498 231.28 69.2L230.291 72.0086L225.402 70.2866L226.391 67.4779Z" fill="#7FC3FF"/>
<path d="M218.908 67.4779C218.432 66.1278 216.952 65.4187 215.602 65.8942C214.252 66.3697 213.543 67.8498 214.018 69.2L215.008 72.0086L219.897 70.2866L218.908 67.4779Z" fill="#7FC3FF"/>
<path d="M218.957 43.3138C219.316 42.7616 219.584 42.75 219.736 42.8627C219.8 42.9101 219.904 42.9198 219.928 42.8438C220.026 42.529 219.544 42.3214 216.976 43.3138C214.106 44.4229 212.92 47.4788 212.652 49.0118C212.639 49.086 212.706 49.1476 212.778 49.1268C214.23 48.7104 215.675 47.1052 216.176 46.4987C216.239 46.4221 216.352 46.4618 216.332 46.5591C216.286 46.7886 216.181 47.0386 216.081 47.2353C216.036 47.3232 216.117 47.4231 216.207 47.3816C217.668 46.7023 218.398 44.1745 218.957 43.3138Z" fill="#514B46"/>
<path d="M221.15 41.9289C220.717 41.7026 220.543 42.2052 220.498 42.5682C220.49 42.629 220.433 42.6728 220.374 42.6595C218.707 42.2893 216.997 41.5313 222.755 41.2702C228.535 41.008 231.767 46.2843 232.723 49.1035C232.747 49.1752 232.684 49.2434 232.61 49.2279C229.988 48.678 227.803 46.9432 226.736 45.8385C226.658 45.7582 226.511 45.8463 226.548 45.9516L226.7 46.3776C226.724 46.4459 226.667 46.5162 226.594 46.5093C221.664 46.034 221.746 42.2404 221.15 41.9289Z" fill="#514B46"/>
<path d="M276.802 52.0627C276.802 58.8119 271.331 62.6247 264.582 62.6247C257.833 62.6247 252.361 58.8119 252.361 52.0627C252.361 45.3136 257.833 39.8423 264.582 39.8423C271.331 39.8423 276.802 45.3136 276.802 52.0627Z" fill="#514B46"/>
<circle cx="254.805" cy="52.3343" r="4.6166" fill="#FFE5CF"/>
<circle cx="275.445" cy="52.3343" r="4.6166" fill="#FFE5CF"/>
<path d="M258.571 64.2832H270.594C270.594 64.2832 272.879 73.089 273.224 77.2526C273.449 79.9653 272.419 82.4625 271.674 83.8736C271.265 84.6494 270.438 85.0725 269.561 85.0725H259.605C258.728 85.0725 257.901 84.6494 257.491 83.8736C256.746 82.4625 255.717 79.9653 255.942 77.2526C256.287 73.089 258.571 64.2832 258.571 64.2832Z" fill="#16B77B"/>
<rect x="261.989" y="58.5254" width="5.18387" height="8.23155" rx="2.59193" fill="#FFDDC0"/>
<circle cx="264.581" cy="52.0628" r="10.8626" fill="#FFE8D5"/>
<rect x="262.273" y="48.1605" width="4.56157" height="5.36656" rx="2.28079" fill="#FF8D87"/>
<circle cx="270.995" cy="50.3476" r="2.25944" fill="#FFDED5"/>
<circle cx="258.423" cy="50.3476" r="2.25944" fill="#FFDED5"/>
<path d="M259.521 46.8867C259.521 46.8867 260.165 47.5723 261.241 47.4211C262.317 47.27 262.748 46.4332 262.748 46.4332" stroke="#33353B" stroke-width="0.814695" stroke-linecap="round"/>
<path d="M266.417 46.4331C266.417 46.4331 266.848 47.2699 267.924 47.4211C268.999 47.5722 269.644 46.8866 269.644 46.8866" stroke="#33353B" stroke-width="0.814695" stroke-linecap="round"/>
<path d="M254.017 87.3362C251.422 87.8023 249.038 85.8082 249.038 83.1724C249.038 81.0401 250.625 79.2411 252.741 78.9751L262.269 77.7769C263.521 77.6194 264.788 77.6194 266.041 77.7769L275.569 78.9751C277.684 79.2411 279.271 81.0401 279.271 83.1724C279.271 85.8082 276.887 87.8023 274.293 87.3362L266.129 85.8697C264.823 85.6351 263.486 85.6351 262.18 85.8697L254.017 87.3362Z" fill="#1F94F2"/>
<rect x="242.595" y="80.4518" width="8.78992" height="12.4017" rx="4.39496" transform="rotate(-36.9762 242.595 80.4518)" fill="#FFE8D5"/>
<rect width="8.78992" height="12.4111" rx="4.39496" transform="matrix(-0.798885 -0.601484 -0.601484 0.798885 285.658 80.4443)" fill="#FFE8D5"/>
<ellipse cx="264.582" cy="78.6104" rx="8.64812" ry="1.60974" fill="#16B77B"/>
<rect x="269.199" y="63.5848" width="5.18387" height="18.9082" rx="2.59193" transform="rotate(19.4017 269.199 63.5848)" fill="#FFE8D5"/>
<rect width="5.18387" height="19.1" rx="2.59193" transform="matrix(-0.943213 0.33219 0.33219 0.943213 259.994 63.5848)" fill="#FFE8D5"/>
<path d="M268.338 66.0296C268.814 64.6794 270.294 63.9703 271.644 64.4459C272.994 64.9214 273.703 66.4014 273.228 67.7516L272.239 70.5602L267.349 68.8382L268.338 66.0296Z" fill="#16B77B"/>
<path d="M260.855 66.0296C260.38 64.6794 258.9 63.9703 257.549 64.4459C256.199 64.9214 255.49 66.4014 255.966 67.7516L256.955 70.5602L261.844 68.8382L260.855 66.0296Z" fill="#16B77B"/>
<path d="M264.562 41.0116C265.001 40.8698 266.005 40.8961 268.001 41.3153C272.126 42.1815 273.93 45.4954 274.315 47.0438L267.257 45.6814C266.541 45.5432 265.916 45.1634 265.817 44.4409C265.765 44.0556 265.737 43.547 265.759 42.8876C265.818 41.0995 264.987 41.3979 264.563 41.7704L264.562 41.7694L264.562 41.7704C264.138 41.3979 263.307 41.0995 263.366 42.8876C263.388 43.547 263.36 44.0556 263.308 44.4409C263.209 45.1634 262.584 45.5432 261.868 45.6814L254.81 47.0438C255.195 45.4954 256.999 42.1815 261.124 41.3153C263.12 40.8961 264.124 40.8698 264.562 41.0116Z" fill="#514B46"/>
<ellipse cx="89.1068" cy="99.775" rx="12.8744" ry="11.5416" fill="#514B46"/>
<rect x="77.4297" y="88.0044" width="11.6773" height="17.2413" rx="5.83864" fill="#514B46"/>
<rect x="89.1074" y="88.0044" width="11.6773" height="17.2413" rx="5.83864" fill="#514B46"/>
<circle cx="79.3305" cy="100.725" r="4.6166" fill="#FFE5CF"/>
<circle cx="99.9691" cy="100.725" r="4.6166" fill="#FFE5CF"/>
<path d="M83.0948 112.674H95.1178C95.1178 112.674 97.4025 121.48 97.7476 125.643C97.9724 128.356 96.9427 130.853 96.1977 132.264C95.7882 133.04 94.9615 133.463 94.0843 133.463H84.1283C83.2511 133.463 82.4244 133.04 82.0149 132.264C81.2699 130.853 80.2402 128.356 80.465 125.643C80.8101 121.48 83.0948 112.674 83.0948 112.674Z" fill="#FFAB9E"/>
<rect x="86.5146" y="106.916" width="5.18387" height="8.23155" rx="2.59193" fill="#FFDDC0"/>
<circle cx="89.1067" cy="100.454" r="10.8626" fill="#FFE8D5"/>
<circle cx="95.5202" cy="98.7389" r="2.25944" fill="#FFDED5"/>
<circle cx="82.9469" cy="98.7389" r="2.25944" fill="#FFDED5"/>
<path d="M84.0459 95.2775C84.0459 95.2775 84.6907 95.9631 85.7664 95.8119C86.8421 95.6607 87.273 94.8239 87.273 94.8239" stroke="#33353B" stroke-width="0.814695" stroke-linecap="round"/>
<path d="M90.9414 94.824C90.9414 94.824 91.3723 95.6607 92.448 95.8119C93.5236 95.9631 94.1685 95.2775 94.1685 95.2775" stroke="#33353B" stroke-width="0.814695" stroke-linecap="round"/>
<path d="M87.269 89.6542C90.0998 88.9198 96.4685 89.7365 99.0991 96.1917C96.6108 95.462 90.9642 93.3117 87.8571 90.3395C87.6017 90.0952 87.1816 90.1298 86.968 90.4115C84.7492 93.3369 80.9076 95.3884 79.1348 96.112C81.0402 90.6676 85.2129 89.5626 87.269 89.6542Z" fill="#514B46"/>
<path d="M78.54 135.727C75.9457 136.193 73.5615 134.199 73.5615 131.563C73.5615 129.431 75.1485 127.632 77.2641 127.366L86.792 126.168C88.0444 126.01 89.3117 126.01 90.5642 126.168L100.092 127.366C102.208 127.632 103.795 129.431 103.795 131.563C103.795 134.199 101.41 136.193 98.8162 135.727L90.6527 134.261C89.3467 134.026 88.0094 134.026 86.7035 134.261L78.54 135.727Z" fill="#B82F1A"/>
<rect x="67.1191" y="128.843" width="8.78992" height="12.4017" rx="4.39496" transform="rotate(-36.9762 67.1191 128.843)" fill="#FFE8D5"/>
<rect width="8.78992" height="12.4111" rx="4.39496" transform="matrix(-0.798885 -0.601484 -0.601484 0.798885 110.184 128.835)" fill="#FFE8D5"/>
<ellipse cx="89.1061" cy="127.001" rx="8.64812" ry="1.60974" fill="#FFAB9E"/>
<rect x="93.7236" y="111.976" width="5.18387" height="18.9082" rx="2.59193" transform="rotate(19.4017 93.7236 111.976)" fill="#FFE8D5"/>
<rect width="5.18387" height="19.1" rx="2.59193" transform="matrix(-0.943213 0.33219 0.33219 0.943213 84.5176 111.976)" fill="#FFE8D5"/>
<path d="M92.8626 114.42C93.3381 113.07 94.8182 112.361 96.1684 112.837C97.5186 113.312 98.2276 114.792 97.7521 116.142L96.7629 118.951L91.8734 117.229L92.8626 114.42Z" fill="#FFAB9E"/>
<path d="M85.3786 114.42C84.9031 113.07 83.423 112.361 82.0728 112.837C80.7226 113.312 80.0136 114.792 80.4891 116.142L81.4783 118.951L86.3678 117.229L85.3786 114.42Z" fill="#FFAB9E"/>
<path d="M87.6006 97.2424C87.9892 97.2693 88.8161 97.1371 89.0153 96.3936C89.0847 96.6765 89.4231 97.2424 90.222 97.2424" stroke="#FF5656" stroke-width="0.54313" stroke-linecap="round" stroke-linejoin="round"/>
<path d="M185.762 114.927C185.762 121.676 180.291 125.489 173.542 125.489C166.793 125.489 161.321 121.676 161.321 114.927C161.321 108.178 166.793 102.707 173.542 102.707C180.291 102.707 185.762 108.178 185.762 114.927Z" fill="#514B46"/>
<path d="M161.976 130.842C159.857 126.758 163.345 123.715 165.354 122.705C166.378 121.476 168.065 119.979 166.622 123.818C165.178 127.656 166.148 130.1 166.813 130.842H164.05L163.512 129.614V130.842H161.976Z" fill="#514B46"/>
<circle cx="163.765" cy="115.199" r="4.6166" fill="#FFE5CF"/>
<circle cx="184.405" cy="115.199" r="4.6166" fill="#FFE5CF"/>
<path d="M167.53 127.147H179.553C179.553 127.147 181.838 135.953 182.183 140.117C182.408 142.829 181.378 145.327 180.633 146.738C180.224 147.514 179.397 147.937 178.52 147.937H168.564C167.687 147.937 166.86 147.514 166.45 146.738C165.705 145.327 164.676 142.829 164.901 140.117C165.246 135.953 167.53 127.147 167.53 127.147Z" fill="#1F94F2"/>
<rect x="170.95" y="121.389" width="5.18387" height="8.23155" rx="2.59193" fill="#FFDDC0"/>
<circle cx="173.542" cy="114.927" r="10.8626" fill="#FFE8D5"/>
<rect x="171.233" y="111.024" width="4.56157" height="5.36656" rx="2.28079" fill="#FF8D87"/>
<circle cx="179.955" cy="113.212" r="2.25944" fill="#FFDED5"/>
<circle cx="167.382" cy="113.212" r="2.25944" fill="#FFDED5"/>
<path d="M168.48 109.751C168.48 109.751 169.125 110.437 170.201 110.285C171.277 110.134 171.708 109.297 171.708 109.297" stroke="#33353B" stroke-width="0.814695" stroke-linecap="round"/>
<path d="M175.377 109.297C175.377 109.297 175.808 110.134 176.884 110.285C177.959 110.436 178.604 109.751 178.604 109.751" stroke="#33353B" stroke-width="0.814695" stroke-linecap="round"/>
<path d="M162.976 150.201C160.381 150.667 157.997 148.673 157.997 146.037C157.997 143.905 159.584 142.105 161.7 141.839L171.228 140.641C172.48 140.484 173.747 140.484 175 140.641L184.528 141.839C186.643 142.105 188.23 143.905 188.23 146.037C188.23 148.673 185.846 150.667 183.252 150.201L175.088 148.734C173.782 148.499 172.445 148.499 171.139 148.734L162.976 150.201Z" fill="#7EECC4"/>
<rect x="151.554" y="143.316" width="8.78992" height="12.4017" rx="4.39496" transform="rotate(-36.9762 151.554 143.316)" fill="#FFE8D5"/>
<rect width="8.78992" height="12.4111" rx="4.39496" transform="matrix(-0.798885 -0.601484 -0.601484 0.798885 194.619 143.309)" fill="#FFE8D5"/>
<ellipse cx="173.542" cy="141.475" rx="8.64812" ry="1.60974" fill="#1F94F2"/>
<rect x="178.159" y="126.449" width="5.18387" height="18.9082" rx="2.59193" transform="rotate(19.4017 178.159 126.449)" fill="#FFE8D5"/>
<rect width="5.18387" height="19.1" rx="2.59193" transform="matrix(-0.943213 0.33219 0.33219 0.943213 168.953 126.449)" fill="#FFE8D5"/>
<path d="M177.298 128.894C177.774 127.544 179.254 126.835 180.604 127.31C181.954 127.786 182.663 129.266 182.188 130.616L181.198 133.425L176.309 131.703L177.298 128.894Z" fill="#1F94F2"/>
<path d="M169.814 128.894C169.339 127.544 167.859 126.835 166.508 127.31C165.158 127.786 164.449 129.266 164.925 130.616L165.914 133.425L170.803 131.702L169.814 128.894Z" fill="#1F94F2"/>
<path d="M170.749 103.66C170.922 103.66 171.065 103.773 171.117 103.924C171.17 103.77 171.315 103.66 171.487 103.66H175.595C175.761 103.66 175.903 103.764 175.959 103.91C176.015 103.766 176.155 103.66 176.324 103.66H177.838C177.947 103.66 178.052 103.706 178.126 103.788L182.698 108.724L176.962 107.943C176.774 107.943 176.612 107.808 176.578 107.622L175.986 105.546V107.552C175.986 107.768 175.811 107.943 175.595 107.943H171.487C171.271 107.943 171.096 107.768 171.096 107.552V105.494L170.494 107.622C170.46 107.808 170.298 107.943 170.109 107.943L164.374 108.724L168.946 103.788C169.02 103.706 169.125 103.66 169.235 103.66H170.749Z" fill="#514B46"/>
<ellipse cx="134.294" cy="47.8778" rx="12.2204" ry="11.8977" fill="#514B46"/>
<path d="M128.56 35.6137C127.953 36.8264 126.628 38.3845 126.042 39.0119L138.779 36.9094C134.036 34.3669 133.865 33.8779 133.474 34.3913C133.083 34.9047 132.936 35.2958 132.398 34.8557C131.86 34.4157 131.445 33.5356 131.103 34.0246C130.76 34.5135 130.467 35.907 129.953 35.0758C129.44 34.2446 129.318 34.0979 128.56 35.6137Z" fill="#514B46"/>
<circle cx="124.518" cy="49.1845" r="4.6166" fill="#FFE5CF"/>
<circle cx="145.156" cy="49.1845" r="4.6166" fill="#FFE5CF"/>
<path d="M128.282 61.1331H140.305C140.305 61.1331 142.59 69.9389 142.935 74.1025C143.16 76.8151 142.13 79.3124 141.385 80.7235C140.976 81.4992 140.149 81.9223 139.272 81.9223H129.316C128.439 81.9223 127.612 81.4992 127.202 80.7235C126.457 79.3124 125.428 76.8151 125.653 74.1025C125.998 69.9389 128.282 61.1331 128.282 61.1331Z" fill="#25DC96"/>
<rect x="131.702" y="55.375" width="5.18387" height="8.23155" rx="2.59193" fill="#FFDDC0"/>
<circle cx="134.294" cy="48.9129" r="10.8626" fill="#FFE8D5"/>
<circle cx="140.707" cy="47.466" r="2.25944" fill="#FFDED5"/>
<circle cx="128.133" cy="47.4659" r="2.25944" fill="#FFDED5"/>
<path d="M129.232 44.0049C129.232 44.0049 129.877 44.6905 130.953 44.5393C132.029 44.3881 132.459 43.5513 132.459 43.5513" stroke="#33353B" stroke-width="0.814695" stroke-linecap="round"/>
<path d="M136.128 43.5515C136.128 43.5515 136.559 44.3883 137.634 44.5395C138.71 44.6906 139.355 44.005 139.355 44.005" stroke="#33353B" stroke-width="0.814695" stroke-linecap="round"/>
<path d="M136.986 40.6973C137.1 40.6973 138.531 40.6973 138.803 40.6973" stroke="#514B46" stroke-width="0.814695" stroke-linecap="round"/>
<path d="M129.794 40.6973C129.908 40.6973 131.338 40.6973 131.61 40.6973" stroke="#514B46" stroke-width="0.814695" stroke-linecap="round"/>
<path d="M132.781 45.5819L135.415 45.5819" stroke="#FF5656" stroke-width="0.54313" stroke-linecap="round"/>
<path d="M135.451 44.8223C135.381 45.1772 135.369 45.9779 135.884 46.3416" stroke="#FF5656" stroke-width="0.54313" stroke-linecap="round"/>
<path d="M123.726 84.1863C121.132 84.6524 118.748 82.6583 118.748 80.0225C118.748 77.8902 120.335 76.0912 122.451 75.8252L131.978 74.627C133.231 74.4695 134.498 74.4695 135.751 74.627L145.279 75.8252C147.394 76.0912 148.981 77.8902 148.981 80.0225C148.981 82.6583 146.597 84.6524 144.003 84.1863L135.839 82.7198C134.533 82.4852 133.196 82.4852 131.89 82.7198L123.726 84.1863Z" fill="#ADD9FF"/>
<rect x="112.307" y="77.3018" width="8.78992" height="12.4017" rx="4.39496" transform="rotate(-36.9762 112.307 77.3018)" fill="#FFE8D5"/>
<rect width="8.78992" height="12.4111" rx="4.39496" transform="matrix(-0.798885 -0.601484 -0.601484 0.798885 155.371 77.2944)" fill="#FFE8D5"/>
<ellipse cx="134.293" cy="75.4603" rx="8.64812" ry="1.60974" fill="#25DC96"/>
<rect x="138.91" y="60.4346" width="5.18387" height="18.9082" rx="2.59193" transform="rotate(19.4017 138.91 60.4346)" fill="#FFE8D5"/>
<rect width="5.18387" height="19.1" rx="2.59193" transform="matrix(-0.943213 0.33219 0.33219 0.943213 129.705 60.4348)" fill="#FFE8D5"/>
<path d="M138.049 62.8793C138.525 61.5291 140.005 60.8201 141.355 61.2956C142.705 61.7711 143.414 63.2511 142.939 64.6013L141.949 67.41L137.06 65.688L138.049 62.8793Z" fill="#25DC96"/>
<path d="M130.566 62.8796C130.091 61.5294 128.611 60.8203 127.26 61.2958C125.91 61.7714 125.201 63.2514 125.677 64.6016L126.666 67.4102L131.555 65.6882L130.566 62.8796Z" fill="#25DC96"/>
<ellipse cx="123.868" cy="165.841" rx="26.9712" ry="6.34615" fill="#F3F4F6"/>
<circle cx="1.80178" cy="1.80178" r="1.80178" transform="matrix(-1 0 0 1 120.723 130.641)" fill="#8F7560"/>
<circle cx="1.80178" cy="1.80178" r="1.80178" transform="matrix(-1 0 0 1 122.753 132.67)" fill="#8F7560"/>
<circle cx="1.80178" cy="1.80178" r="1.80178" transform="matrix(-1 0 0 1 125.322 134.012)" fill="#8F7560"/>
<circle cx="1.80178" cy="1.80178" r="1.80178" transform="matrix(-1 0 0 1 127.591 134.906)" fill="#8F7560"/>
<circle cx="138.789" cy="132.442" r="1.80178" fill="#8F7560"/>
<circle cx="136.759" cy="134.472" r="1.80178" fill="#8F7560"/>
<circle cx="134.189" cy="135.813" r="1.80178" fill="#8F7560"/>
<circle cx="131.921" cy="136.708" r="1.80178" fill="#8F7560"/>
<circle cx="3.01856" cy="3.01856" r="3.01856" transform="matrix(-1 0 0 1 143.663 119.412)" fill="#8F7560"/>
<circle cx="117.216" cy="122.334" r="3.47656" fill="#8F7560"/>
<circle cx="2.77063" cy="2.77063" r="2.77063" transform="matrix(-1 0 0 1 141.331 115.059)" fill="#8F7560"/>
<circle cx="122.295" cy="115.409" r="1.93313" fill="#8F7560"/>
<circle cx="1.93313" cy="1.93313" r="1.93313" transform="matrix(-1 0 0 1 137.413 113.476)" fill="#8F7560"/>
<circle cx="2.9219" cy="2.9219" r="2.9219" transform="matrix(-1 0 0 1 134.449 111.231)" fill="#8F7560"/>
<circle cx="2.91455" cy="2.91455" r="2.91455" transform="matrix(-1 0 0 1 129.183 111.239)" fill="#8F7560"/>
<ellipse cx="129.182" cy="126.365" rx="12.2204" ry="11.8977" fill="#8F7560"/>
<circle cx="119.407" cy="127.672" r="4.6166" fill="#FFE5CF"/>
<circle cx="140.046" cy="127.671" r="4.6166" fill="#FFE5CF"/>
<path d="M123.171 139.62H135.194C135.194 139.62 137.479 148.426 137.824 152.59C138.049 155.302 137.019 157.799 136.274 159.211C135.864 159.986 135.038 160.409 134.16 160.409H124.204C123.327 160.409 122.501 159.986 122.091 159.211C121.346 157.799 120.316 155.302 120.541 152.59C120.886 148.426 123.171 139.62 123.171 139.62Z" fill="#FF7F6B"/>
<rect x="126.591" y="133.863" width="5.18387" height="8.23155" rx="2.59193" fill="#FFDDC0"/>
<circle cx="129.183" cy="127.4" r="10.8626" fill="#FFE8D5"/>
<circle cx="135.596" cy="125.953" r="2.25944" fill="#FFDED5"/>
<circle cx="123.022" cy="125.953" r="2.25944" fill="#FFDED5"/>
<path d="M124.122 122.492C124.122 122.492 124.767 123.178 125.843 123.027C126.918 122.875 127.349 122.039 127.349 122.039" stroke="#33353B" stroke-width="0.814695" stroke-linecap="round"/>
<path d="M131.017 122.039C131.017 122.039 131.447 122.876 132.523 123.027C133.599 123.178 134.244 122.493 134.244 122.493" stroke="#33353B" stroke-width="0.814695" stroke-linecap="round"/>
<path d="M127.671 124.069L130.305 124.069" stroke="#FF5656" stroke-width="0.54313" stroke-linecap="round"/>
<path d="M130.34 123.31C130.269 123.664 130.258 124.465 130.772 124.829" stroke="#FF5656" stroke-width="0.54313" stroke-linecap="round"/>
<path d="M118.616 162.674C116.022 163.14 113.638 161.146 113.638 158.51C113.638 156.378 115.225 154.579 117.34 154.313L126.868 153.115C128.121 152.957 129.388 152.957 130.64 153.115L140.168 154.313C142.284 154.579 143.871 156.378 143.871 158.51C143.871 161.146 141.487 163.14 138.892 162.674L130.729 161.207C129.423 160.973 128.086 160.973 126.78 161.207L118.616 162.674Z" fill="#16B77B"/>
<rect x="107.196" y="155.789" width="8.78992" height="12.4017" rx="4.39496" transform="rotate(-36.9762 107.196 155.789)" fill="#FFE8D5"/>
<rect width="8.78992" height="12.4111" rx="4.39496" transform="matrix(-0.798885 -0.601484 -0.601484 0.798885 150.26 155.781)" fill="#FFE8D5"/>
<ellipse cx="129.183" cy="153.948" rx="8.64812" ry="1.60974" fill="#FF7F6B"/>
<rect x="133.8" y="138.922" width="5.18387" height="18.9082" rx="2.59193" transform="rotate(19.4017 133.8 138.922)" fill="#FFE8D5"/>
<rect width="5.18387" height="19.1" rx="2.59193" transform="matrix(-0.943213 0.33219 0.33219 0.943213 124.595 138.922)" fill="#FFE8D5"/>
<path d="M132.939 141.367C133.414 140.016 134.894 139.307 136.245 139.783C137.595 140.258 138.304 141.738 137.828 143.089L136.839 145.897L131.95 144.175L132.939 141.367Z" fill="#FF7F6B"/>
<path d="M125.456 141.367C124.98 140.016 123.5 139.307 122.15 139.783C120.8 140.258 120.091 141.738 120.566 143.089L121.555 145.897L126.445 144.175L125.456 141.367Z" fill="#FF7F6B"/>
<circle cx="2.88391" cy="2.88391" r="2.88391" transform="matrix(-1 0 0 1 135.319 113.653)" fill="#8F7560"/>
<circle cx="2.88391" cy="2.88391" r="2.88391" transform="matrix(-1 0 0 1 130.538 113.147)" fill="#8F7560"/>
<circle cx="2.41711" cy="2.41711" r="2.41711" transform="matrix(-1 0 0 1 125.322 115.626)" fill="#8F7560"/>
<circle cx="2.41711" cy="2.41711" r="2.41711" transform="matrix(-1 0 0 1 138.626 116.086)" fill="#8F7560"/>
<circle cx="1.87219" cy="1.87219" r="1.87219" transform="matrix(-1 0 0 1 140.199 119.857)" fill="#8F7560"/>
<circle cx="2.41711" cy="2.41711" r="2.41711" transform="matrix(-1 0 0 1 122.41 118.915)" fill="#8F7560"/>
<circle cx="3.09082" cy="3.09082" r="3.09082" transform="matrix(-1 0 0 1 122.497 114.739)" fill="#8F7560"/>
<ellipse cx="215.998" cy="161.33" rx="24.3269" ry="4.23077" fill="#F3F4F6"/>
<path d="M287.189 118.671C287.189 125.42 281.718 129.233 274.968 129.233C268.219 129.233 262.748 125.42 262.748 118.671C262.748 111.922 268.219 106.451 274.968 106.451C281.718 106.451 287.189 111.922 287.189 118.671Z" fill="#514B46"/>
<circle cx="265.192" cy="118.943" r="4.6166" fill="#FFE5CF"/>
<circle cx="285.831" cy="118.943" r="4.6166" fill="#FFE5CF"/>
<path d="M268.957 130.891H280.98C280.98 130.891 283.265 139.697 283.61 143.861C283.835 146.574 282.805 149.071 282.06 150.482C281.65 151.258 280.824 151.681 279.947 151.681H269.991C269.113 151.681 268.287 151.258 267.877 150.482C267.132 149.071 266.102 146.574 266.327 143.861C266.672 139.697 268.957 130.891 268.957 130.891Z" fill="#374151"/>
<rect x="272.377" y="125.133" width="5.18387" height="8.23155" rx="2.59193" fill="#FFDDC0"/>
<circle cx="274.969" cy="118.671" r="10.8626" fill="#FFE8D5"/>
<path d="M273.331 115.072C273.72 115.098 274.547 114.966 274.746 114.223C274.815 114.506 275.154 115.072 275.953 115.072" stroke="#ED8080" stroke-width="0.54313" stroke-linecap="round" stroke-linejoin="round"/>
<circle cx="281.382" cy="116.956" r="2.25944" fill="#FFDED5"/>
<circle cx="268.808" cy="116.956" r="2.25944" fill="#FFDED5"/>
<path d="M269.907 113.495C269.907 113.495 270.552 114.181 271.628 114.03C272.703 113.878 273.134 113.042 273.134 113.042" stroke="#33353B" stroke-width="0.814695" stroke-linecap="round"/>
<path d="M276.804 113.041C276.804 113.041 277.235 113.878 278.31 114.029C279.386 114.18 280.031 113.495 280.031 113.495" stroke="#33353B" stroke-width="0.814695" stroke-linecap="round"/>
<path d="M264.402 153.945C261.808 154.411 259.424 152.417 259.424 149.781C259.424 147.649 261.011 145.85 263.126 145.584L272.654 144.385C273.907 144.228 275.174 144.228 276.426 144.385L285.954 145.584C288.07 145.85 289.657 147.649 289.657 149.781C289.657 152.417 287.273 154.411 284.678 153.945L276.515 152.478C275.209 152.244 273.872 152.244 272.566 152.478L264.402 153.945Z" fill="#FFAB9E"/>
<rect x="252.98" y="147.061" width="8.78992" height="12.4017" rx="4.39496" transform="rotate(-36.9762 252.98 147.061)" fill="#FFE8D5"/>
<rect width="8.78992" height="12.4111" rx="4.39496" transform="matrix(-0.798885 -0.601484 -0.601484 0.798885 296.046 147.053)" fill="#FFE8D5"/>
<ellipse cx="274.968" cy="145.219" rx="8.64812" ry="1.60974" fill="#374151"/>
<rect x="279.586" y="130.193" width="5.18387" height="18.9082" rx="2.59193" transform="rotate(19.4017 279.586 130.193)" fill="#FFE8D5"/>
<rect width="5.18387" height="19.1" rx="2.59193" transform="matrix(-0.943213 0.33219 0.33219 0.943213 270.38 130.193)" fill="#FFE8D5"/>
<path d="M278.725 132.638C279.2 131.288 280.68 130.579 282.031 131.054C283.381 131.53 284.09 133.01 283.614 134.36L282.625 137.169L277.736 135.447L278.725 132.638Z" fill="#374151"/>
<path d="M271.241 132.638C270.765 131.288 269.285 130.579 267.935 131.054C266.585 131.53 265.876 133.01 266.351 134.36L267.341 137.169L272.23 135.447L271.241 132.638Z" fill="#374151"/>
<path d="M272.175 107.404C272.349 107.404 272.492 107.517 272.544 107.668C272.597 107.515 272.742 107.404 272.914 107.404H277.022C277.188 107.404 277.329 107.508 277.386 107.655C277.442 107.51 277.582 107.404 277.75 107.404H279.264C279.374 107.404 279.479 107.451 279.553 107.532L284.125 112.468L278.389 111.687C278.2 111.687 278.039 111.552 278.005 111.366L277.412 109.29V111.296C277.412 111.512 277.237 111.687 277.022 111.687H272.914C272.698 111.687 272.523 111.512 272.523 111.296V109.238L271.921 111.366C271.887 111.552 271.725 111.687 271.536 111.687L265.801 112.468L270.373 107.532C270.447 107.451 270.552 107.404 270.661 107.404H272.175Z" fill="#514B46"/>
<circle cx="214.09" cy="125.432" r="12.2204" fill="#514B46"/>
<rect x="202.413" y="124.618" width="11.6773" height="17.2413" rx="5.83864" fill="#514B46"/>
<rect x="214.09" y="124.618" width="11.6773" height="17.2413" rx="5.83864" fill="#514B46"/>
<circle cx="204.313" cy="125.704" r="4.6166" fill="#FFE5CF"/>
<circle cx="224.953" cy="125.704" r="4.6166" fill="#FFE5CF"/>
<path d="M208.077 137.652H220.1C220.1 137.652 222.385 146.458 222.73 150.622C222.955 153.334 221.925 155.832 221.18 157.243C220.771 158.019 219.944 158.442 219.067 158.442H209.111C208.233 158.442 207.407 158.019 206.997 157.243C206.252 155.832 205.223 153.334 205.447 150.622C205.793 146.458 208.077 137.652 208.077 137.652Z" fill="#FFBB00"/>
<rect x="211.498" y="131.895" width="5.18387" height="8.23155" rx="2.59193" fill="#FFDDC0"/>
<circle cx="214.089" cy="125.432" r="10.8626" fill="#FFE8D5"/>
<circle cx="220.503" cy="123.717" r="2.25944" fill="#FFDED5"/>
<circle cx="207.928" cy="123.717" r="2.25944" fill="#FFDED5"/>
<path d="M209.027 120.256C209.027 120.256 209.672 120.942 210.748 120.791C211.824 120.639 212.254 119.803 212.254 119.803" stroke="#33353B" stroke-width="0.814695" stroke-linecap="round"/>
<path d="M215.924 119.802C215.924 119.802 216.355 120.639 217.43 120.79C218.506 120.942 219.151 120.256 219.151 120.256" stroke="#33353B" stroke-width="0.814695" stroke-linecap="round"/>
<path d="M212.25 114.633C215.081 113.898 221.45 114.715 224.081 121.17C221.592 120.441 215.946 118.29 212.839 115.318C212.583 115.074 212.163 115.108 211.949 115.39C209.731 118.315 205.889 120.367 204.116 121.091C206.022 115.646 210.194 114.541 212.25 114.633Z" fill="#514B46"/>
<path d="M203.522 160.706C200.928 161.172 198.544 159.178 198.544 156.542C198.544 154.41 200.131 152.611 202.247 152.345L211.774 151.146C213.027 150.989 214.294 150.989 215.547 151.146L225.074 152.345C227.19 152.611 228.777 154.41 228.777 156.542C228.777 159.178 226.393 161.172 223.799 160.706L215.635 159.239C214.329 159.005 212.992 159.005 211.686 159.239L203.522 160.706Z" fill="#ADD9FF"/>
<rect x="192.103" y="153.821" width="8.78992" height="12.4017" rx="4.39496" transform="rotate(-36.9762 192.103 153.821)" fill="#FFE8D5"/>
<rect width="8.78992" height="12.4111" rx="4.39496" transform="matrix(-0.798885 -0.601484 -0.601484 0.798885 235.166 153.814)" fill="#FFE8D5"/>
<ellipse cx="214.09" cy="151.98" rx="8.64812" ry="1.60974" fill="#FFBB00"/>
<rect x="218.707" y="136.954" width="5.18387" height="18.9082" rx="2.59193" transform="rotate(19.4017 218.707 136.954)" fill="#FFE8D5"/>
<rect width="5.18387" height="19.1" rx="2.59193" transform="matrix(-0.943213 0.33219 0.33219 0.943213 209.5 136.954)" fill="#FFE8D5"/>
<path d="M217.846 139.399C218.322 138.049 219.802 137.34 221.152 137.815C222.502 138.291 223.211 139.771 222.736 141.121L221.746 143.93L216.857 142.207L217.846 139.399Z" fill="#FFBB00"/>
<path d="M210.361 139.399C209.885 138.049 208.405 137.34 207.055 137.815C205.705 138.291 204.996 139.771 205.472 141.121L206.461 143.93L211.35 142.207L210.361 139.399Z" fill="#FFBB00"/>
<path d="M212.584 122.221C212.973 122.248 213.8 122.116 213.999 121.372C214.068 121.655 214.407 122.221 215.205 122.221" stroke="#FF5656" stroke-width="0.54313" stroke-linecap="round" stroke-linejoin="round"/>
</svg>
