<svg width="375" height="180" viewBox="0 0 375 180" fill="none" xmlns="http://www.w3.org/2000/svg">
<ellipse cx="280.197" cy="144.602" rx="48.5159" ry="8.43754" fill="#F3F4F6"/>
<ellipse cx="95.969" cy="134.602" rx="48.5159" ry="8.43754" fill="#F3F4F6"/>
<ellipse cx="187.5" cy="119.681" rx="48.5159" ry="8.43754" fill="#F3F4F6"/>
<circle cx="272.345" cy="72.1776" r="24.4706" fill="#514B46"/>
<rect x="248.962" y="70.5464" width="23.383" height="34.5246" rx="11.6915" fill="#514B46"/>
<rect x="272.345" y="70.5464" width="23.383" height="34.5246" rx="11.6915" fill="#514B46"/>
<circle cx="252.768" cy="72.7217" r="9.24444" fill="#FFE5CF"/>
<circle cx="294.096" cy="72.7217" r="9.24444" fill="#FFE5CF"/>
<path d="M260.306 96.6479H284.382C284.382 96.6479 288.957 114.281 289.648 122.618C290.098 128.05 288.036 133.051 286.544 135.877C285.724 137.43 284.069 138.277 282.312 138.277H262.376C260.619 138.277 258.964 137.43 258.144 135.877C256.652 133.051 254.59 128.05 255.04 122.618C255.731 114.281 260.306 96.6479 260.306 96.6479Z" fill="#FFAB9E"/>
<rect x="267.154" y="85.1184" width="10.3804" height="16.4831" rx="5.19018" fill="#FFDDC0"/>
<circle cx="272.344" cy="72.1779" r="21.7516" fill="#FFE8D5"/>
<circle cx="285.186" cy="68.7434" r="4.52438" fill="#FFDED5"/>
<circle cx="260.01" cy="68.7434" r="4.52438" fill="#FFDED5"/>
<path d="M262.209 61.8127C262.209 61.8127 263.5 63.1856 265.654 62.8829C267.808 62.5802 268.671 60.9046 268.671 60.9046" stroke="#33353B" stroke-width="1.63137" stroke-linecap="round"/>
<path d="M276.018 60.9045C276.018 60.9045 276.88 62.5801 279.034 62.8829C281.188 63.1856 282.48 61.8127 282.48 61.8127" stroke="#33353B" stroke-width="1.63137" stroke-linecap="round"/>
<path d="M268.662 50.5522C274.331 49.0816 287.084 50.7168 292.351 63.643C287.369 62.1819 276.062 57.876 269.84 51.9244C269.328 51.4351 268.487 51.5045 268.059 52.0685C263.617 57.9265 255.924 62.0344 252.374 63.4835C256.19 52.5813 264.545 50.3687 268.662 50.5522Z" fill="#514B46"/>
<path d="M251.186 142.811C245.991 143.744 241.217 139.751 241.217 134.473C241.217 130.203 244.395 126.601 248.631 126.068L267.71 123.669C270.218 123.353 272.755 123.353 275.263 123.669L294.342 126.068C298.579 126.601 301.757 130.203 301.757 134.473C301.757 139.751 296.982 143.744 291.788 142.811L275.441 139.874C272.826 139.404 270.148 139.404 267.533 139.874L251.186 142.811Z" fill="#ADD9FF"/>
<rect x="228.316" y="129.025" width="17.6012" height="24.8336" rx="8.80061" transform="rotate(-36.9762 228.316 129.025)" fill="#FFE8D5"/>
<rect width="17.6012" height="24.8523" rx="8.80061" transform="matrix(-0.798885 -0.601484 -0.601484 0.798885 314.55 129.01)" fill="#FFE8D5"/>
<ellipse cx="272.345" cy="125.338" rx="17.3173" ry="3.2234" fill="#FFAB9E"/>
<rect x="281.59" y="95.25" width="10.3804" height="37.8623" rx="5.19018" transform="rotate(19.4017 281.59 95.25)" fill="#FFE8D5"/>
<rect width="10.3804" height="38.2466" rx="5.19018" transform="matrix(-0.943213 0.33219 0.33219 0.943213 263.156 95.25)" fill="#FFE8D5"/>
<path d="M279.866 100.145C280.818 97.4418 283.782 96.0219 286.485 96.9741C289.189 97.9263 290.609 100.89 289.657 103.594L287.676 109.218L277.885 105.77L279.866 100.145Z" fill="#FFAB9E"/>
<path d="M264.88 100.145C263.928 97.4418 260.964 96.0219 258.261 96.9741C255.557 97.9263 254.137 100.89 255.089 103.594L257.07 109.218L266.861 105.77L264.88 100.145Z" fill="#FFAB9E"/>
<path d="M269.33 65.7474C270.108 65.8012 271.764 65.5365 272.163 64.0476C272.302 64.6142 272.98 65.7474 274.579 65.7474" stroke="#FF5656" stroke-width="1.08758" stroke-linecap="round" stroke-linejoin="round"/>
<ellipse cx="102.766" cy="60.1051" rx="24.4706" ry="23.8243" fill="#514B46"/>
<path d="M90.8839 38.5599C93.7823 34.5498 96.2754 36.377 97.2641 37.9275C97.3244 38.022 97.2957 38.1457 97.2034 38.2093L85.7612 46.0814C85.5561 46.2226 85.3048 45.9522 85.4592 45.7569C86.6733 44.2213 88.6378 41.6676 90.8839 38.5599Z" fill="#514B46"/>
<path d="M111.623 36.9822C106.769 33.0129 102.025 35.185 100.268 36.7628C100.154 36.8648 100.193 37.0451 100.335 37.1026L121.205 45.5894C121.397 45.6672 121.571 45.4602 121.456 45.2891C119.711 42.704 116.69 40.3259 111.623 36.9822Z" fill="#514B46"/>
<path d="M92.1864 83.1923C91.0184 81.986 87.9635 79.1156 85.8566 77.1578C85.681 76.9947 85.8652 76.7099 86.0868 76.8013L98.5448 81.9383C98.6253 81.9715 98.6778 82.0494 98.6778 82.1364V84.6373C98.6778 84.7821 98.5378 84.8829 98.4097 84.8153C97.5627 84.3682 96.6861 83.1039 96.2146 82.2844C96.1367 82.149 95.9696 82.1503 95.9451 82.3046C95.8817 82.7028 95.9335 83.3316 95.9983 83.8113C96.0202 83.9738 95.867 84.0957 95.7266 84.011C94.6865 83.3835 92.9432 81.4945 92.6667 81.5346C92.6176 81.5418 92.6475 81.6131 92.674 81.6551C92.887 81.9924 92.8002 82.5424 92.716 83.025C92.6802 83.2304 92.3314 83.3421 92.1864 83.1923Z" fill="#514B46"/>
<path d="M113.302 83.1923C114.47 81.986 117.525 79.1156 119.632 77.1578C119.807 76.9947 119.623 76.7099 119.401 76.8013L106.943 81.9383C106.863 81.9715 106.81 82.0494 106.81 82.1364V84.6373C106.81 84.7821 106.951 84.8829 107.079 84.8153C107.926 84.3682 108.802 83.1039 109.274 82.2844C109.352 82.149 109.519 82.1503 109.543 82.3046C109.607 82.7028 109.555 83.3316 109.49 83.8113C109.468 83.9738 109.621 84.0957 109.762 84.011C110.802 83.3835 112.545 81.4945 112.822 81.5346C112.871 81.5418 112.841 81.6131 112.814 81.6551C112.601 81.9924 112.688 82.5424 112.772 83.025C112.808 83.2304 113.157 83.3421 113.302 83.1923Z" fill="#514B46"/>
<circle cx="83.1888" cy="62.7215" r="9.24444" fill="#FFE5CF"/>
<circle cx="124.518" cy="62.7215" r="9.24444" fill="#FFE5CF"/>
<path d="M90.7284 86.6482H114.804C114.804 86.6482 119.378 104.281 120.07 112.619C120.52 118.05 118.458 123.051 116.966 125.877C116.146 127.43 114.491 128.277 112.734 128.277H92.7978C91.0412 128.277 89.3859 127.43 88.5658 125.877C87.074 123.051 85.0121 118.05 85.4624 112.619C86.1534 104.281 90.7284 86.6482 90.7284 86.6482Z" fill="#25DC96"/>
<rect x="97.5762" y="75.1182" width="10.3804" height="16.4831" rx="5.19018" fill="#FFDDC0"/>
<circle cx="102.766" cy="62.1779" r="21.7516" fill="#FFE8D5"/>
<circle cx="115.608" cy="59.2807" r="4.52438" fill="#FFDED5"/>
<circle cx="90.4306" cy="59.2807" r="4.52438" fill="#FFDED5"/>
<path d="M92.6309 52.3501C92.6309 52.3501 93.9221 53.723 96.0761 53.4202C98.2301 53.1175 99.0928 51.4419 99.0928 51.4419" stroke="#33353B" stroke-width="1.63137" stroke-linecap="round"/>
<path d="M106.439 51.4421C106.439 51.4421 107.302 53.1177 109.456 53.4204C111.61 53.7232 112.901 52.3503 112.901 52.3503" stroke="#33353B" stroke-width="1.63137" stroke-linecap="round"/>
<path d="M99.7383 55.5078L105.013 55.5078" stroke="#FF5656" stroke-width="1.08758" stroke-linecap="round"/>
<path d="M105.084 53.9866C104.943 54.6972 104.919 56.3006 105.95 57.029" stroke="#FF5656" stroke-width="1.08758" stroke-linecap="round"/>
<path d="M81.6077 132.811C76.4129 133.744 71.6387 129.751 71.6387 124.473C71.6387 120.203 74.8164 116.601 79.0529 116.068L98.1318 113.669C100.64 113.353 103.177 113.353 105.685 113.669L124.764 116.068C129.001 116.601 132.178 120.203 132.178 124.473C132.178 129.751 127.404 133.744 122.209 132.811L105.863 129.874C103.247 129.404 100.57 129.404 97.9546 129.874L81.6077 132.811Z" fill="#ADD9FF"/>
<rect x="58.7383" y="119.025" width="17.6012" height="24.8336" rx="8.80061" transform="rotate(-36.9762 58.7383 119.025)" fill="#FFE8D5"/>
<rect width="17.6012" height="24.8523" rx="8.80061" transform="matrix(-0.798885 -0.601484 -0.601484 0.798885 144.972 119.01)" fill="#FFE8D5"/>
<ellipse cx="102.766" cy="115.338" rx="17.3173" ry="3.2234" fill="#25DC96"/>
<rect x="112.011" y="85.25" width="10.3804" height="37.8623" rx="5.19018" transform="rotate(19.4017 112.011 85.25)" fill="#FFE8D5"/>
<rect width="10.3804" height="38.2466" rx="5.19018" transform="matrix(-0.943213 0.33219 0.33219 0.943213 93.5781 85.25)" fill="#FFE8D5"/>
<path d="M110.287 90.1454C111.239 87.4418 114.203 86.0219 116.906 86.9741C119.61 87.9263 121.03 90.89 120.077 93.5937L118.097 99.2178L108.306 95.7696L110.287 90.1454Z" fill="#25DC96"/>
<path d="M95.3022 90.1454C94.35 87.4418 91.3864 86.0219 88.6827 86.9741C85.979 87.9263 84.5592 90.89 85.5114 93.5937L87.4921 99.2178L97.283 95.7696L95.3022 90.1454Z" fill="#25DC96"/>
<path d="M95.3993 41.7589C96.1181 40.653 96.6553 40.6298 96.9593 40.8554C97.0874 40.9504 97.2959 40.9698 97.3434 40.8176C97.5401 40.1872 96.5745 39.7715 91.4325 41.7589C85.6863 43.9797 83.3102 50.0988 82.773 53.1686C82.747 53.3173 82.8816 53.4406 83.0266 53.399C85.934 52.5651 88.828 49.3508 89.8294 48.1363C89.9558 47.9829 90.1827 48.0624 90.1436 48.2573C90.0512 48.7169 89.84 49.2175 89.6398 49.6114C89.5503 49.7874 89.7126 49.9875 89.8917 49.9043C92.8189 48.544 94.2791 43.4823 95.3993 41.7589Z" fill="#514B46"/>
<path d="M102.585 38.7554C101.797 38.3278 101.504 39.3431 101.443 39.9999C101.437 40.0613 101.38 40.1052 101.32 40.0916C98.4007 39.4314 95.2758 38.0429 105.373 37.5675C115.497 37.0909 121.121 46.7697 122.728 51.8194C122.75 51.8914 122.686 51.9576 122.612 51.9421C117.755 50.9287 113.744 47.4663 112.003 45.4902C111.929 45.4061 111.784 45.4897 111.82 45.5957L112.265 46.8944C112.288 46.9626 112.23 47.0321 112.158 47.0254C103.476 46.2191 103.625 39.3194 102.585 38.7554Z" fill="#514B46"/>
<path d="M168.119 41.3835C170.422 35.3025 176.247 31.2803 182.75 31.2803H192.362C198.865 31.2803 204.69 35.3025 206.993 41.3835L214.798 61.9863C216.737 67.1047 212.956 72.5809 207.483 72.5809H167.629C162.156 72.5809 158.374 67.1047 160.313 61.9863L168.119 41.3835Z" fill="#514B46"/>
<path d="M212.026 51.4315C212.026 64.9463 201.07 72.5812 187.556 72.5812C174.041 72.5812 163.085 64.9463 163.085 51.4315C163.085 37.9168 174.041 26.9609 187.556 26.9609C201.07 26.9609 212.026 37.9168 212.026 51.4315Z" fill="#514B46"/>
<circle cx="167.979" cy="51.9754" r="9.24444" fill="#FFE5CF"/>
<circle cx="209.307" cy="51.9754" r="9.24444" fill="#FFE5CF"/>
<path d="M175.518 75.9023H199.594C199.594 75.9023 204.169 93.5354 204.86 101.873C205.31 107.305 203.248 112.305 201.756 115.131C200.936 116.684 199.281 117.532 197.524 117.532H177.588C175.831 117.532 174.176 116.684 173.356 115.131C171.864 112.305 169.802 107.305 170.252 101.873C170.943 93.5354 175.518 75.9023 175.518 75.9023Z" fill="#7FC3FF"/>
<rect x="182.365" y="64.3721" width="10.3804" height="16.4831" rx="5.19018" fill="#FFDDC0"/>
<circle cx="187.555" cy="51.4318" r="21.7516" fill="#FFE8D5"/>
<rect x="182.933" y="43.6177" width="9.13425" height="10.7462" rx="4.56713" fill="#FF8D87"/>
<circle cx="200.397" cy="47.997" r="4.52438" fill="#FFDED5"/>
<circle cx="175.221" cy="47.9973" r="4.52438" fill="#FFDED5"/>
<path d="M177.42 41.0669C177.42 41.0669 178.711 42.4398 180.865 42.137C183.019 41.8343 183.882 40.1587 183.882 40.1587" stroke="#33353B" stroke-width="1.63137" stroke-linecap="round"/>
<path d="M191.229 40.1587C191.229 40.1587 192.092 41.8343 194.246 42.137C196.4 42.4397 197.691 41.0669 197.691 41.0669" stroke="#33353B" stroke-width="1.63137" stroke-linecap="round"/>
<path d="M166.398 122.065C161.203 122.998 156.429 119.005 156.429 113.727C156.429 109.458 159.606 105.855 163.843 105.322L182.922 102.923C185.43 102.608 187.967 102.608 190.475 102.923L209.554 105.322C213.791 105.855 216.968 109.458 216.968 113.727C216.968 119.005 212.194 122.998 206.999 122.065L190.653 119.128C188.038 118.659 185.36 118.659 182.745 119.128L166.398 122.065Z" fill="#1F94F2"/>
<rect x="143.527" y="108.279" width="17.6012" height="24.8336" rx="8.80061" transform="rotate(-36.9762 143.527 108.279)" fill="#FFE8D5"/>
<rect width="17.6012" height="24.8523" rx="8.80061" transform="matrix(-0.798885 -0.601484 -0.601484 0.798885 229.761 108.264)" fill="#FFE8D5"/>
<ellipse cx="187.556" cy="104.592" rx="17.3173" ry="3.2234" fill="#7FC3FF"/>
<rect x="196.801" y="74.5039" width="10.3804" height="37.8623" rx="5.19018" transform="rotate(19.4017 196.801 74.5039)" fill="#FFE8D5"/>
<rect width="10.3804" height="38.2466" rx="5.19018" transform="matrix(-0.943213 0.33219 0.33219 0.943213 178.368 74.5039)" fill="#FFE8D5"/>
<path d="M195.077 79.3993C196.029 76.6957 198.993 75.2758 201.696 76.228C204.4 77.1802 205.82 80.1439 204.868 82.8476L202.887 88.4717L193.096 85.0235L195.077 79.3993Z" fill="#7FC3FF"/>
<path d="M180.092 79.3993C179.14 76.6957 176.176 75.2758 173.473 76.228C170.769 77.1802 169.349 80.1439 170.301 82.8476L172.282 88.4717L182.073 85.0235L180.092 79.3993Z" fill="#7FC3FF"/>
<path d="M181.964 28.8706C182.312 28.8708 182.598 29.0956 182.702 29.3985C182.808 29.0914 183.099 28.8706 183.442 28.8706H191.668C192.001 28.8707 192.284 29.0788 192.397 29.3718C192.509 29.0822 192.79 28.8706 193.128 28.8706H196.159C196.379 28.8706 196.588 28.9633 196.737 29.1258L205.892 39.0108L194.407 37.4462C194.029 37.4461 193.705 37.1754 193.637 36.8037L192.451 32.6469V36.6639C192.451 37.0957 192.1 37.4461 191.668 37.4462H183.442C183.01 37.4462 182.66 37.0958 182.66 36.6639V32.5423L181.454 36.8037C181.386 37.1755 181.062 37.4462 180.684 37.4462L169.199 39.0108L178.354 29.1258C178.502 28.9633 178.712 28.8706 178.932 28.8706H181.964Z" fill="#514B46"/>
</svg>
