<svg width="375" height="180" viewBox="0 0 375 180" fill="none" xmlns="http://www.w3.org/2000/svg">
<ellipse cx="187.699" cy="134.245" rx="48.5159" ry="8.43754" fill="#F3F4F6"/>
<path d="M168.119 51.7405C170.422 45.6594 176.247 41.6372 182.75 41.6372H192.362C198.865 41.6372 204.69 45.6594 206.993 51.7405L214.798 72.3433C216.737 77.4616 212.956 82.9378 207.483 82.9378H167.629C162.156 82.9378 158.374 77.4616 160.313 72.3433L168.119 51.7405Z" fill="#514B46"/>
<path d="M212.026 61.7885C212.026 75.3032 201.07 82.9381 187.556 82.9381C174.041 82.9381 163.085 75.3032 163.085 61.7885C163.085 48.2737 174.041 37.3179 187.556 37.3179C201.07 37.3179 212.026 48.2737 212.026 61.7885Z" fill="#514B46"/>
<circle cx="167.979" cy="62.3323" r="9.24444" fill="#FFE5CF"/>
<circle cx="209.307" cy="62.3323" r="9.24444" fill="#FFE5CF"/>
<path d="M175.518 86.2593H199.594C199.594 86.2593 204.169 103.892 204.86 112.23C205.31 117.662 203.248 122.662 201.756 125.488C200.936 127.041 199.281 127.888 197.524 127.888H177.588C175.831 127.888 174.176 127.041 173.356 125.488C171.864 122.662 169.802 117.662 170.252 112.23C170.943 103.892 175.518 86.2593 175.518 86.2593Z" fill="#7FC3FF"/>
<rect x="182.365" y="74.729" width="10.3804" height="16.4831" rx="5.19018" fill="#FFDDC0"/>
<circle cx="187.555" cy="61.7887" r="21.7516" fill="#FFE8D5"/>
<rect x="182.933" y="53.9746" width="9.13425" height="10.7462" rx="4.56713" fill="#FF8D87"/>
<circle cx="200.397" cy="58.354" r="4.52438" fill="#FFDED5"/>
<circle cx="175.221" cy="58.3542" r="4.52438" fill="#FFDED5"/>
<path d="M177.42 51.4238C177.42 51.4238 178.711 52.7967 180.865 52.494C183.019 52.1912 183.882 50.5157 183.882 50.5157" stroke="#33353B" stroke-width="1.63137" stroke-linecap="round"/>
<path d="M191.229 50.5156C191.229 50.5156 192.092 52.1912 194.246 52.4939C196.4 52.7967 197.691 51.4238 197.691 51.4238" stroke="#33353B" stroke-width="1.63137" stroke-linecap="round"/>
<path d="M166.398 132.422C161.203 133.355 156.429 129.362 156.429 124.084C156.429 119.814 159.606 116.212 163.843 115.679L182.922 113.28C185.43 112.965 187.967 112.965 190.475 113.28L209.554 115.679C213.791 116.212 216.968 119.814 216.968 124.084C216.968 129.362 212.194 133.355 206.999 132.422L190.653 129.485C188.038 129.016 185.36 129.016 182.745 129.485L166.398 132.422Z" fill="#1F94F2"/>
<rect x="143.527" y="118.636" width="17.6012" height="24.8336" rx="8.80061" transform="rotate(-36.9762 143.527 118.636)" fill="#FFE8D5"/>
<rect width="17.6012" height="24.8523" rx="8.80061" transform="matrix(-0.798885 -0.601484 -0.601484 0.798885 229.761 118.621)" fill="#FFE8D5"/>
<ellipse cx="187.556" cy="114.949" rx="17.3173" ry="3.2234" fill="#7FC3FF"/>
<rect x="196.801" y="84.8608" width="10.3804" height="37.8623" rx="5.19018" transform="rotate(19.4017 196.801 84.8608)" fill="#FFE8D5"/>
<rect width="10.3804" height="38.2466" rx="5.19018" transform="matrix(-0.943213 0.33219 0.33219 0.943213 178.368 84.8608)" fill="#FFE8D5"/>
<path d="M195.077 89.7563C196.029 87.0526 198.993 85.6328 201.696 86.585C204.4 87.5372 205.82 90.5008 204.868 93.2045L202.887 98.8286L193.096 95.3804L195.077 89.7563Z" fill="#7FC3FF"/>
<path d="M180.092 89.7563C179.14 87.0526 176.176 85.6328 173.473 86.585C170.769 87.5372 169.349 90.5008 170.301 93.2045L172.282 98.8286L182.073 95.3804L180.092 89.7563Z" fill="#7FC3FF"/>
<path d="M181.964 39.2275C182.312 39.2277 182.598 39.4525 182.702 39.7554C182.808 39.4483 183.099 39.2275 183.442 39.2275H191.668C192.001 39.2277 192.284 39.4358 192.397 39.7287C192.509 39.4392 192.79 39.2275 193.128 39.2275H196.159C196.379 39.2275 196.588 39.3203 196.737 39.4827L205.892 49.3678L194.407 47.8032C194.029 47.803 193.705 47.5323 193.637 47.1607L192.451 43.0039V47.0208C192.451 47.4527 192.1 47.803 191.668 47.8032H183.442C183.01 47.8032 182.66 47.4528 182.66 47.0208V42.8992L181.454 47.1607C181.386 47.5324 181.062 47.8032 180.684 47.8032L169.199 49.3678L178.354 39.4827C178.502 39.3202 178.712 39.2275 178.932 39.2275H181.964Z" fill="#514B46"/>
</svg>
