<svg width="375" height="180" viewBox="0 0 375 180" fill="none" xmlns="http://www.w3.org/2000/svg">
<ellipse cx="178.134" cy="90.0603" rx="42.6517" ry="7.41769" fill="#F3F4F6"/>
<ellipse cx="192.339" cy="26.0288" rx="21.4257" ry="20.8599" fill="#514B46"/>
<path d="M182.285 4.52696C181.222 6.65307 178.899 9.38481 177.871 10.4849L200.203 6.79869C191.887 2.34089 191.587 1.48362 190.901 2.38376C190.216 3.28389 189.958 3.96953 189.015 3.19799C188.072 2.42645 187.344 0.88345 186.744 1.74072C186.144 2.59799 185.629 5.04121 184.729 3.58386C183.829 2.1265 183.615 1.86932 182.285 4.52696Z" fill="#514B46"/>
<circle cx="175.2" cy="28.3197" r="8.09416" fill="#FFE5CF"/>
<circle cx="211.383" cy="28.3197" r="8.09416" fill="#FFE5CF"/>
<path d="M181.799 49.2686H202.878C202.878 49.2686 206.884 64.7076 207.489 72.0075C207.883 76.7635 206.078 81.1419 204.772 83.6159C204.054 84.976 202.604 85.7178 201.066 85.7178H183.611C182.073 85.7178 180.623 84.976 179.905 83.6159C178.599 81.1419 176.794 76.7635 177.188 72.0075C177.793 64.7076 181.799 49.2686 181.799 49.2686Z" fill="#374151"/>
<rect x="187.795" y="39.1738" width="9.08873" height="14.4321" rx="4.54436" fill="#FFDDC0"/>
<circle cx="192.34" cy="27.8439" r="19.0451" fill="#FFE8D5"/>
<circle cx="203.583" cy="25.3071" r="3.96141" fill="#FFDED5"/>
<circle cx="181.539" cy="25.3071" r="3.96141" fill="#FFDED5"/>
<path d="M183.466 19.2393C183.466 19.2393 184.596 20.4413 186.482 20.1762C188.368 19.9112 189.124 18.4441 189.124 18.4441" stroke="#33353B" stroke-width="1.42838" stroke-linecap="round"/>
<path d="M195.555 18.4434C195.555 18.4434 196.31 19.9105 198.196 20.1755C200.082 20.4406 201.213 19.2385 201.213 19.2385" stroke="#33353B" stroke-width="1.42838" stroke-linecap="round"/>
<path d="M197.06 13.4399C197.259 13.4401 199.767 13.4399 200.244 13.4399" stroke="#514B46" stroke-width="1.42838" stroke-linecap="round"/>
<path d="M184.45 13.4399C184.65 13.4401 187.158 13.4399 187.635 13.4399" stroke="#514B46" stroke-width="1.42838" stroke-linecap="round"/>
<path d="M189.688 22.0039L194.306 22.0039" stroke="#FF5656" stroke-width="0.952255" stroke-linecap="round"/>
<path d="M194.368 20.6716C194.245 21.2938 194.224 22.6977 195.126 23.3355" stroke="#FF5656" stroke-width="0.952255" stroke-linecap="round"/>
<path d="M173.812 89.6878C169.263 90.5049 165.083 87.0088 165.083 82.3875C165.083 78.649 167.865 75.4949 171.575 75.0284L188.28 72.9277C190.476 72.6516 192.697 72.6516 194.893 72.9277L211.598 75.0284C215.307 75.4948 218.09 78.649 218.09 82.3875C218.09 87.0088 213.91 90.5049 209.361 89.6878L195.048 87.1165C192.759 86.7052 190.414 86.7052 188.124 87.1165L173.812 89.6878Z" fill="#FFBB00"/>
<rect x="153.789" y="77.6169" width="15.4111" height="21.7435" rx="7.70556" transform="rotate(-36.9762 153.789 77.6169)" fill="#FFE8D5"/>
<rect width="15.4111" height="21.76" rx="7.70556" transform="matrix(-0.798885 -0.601484 -0.601484 0.798885 229.293 77.6045)" fill="#FFE8D5"/>
<ellipse cx="192.337" cy="74.3887" rx="15.1625" ry="2.82231" fill="#374151"/>
<rect x="200.433" y="48.0447" width="9.08873" height="33.1511" rx="4.54436" transform="rotate(19.4017 200.433 48.0447)" fill="#FFE8D5"/>
<rect width="9.08873" height="33.4876" rx="4.54436" transform="matrix(-0.943213 0.33219 0.33219 0.943213 184.294 48.0447)" fill="#FFE8D5"/>
<path d="M198.923 52.331C199.757 49.9637 202.352 48.7205 204.719 49.5543C207.086 50.388 208.329 52.9829 207.496 55.3502L205.761 60.2745L197.189 57.2553L198.923 52.331Z" fill="#374151"/>
<path d="M185.804 52.331C184.97 49.9637 182.375 48.7205 180.008 49.5543C177.64 50.388 176.397 52.9829 177.231 55.3502L178.965 60.2745L187.538 57.2553L185.804 52.331Z" fill="#374151"/>
<ellipse cx="262.723" cy="93.5349" rx="42.1774" ry="7.3352" fill="#F3F4F6"/>
<ellipse cx="108.3" cy="103.467" rx="42.1774" ry="7.3352" fill="#F3F4F6"/>
<ellipse cx="225.018" cy="152.806" rx="42.1774" ry="7.3352" fill="#F3F4F6"/>
<circle cx="255.897" cy="30.5734" r="21.2736" fill="#514B46"/>
<rect x="235.569" y="29.1553" width="20.3281" height="30.014" rx="10.164" fill="#514B46"/>
<rect x="255.897" y="29.1553" width="20.3281" height="30.014" rx="10.164" fill="#514B46"/>
<circle cx="238.878" cy="31.0462" r="8.03668" fill="#FFE5CF"/>
<circle cx="274.806" cy="31.0462" r="8.03668" fill="#FFE5CF"/>
<path d="M245.432 51.8467H266.361C266.361 51.8467 270.339 67.176 270.939 74.4241C271.331 79.1463 269.538 83.4936 268.241 85.9501C267.528 87.3006 266.089 88.0371 264.562 88.0371H247.231C245.704 88.0371 244.265 87.3006 243.552 85.9501C242.255 83.4936 240.462 79.1463 240.854 74.4241C241.454 67.176 245.432 51.8467 245.432 51.8467Z" fill="#FFAB9E"/>
<rect x="251.385" y="41.8232" width="9.02419" height="14.3297" rx="4.51209" fill="#FFDDC0"/>
<circle cx="255.897" cy="30.5737" r="18.9098" fill="#FFE8D5"/>
<circle cx="267.061" cy="27.5881" r="3.93328" fill="#FFDED5"/>
<circle cx="245.174" cy="27.5881" r="3.93328" fill="#FFDED5"/>
<path d="M247.086 21.5627C247.086 21.5627 248.208 22.7562 250.081 22.4931C251.954 22.2299 252.704 20.7732 252.704 20.7732" stroke="#33353B" stroke-width="1.41824" stroke-linecap="round"/>
<path d="M259.09 20.7732C259.09 20.7732 259.84 22.2299 261.712 22.493C263.585 22.7562 264.708 21.5627 264.708 21.5627" stroke="#33353B" stroke-width="1.41824" stroke-linecap="round"/>
<path d="M252.695 11.7732C257.623 10.4948 268.71 11.9164 273.29 23.1538C268.958 21.8836 259.128 18.1403 253.719 12.9662C253.275 12.5408 252.543 12.6012 252.171 13.0915C248.309 18.1841 241.621 21.7554 238.535 23.0151C241.852 13.5372 249.116 11.6138 252.695 11.7732Z" fill="#514B46"/>
<path d="M237.503 91.9785C232.986 92.7898 228.836 89.3185 228.836 84.7301C228.836 81.0181 231.599 77.8863 235.282 77.4232L251.868 75.3374C254.048 75.0632 256.254 75.0632 258.435 75.3374L275.021 77.4232C278.704 77.8863 281.466 81.0181 281.466 84.7301C281.466 89.3185 277.316 92.7898 272.8 91.9785L258.589 89.4255C256.315 89.017 253.987 89.017 251.714 89.4255L237.503 91.9785Z" fill="#ADD9FF"/>
<rect x="217.621" y="79.9937" width="15.3017" height="21.5891" rx="7.65084" transform="rotate(-36.9762 217.621 79.9937)" fill="#FFE8D5"/>
<rect width="15.3017" height="21.6055" rx="7.65084" transform="matrix(-0.798885 -0.601484 -0.601484 0.798885 292.588 79.981)" fill="#FFE8D5"/>
<ellipse cx="255.897" cy="76.7886" rx="15.0548" ry="2.80227" fill="#FFAB9E"/>
<rect x="263.935" y="50.6313" width="9.02419" height="32.9157" rx="4.51209" transform="rotate(19.4017 263.935 50.6313)" fill="#FFE8D5"/>
<rect width="9.02419" height="33.2497" rx="4.51209" transform="matrix(-0.943213 0.33219 0.33219 0.943213 247.909 50.6313)" fill="#FFE8D5"/>
<path d="M262.436 54.8872C263.264 52.5368 265.84 51.3024 268.19 52.1302C270.541 52.958 271.775 55.5345 270.947 57.885L269.225 62.7743L260.714 59.7765L262.436 54.8872Z" fill="#FFAB9E"/>
<path d="M249.408 54.8872C248.58 52.5368 246.004 51.3024 243.653 52.1302C241.303 52.958 240.069 55.5345 240.896 57.885L242.618 62.7743L251.13 59.7765L249.408 54.8872Z" fill="#FFAB9E"/>
<path d="M253.276 24.9831C253.953 25.0298 255.392 24.7997 255.739 23.5054C255.86 23.998 256.449 24.9831 257.84 24.9831" stroke="#FF5656" stroke-width="0.945492" stroke-linecap="round" stroke-linejoin="round"/>
<ellipse cx="114.209" cy="38.7032" rx="21.2736" ry="20.7117" fill="#514B46"/>
<path d="M103.88 19.9728C106.4 16.4866 108.568 18.0751 109.427 19.4231C109.48 19.5052 109.455 19.6128 109.374 19.668L99.4271 26.5117C99.2487 26.6344 99.0302 26.3994 99.1645 26.2296C100.22 24.8946 101.928 22.6745 103.88 19.9728Z" fill="#514B46"/>
<path d="M121.91 18.6013C117.69 15.1506 113.566 17.0389 112.038 18.4106C111.94 18.4992 111.973 18.656 112.096 18.706L130.24 26.084C130.407 26.1516 130.559 25.9717 130.458 25.8229C128.941 23.5755 126.315 21.5082 121.91 18.6013Z" fill="#514B46"/>
<path d="M105.012 58.7742C103.997 57.7256 101.341 55.2302 99.5096 53.5282C99.357 53.3863 99.517 53.1388 99.7097 53.2182L110.54 57.6841C110.61 57.7129 110.656 57.7806 110.656 57.8563V60.0305C110.656 60.1564 110.534 60.2439 110.423 60.1852C109.686 59.7965 108.924 58.6974 108.514 57.9849C108.447 57.8672 108.301 57.8684 108.28 58.0025C108.225 58.3487 108.27 58.8953 108.326 59.3124C108.345 59.4536 108.212 59.5596 108.09 59.486C107.186 58.9405 105.67 57.2982 105.43 57.3332C105.387 57.3394 105.413 57.4014 105.436 57.4378C105.622 57.7311 105.546 58.2093 105.473 58.6288C105.442 58.8074 105.138 58.9045 105.012 58.7742Z" fill="#514B46"/>
<path d="M123.369 58.7742C124.385 57.7256 127.041 55.2302 128.872 53.5282C129.025 53.3863 128.865 53.1388 128.672 53.2182L117.842 57.6841C117.772 57.7129 117.726 57.7806 117.726 57.8563V60.0305C117.726 60.1564 117.848 60.2439 117.959 60.1852C118.695 59.7965 119.458 58.6974 119.868 57.9849C119.935 57.8672 120.08 57.8684 120.102 58.0025C120.157 58.3487 120.112 58.8953 120.056 59.3124C120.036 59.4536 120.17 59.5596 120.292 59.486C121.196 58.9405 122.711 57.2982 122.952 57.3332C122.995 57.3394 122.969 57.4014 122.946 57.4378C122.76 57.7311 122.836 58.2093 122.909 58.6288C122.94 58.8074 123.243 58.9045 123.369 58.7742Z" fill="#514B46"/>
<circle cx="97.19" cy="40.9778" r="8.03668" fill="#FFE5CF"/>
<circle cx="133.12" cy="40.9778" r="8.03668" fill="#FFE5CF"/>
<path d="M103.745 61.7783H124.675C124.675 61.7783 128.652 77.1077 129.253 84.3558C129.644 89.078 127.852 93.4253 126.555 95.8818C125.842 97.2322 124.403 97.9688 122.876 97.9688H105.544C104.017 97.9688 102.578 97.2322 101.865 95.8818C100.568 93.4253 98.7756 89.078 99.167 84.3558C99.7678 77.1077 103.745 61.7783 103.745 61.7783Z" fill="#25DC96"/>
<rect x="109.698" y="51.7549" width="9.02419" height="14.3297" rx="4.51209" fill="#FFDDC0"/>
<circle cx="114.211" cy="40.5053" r="18.9098" fill="#FFE8D5"/>
<circle cx="125.375" cy="37.9865" r="3.93328" fill="#FFDED5"/>
<circle cx="103.486" cy="37.9865" r="3.93328" fill="#FFDED5"/>
<path d="M105.398 31.9617C105.398 31.9617 106.521 33.1552 108.394 32.892C110.266 32.6288 111.016 31.1721 111.016 31.1721" stroke="#33353B" stroke-width="1.41824" stroke-linecap="round"/>
<path d="M117.403 31.1721C117.403 31.1721 118.153 32.6288 120.026 32.892C121.899 33.1551 123.021 31.9616 123.021 31.9616" stroke="#33353B" stroke-width="1.41824" stroke-linecap="round"/>
<path d="M111.578 34.7065L116.164 34.7065" stroke="#FF5656" stroke-width="0.945492" stroke-linecap="round"/>
<path d="M116.225 33.3838C116.103 34.0016 116.082 35.3955 116.978 36.0287" stroke="#FF5656" stroke-width="0.945492" stroke-linecap="round"/>
<path d="M95.816 101.91C91.2999 102.721 87.1494 99.2499 87.1494 94.6615C87.1494 90.9495 89.912 87.8177 93.595 87.3546L110.181 85.2688C112.362 84.9946 114.568 84.9946 116.748 85.2688L133.334 87.3546C137.017 87.8177 139.78 90.9495 139.78 94.6615C139.78 99.2499 135.629 102.721 131.113 101.91L116.902 99.3569C114.629 98.9484 112.301 98.9484 110.027 99.3569L95.816 101.91Z" fill="#ADD9FF"/>
<rect x="75.9346" y="89.9253" width="15.3017" height="21.5891" rx="7.65084" transform="rotate(-36.9762 75.9346 89.9253)" fill="#FFE8D5"/>
<rect width="15.3017" height="21.6055" rx="7.65084" transform="matrix(-0.798885 -0.601484 -0.601484 0.798885 150.901 89.9126)" fill="#FFE8D5"/>
<ellipse cx="114.209" cy="86.7202" rx="15.0548" ry="2.80227" fill="#25DC96"/>
<rect x="122.247" y="60.563" width="9.02419" height="32.9157" rx="4.51209" transform="rotate(19.4017 122.247 60.563)" fill="#FFE8D5"/>
<rect width="9.02419" height="33.2497" rx="4.51209" transform="matrix(-0.943213 0.33219 0.33219 0.943213 106.223 60.563)" fill="#FFE8D5"/>
<path d="M120.748 64.8188C121.576 62.4684 124.152 61.2341 126.503 62.0619C128.853 62.8897 130.088 65.4661 129.26 67.8166L127.538 72.7059L119.026 69.7082L120.748 64.8188Z" fill="#25DC96"/>
<path d="M107.722 64.8188C106.894 62.4684 104.317 61.2341 101.967 62.0619C99.6163 62.8897 98.382 65.4661 99.2098 67.8166L100.932 72.7059L109.444 69.7082L107.722 64.8188Z" fill="#25DC96"/>
<path d="M107.806 22.7538C108.431 21.7924 108.898 21.7722 109.162 21.9684C109.273 22.051 109.455 22.0679 109.496 21.9355C109.667 21.3875 108.827 21.0261 104.357 22.7538C99.3617 24.6845 97.296 30.0042 96.8291 32.6729C96.8064 32.8021 96.9234 32.9094 97.0495 32.8732C99.5771 32.1482 102.093 29.3539 102.964 28.2981C103.073 28.1647 103.271 28.2339 103.237 28.4033C103.156 28.8028 102.973 29.238 102.799 29.5804C102.721 29.7334 102.862 29.9074 103.018 29.8351C105.562 28.6525 106.832 24.2521 107.806 22.7538Z" fill="#514B46"/>
<path d="M114.053 20.1429C113.368 19.7712 113.113 20.6538 113.06 21.2248C113.055 21.2782 113.005 21.3163 112.953 21.3045C110.415 20.7306 107.699 19.5235 116.476 19.1102C125.278 18.6959 130.167 27.1102 131.564 31.5001C131.584 31.5627 131.528 31.6202 131.464 31.6068C127.241 30.7258 123.754 27.7158 122.24 25.9978C122.176 25.9247 122.05 25.9974 122.082 26.0896L122.468 27.2185C122.488 27.2779 122.438 27.3382 122.376 27.3324C114.828 26.6315 114.957 20.6332 114.053 20.1429Z" fill="#514B46"/>
<path d="M208.169 84.7381C210.172 79.4516 215.236 75.9548 220.889 75.9548H229.245C234.898 75.9548 239.962 79.4515 241.965 84.7381L248.75 102.649C250.436 107.099 247.149 111.86 242.391 111.86H207.744C202.985 111.86 199.698 107.099 201.384 102.649L208.169 84.7381Z" fill="#514B46"/>
<path d="M246.34 93.4735C246.34 105.223 236.816 111.86 225.067 111.86C213.317 111.86 203.793 105.223 203.793 93.4735C203.793 81.7245 213.317 72.2 225.067 72.2C236.816 72.2 246.34 81.7245 246.34 93.4735Z" fill="#514B46"/>
<circle cx="208.047" cy="93.9464" r="8.03668" fill="#FFE5CF"/>
<circle cx="243.976" cy="93.9464" r="8.03668" fill="#FFE5CF"/>
<path d="M214.601 114.747H235.531C235.531 114.747 239.509 130.077 240.109 137.325C240.501 142.047 238.708 146.394 237.411 148.851C236.698 150.201 235.259 150.938 233.732 150.938H216.401C214.873 150.938 213.434 150.201 212.721 148.851C211.425 146.394 209.632 142.047 210.023 137.325C210.624 130.077 214.601 114.747 214.601 114.747Z" fill="#7FC3FF"/>
<rect x="220.554" y="104.723" width="9.02419" height="14.3297" rx="4.51209" fill="#FFDDC0"/>
<circle cx="225.066" cy="93.4738" r="18.9098" fill="#FFE8D5"/>
<rect x="221.047" y="86.6804" width="7.94089" height="9.34222" rx="3.97044" fill="#FF8D87"/>
<circle cx="236.23" cy="90.4877" r="3.93328" fill="#FFDED5"/>
<circle cx="214.343" cy="90.4877" r="3.93328" fill="#FFDED5"/>
<path d="M216.255 84.4629C216.255 84.4629 217.377 85.6564 219.25 85.3932C221.123 85.13 221.873 83.6734 221.873 83.6734" stroke="#33353B" stroke-width="1.41824" stroke-linecap="round"/>
<path d="M228.261 83.6733C228.261 83.6733 229.011 85.13 230.883 85.3932C232.756 85.6564 233.878 84.4629 233.878 84.4629" stroke="#33353B" stroke-width="1.41824" stroke-linecap="round"/>
<path d="M206.672 154.879C202.156 155.69 198.006 152.219 198.006 147.63C198.006 143.918 200.768 140.787 204.451 140.324L221.038 138.238C223.218 137.964 225.424 137.964 227.604 138.238L244.191 140.324C247.874 140.787 250.636 143.918 250.636 147.63C250.636 152.219 246.486 155.69 241.97 154.879L227.758 152.326C225.485 151.917 223.157 151.917 220.884 152.326L206.672 154.879Z" fill="#1F94F2"/>
<rect x="186.79" y="142.894" width="15.3017" height="21.5891" rx="7.65084" transform="rotate(-36.9762 186.79 142.894)" fill="#FFE8D5"/>
<rect width="15.3017" height="21.6055" rx="7.65084" transform="matrix(-0.798885 -0.601484 -0.601484 0.798885 261.758 142.881)" fill="#FFE8D5"/>
<ellipse cx="225.067" cy="139.688" rx="15.0548" ry="2.80227" fill="#7FC3FF"/>
<rect x="233.104" y="113.531" width="9.02419" height="32.9157" rx="4.51209" transform="rotate(19.4017 233.104 113.531)" fill="#FFE8D5"/>
<rect width="9.02419" height="33.2497" rx="4.51209" transform="matrix(-0.943213 0.33219 0.33219 0.943213 217.079 113.531)" fill="#FFE8D5"/>
<path d="M231.605 117.787C232.432 115.437 235.009 114.203 237.359 115.03C239.71 115.858 240.944 118.435 240.116 120.785L238.394 125.674L229.883 122.677L231.605 117.787Z" fill="#7FC3FF"/>
<path d="M218.578 117.787C217.75 115.437 215.174 114.203 212.823 115.03C210.473 115.858 209.238 118.435 210.066 120.785L211.788 125.674L220.3 122.677L218.578 117.787Z" fill="#7FC3FF"/>
<path d="M220.205 73.8599C220.508 73.86 220.757 74.0555 220.847 74.3188C220.939 74.0518 221.192 73.8599 221.49 73.8599H228.642C228.931 73.86 229.178 74.0409 229.276 74.2956C229.373 74.0438 229.617 73.8599 229.911 73.8599H232.546C232.737 73.8599 232.919 73.9405 233.048 74.0817L241.008 82.6753L231.022 81.3151C230.694 81.315 230.413 81.0797 230.354 80.7565L229.322 77.1428V80.635C229.322 81.0104 229.018 81.315 228.642 81.3151H221.49C221.115 81.3151 220.81 81.0105 220.81 80.635V77.0518L219.762 80.7565C219.703 81.0797 219.421 81.3151 219.093 81.3151L209.108 82.6753L217.067 74.0817C217.196 73.9404 217.379 73.8599 217.57 73.8599H220.205Z" fill="#514B46"/>
<ellipse cx="144.407" cy="156.436" rx="43.9774" ry="10.3476" fill="#F3F4F6"/>
<circle cx="2.93787" cy="2.93787" r="2.93787" transform="matrix(-1 0 0 1 136.908 103.847)" fill="#8F7560"/>
<circle cx="2.93787" cy="2.93787" r="2.93787" transform="matrix(-1 0 0 1 140.218 107.156)" fill="#8F7560"/>
<circle cx="2.93787" cy="2.93787" r="2.93787" transform="matrix(-1 0 0 1 144.407 109.344)" fill="#8F7560"/>
<circle cx="2.93787" cy="2.93787" r="2.93787" transform="matrix(-1 0 0 1 148.106 110.802)" fill="#8F7560"/>
<circle cx="166.366" cy="106.785" r="2.93787" fill="#8F7560"/>
<circle cx="163.055" cy="110.094" r="2.93787" fill="#8F7560"/>
<circle cx="158.866" cy="112.282" r="2.93787" fill="#8F7560"/>
<circle cx="155.166" cy="113.74" r="2.93787" fill="#8F7560"/>
<circle cx="4.92187" cy="4.92187" r="4.92187" transform="matrix(-1 0 0 1 174.312 85.5383)" fill="#8F7560"/>
<circle cx="131.189" cy="90.3029" r="5.66866" fill="#8F7560"/>
<circle cx="4.51762" cy="4.51762" r="4.51762" transform="matrix(-1 0 0 1 170.511 78.4409)" fill="#8F7560"/>
<circle cx="139.472" cy="79.0107" r="3.15203" fill="#8F7560"/>
<circle cx="3.15203" cy="3.15203" r="3.15203" transform="matrix(-1 0 0 1 164.122 75.8586)" fill="#8F7560"/>
<circle cx="4.76426" cy="4.76426" r="4.76426" transform="matrix(-1 0 0 1 159.289 72.1997)" fill="#8F7560"/>
<circle cx="4.75228" cy="4.75228" r="4.75228" transform="matrix(-1 0 0 1 150.702 72.2114)" fill="#8F7560"/>
<ellipse cx="150.701" cy="96.8752" rx="19.9258" ry="19.3996" fill="#8F7560"/>
<circle cx="134.762" cy="99.0063" r="7.52754" fill="#FFE5CF"/>
<circle cx="168.415" cy="99.0053" r="7.52754" fill="#FFE5CF"/>
<path d="M140.9 118.489H160.504C160.504 118.489 164.229 132.847 164.792 139.636C165.158 144.059 163.479 148.131 162.265 150.431C161.597 151.696 160.249 152.386 158.819 152.386H142.585C141.155 152.386 139.807 151.696 139.139 150.431C137.924 148.131 136.245 144.059 136.612 139.636C137.174 132.847 140.9 118.489 140.9 118.489Z" fill="#FF7F6B"/>
<rect x="146.476" y="109.101" width="8.45248" height="13.4218" rx="4.22624" fill="#FFDDC0"/>
<circle cx="150.702" cy="98.5634" r="17.7119" fill="#FFE8D5"/>
<circle cx="161.159" cy="96.2041" r="3.6841" fill="#FFDED5"/>
<circle cx="140.657" cy="96.2041" r="3.6841" fill="#FFDED5"/>
<path d="M142.451 90.5608C142.451 90.5608 143.503 91.6787 145.257 91.4322C147.01 91.1857 147.713 89.8213 147.713 89.8213" stroke="#33353B" stroke-width="1.32839" stroke-linecap="round"/>
<path d="M153.692 89.8218C153.692 89.8218 154.395 91.1862 156.149 91.4327C157.903 91.6792 158.954 90.5613 158.954 90.5613" stroke="#33353B" stroke-width="1.32839" stroke-linecap="round"/>
<path d="M148.236 93.1326L152.531 93.1326" stroke="#FF5656" stroke-width="0.885593" stroke-linecap="round"/>
<path d="M152.588 91.8933C152.474 92.472 152.454 93.7776 153.294 94.3707" stroke="#FF5656" stroke-width="0.885593" stroke-linecap="round"/>
<path d="M133.472 156.078C129.242 156.838 125.354 153.587 125.354 149.289C125.354 145.812 127.942 142.879 131.392 142.445L146.927 140.492C148.969 140.235 151.036 140.235 153.078 140.492L168.613 142.445C172.063 142.879 174.651 145.812 174.651 149.289C174.651 153.587 170.763 156.838 166.533 156.078L153.222 153.687C151.093 153.305 148.912 153.305 146.783 153.687L133.472 156.078Z" fill="#16B77B"/>
<rect x="114.853" y="144.853" width="14.3323" height="20.2214" rx="7.16614" transform="rotate(-36.9762 114.853 144.853)" fill="#FFE8D5"/>
<rect width="14.3323" height="20.2367" rx="7.16614" transform="matrix(-0.798885 -0.601484 -0.601484 0.798885 185.068 144.841)" fill="#FFE8D5"/>
<ellipse cx="150.704" cy="141.85" rx="14.1011" ry="2.62474" fill="#FF7F6B"/>
<rect x="158.229" y="117.35" width="8.45248" height="30.8304" rx="4.22624" transform="rotate(19.4017 158.229 117.35)" fill="#FFE8D5"/>
<rect width="8.45248" height="31.1433" rx="4.22624" transform="matrix(-0.943213 0.33219 0.33219 0.943213 143.221 117.35)" fill="#FFE8D5"/>
<path d="M156.826 121.336C157.601 119.135 160.014 117.978 162.216 118.754C164.417 119.529 165.573 121.942 164.798 124.144L163.185 128.724L155.213 125.916L156.826 121.336Z" fill="#FF7F6B"/>
<path d="M144.625 121.336C143.849 119.135 141.436 117.978 139.234 118.754C137.033 119.529 135.877 121.942 136.652 124.144L138.265 128.724L146.238 125.916L144.625 121.336Z" fill="#FF7F6B"/>
<circle cx="4.70232" cy="4.70232" r="4.70232" transform="matrix(-1 0 0 1 160.708 76.1487)" fill="#8F7560"/>
<circle cx="4.70232" cy="4.70232" r="4.70232" transform="matrix(-1 0 0 1 152.912 75.324)" fill="#8F7560"/>
<circle cx="3.94119" cy="3.94119" r="3.94119" transform="matrix(-1 0 0 1 144.407 79.366)" fill="#8F7560"/>
<circle cx="3.94119" cy="3.94119" r="3.94119" transform="matrix(-1 0 0 1 166.1 80.116)" fill="#8F7560"/>
<circle cx="3.05268" cy="3.05268" r="3.05268" transform="matrix(-1 0 0 1 168.665 86.2646)" fill="#8F7560"/>
<circle cx="3.94119" cy="3.94119" r="3.94119" transform="matrix(-1 0 0 1 139.659 84.728)" fill="#8F7560"/>
<circle cx="5.03969" cy="5.03969" r="5.03969" transform="matrix(-1 0 0 1 139.801 77.9192)" fill="#8F7560"/>
</svg>
