<svg width="375" height="180" viewBox="0 0 375 180" fill="none" xmlns="http://www.w3.org/2000/svg">
<ellipse cx="164.489" cy="104.707" rx="26.8463" ry="4.66891" fill="#F3F4F6"/>
<ellipse cx="258.575" cy="87.5669" rx="26.8463" ry="4.66891" fill="#F3F4F6"/>
<ellipse cx="105.442" cy="67.5239" rx="26.8463" ry="4.66891" fill="#F3F4F6"/>
<path d="M157.748 58.7362C159.017 55.3849 162.228 53.1682 165.811 53.1682H171.109C174.692 53.1682 177.902 55.3849 179.172 58.7362L183.474 70.0906C184.542 72.9114 182.458 75.9294 179.442 75.9294H157.478C154.462 75.9294 152.378 72.9114 153.446 70.0906L157.748 58.7362Z" fill="#764747"/>
<path d="M181.945 64.2736C181.945 71.7217 175.907 75.9294 168.459 75.9294C161.011 75.9294 154.973 71.7217 154.973 64.2736C154.973 56.8255 161.011 50.7876 168.459 50.7876C175.907 50.7876 181.945 56.8255 181.945 64.2736Z" fill="#764747"/>
<circle cx="157.671" cy="64.5736" r="5.0947" fill="#FFE5CF"/>
<circle cx="180.446" cy="64.574" r="5.0947" fill="#FFE5CF"/>
<path d="M161.825 77.7596H175.093C175.093 77.7596 177.614 87.4774 177.995 92.0722C178.243 95.0658 177.107 97.8216 176.284 99.3789C175.832 100.235 174.92 100.702 173.952 100.702H162.965C161.997 100.702 161.085 100.235 160.633 99.3789C159.811 97.8216 158.674 95.0658 158.922 92.0722C159.303 87.4774 161.825 77.7596 161.825 77.7596Z" fill="#FF5A3C"/>
<rect x="165.599" y="71.405" width="5.72071" height="9.08401" rx="2.86036" fill="#FFDDC0"/>
<circle cx="168.459" cy="64.2737" r="11.9875" fill="#FFE8D5"/>
<rect x="165.911" y="59.9674" width="5.03398" height="5.92233" rx="2.51699" fill="#FF8D87"/>
<circle cx="175.535" cy="62.3811" r="2.49343" fill="#FFDED5"/>
<circle cx="161.661" cy="62.3811" r="2.49343" fill="#FFDED5"/>
<path d="M162.873 58.5616C162.873 58.5616 163.585 59.3182 164.772 59.1514C165.959 58.9846 166.434 58.0611 166.434 58.0611" stroke="#33353B" stroke-width="0.899066" stroke-linecap="round"/>
<path d="M170.484 58.0614C170.484 58.0614 170.96 58.9848 172.147 59.1517C173.334 59.3185 174.046 58.5619 174.046 58.5619" stroke="#33353B" stroke-width="0.899066" stroke-linecap="round"/>
<path d="M156.8 103.201C153.937 103.715 151.306 101.514 151.306 98.6055C151.306 96.2524 153.057 94.2671 155.392 93.9735L165.906 92.6512C167.288 92.4774 168.687 92.4774 170.069 92.6512L180.584 93.9735C182.918 94.2671 184.67 96.2524 184.67 98.6055C184.67 101.514 182.039 103.715 179.176 103.201L170.167 101.582C168.726 101.323 167.25 101.323 165.809 101.582L156.8 103.201Z" fill="#1F94F2"/>
<rect x="144.194" y="95.6028" width="9.70021" height="13.686" rx="4.85011" transform="rotate(-36.9762 144.194 95.6028)" fill="#FFE8D5"/>
<rect width="9.70021" height="13.6964" rx="4.85011" transform="matrix(-0.798885 -0.601484 -0.601484 0.798885 191.719 95.5947)" fill="#FFE8D5"/>
<ellipse cx="168.46" cy="93.5709" rx="9.54373" ry="1.77645" fill="#FF5A3C"/>
<rect x="173.555" y="76.9891" width="5.72071" height="20.8663" rx="2.86036" transform="rotate(19.4017 173.555 76.9891)" fill="#FFE8D5"/>
<rect width="5.72071" height="21.0781" rx="2.86036" transform="matrix(-0.943213 0.33219 0.33219 0.943213 163.396 76.9891)" fill="#FFE8D5"/>
<path d="M172.605 79.6871C173.129 78.197 174.763 77.4145 176.253 77.9393C177.743 78.4641 178.525 80.0974 178 81.5874L176.909 84.6869L171.513 82.7866L172.605 79.6871Z" fill="#FF5A3C"/>
<path d="M164.346 79.6871C163.821 78.197 162.188 77.4145 160.698 77.9393C159.208 78.4641 158.425 80.0974 158.95 81.5874L160.041 84.6869L165.437 82.7866L164.346 79.6871Z" fill="#FF5A3C"/>
<path d="M165.377 51.8401C165.569 51.8402 165.727 51.9641 165.785 52.131C165.843 51.9617 166.003 51.8401 166.192 51.8401H170.726C170.909 51.8402 171.065 51.9548 171.127 52.1163C171.189 51.9567 171.344 51.8401 171.53 51.8401H173.201C173.322 51.8401 173.437 51.8912 173.519 51.9807L178.565 57.4285L172.235 56.5662C172.027 56.5661 171.848 56.4169 171.811 56.2121L171.157 53.9213V56.1351C171.157 56.373 170.964 56.5661 170.726 56.5662H166.192C165.954 56.5662 165.761 56.3731 165.761 56.1351V53.8636L165.097 56.2121C165.059 56.417 164.88 56.5662 164.672 56.5662L158.343 57.4285L163.388 51.9807C163.47 51.8912 163.586 51.8401 163.707 51.8401H165.377Z" fill="#764747"/>
<ellipse cx="257.62" cy="46.5024" rx="13.486" ry="13.1298" fill="#514B46"/>
<path d="M251.072 34.6291C252.669 32.4191 254.043 33.4261 254.588 34.2806C254.621 34.3326 254.605 34.4008 254.554 34.4358L248.249 38.7743C248.136 38.8521 247.997 38.7031 248.082 38.5954C248.751 37.7492 249.834 36.3418 251.072 34.6291Z" fill="#514B46"/>
<path d="M262.501 33.7592C259.826 31.5717 257.212 32.7687 256.244 33.6383C256.181 33.6945 256.203 33.7939 256.281 33.8255L267.783 38.5027C267.888 38.5455 267.984 38.4315 267.921 38.3372C266.959 36.9125 265.294 35.6019 262.501 33.7592Z" fill="#514B46"/>
<path d="M251.79 59.2262C251.146 58.5614 249.463 56.9795 248.302 55.9005C248.205 55.8106 248.306 55.6537 248.429 55.704L255.294 58.5351C255.339 58.5533 255.368 58.5963 255.368 58.6442V60.0225C255.368 60.1023 255.29 60.1578 255.22 60.1206C254.753 59.8742 254.27 59.1775 254.01 58.7258C253.967 58.6512 253.875 58.6519 253.862 58.7369C253.827 58.9564 253.855 59.3029 253.891 59.5673C253.903 59.6568 253.819 59.724 253.741 59.6773C253.168 59.3316 252.207 58.2905 252.055 58.3126C252.028 58.3165 252.044 58.3559 252.059 58.379C252.176 58.5649 252.128 58.868 252.082 59.134C252.062 59.2472 251.87 59.3087 251.79 59.2262Z" fill="#514B46"/>
<path d="M263.428 59.2262C264.071 58.5614 265.755 56.9795 266.916 55.9005C267.013 55.8106 266.911 55.6537 266.789 55.704L259.923 58.5351C259.879 58.5533 259.85 58.5963 259.85 58.6442V60.0225C259.85 60.1023 259.927 60.1578 259.998 60.1206C260.465 59.8742 260.948 59.1775 261.208 58.7258C261.251 58.6512 261.343 58.6519 261.356 58.7369C261.391 58.9564 261.363 59.3029 261.327 59.5673C261.315 59.6568 261.399 59.724 261.477 59.6773C262.05 59.3316 263.011 58.2905 263.163 58.3126C263.19 58.3165 263.174 58.3559 263.159 58.379C263.041 58.5649 263.089 58.868 263.136 59.134C263.156 59.2472 263.348 59.3087 263.428 59.2262Z" fill="#514B46"/>
<circle cx="246.832" cy="47.9442" r="5.0947" fill="#FFE5CF"/>
<circle cx="269.607" cy="47.9446" r="5.0947" fill="#FFE5CF"/>
<path d="M250.986 61.1307H264.254C264.254 61.1307 266.775 70.8485 267.156 75.4433C267.404 78.4368 266.268 81.1927 265.446 82.75C264.994 83.6061 264.081 84.073 263.113 84.073H252.126C251.158 84.073 250.246 83.6061 249.794 82.75C248.972 81.1927 247.835 78.4368 248.084 75.4433C248.464 70.8485 250.986 61.1307 250.986 61.1307Z" fill="#7FC3FF"/>
<rect x="254.76" y="54.7764" width="5.72071" height="9.08401" rx="2.86036" fill="#FFDDC0"/>
<circle cx="257.621" cy="47.6448" r="11.9875" fill="#FFE8D5"/>
<circle cx="264.698" cy="46.0481" r="2.49343" fill="#FFDED5"/>
<circle cx="250.822" cy="46.0481" r="2.49343" fill="#FFDED5"/>
<path d="M252.035 42.2285C252.035 42.2285 252.747 42.9851 253.934 42.8183C255.121 42.6514 255.596 41.728 255.596 41.728" stroke="#33353B" stroke-width="0.899066" stroke-linecap="round"/>
<path d="M259.646 41.7281C259.646 41.7281 260.121 42.6516 261.308 42.8184C262.495 42.9852 263.207 42.2287 263.207 42.2287" stroke="#33353B" stroke-width="0.899066" stroke-linecap="round"/>
<path d="M255.952 43.969L258.859 43.969" stroke="#FF5656" stroke-width="0.599377" stroke-linecap="round"/>
<path d="M258.898 43.1305C258.82 43.5221 258.807 44.4058 259.375 44.8072" stroke="#FF5656" stroke-width="0.599377" stroke-linecap="round"/>
<path d="M245.959 86.5711C243.096 87.0854 240.465 84.8849 240.465 81.9761C240.465 79.623 242.216 77.6377 244.551 77.3441L255.065 76.0218C256.448 75.848 257.846 75.848 259.228 76.0218L269.743 77.3441C272.078 77.6377 273.829 79.623 273.829 81.9761C273.829 84.8849 271.198 87.0854 268.335 86.5711L259.326 84.9527C257.885 84.6938 256.409 84.6938 254.968 84.9527L245.959 86.5711Z" fill="#6B7280"/>
<rect x="233.356" y="78.9742" width="9.70021" height="13.686" rx="4.85011" transform="rotate(-36.9762 233.356 78.9742)" fill="#FFE8D5"/>
<rect width="9.70021" height="13.6964" rx="4.85011" transform="matrix(-0.798885 -0.601484 -0.601484 0.798885 280.88 78.9653)" fill="#FFE8D5"/>
<ellipse cx="257.621" cy="76.9421" rx="9.54373" ry="1.77645" fill="#7FC3FF"/>
<rect x="262.716" y="60.3602" width="5.72071" height="20.8663" rx="2.86036" transform="rotate(19.4017 262.716 60.3602)" fill="#FFE8D5"/>
<rect width="5.72071" height="21.0781" rx="2.86036" transform="matrix(-0.943213 0.33219 0.33219 0.943213 252.557 60.3602)" fill="#FFE8D5"/>
<path d="M261.766 63.0582C262.29 61.5681 263.924 60.7856 265.414 61.3104C266.904 61.8352 267.686 63.4685 267.161 64.9585L266.07 68.058L260.674 66.1577L261.766 63.0582Z" fill="#7FC3FF"/>
<path d="M253.507 63.0582C252.982 61.5681 251.349 60.7856 249.859 61.3104C248.369 61.8352 247.586 63.4685 248.111 64.9585L249.203 68.058L254.598 66.1577L253.507 63.0582Z" fill="#7FC3FF"/>
<path d="M253.562 36.3916C253.958 35.7821 254.254 35.7693 254.422 35.8936C254.492 35.946 254.607 35.9567 254.633 35.8728C254.742 35.5254 254.21 35.2963 251.376 36.3916C248.209 37.6155 246.899 40.9878 246.603 42.6796C246.589 42.7615 246.663 42.8295 246.743 42.8066C248.345 42.347 249.94 40.5756 250.492 39.9062C250.562 39.8217 250.687 39.8655 250.665 39.9729C250.614 40.2262 250.498 40.5021 250.388 40.7191C250.338 40.8162 250.428 40.9264 250.527 40.8806C252.14 40.1309 252.945 37.3414 253.562 36.3916Z" fill="#514B46"/>
<path d="M255.982 34.8632C255.504 34.6135 255.312 35.1682 255.262 35.5687C255.254 35.6359 255.191 35.6841 255.125 35.6694C253.286 35.2609 251.399 34.4244 257.753 34.1362C264.132 33.847 267.699 39.6697 268.753 42.7808C268.78 42.86 268.71 42.9352 268.628 42.9181C265.735 42.3113 263.324 40.3968 262.146 39.1777C262.061 39.0891 261.898 39.1863 261.939 39.3024L262.106 39.7726C262.133 39.848 262.07 39.9256 261.99 39.9179C256.549 39.3935 256.64 35.2069 255.982 34.8632Z" fill="#514B46"/>
<ellipse cx="114.382" cy="27.2204" rx="13.486" ry="13.1298" fill="#514B46"/>
<path d="M108.054 13.6864C107.384 15.0246 105.923 16.744 105.275 17.4365L119.332 15.1163C114.098 12.3104 113.909 11.7708 113.477 12.3374C113.045 12.9039 112.883 13.3355 112.29 12.8499C111.696 12.3643 111.238 11.393 110.86 11.9326C110.482 12.4722 110.159 14.0101 109.592 13.0928C109.025 12.1755 108.89 12.0136 108.054 13.6864Z" fill="#514B46"/>
<circle cx="103.594" cy="28.6626" r="5.0947" fill="#FFE5CF"/>
<circle cx="126.369" cy="28.6626" r="5.0947" fill="#FFE5CF"/>
<path d="M107.748 41.8485H121.016C121.016 41.8485 123.538 51.5663 123.919 56.1611C124.167 59.1546 123.03 61.9105 122.208 63.4678C121.756 64.3238 120.844 64.7908 119.876 64.7908H108.889C107.921 64.7908 107.009 64.3238 106.557 63.4678C105.734 61.9105 104.598 59.1546 104.846 56.1611C105.227 51.5663 107.748 41.8485 107.748 41.8485Z" fill="#25DC96"/>
<rect x="111.522" y="35.4941" width="5.72071" height="9.08401" rx="2.86036" fill="#FFDDC0"/>
<circle cx="114.383" cy="28.3628" r="11.9875" fill="#FFE8D5"/>
<circle cx="121.459" cy="26.7661" r="2.49343" fill="#FFDED5"/>
<circle cx="107.584" cy="26.7661" r="2.49343" fill="#FFDED5"/>
<path d="M108.797 22.9465C108.797 22.9465 109.508 23.7031 110.696 23.5363C111.883 23.3695 112.358 22.446 112.358 22.446" stroke="#33353B" stroke-width="0.899066" stroke-linecap="round"/>
<path d="M116.406 22.4462C116.406 22.4462 116.882 23.3696 118.069 23.5364C119.256 23.7033 119.968 22.9467 119.968 22.9467" stroke="#33353B" stroke-width="0.899066" stroke-linecap="round"/>
<path d="M117.354 19.2964C117.479 19.2965 119.058 19.2964 119.358 19.2964" stroke="#514B46" stroke-width="0.899066" stroke-linecap="round"/>
<path d="M109.416 19.2964C109.542 19.2965 111.12 19.2964 111.421 19.2964" stroke="#514B46" stroke-width="0.899066" stroke-linecap="round"/>
<path d="M112.713 24.687L115.62 24.687" stroke="#FF5656" stroke-width="0.599377" stroke-linecap="round"/>
<path d="M115.659 23.8486C115.581 24.2403 115.568 25.1239 116.136 25.5253" stroke="#FF5656" stroke-width="0.599377" stroke-linecap="round"/>
<path d="M102.721 67.2891C99.8577 67.8034 97.2266 65.6029 97.2266 62.6941C97.2266 60.341 98.9779 58.3557 101.313 58.0621L111.827 56.7398C113.209 56.566 114.608 56.566 115.99 56.7398L126.505 58.0621C128.839 58.3557 130.591 60.341 130.591 62.6941C130.591 65.6029 127.96 67.8034 125.097 67.2891L116.088 65.6707C114.646 65.4118 113.171 65.4118 111.73 65.6707L102.721 67.2891Z" fill="#ADD9FF"/>
<rect x="90.1182" y="59.6917" width="9.70021" height="13.686" rx="4.85011" transform="rotate(-36.9762 90.1182 59.6917)" fill="#FFE8D5"/>
<rect width="9.70021" height="13.6964" rx="4.85011" transform="matrix(-0.798885 -0.601484 -0.601484 0.798885 137.643 59.6836)" fill="#FFE8D5"/>
<ellipse cx="114.381" cy="57.6595" rx="9.54373" ry="1.77645" fill="#25DC96"/>
<rect x="119.477" y="41.0778" width="5.72071" height="20.8663" rx="2.86036" transform="rotate(19.4017 119.477 41.0778)" fill="#FFE8D5"/>
<rect width="5.72071" height="21.0781" rx="2.86036" transform="matrix(-0.943213 0.33219 0.33219 0.943213 109.318 41.078)" fill="#FFE8D5"/>
<path d="M118.526 43.7757C119.051 42.2857 120.684 41.5032 122.174 42.0279C123.665 42.5527 124.447 44.186 123.922 45.676L122.831 48.7756L117.435 46.8752L118.526 43.7757Z" fill="#25DC96"/>
<path d="M110.269 43.7759C109.744 42.2859 108.11 41.5034 106.62 42.0282C105.13 42.553 104.348 44.1863 104.873 45.6763L105.964 48.7758L111.36 46.8754L110.269 43.7759Z" fill="#25DC96"/>
<ellipse cx="132.745" cy="157.044" rx="29.7643" ry="7.00337" fill="#F3F4F6"/>
<circle cx="1.98837" cy="1.98837" r="1.98837" transform="matrix(-1 0 0 1 129.274 118.198)" fill="#8F7560"/>
<circle cx="1.98837" cy="1.98837" r="1.98837" transform="matrix(-1 0 0 1 131.515 120.438)" fill="#8F7560"/>
<circle cx="1.98837" cy="1.98837" r="1.98837" transform="matrix(-1 0 0 1 134.35 121.919)" fill="#8F7560"/>
<circle cx="1.98837" cy="1.98837" r="1.98837" transform="matrix(-1 0 0 1 136.854 122.906)" fill="#8F7560"/>
<circle cx="149.211" cy="120.187" r="1.98837" fill="#8F7560"/>
<circle cx="146.971" cy="122.426" r="1.98837" fill="#8F7560"/>
<circle cx="144.136" cy="123.907" r="1.98837" fill="#8F7560"/>
<circle cx="141.632" cy="124.894" r="1.98837" fill="#8F7560"/>
<circle cx="3.33116" cy="3.33116" r="3.33116" transform="matrix(-1 0 0 1 154.59 105.807)" fill="#8F7560"/>
<circle cx="125.404" cy="109.032" r="3.8366" fill="#8F7560"/>
<circle cx="3.05756" cy="3.05756" r="3.05756" transform="matrix(-1 0 0 1 152.017 101.003)" fill="#8F7560"/>
<circle cx="131.009" cy="101.389" r="2.13332" fill="#8F7560"/>
<circle cx="2.13332" cy="2.13332" r="2.13332" transform="matrix(-1 0 0 1 147.692 99.2557)" fill="#8F7560"/>
<circle cx="3.22449" cy="3.22449" r="3.22449" transform="matrix(-1 0 0 1 144.422 96.7793)" fill="#8F7560"/>
<circle cx="3.21639" cy="3.21639" r="3.21639" transform="matrix(-1 0 0 1 138.61 96.7874)" fill="#8F7560"/>
<ellipse cx="138.61" cy="113.48" rx="13.486" ry="13.1298" fill="#8F7560"/>
<circle cx="127.821" cy="114.922" r="5.0947" fill="#FFE5CF"/>
<circle cx="150.599" cy="114.922" r="5.0947" fill="#FFE5CF"/>
<path d="M131.976 128.108H145.244C145.244 128.108 147.765 137.826 148.146 142.42C148.394 145.414 147.258 148.17 146.436 149.727C145.984 150.583 145.072 151.05 144.103 151.05H133.116C132.148 151.05 131.236 150.583 130.784 149.727C129.962 148.17 128.826 145.414 129.074 142.42C129.455 137.826 131.976 128.108 131.976 128.108Z" fill="#FF7F6B"/>
<rect x="135.75" y="121.754" width="5.72071" height="9.08401" rx="2.86036" fill="#FFDDC0"/>
<circle cx="138.611" cy="114.622" r="11.9875" fill="#FFE8D5"/>
<circle cx="145.688" cy="113.026" r="2.49343" fill="#FFDED5"/>
<circle cx="131.812" cy="113.026" r="2.49343" fill="#FFDED5"/>
<path d="M133.025 109.206C133.025 109.206 133.737 109.963 134.924 109.796C136.111 109.629 136.587 108.706 136.587 108.706" stroke="#33353B" stroke-width="0.899066" stroke-linecap="round"/>
<path d="M140.634 108.706C140.634 108.706 141.109 109.629 142.296 109.796C143.483 109.963 144.195 109.206 144.195 109.206" stroke="#33353B" stroke-width="0.899066" stroke-linecap="round"/>
<path d="M136.941 110.947L139.848 110.947" stroke="#FF5656" stroke-width="0.599377" stroke-linecap="round"/>
<path d="M139.887 110.108C139.81 110.5 139.797 111.383 140.365 111.785" stroke="#FF5656" stroke-width="0.599377" stroke-linecap="round"/>
<path d="M126.949 153.549C124.086 154.064 121.455 151.863 121.455 148.954C121.455 146.601 123.206 144.616 125.541 144.322L136.056 143C137.438 142.826 138.836 142.826 140.219 143L150.733 144.322C153.068 144.616 154.819 146.601 154.819 148.954C154.819 151.863 152.188 154.064 149.325 153.549L140.316 151.931C138.875 151.672 137.399 151.672 135.958 151.931L126.949 153.549Z" fill="#16B77B"/>
<rect x="114.347" y="145.951" width="9.70021" height="13.686" rx="4.85011" transform="rotate(-36.9762 114.347 145.951)" fill="#FFE8D5"/>
<rect width="9.70021" height="13.6964" rx="4.85011" transform="matrix(-0.798885 -0.601484 -0.601484 0.798885 161.87 145.943)" fill="#FFE8D5"/>
<ellipse cx="138.611" cy="143.919" rx="9.54373" ry="1.77645" fill="#FF7F6B"/>
<rect x="143.705" y="127.337" width="5.72071" height="20.8663" rx="2.86036" transform="rotate(19.4017 143.705 127.337)" fill="#FFE8D5"/>
<rect width="5.72071" height="21.0781" rx="2.86036" transform="matrix(-0.943213 0.33219 0.33219 0.943213 133.547 127.337)" fill="#FFE8D5"/>
<path d="M142.755 130.035C143.28 128.545 144.913 127.763 146.403 128.287C147.893 128.812 148.676 130.446 148.151 131.936L147.059 135.035L141.663 133.135L142.755 130.035Z" fill="#FF7F6B"/>
<path d="M134.497 130.035C133.972 128.545 132.339 127.763 130.849 128.287C129.359 128.812 128.576 130.446 129.101 131.936L130.193 135.035L135.589 133.135L134.497 130.035Z" fill="#FF7F6B"/>
<circle cx="3.18257" cy="3.18257" r="3.18257" transform="matrix(-1 0 0 1 145.382 99.4519)" fill="#8F7560"/>
<circle cx="3.18257" cy="3.18257" r="3.18257" transform="matrix(-1 0 0 1 140.105 98.8937)" fill="#8F7560"/>
<circle cx="2.66743" cy="2.66743" r="2.66743" transform="matrix(-1 0 0 1 134.35 101.629)" fill="#8F7560"/>
<circle cx="2.66743" cy="2.66743" r="2.66743" transform="matrix(-1 0 0 1 149.031 102.137)" fill="#8F7560"/>
<circle cx="2.06608" cy="2.06608" r="2.06608" transform="matrix(-1 0 0 1 150.768 106.299)" fill="#8F7560"/>
<circle cx="2.66743" cy="2.66743" r="2.66743" transform="matrix(-1 0 0 1 131.136 105.259)" fill="#8F7560"/>
<circle cx="3.41091" cy="3.41091" r="3.41091" transform="matrix(-1 0 0 1 131.232 100.65)" fill="#8F7560"/>
<ellipse cx="234.416" cy="152.066" rx="26.8463" ry="4.66891" fill="#F3F4F6"/>
<circle cx="232.31" cy="112.451" r="13.486" fill="#514B46"/>
<rect x="219.425" y="111.552" width="12.8866" height="19.0268" rx="6.4433" fill="#514B46"/>
<rect x="232.311" y="111.552" width="12.8866" height="19.0268" rx="6.4433" fill="#514B46"/>
<circle cx="221.52" cy="112.751" r="5.0947" fill="#FFE5CF"/>
<circle cx="244.298" cy="112.751" r="5.0947" fill="#FFE5CF"/>
<path d="M225.675 125.936H238.943C238.943 125.936 241.464 135.654 241.845 140.249C242.093 143.242 240.957 145.998 240.135 147.556C239.683 148.412 238.771 148.879 237.803 148.879H226.816C225.848 148.879 224.935 148.412 224.483 147.556C223.661 145.998 222.525 143.242 222.773 140.249C223.154 135.654 225.675 125.936 225.675 125.936Z" fill="#FFBB00"/>
<rect x="229.45" y="119.583" width="5.72071" height="9.08401" rx="2.86036" fill="#FFDDC0"/>
<circle cx="232.31" cy="112.451" r="11.9875" fill="#FFE8D5"/>
<circle cx="239.387" cy="110.558" r="2.49343" fill="#FFDED5"/>
<circle cx="225.511" cy="110.558" r="2.49343" fill="#FFDED5"/>
<path d="M226.724 106.738C226.724 106.738 227.435 107.495 228.622 107.328C229.809 107.161 230.285 106.238 230.285 106.238" stroke="#33353B" stroke-width="0.899066" stroke-linecap="round"/>
<path d="M234.334 106.238C234.334 106.238 234.809 107.161 235.997 107.328C237.184 107.495 237.895 106.738 237.895 106.738" stroke="#33353B" stroke-width="0.899066" stroke-linecap="round"/>
<path d="M230.28 100.533C233.404 99.7223 240.433 100.623 243.336 107.747C240.59 106.942 234.358 104.569 230.929 101.289C230.647 101.019 230.184 101.058 229.948 101.368C227.5 104.597 223.26 106.861 221.304 107.659C223.407 101.651 228.011 100.432 230.28 100.533Z" fill="#514B46"/>
<path d="M220.648 151.377C217.785 151.891 215.154 149.691 215.154 146.782C215.154 144.429 216.906 142.444 219.24 142.15L229.755 140.828C231.137 140.654 232.536 140.654 233.918 140.828L244.432 142.15C246.767 142.444 248.518 144.429 248.518 146.782C248.518 149.691 245.887 151.891 243.024 151.377L234.015 149.759C232.574 149.5 231.098 149.5 229.657 149.759L220.648 151.377Z" fill="#ADD9FF"/>
<rect x="208.046" y="143.78" width="9.70021" height="13.686" rx="4.85011" transform="rotate(-36.9762 208.046 143.78)" fill="#FFE8D5"/>
<rect width="9.70021" height="13.6964" rx="4.85011" transform="matrix(-0.798885 -0.601484 -0.601484 0.798885 255.569 143.772)" fill="#FFE8D5"/>
<ellipse cx="232.31" cy="141.748" rx="9.54373" ry="1.77645" fill="#FFBB00"/>
<rect x="237.405" y="125.166" width="5.72071" height="20.8663" rx="2.86036" transform="rotate(19.4017 237.405 125.166)" fill="#FFE8D5"/>
<rect width="5.72071" height="21.0781" rx="2.86036" transform="matrix(-0.943213 0.33219 0.33219 0.943213 227.245 125.166)" fill="#FFE8D5"/>
<path d="M236.455 127.864C236.98 126.374 238.613 125.591 240.103 126.116C241.593 126.641 242.376 128.274 241.851 129.764L240.759 132.864L235.363 130.963L236.455 127.864Z" fill="#FFBB00"/>
<path d="M228.195 127.864C227.671 126.374 226.037 125.591 224.547 126.116C223.057 126.641 222.275 128.274 222.799 129.764L223.891 132.864L229.287 130.963L228.195 127.864Z" fill="#FFBB00"/>
<path d="M230.648 108.907C231.077 108.937 231.99 108.791 232.21 107.97C232.286 108.282 232.66 108.907 233.541 108.907" stroke="#FF5656" stroke-width="0.599377" stroke-linecap="round" stroke-linejoin="round"/>
<ellipse cx="199.01" cy="163.557" rx="26.8463" ry="4.66891" fill="#F3F4F6"/>
<path d="M203.662 123.313C203.662 130.761 197.625 134.969 190.176 134.969C182.728 134.969 176.69 130.761 176.69 123.313C176.69 115.865 182.728 109.827 190.176 109.827C197.625 109.827 203.662 115.865 203.662 123.313Z" fill="#514B46"/>
<path d="M177.413 140.877C175.074 136.37 178.924 133.012 181.141 131.896C182.27 130.54 184.132 128.888 182.539 133.124C180.946 137.361 182.017 140.058 182.751 140.877H179.701L179.108 139.521V140.877H177.413Z" fill="#514B46"/>
<circle cx="179.388" cy="123.613" r="5.0947" fill="#FFE5CF"/>
<circle cx="202.164" cy="123.613" r="5.0947" fill="#FFE5CF"/>
<path d="M183.542 136.799H196.81C196.81 136.799 199.332 146.517 199.713 151.112C199.961 154.105 198.824 156.861 198.002 158.418C197.55 159.274 196.638 159.741 195.67 159.741H184.683C183.715 159.741 182.802 159.274 182.351 158.418C181.528 156.861 180.392 154.105 180.64 151.112C181.021 146.517 183.542 136.799 183.542 136.799Z" fill="#1F94F2"/>
<rect x="187.316" y="130.444" width="5.72071" height="9.08401" rx="2.86036" fill="#FFDDC0"/>
<circle cx="190.177" cy="123.313" r="11.9875" fill="#FFE8D5"/>
<rect x="187.629" y="119.006" width="5.03398" height="5.92233" rx="2.51699" fill="#FF8D87"/>
<circle cx="197.253" cy="121.42" r="2.49343" fill="#FFDED5"/>
<circle cx="183.378" cy="121.42" r="2.49343" fill="#FFDED5"/>
<path d="M184.591 117.601C184.591 117.601 185.302 118.357 186.49 118.19C187.677 118.024 188.152 117.1 188.152 117.1" stroke="#33353B" stroke-width="0.899066" stroke-linecap="round"/>
<path d="M192.202 117.1C192.202 117.1 192.678 118.023 193.865 118.19C195.052 118.357 195.763 117.6 195.763 117.6" stroke="#33353B" stroke-width="0.899066" stroke-linecap="round"/>
<path d="M178.516 162.24C175.653 162.754 173.021 160.553 173.021 157.645C173.021 155.291 174.773 153.306 177.108 153.013L187.622 151.69C189.004 151.516 190.403 151.516 191.785 151.69L202.3 153.013C204.634 153.306 206.386 155.291 206.386 157.645C206.386 160.553 203.754 162.754 200.892 162.24L191.883 160.621C190.441 160.362 188.966 160.362 187.524 160.621L178.516 162.24Z" fill="#7EECC4"/>
<rect x="165.911" y="154.642" width="9.70021" height="13.686" rx="4.85011" transform="rotate(-36.9762 165.911 154.642)" fill="#FFE8D5"/>
<rect width="9.70021" height="13.6964" rx="4.85011" transform="matrix(-0.798885 -0.601484 -0.601484 0.798885 213.437 154.634)" fill="#FFE8D5"/>
<ellipse cx="190.177" cy="152.61" rx="9.54373" ry="1.77645" fill="#1F94F2"/>
<rect x="195.272" y="136.028" width="5.72071" height="20.8663" rx="2.86036" transform="rotate(19.4017 195.272 136.028)" fill="#FFE8D5"/>
<rect width="5.72071" height="21.0781" rx="2.86036" transform="matrix(-0.943213 0.33219 0.33219 0.943213 185.112 136.028)" fill="#FFE8D5"/>
<path d="M194.322 138.726C194.847 137.236 196.48 136.454 197.97 136.979C199.46 137.503 200.243 139.137 199.718 140.627L198.627 143.726L193.231 141.826L194.322 138.726Z" fill="#1F94F2"/>
<path d="M186.062 138.726C185.538 137.236 183.904 136.454 182.414 136.979C180.924 137.503 180.142 139.137 180.667 140.627L181.758 143.726L187.154 141.826L186.062 138.726Z" fill="#1F94F2"/>
<path d="M187.094 110.879C187.286 110.879 187.444 111.003 187.501 111.17C187.56 111.001 187.72 110.879 187.909 110.879H192.443C192.626 110.879 192.782 110.994 192.844 111.155C192.906 110.996 193.061 110.879 193.247 110.879H194.917C195.039 110.879 195.154 110.93 195.236 111.02L200.281 116.468L193.952 115.605C193.743 115.605 193.565 115.456 193.528 115.251L192.874 112.96V115.174C192.874 115.412 192.681 115.605 192.443 115.605H187.909C187.671 115.605 187.478 115.412 187.478 115.174V112.903L186.813 115.251C186.776 115.456 186.597 115.605 186.389 115.605L180.06 116.468L185.105 111.02C185.187 110.93 185.302 110.879 185.424 110.879H187.094Z" fill="#514B46"/>
</svg>
