<svg width="53" height="54" viewBox="0 0 53 54" fill="none" xmlns="http://www.w3.org/2000/svg">
<ellipse cx="24.3269" cy="48.8597" rx="24.3269" ry="4.23077" fill="#F3F4F6"/>
<path d="M18.2186 7.20272C19.369 4.16588 22.278 2.15723 25.5254 2.15723H30.3255C33.573 2.15723 36.4819 4.16589 37.6324 7.20272L41.5302 17.4916C42.4985 20.0477 40.6101 22.7824 37.8768 22.7824H17.9742C15.2409 22.7824 13.3524 20.0476 14.3208 17.4916L18.2186 7.20272Z" fill="#764747"/>
<path d="M40.1449 12.2204C40.1449 18.9696 34.6737 22.7824 27.9245 22.7824C21.1754 22.7824 15.7041 18.9696 15.7041 12.2204C15.7041 5.47127 21.1754 0 27.9245 0C34.6737 0 40.1449 5.47127 40.1449 12.2204Z" fill="#764747"/>
<circle cx="18.1488" cy="12.4923" r="4.6166" fill="#FFE5CF"/>
<circle cx="38.7875" cy="12.4926" r="4.6166" fill="#FFE5CF"/>
<path d="M21.9132 24.4409H33.9361C33.9361 24.4409 36.2208 33.2467 36.5659 37.4104C36.7908 40.123 35.7611 42.6202 35.0161 44.0314C34.6065 44.8071 33.7799 45.2302 32.9027 45.2302H22.9466C22.0694 45.2302 21.2428 44.8071 20.8332 44.0314C20.0882 42.6202 19.0586 40.123 19.2834 37.4104C19.6285 33.2467 21.9132 24.4409 21.9132 24.4409Z" fill="#FF5A3C"/>
<rect x="25.333" y="18.6826" width="5.18387" height="8.23155" rx="2.59193" fill="#FFDDC0"/>
<circle cx="27.9251" cy="12.2205" r="10.8626" fill="#FFE8D5"/>
<rect x="25.6162" y="8.31836" width="4.56157" height="5.36656" rx="2.28079" fill="#FF8D87"/>
<circle cx="34.3376" cy="10.5055" r="2.25944" fill="#FFDED5"/>
<circle cx="21.7653" cy="10.5055" r="2.25944" fill="#FFDED5"/>
<path d="M22.8633 7.04443C22.8633 7.04443 23.5081 7.73003 24.5838 7.57885C25.6595 7.42767 26.0903 6.5909 26.0903 6.5909" stroke="#33353B" stroke-width="0.814695" stroke-linecap="round"/>
<path d="M29.7598 6.59106C29.7598 6.59106 30.1906 7.42784 31.2663 7.57902C32.342 7.7302 32.9868 7.0446 32.9868 7.0446" stroke="#33353B" stroke-width="0.814695" stroke-linecap="round"/>
<path d="M17.3593 47.4943C14.7651 47.9604 12.3809 45.9663 12.3809 43.3305C12.3809 41.1982 13.9678 39.3992 16.0835 39.1331L25.6113 37.935C26.8638 37.7775 28.131 37.7775 29.3835 37.935L38.9113 39.1331C41.027 39.3992 42.614 41.1982 42.614 43.3305C42.614 45.9663 40.2298 47.9604 37.6355 47.4943L29.472 46.0278C28.1661 45.7931 26.8288 45.7931 25.5228 46.0278L17.3593 47.4943Z" fill="#1F94F2"/>
<rect x="5.9375" y="40.6096" width="8.78992" height="12.4017" rx="4.39496" transform="rotate(-36.9762 5.9375 40.6096)" fill="#FFE8D5"/>
<rect width="8.78992" height="12.4111" rx="4.39496" transform="matrix(-0.798885 -0.601484 -0.601484 0.798885 49.002 40.6023)" fill="#FFE8D5"/>
<ellipse cx="27.9255" cy="38.7684" rx="8.64812" ry="1.60974" fill="#FF5A3C"/>
<rect x="32.542" y="23.7427" width="5.18387" height="18.9082" rx="2.59193" transform="rotate(19.4017 32.542 23.7427)" fill="#FFE8D5"/>
<rect width="5.18387" height="19.1" rx="2.59193" transform="matrix(-0.943213 0.33219 0.33219 0.943213 23.3369 23.7427)" fill="#FFE8D5"/>
<path d="M31.681 26.1874C32.1565 24.8372 33.6365 24.1282 34.9867 24.6037C36.3369 25.0792 37.046 26.5593 36.5705 27.9094L35.5813 30.7181L30.6918 28.9961L31.681 26.1874Z" fill="#FF5A3C"/>
<path d="M24.1979 26.1874C23.7224 24.8372 22.2424 24.1282 20.8922 24.6037C19.542 25.0792 18.8329 26.5593 19.3084 27.9094L20.2976 30.7181L25.1871 28.9961L24.1979 26.1874Z" fill="#FF5A3C"/>
<path d="M25.1323 0.953857C25.306 0.953937 25.449 1.06622 25.5012 1.21749C25.554 1.0641 25.6993 0.953857 25.8705 0.953857H29.9788C30.145 0.953917 30.2863 1.05785 30.3428 1.20414C30.3986 1.05953 30.5388 0.953857 30.7075 0.953857H32.2214C32.3312 0.953863 32.4358 1.00016 32.5098 1.08129L37.082 6.01781L31.3462 5.23646C31.1575 5.2364 30.9958 5.10121 30.962 4.91559L30.3695 2.83973V4.84578C30.3694 5.06143 30.1944 5.23638 29.9788 5.23646H25.8705C25.6548 5.23646 25.4799 5.06148 25.4799 4.84578V2.78746L24.8778 4.91559C24.844 5.10125 24.682 5.23646 24.4932 5.23646L18.7578 6.01781L23.3296 1.08129C23.4036 1.00014 23.5086 0.953857 23.6184 0.953857H25.1323Z" fill="#764747"/>
</svg>
