<svg width="80" height="80" viewBox="0 0 80 80" fill="none" xmlns="http://www.w3.org/2000/svg">
<path d="M17.5733 23.5921L37.8133 12.8934C39.2773 12.1195 41.0295 12.1207 42.4924 12.8964L62.6595 23.5907C64.2946 24.4578 65.317 26.1573 65.317 28.0081V51.516C65.317 53.314 64.3517 54.9735 62.7888 55.8624L42.6215 67.3313C41.091 68.2017 39.2156 68.2029 37.684 67.3347L17.4442 55.8612C15.8779 54.9733 14.9099 53.3119 14.9099 51.5114V28.0126C14.9099 26.1594 15.9349 24.4582 17.5733 23.5921Z" fill="#E5E7EB"/>
<path d="M65.2246 27.0645C65.2838 27.3722 65.3174 27.6875 65.3174 28.0078V51.5156C65.3174 53.3135 64.3518 54.9734 62.7891 55.8623L42.6211 67.3311C41.844 67.773 40.9781 67.9897 40.1133 67.9834V39.7959L65.2246 27.0645Z" fill="#9CA3AF"/>
<path d="M15.0027 27.0625C14.9435 27.3702 14.9099 27.6855 14.9099 28.0059V51.5137C14.9099 53.3115 15.8755 54.9715 17.4382 55.8604L37.6062 67.3291C38.3833 67.771 39.2492 67.9877 40.114 67.9814V39.7939L15.0027 27.0625Z" fill="#D1D5DB"/>
<path opacity="0.9" d="M18.5156 23.0928C18.1967 23.8184 17.9766 24.5456 17.9766 25.1807C17.9767 27.5497 29.9714 36.3164 40.0762 36.3838C50.1809 36.4508 63.4789 26.0594 63.1533 24.7852C63.0571 24.4086 62.9053 24.0121 62.7432 23.6387C64.3287 24.5189 65.3173 26.1893 65.3174 28.0078V28.7275C65.1734 28.6291 65.0224 28.5554 64.8623 28.5254C63.8305 28.3319 43.2337 37.478 41.7783 39.835C40.3337 42.1753 40.0796 45.0296 40.0762 45.0693C40.0707 45.0369 39.6133 42.3337 37.5742 39.835C35.5226 37.321 17.4483 28.4675 15.8047 29.0645C15.4604 29.1895 15.164 29.3305 14.9102 29.4746V28.0127C14.9102 26.1595 15.9349 24.4578 17.5732 23.5918L18.5156 23.0928Z" fill="#F3F4F6"/>
<ellipse cx="40.114" cy="24.2578" rx="3.51797" ry="2.04688" fill="#FF5A3C"/>
<ellipse cx="27.4983" cy="47.0935" rx="3.51797" ry="2.04688" transform="rotate(60 27.4983 47.0935)" fill="#4B5563"/>
<ellipse cx="3.51797" cy="2.04688" rx="3.51797" ry="2.04688" transform="matrix(-0.5 0.866025 0.866025 0.5 53.2959 43.4531)" fill="#374151"/>
<ellipse cx="3.51797" cy="2.04688" rx="3.51797" ry="2.04688" transform="matrix(-0.5 0.866025 0.866025 0.5 60.0685 32.582)" fill="#374151"/>
<ellipse cx="3.51797" cy="2.04688" rx="3.51797" ry="2.04688" transform="matrix(-0.5 0.866025 0.866025 0.5 46.933 54.2812)" fill="#374151"/>
</svg>
