<svg width="80" height="80" viewBox="0 0 80 80" fill="none" xmlns="http://www.w3.org/2000/svg">
<path d="M69.9518 29.1456C69.767 32.6781 67.9354 35.9497 64.9389 38.7121C59.5325 43.6963 50.2881 46.9932 39.7463 46.9932C29.2045 46.9932 19.9601 43.6963 14.5537 38.7121C11.5593 35.9497 9.72564 32.6781 9.54088 29.1456C9.51075 29.0636 9.49268 29.0131 9.49268 29.0131V37.1721C9.49268 54.7524 23.0369 69.0065 39.7463 69.0065C56.4557 69.0065 70 54.7546 70 37.1721V29.0131C70 29.0131 69.9819 29.0657 69.9518 29.1456Z" fill="#ADD9FF"/>
<path d="M39.7466 13.0638C47.8804 13.0639 55.1711 15.0096 60.3774 18.0775C65.6179 21.1656 68.4993 25.2156 68.4995 29.391C68.4995 33.5666 65.6181 37.6173 60.3774 40.7054C55.1711 43.7733 47.8803 45.7191 39.7466 45.7191C31.613 45.7191 24.3221 43.7733 19.1157 40.7054C13.8751 37.6173 10.9927 33.5666 10.9927 29.391C10.9929 25.2156 13.8752 21.1656 19.1157 18.0775C24.3221 15.0097 31.6129 13.0638 39.7466 13.0638Z" fill="#7FC3FF" stroke="#7FC3FF" stroke-width="3" stroke-linecap="round"/>
<ellipse cx="39.7463" cy="33.9086" rx="25.5589" ry="13.3104" fill="#D3E6CD"/>
<g opacity="0.9">
<path d="M21.8565 35.3333C18.6688 35.1571 13.1561 33.7867 16.6072 29.7154C20.0582 25.6442 29.4793 26.5456 33.7584 27.5052" stroke="#F9FAFB" stroke-width="1.6" stroke-linecap="round"/>
<path d="M22.4802 32.3854C27.6429 27.2716 40.567 18.5042 50.9617 24.3457C61.3564 30.1872 47.0463 33.8238 38.592 34.9119" stroke="#F9FAFB" stroke-width="1.6" stroke-linecap="round"/>
<path d="M20.6091 31.6095C19.3791 28.251 20.7754 22.2222 36.2011 24.975C51.6269 27.7278 37.0154 31.8105 27.7814 33.5078" stroke="#F9FAFB" stroke-width="1.6" stroke-linecap="round"/>
<path d="M54.4958 34.7703C58.4978 32.7101 64.5371 27.9158 56.6787 25.2202C46.8557 21.8507 37.9163 26.0987 38.1242 29.8552C38.3321 33.6118 44.361 39.5808 49.7142 37.6498C55.0675 35.7189 58.6537 34.139 54.4958 30.7687C50.3379 27.3983 39.2156 25.0461 36.0452 28.4165C32.8748 31.7868 29.0288 31.9272 30.0683 35.2625C31.1078 38.5977 36.7209 43.5128 46.0241 41.8277C55.3274 40.1425 66.5537 34.9816 58.134 30.7687" stroke="#F9FAFB" stroke-width="1.6" stroke-linecap="round"/>
<path d="M44.309 29.8569C45.7123 27.9731 46.6478 24.1561 39.1636 23.9585C29.8084 23.7116 21.5446 29.0831 21.4926 32.1726C21.4407 35.2621 17.3867 42.3201 30.3281 41.5477C40.6812 40.9298 49.2638 35.1581 52.2609 32.3495" stroke="#F9FAFB" stroke-width="1.6" stroke-linecap="round"/>
<path d="M27.6256 35.0507C28.3879 38.5261 32.3552 44.6343 42.1262 41.2645C51.8972 37.8948 52.7115 35.2033 51.8972 34.2788" stroke="#F9FAFB" stroke-width="1.6" stroke-linecap="round"/>
</g>
<path d="M41.4092 33.9392L54.1951 22.0762C56.0358 23.4281 59.0444 30.5718 53.2107 34.8646C48.3721 38.4251 43.4324 36.095 41.4092 33.9392Z" fill="#16B77B"/>
<path d="M42.2333 33.1294L53.0953 23.092C54.7346 24.2586 57.6159 29.1733 52.6446 33.4818C48.6573 36.9375 44.035 34.9895 42.2333 33.1294Z" fill="#7EECC4"/>
<path d="M53.0952 23.092C54.7345 24.2586 57.6153 29.1733 52.644 33.4817C48.6568 36.9371 44.0346 34.9892 42.2329 33.1292L43.0103 32.4094C43.0229 32.4433 43.0408 32.4764 43.0669 32.5061C43.3016 32.7728 43.7817 33.2077 44.6528 33.594C45.5452 33.9896 46.1173 34.0143 46.4087 33.9827C46.5551 33.9665 46.6479 33.8396 46.6587 33.6926L46.9634 29.511C46.9804 29.2771 46.8065 29.1078 46.6089 29.0842L49.0728 26.8079C49.0284 27.0515 49.2247 27.3061 49.5073 27.2776L53.7642 26.843C53.9488 26.8241 54.0918 26.6792 54.0747 26.4944C54.042 26.1405 53.9098 25.507 53.4331 24.6819C53.1147 24.1306 52.8132 23.788 52.5718 23.5754L53.0952 23.092ZM48.3208 29.1321C48.0663 28.8782 47.6318 29.0627 47.6382 29.4221L47.7329 34.4358C47.7365 34.6212 47.8698 34.7754 48.0552 34.7766C48.4476 34.7785 49.1915 34.6992 50.2007 34.2229C51.2324 33.7358 51.6715 33.2489 51.8491 32.9807C51.9305 32.8578 51.8956 32.7051 51.7915 32.6008L48.3208 29.1321ZM48.9907 27.803C48.6313 27.8138 48.467 28.2572 48.7329 28.4993L52.4438 31.8704C52.5812 31.9952 52.7854 32.0055 52.9136 31.8713C53.1843 31.5873 53.6366 30.992 53.9829 29.9309C54.337 28.8457 54.2846 28.1913 54.2114 27.8782C54.1777 27.7349 54.0422 27.6553 53.895 27.6594L48.9907 27.803Z" fill="#DDF9EF"/>
<path d="M25.9861 28.5638C29.508 25.6087 33.4891 25.7002 35.0394 26.1153C35.6008 26.2262 37.1081 26.5716 37.8611 27.9444C38.0077 28.2117 37.8611 28.7636 37.8611 29.196C37.8611 31.4864 35.0394 32.4368 31.8796 34.496C28.7198 36.5552 27.4062 36.9102 25.276 36.9812C23.1458 37.0522 21.5127 35.9161 21.1577 33.8214C21.0527 33.2024 20.9463 31.8844 21.1039 31.5472C21.4797 30.7433 22.8847 31.1661 25.9861 28.5638Z" fill="#FF654E"/>
<path d="M25.9862 27.2839C29.5081 24.3288 33.4892 24.4203 35.0395 24.8354C35.7101 24.9679 37.0277 25.4053 37.7732 27.571C38.5188 29.7367 35.0395 31.1569 31.8797 33.2161C28.7199 35.2752 27.4063 35.6303 25.2761 35.7013C23.1459 35.7723 21.5127 34.6362 21.1577 32.5415C20.8027 30.4468 21.5838 30.9777 25.9862 27.2839Z" fill="#FF7F6B"/>
<path d="M26.4218 27.3754C30.0776 24.8091 33.1505 24.7812 34.5419 25.1537L34.5585 25.1586L34.5741 25.1615C35.2054 25.2862 36.7203 25.6276 37.3739 27.5258C37.5062 27.9102 37.4571 28.2697 37.2382 28.6556C37.008 29.0613 36.5946 29.4849 36.0184 29.9379C34.849 30.8571 33.2373 31.7363 31.6063 32.7992C30.0378 33.8214 28.9581 34.4003 28.0233 34.7357C27.1001 35.0669 26.2952 35.169 25.2596 35.2035C24.2866 35.2359 23.4626 34.9918 22.8505 34.5345C22.243 34.0808 21.8082 33.3916 21.6503 32.4603C21.5747 32.0146 21.6137 31.6559 21.744 31.3285C21.8775 30.9933 22.1214 30.6557 22.5116 30.2758C23.3122 29.4962 24.5905 28.6609 26.4218 27.3754Z" stroke="#FFAB9E"/>
<path d="M28.4355 28.1733C28.2054 27.9009 28.235 26.8238 28.2786 26.3193L25.8995 27.651C26.5357 27.5115 27.8028 27.4836 27.7819 28.4876C27.7557 29.7425 27.9649 29.9777 28.4355 30.1346C28.9061 30.2915 30.1087 30.4745 31.2851 31.1804C32.2263 31.7451 31.869 32.3743 31.5727 32.6183L34.5008 30.9189C34.5531 30.7795 34.2707 30.4274 32.723 30.1346C30.7884 29.7686 29.3244 29.4287 28.8799 29.3242C28.4355 29.2196 28.7231 28.5137 28.4355 28.1733Z" fill="#FFAB9E"/>
<path d="M31.5519 32.9777C35.0738 30.0227 39.0549 30.1141 40.6052 30.5292C41.1666 30.6402 42.6738 30.9855 43.4269 32.3584C43.5735 32.6257 43.4269 33.1776 43.4269 33.6099C43.4269 35.9004 40.6052 36.8507 37.4454 38.9099C34.2856 40.9691 32.972 41.3241 30.8418 41.3951C28.7116 41.4661 27.0785 40.33 26.7235 38.2353C26.6185 37.6163 26.5121 36.2983 26.6697 35.9611C27.0455 35.1572 28.4505 35.58 31.5519 32.9777Z" fill="#FF654E"/>
<path d="M31.5518 31.6977C35.0737 28.7426 39.0548 28.8341 40.6052 29.2492C41.2758 29.3817 42.5933 29.8192 43.3389 31.9849C44.0845 34.1506 40.6052 35.5707 37.4454 37.6299C34.2856 39.6891 32.972 40.0441 30.8418 40.1151C28.7116 40.1861 27.0784 39.05 26.7234 36.9553C26.3684 34.8606 27.1494 35.3916 31.5518 31.6977Z" fill="#FF7F6B"/>
<path d="M31.9875 31.7893C35.6434 29.223 38.7163 29.1951 40.1077 29.5676L40.1243 29.5725L40.1399 29.5754C40.7712 29.7002 42.2861 30.0416 42.9397 31.9397C43.072 32.3241 43.0229 32.6836 42.804 33.0696C42.5738 33.4752 42.1604 33.8988 41.5842 34.3518C40.4148 35.2711 38.8031 36.1502 37.1721 37.2131C35.6036 38.2353 34.5239 38.8143 33.5891 39.1497C32.6659 39.4809 31.861 39.5829 30.8254 39.6174C29.8524 39.6499 29.0284 39.4057 28.4163 38.9485C27.8088 38.4947 27.374 37.8055 27.2161 36.8743C27.1405 36.4286 27.1795 36.0698 27.3098 35.7424C27.4433 35.4072 27.6872 35.0696 28.0774 34.6897C28.878 33.9101 30.1563 33.0748 31.9875 31.7893Z" stroke="#FFAB9E"/>
<path d="M34.001 32.5869C33.771 32.3146 33.8006 31.2375 33.8442 30.733L31.4651 32.0647C32.1013 31.9252 33.3684 31.8973 33.3474 32.9013C33.3213 34.1562 33.5304 34.3914 34.001 34.5483C34.4716 34.7052 35.6742 34.8882 36.8507 35.5941C37.7919 36.1588 37.4346 36.7879 37.1383 37.032L40.0664 35.3326C40.1186 35.1932 39.8363 34.8411 38.2886 34.5483C36.354 34.1823 34.8899 33.8424 34.4455 33.7379C34.001 33.6333 34.2886 32.9274 34.001 32.5869Z" fill="#FFAB9E"/>
<path d="M48.3083 37.8566C48.3651 37.15 47.5082 36.3677 46.3004 36.0597C45.0923 35.7517 43.9647 36.0279 43.6762 36.6756L43.6658 36.6729L43.9939 35.386L44.0015 35.3879C44.2583 34.7096 45.4065 34.414 46.6408 34.7285C47.875 35.0433 48.7424 35.8529 48.6431 36.5713L48.6506 36.5733L48.3225 37.8602L48.3083 37.8566Z" fill="#D93A20"/>
<path d="M46.6068 34.8661C45.9925 34.7095 45.4089 34.7134 44.9665 34.8369C44.5181 34.9622 44.2565 35.1946 44.1884 35.4619C44.1203 35.7292 44.2386 36.0585 44.5723 36.3832C44.9015 36.7034 45.412 36.9863 46.0263 37.1429C46.6405 37.2994 47.2234 37.2953 47.6657 37.1719C48.1142 37.0466 48.3756 36.8142 48.4438 36.5469C48.512 36.2795 48.3937 35.9503 48.0599 35.6256C47.7308 35.3055 47.221 35.0228 46.6068 34.8661Z" stroke="#FF5A3C" stroke-width="0.413662"/>
<path d="M48.5977 36.7257C48.3057 37.3698 47.1807 37.6432 45.9759 37.3362C44.771 37.029 43.9135 36.25 43.9656 35.5447L43.9533 35.5416L43.6502 36.7301C43.6492 36.7338 43.6473 36.7376 43.6464 36.7413C43.6455 36.7447 43.6455 36.7485 43.6447 36.7519L43.6251 36.8286L43.6318 36.8302C43.5321 37.5488 44.3994 38.3591 45.6338 38.674C46.8683 38.9887 48.0166 38.6921 48.2733 38.0137L48.2809 38.0156L48.609 36.7286L48.5977 36.7257Z" fill="#B82F1A"/>
<path d="M46.148 35.7255C46.2581 35.5672 46.2335 35.1366 46.2074 34.941C46.4434 34.941 46.9877 35.202 47.2304 35.3324C47.1518 35.4635 46.9393 35.7886 46.719 36.0407C46.4986 36.2927 46.378 36.8932 46.3452 37.162L45.1451 36.8177C45.4335 36.5197 46.0378 35.8839 46.148 35.7255Z" fill="#FF5A3C"/>
<path d="M46.5442 35.2813C46.5832 35.1926 46.6867 35.1524 46.7755 35.1914C46.8643 35.2305 46.9045 35.3339 46.8654 35.4227L46.7604 35.6616C46.7213 35.7504 46.6179 35.7906 46.5291 35.7515C46.4402 35.7124 46.4001 35.609 46.4391 35.5202L46.5442 35.2813Z" fill="#FFEE7D"/>
<path d="M52.1383 34.0264C51.9812 33.335 50.9286 32.8451 49.6837 32.9127C48.439 32.9805 47.4464 33.5814 47.3651 34.2856L47.3534 34.2863L47.2814 32.9601L47.2892 32.9597C47.3312 32.2357 48.3384 31.61 49.6102 31.5407C50.8822 31.4716 51.9519 31.9846 52.0721 32.6999L52.0799 32.6995L52.152 34.0256L52.1383 34.0264Z" fill="#D93A20"/>
<path d="M49.6199 31.682C48.9869 31.7164 48.4311 31.8948 48.046 32.145C47.6557 32.3987 47.4756 32.6987 47.4905 32.9742C47.5055 33.2496 47.717 33.5284 48.1325 33.7383C48.5425 33.9454 49.1143 34.0625 49.7473 34.0281C50.3802 33.9937 50.9351 33.8154 51.3202 33.5652C51.7107 33.3115 51.8906 33.0115 51.8757 32.736C51.8607 32.4605 51.6493 32.1818 51.2337 31.9718C50.8238 31.7649 50.2527 31.6477 49.6199 31.682Z" stroke="#FF5A3C" stroke-width="0.413662"/>
<path d="M52.0759 32.8607C51.99 33.5626 50.9985 34.1602 49.757 34.2277C48.5154 34.2951 47.4641 33.8085 47.3027 33.1199L47.29 33.1206L47.3621 34.4468L47.3699 34.4464C47.49 35.1617 48.5598 35.6756 49.8319 35.6065C51.1038 35.5373 52.1109 34.9106 52.1529 34.1866L52.1607 34.1862L52.0886 32.86L52.0759 32.8607Z" fill="#B82F1A"/>
<path d="M49.4393 32.6394C49.497 32.4553 49.3446 32.0518 49.2612 31.8731C49.4864 31.8024 50.0839 31.8885 50.3546 31.9404C50.3187 32.0889 50.2132 32.4627 50.0784 32.7692C49.9436 33.0756 50.0082 33.6847 50.0573 33.951L48.8093 33.9816C48.9952 33.6109 49.3816 32.8235 49.4393 32.6394Z" fill="#FF5A3C"/>
<path d="M49.6844 32.0968C49.6951 32.0004 49.7818 31.9312 49.8782 31.9418C49.9747 31.9526 50.044 32.0392 50.0332 32.1356L50.0045 32.395C49.9938 32.4914 49.9072 32.5607 49.8107 32.55C49.7143 32.5393 49.645 32.4526 49.6557 32.3562L49.6844 32.0968Z" fill="#FFEE7D"/>
<path d="M49.0047 24.7646C48.8685 24.4103 48.1525 24.2244 47.3336 24.3455C46.5145 24.4667 45.8823 24.852 45.8545 25.2307L45.8467 25.2318L45.7432 24.5324L45.7481 24.5317C45.7457 24.1442 46.3866 23.7422 47.226 23.618C48.0652 23.494 48.7942 23.6933 48.9042 24.0647L48.91 24.0639L49.0134 24.7633L49.0047 24.7646Z" fill="#16B77B"/>
<path d="M47.2505 23.7851C46.8359 23.8465 46.4815 23.978 46.2446 24.1324C45.9918 24.2972 45.9387 24.4391 45.9493 24.5117C45.96 24.5842 46.0519 24.7046 46.3418 24.7893C46.6132 24.8685 46.9907 24.8927 47.4053 24.8313C47.8198 24.77 48.1733 24.6376 48.4101 24.4833C48.6635 24.3182 48.7171 24.1764 48.7064 24.1038C48.6955 24.0312 48.6029 23.911 48.3129 23.8264C48.0416 23.7473 47.6649 23.7238 47.2505 23.7851Z" stroke="#7EECC4" stroke-width="0.413662"/>
<path d="M48.9131 24.1486C48.8864 24.5276 48.2548 24.9133 47.435 25.0346C46.615 25.1559 45.8979 24.9698 45.7628 24.6147L45.755 24.6158L45.8585 25.3152L45.8634 25.3145C45.9733 25.6861 46.7031 25.8853 47.5425 25.7611C48.3816 25.6368 49.0218 25.235 49.0194 24.8476L49.0252 24.8468L48.9218 24.1473L48.9131 24.1486Z" fill="#25DC96"/>
<path d="M43.2032 35.1859C43.4199 35.3571 43.7343 35.3203 43.9055 35.1037C44.0767 34.887 44.0399 34.5726 43.8233 34.4014L43.5132 34.7936L43.2032 35.1859ZM39.4347 28.3276L38.9574 28.4767C39.1918 29.2273 39.6786 30.4443 40.3865 31.6966C41.0921 32.9448 42.0377 34.2649 43.2032 35.1859L43.5132 34.7936L43.8233 34.4014C42.8014 33.5938 41.9319 32.3984 41.257 31.2045C40.5845 30.0148 40.1257 28.863 39.912 28.1786L39.4347 28.3276Z" fill="#0F8A5C"/>
<path d="M43.6551 31.5013C42.7756 31.4885 42.4709 34.477 41.7912 33.0269C41.8313 32.4427 42.7424 31.2925 42.6461 30.7795C42.5256 30.1382 41.2003 28.728 41.1702 28.2733C41.1401 27.8185 41.9081 28.469 41.9985 28.2733C42.0888 28.0775 41.5316 27.5982 41.5166 27.3998C41.5015 27.2014 41.6822 27.3998 41.9985 27.3998C42.3147 27.3998 41.9382 27.0835 41.9081 26.7522C41.878 26.4209 42.4201 26.6317 42.6461 26.8584C42.872 27.0852 43.0828 27.2341 43.1581 26.948C43.2334 26.6618 43.5045 26.8584 43.5346 27.3998C43.5647 27.9411 43.9412 28.5895 44.2123 28.5594C44.4834 28.5293 44.3909 26.674 44.3629 26.5415C44.2645 26.0768 44.6038 25.8787 44.7846 26.1619C44.9653 26.4451 44.9954 26.7068 45.146 26.4658C45.2966 26.2248 45.5376 25.3859 45.8538 25.6813C46.0316 25.8473 45.8839 26.2673 46.0195 26.1619C46.155 26.0565 46.6821 25.6513 46.7875 25.9676C46.8929 26.2839 46.411 26.6921 46.6821 26.5415C46.9532 26.3909 47.3749 26.5874 47.2845 26.8584C47.1941 27.1295 46.5917 27.5229 46.8929 27.5982C47.1941 27.6735 47.6911 27.7195 47.4502 27.9303C46.8929 28.4179 47.4803 28.2913 47.3749 28.728C47.2694 29.1647 46.7875 28.7564 46.0195 29.0124C45.2514 29.2684 45.3267 29.6317 45.5376 29.8599C45.7484 30.0881 47.0573 29.0184 47.2845 29.2562C47.4624 29.4423 47.1791 29.4834 47.2845 29.8599C47.3899 30.2364 47.6911 30.1175 47.6911 30.4187C47.6911 30.7199 47.3749 30.5235 47.2845 30.7795C47.1941 31.0355 47.5857 31.0362 47.3749 31.2461C47.164 31.456 46.6219 30.9901 46.411 31.2461C46.2002 31.5021 46.7875 31.5013 46.7875 31.8485C46.7875 32.1957 46.4713 31.8786 46.3056 31.8485C46.14 31.8184 46.2905 32.0292 46.0195 32.1346C45.7484 32.24 44.7544 31.5173 43.6551 31.5013Z" fill="#0F8A5C"/>
<path d="M39.1826 32.4455C39.7518 32.7851 41.6911 32.0597 41.4588 32.7851C40.9327 33.0424 39.4581 33.3402 39.062 33.6802C38.5669 34.1051 38.0083 35.958 37.6295 36.2114C37.2507 36.4649 37.4301 35.4745 37.2154 35.4941C37.0006 35.5137 36.8642 36.236 36.6999 36.3482C36.5356 36.4604 36.617 36.2047 36.4589 35.9309C36.3008 35.657 36.2151 36.1412 35.9433 36.3329C35.6714 36.5246 35.5829 35.9497 35.6663 35.6407C35.7497 35.3317 35.7733 35.0746 35.4878 35.1525C35.2024 35.2304 35.2371 34.8973 35.6908 34.6005C36.1446 34.3038 36.5179 33.6535 36.3563 33.4338C36.1946 33.2141 34.6341 34.2218 34.5334 34.3123C34.1802 34.6299 33.839 34.4351 33.9938 34.137C34.1487 33.8389 34.3603 33.6819 34.0763 33.672C33.7923 33.6621 32.9453 33.8729 33.0429 33.4513C33.0979 33.2143 33.5355 33.1322 33.3764 33.0675C33.2173 33.0028 32.6029 32.7489 32.8241 32.4995C33.0452 32.2501 33.6398 32.4633 33.3738 32.3038C33.1079 32.1444 33.0671 31.681 33.3471 31.6237C33.627 31.5664 34.2689 31.8914 34.1835 31.5929C34.0981 31.2944 33.8894 30.841 34.1925 30.9443C34.8934 31.1831 34.49 30.7377 34.921 30.6106C35.3519 30.4836 35.2393 31.1051 35.845 31.6422C36.4507 32.1794 36.7277 31.9325 36.8199 31.6358C36.9121 31.3391 35.3313 30.7405 35.4236 30.4248C35.4958 30.1777 35.6731 30.4025 35.9464 30.1229C36.2198 29.8434 35.9662 29.642 36.2271 29.4914C36.4879 29.3408 36.4759 29.7129 36.7428 29.6631C37.0097 29.6134 36.8145 29.274 37.1017 29.3516C37.3889 29.4292 37.2565 30.1317 37.5836 30.1863C37.9108 30.2409 37.6164 29.7327 37.9171 29.5591C38.2178 29.3854 38.1013 29.8179 38.158 29.9764C38.2148 30.1349 38.3221 29.8991 38.5489 30.0811C38.7757 30.2632 38.2384 31.8821 39.1826 32.4455Z" fill="#0F8A5C"/>
<path d="M38.5815 28.7622C39.8571 28.7436 39.9176 31.6795 40.6602 30.8615C40.602 30.0142 39.9052 28.4594 40.0449 27.7154C40.2197 26.7853 42.1418 24.7399 42.1855 24.0804C42.2292 23.4208 41.1152 24.3643 40.9842 24.0804C40.8531 23.7964 41.6613 23.1012 41.6831 22.8135C41.705 22.5257 41.4429 22.8135 40.9842 22.8135C40.5255 22.8135 41.0715 22.3548 41.1152 21.8743C41.1589 21.3937 40.3726 21.6995 40.0449 22.0283C39.7173 22.3572 39.4115 22.5732 39.3023 22.1582C39.1931 21.7432 38.7999 22.0283 38.7562 22.8135C38.7126 23.5986 38.1665 24.539 37.7733 24.4954C37.3802 24.4517 37.5142 21.7608 37.5549 21.5687C37.6976 20.8947 37.2054 20.6074 36.9433 21.0181C36.6812 21.4289 36.6375 21.8084 36.4191 21.4589C36.2007 21.1094 35.8512 19.8925 35.3925 20.321C35.1346 20.5618 35.3488 21.171 35.1522 21.0181C34.9556 20.8652 34.1911 20.2776 34.0382 20.7363C33.8853 21.195 34.5843 21.7871 34.1911 21.5687C33.798 21.3503 33.1864 21.6352 33.3174 22.0283C33.4485 22.4215 34.3222 22.992 33.8854 23.1012C33.4485 23.2105 32.7277 23.2772 33.0772 23.5829C33.8854 24.2901 33.0335 24.1065 33.1864 24.7399C33.3393 25.3733 34.0382 24.7811 35.1522 25.1524C36.2662 25.5238 36.157 26.0506 35.8512 26.3816C35.5454 26.7126 33.647 25.1611 33.3174 25.5059C33.0594 25.7759 33.4703 25.8356 33.3174 26.3816C33.1645 26.9277 32.7277 26.7552 32.7277 27.1921C32.7277 27.6289 33.1864 27.344 33.3174 27.7154C33.4485 28.0867 32.8806 28.0876 33.1864 28.3921C33.4922 28.6965 34.2785 28.0207 34.5843 28.3921C34.8901 28.7634 34.0382 28.7622 34.0382 29.2658C34.0382 29.7694 34.4969 29.3095 34.7372 29.2658C34.9775 29.2221 34.7591 29.5279 35.1522 29.6808C35.5454 29.8337 36.987 28.7854 38.5815 28.7622Z" fill="#0F8A5C"/>
<path d="M49.9805 39.1683C49.7821 39.3451 49.6677 39.5896 49.6694 39.855C49.6708 40.1201 49.7882 40.3842 49.9888 40.5825C50.1895 40.7808 50.455 40.8951 50.72 40.8933C50.9854 40.8919 51.2286 40.7747 51.403 40.5742C51.403 40.5742 51.403 40.5742 51.403 40.5742C51.5727 40.3788 51.7514 40.1742 51.9253 39.9743C54.8918 36.5426 57.8782 33.192 60.7705 29.6413C60.8664 29.4378 61.0707 29.2578 61.3021 29.1822C61.5391 29.0969 61.8214 29.1855 61.9889 29.3963C61.8529 29.1681 61.5595 29.0222 61.2782 29.0851C61.0058 29.1405 60.7583 29.2982 60.596 29.5471C57.362 32.6129 53.9305 35.623 50.5732 38.6394C50.3758 38.8157 50.1736 38.9966 49.9805 39.1683Z" fill="#FFEE7D"/>
<path d="M61.4298 29.4365C61.2757 30.6691 61.7153 31.5557 62.1386 32.0485C62.3051 32.2423 62.5966 32.1622 62.6709 31.9178C63.1325 30.399 62.5002 29.5546 61.8942 29.1889C61.6955 29.069 61.4586 29.2062 61.4298 29.4365Z" fill="#FFE731"/>
<path d="M50.7884 39.3402C50.6364 39.5582 50.4071 39.7007 50.1434 39.7304C49.88 39.7604 49.6039 39.6751 49.3832 39.4994C49.1625 39.3236 49.0176 39.0735 48.988 38.8101C48.9579 38.5464 49.0456 38.2911 49.224 38.0941C49.224 38.0941 49.224 38.0941 49.224 38.0941C49.3979 37.9026 49.58 37.7009 49.7578 37.5045C52.8141 34.1525 55.7875 30.7904 58.9708 27.498C59.1614 27.3787 59.3159 27.1544 59.3637 26.9157C59.4202 26.6703 59.2988 26.4005 59.0697 26.2591C59.3125 26.3672 59.492 26.6412 59.4629 26.928C59.4401 27.205 59.3128 27.4694 59.0849 27.6601C56.4237 31.2344 53.841 34.9982 51.2434 38.689C51.0918 38.9059 50.936 39.1281 50.7884 39.3402Z" fill="#FFF6BF"/>
<path d="M59.0962 26.819C57.8906 27.118 56.9581 26.7865 56.4186 26.4245C56.2064 26.2822 56.2515 25.9833 56.4854 25.8806C57.9389 25.2423 58.8521 25.7702 59.2871 26.3286C59.4297 26.5117 59.3215 26.7632 59.0962 26.819Z" fill="#FFE731"/>
<path d="M46.8765 41.3873C46.6253 41.474 46.356 41.4542 46.1254 41.3229C45.8949 41.1921 45.7218 40.9606 45.647 40.6886C45.5721 40.4166 45.6022 40.1291 45.7333 39.8988C45.8643 39.6679 46.0855 39.5131 46.3457 39.459C46.3457 39.459 46.3457 39.459 46.3457 39.459C46.599 39.4065 46.8649 39.3507 47.1243 39.2967C51.5683 38.3868 55.9512 37.4199 60.4627 36.633C60.6871 36.6487 60.944 36.5585 61.1231 36.3937C61.3133 36.2286 61.3741 35.939 61.2721 35.6898C61.4047 35.9201 61.3885 36.2474 61.1961 36.462C61.0146 36.6725 60.756 36.8113 60.4595 36.8312C56.204 38.1534 51.9004 39.675 47.6277 41.1288C47.3774 41.2149 47.1207 41.3028 46.8765 41.3873Z" fill="#FFF6BF"/>
<path d="M60.9638 36.158C59.8132 35.6898 59.2547 34.8728 59.0318 34.2625C58.9441 34.0226 59.1565 33.8075 59.406 33.8622C60.9567 34.2021 61.3841 35.1665 61.4068 35.874C61.4143 36.1059 61.1787 36.2454 60.9638 36.158Z" fill="#FFE731"/>
<path d="M45.377 40.8428C45.2408 40.4885 44.5241 40.3027 43.705 40.4239C42.886 40.5451 42.2545 40.9303 42.2268 41.3089L42.2181 41.3102L42.1146 40.6108L42.1204 40.6099C42.118 40.2224 42.7588 39.8205 43.5983 39.6963C44.4376 39.5722 45.1666 39.7715 45.2765 40.143L45.2823 40.1421L45.3857 40.8416L45.377 40.8428Z" fill="#16B77B"/>
<path d="M43.6228 39.8634C43.2082 39.9247 42.8538 40.0562 42.6169 40.2106C42.3641 40.3755 42.311 40.5173 42.3216 40.5899C42.3323 40.6625 42.4242 40.7828 42.7141 40.8675C42.9855 40.9467 43.363 40.9709 43.7776 40.9096C44.1921 40.8483 44.5456 40.7158 44.7824 40.5615C45.0358 40.3964 45.0895 40.2546 45.0787 40.182C45.0678 40.1095 44.9752 39.9892 44.6852 39.9046C44.4139 39.8255 44.0372 39.8021 43.6228 39.8634Z" stroke="#7EECC4" stroke-width="0.413662"/>
<path d="M45.2854 40.2269C45.2587 40.6058 44.6272 40.9916 43.8073 41.1129C42.9873 41.2342 42.2703 41.048 42.1351 40.6929L42.1274 40.6941L42.2308 41.3935L42.2357 41.3928C42.3454 41.7644 43.0753 41.9635 43.9148 41.8393C44.754 41.7151 45.3942 41.3133 45.3917 40.9259L45.3975 40.925L45.2941 40.2256L45.2854 40.2269Z" fill="#25DC96"/>
<path d="M25.4688 38.783C25.4802 38.4035 24.8908 37.9553 24.0882 37.7507C23.2859 37.5463 22.5546 37.6576 22.3829 37.9962L22.3754 37.9943L22.55 37.3092L22.5548 37.3104C22.7022 36.952 23.4486 36.8288 24.2709 37.0384C25.0929 37.2481 25.6885 37.7135 25.6463 38.0986L25.652 38.1L25.4773 38.7852L25.4688 38.783Z" fill="#16B77B"/>
<path d="M24.2289 37.2021C23.8228 37.0986 23.4451 37.083 23.167 37.134C22.87 37.1884 22.7663 37.2987 22.7481 37.3698C22.7299 37.4408 22.7682 37.5873 23.0029 37.7774C23.2227 37.9553 23.5615 38.1234 23.9676 38.227C24.3737 38.3305 24.7509 38.3449 25.0289 38.294C25.3264 38.2395 25.4306 38.1295 25.4488 38.0584C25.4667 37.9872 25.4278 37.8405 25.193 37.6505C24.9732 37.4728 24.6348 37.3056 24.2289 37.2021Z" stroke="#7EECC4" stroke-width="0.413662"/>
<path d="M25.623 38.1795C25.4523 38.5189 24.7196 38.6314 23.9163 38.4266C23.113 38.2218 22.5237 37.7722 22.5362 37.3924L22.5287 37.3905L22.354 38.0756L22.3587 38.0768C22.3165 38.462 22.9128 38.9276 23.7351 39.1373C24.5572 39.3467 25.3029 39.2234 25.4503 38.8651L25.4559 38.8665L25.6306 38.1814L25.623 38.1795Z" fill="#25DC96"/>
<path d="M23.0899 28.1343C23.0785 27.7548 23.6679 27.3067 24.4705 27.102C25.2728 26.8976 26.0041 27.0089 26.1758 27.3475L26.1834 27.3456L26.0087 26.6605L26.0039 26.6617C25.8566 26.3033 25.1102 26.1801 24.2879 26.3897C23.4658 26.5994 22.8703 27.0648 22.9124 27.4499L22.9067 27.4514L23.0814 28.1365L23.0899 28.1343Z" fill="#16B77B"/>
<path d="M24.3299 26.5533C24.7361 26.4498 25.1138 26.4342 25.3919 26.4851C25.6888 26.5396 25.7925 26.6499 25.8108 26.721C25.8289 26.792 25.7907 26.9385 25.5559 27.1286C25.3362 27.3065 24.9974 27.4746 24.5912 27.5782C24.1852 27.6817 23.808 27.696 23.5299 27.6452C23.2325 27.5907 23.1282 27.4806 23.1101 27.4096C23.0921 27.3384 23.1311 27.1917 23.3659 27.0017C23.5856 26.824 23.924 26.6568 24.3299 26.5533Z" stroke="#7EECC4" stroke-width="0.413662"/>
<path d="M22.9365 27.5307C23.1074 27.87 23.8391 27.9828 24.6423 27.778C25.4456 27.5732 26.0349 27.1236 26.0223 26.7439L26.0299 26.742L26.2044 27.4261L26.1996 27.4273C26.2429 27.8127 25.6465 28.2789 24.8235 28.4887C24.0007 28.6983 23.2546 28.5745 23.1081 28.2156L23.1024 28.217L22.928 27.5328L22.9365 27.5307Z" fill="#25DC96"/>
<path d="M39.7466 13.0638C47.8804 13.0639 55.1711 15.0096 60.3774 18.0775C65.6179 21.1656 68.4993 25.2156 68.4995 29.391C68.4995 33.5666 65.6181 37.6173 60.3774 40.7054C55.1711 43.7733 47.8803 45.7191 39.7466 45.7191C31.613 45.7191 24.3221 43.7733 19.1157 40.7054C13.8751 37.6173 10.9927 33.5666 10.9927 29.391C10.9929 25.2156 13.8752 21.1656 19.1157 18.0775C24.3221 15.0097 31.6129 13.0638 39.7466 13.0638Z" stroke="#ADD9FF" stroke-width="3" stroke-linecap="round"/>
</svg>
