<svg width="80" height="80" viewBox="0 0 80 80" fill="none" xmlns="http://www.w3.org/2000/svg">
<path d="M72.1032 28.6169C71.9054 32.2266 69.9447 35.5696 66.7371 38.3925C60.9496 43.4856 51.0536 46.8544 39.7688 46.8544C28.484 46.8544 18.5881 43.4856 12.8005 38.3925C9.59505 35.5696 7.6322 32.2266 7.43441 28.6169C7.40216 28.533 7.38281 28.4814 7.38281 28.4814V36.8187C7.38281 54.7833 21.8817 69.3488 39.7688 69.3488C57.6559 69.3488 72.1548 54.7854 72.1548 36.8187V28.4814C72.1548 28.4814 72.1355 28.5352 72.1032 28.6169Z" fill="#374151"/>
<path d="M39.7686 12.1511C48.5027 12.1511 56.3364 14.1454 61.9336 17.2937C67.5777 20.4685 70.6551 24.6201 70.6553 28.8679C70.6553 33.1158 67.5778 37.2673 61.9336 40.4421C56.3364 43.5905 48.5028 45.5857 39.7686 45.5857C31.0343 45.5857 23.2007 43.5905 17.6035 40.4421C11.9595 37.2673 8.88281 33.1158 8.88281 28.8679C8.88295 24.6201 11.9595 20.4685 17.6035 17.2937C23.2007 14.1453 31.0343 12.1512 39.7686 12.1511Z" fill="#1F2933" stroke="#4B5563" stroke-width="3" stroke-linecap="round"/>
<path d="M26.1406 40.7358C17.8439 41.2638 14.9482 39.6896 14.5375 38.8365C11.3544 34.2135 19.4662 30.4184 25.1138 29.5105C30.7613 28.6025 30.1452 29.51 41.0295 26.2084C51.9137 22.9069 64.6463 30.2537 65.1597 35.1235C65.6731 39.9933 60.3337 40.7358 52.6325 40.7358C44.9314 40.7358 48.5252 42.6345 41.0295 43.8726C33.5337 45.1106 36.5115 40.0758 26.1406 40.7358Z" fill="#452215"/>
<path d="M48.4516 35.9175C44.0496 39.5774 32.8849 45.6918 23.4425 40.8707C14.0001 36.0496 23.6351 27.8561 29.6328 24.3619" stroke="#4A2416" stroke-width="3" stroke-linecap="round"/>
<path d="M52.3308 33.8623C47.9287 37.5222 36.764 43.6366 27.3216 38.8155C17.8792 33.9944 27.5142 25.8009 33.512 22.3068" stroke="#5B3020" stroke-width="3" stroke-linecap="round"/>
<path d="M57.6958 33.0402C53.2937 36.7 42.129 42.8145 32.6866 37.9934C23.2442 33.1723 32.8792 24.9787 38.877 21.4846" stroke="#723F28" stroke-width="3" stroke-linecap="round"/>
<path d="M54.022 30.1964C55.9296 42.804 35.7405 44.7737 30.2105 41.6107C27.5374 39.5288 22.7426 34.0557 24.9476 28.8188" stroke="#4A2416" stroke-width="3" stroke-linecap="round"/>
<path d="M58.934 28.8306C62.5932 33.5633 55.1004 43.7992 38.156 35.0917" stroke="#5B3020" stroke-width="3" stroke-linecap="round"/>
<path d="M54.8069 22.7222C58.9888 23.8761 68.868 28.2346 62.0668 34.1786" stroke="#5B3020" stroke-width="3" stroke-linecap="round"/>
<path d="M38.6163 45.2428C57.1478 43.4419 71.7704 32.6857 54.1049 25.8029" stroke="#7D472E" stroke-width="3" stroke-linecap="round"/>
<path d="M17.087 39.1476C15.6013 36.644 14.3632 30.6626 21.2965 26.7665" stroke="#5B3020" stroke-width="3" stroke-linecap="round"/>
<path d="M35.5756 21.6488C33.2095 19.3386 27.4043 16.5504 23.1123 23.8791" stroke="#5B3020" stroke-width="3"/>
<path d="M48.8642 19.9129C47.4335 17.9048 42.1951 15.1928 32.6866 20.4093" stroke="#7D472E" stroke-width="3"/>
<path d="M24.5363 24.0084C20.831 24.3188 12.388 29.783 19.8723 35.1232C22.3636 36.4639 28.7209 37.6983 34.2191 31.9107" stroke="#7D472E" stroke-width="3" stroke-linecap="round"/>
<path d="M28.6275 33.5797C22.4521 34.1037 20.2968 32.5413 19.9911 31.6946C17.6218 27.1062 23.6596 23.3395 27.8632 22.4384C32.0668 21.5373 31.6082 22.4379 39.7097 19.1611C47.8111 15.8843 57.2883 23.1761 57.6704 28.0094C58.0525 32.8427 54.0783 33.5797 48.3461 33.5797C42.614 33.5797 45.289 35.4641 39.7097 36.6929C34.1304 37.9218 36.3468 32.9246 28.6275 33.5797Z" fill="#522A1B"/>
<path d="M41.1117 19.529L26.9733 32.7037C26.769 31.7852 27.4548 28.8974 31.832 24.6953C36.2092 20.4932 39.8423 19.5003 41.1117 19.529Z" fill="#0F8A5C"/>
<path d="M27.5762 32.1437C27.8785 30.7512 29.0787 28.3284 32.3828 25.1564C35.7559 21.9182 38.6873 20.5881 40.4355 20.1603L27.5762 32.1437Z" fill="#7EECC4"/>
<path d="M39.9153 19.9292L23.969 30.8463C23.9041 29.9075 25.0132 27.1545 29.9685 23.6527C34.9238 20.151 38.6644 19.7113 39.9153 19.9292Z" fill="#0F8A5C"/>
<path d="M24.6505 30.3785C25.1598 29.046 26.7091 26.8321 30.4432 24.1932C34.2562 21.4987 37.3506 20.6198 39.1443 20.4558L24.6505 30.3785Z" fill="#25DC96"/>
<path d="M24.8226 26.1182L40.1624 16.8115C40.2318 17.6403 39.1792 20.0451 34.4131 23.0335C29.647 26.0219 26.0335 26.3352 24.8226 26.1182Z" fill="#0F8A5C"/>
<path d="M39.508 17.2085C39.026 18.3728 37.5434 20.2946 33.9494 22.5481C30.2803 24.8486 27.2942 25.5617 25.5616 25.67L39.508 17.2085Z" fill="#25DC96"/>
<path d="M21.2965 24.5516L38.0039 16.2619C37.9397 17.1678 36.5097 19.6498 31.3031 22.3303C26.0966 25.0108 22.4626 24.9281 21.2965 24.5516Z" fill="#0F8A5C"/>
<path d="M37.2907 16.6155C36.6258 17.8203 34.847 19.7285 30.921 21.7498C26.9129 23.8132 23.8371 24.2368 22.1014 24.1519L37.2907 16.6155Z" fill="#7EECC4"/>
<path d="M21.3266 27.1807L38.034 18.8909C37.9698 19.7968 36.5398 22.2788 31.3333 24.9593C26.1267 27.6398 22.4928 27.5571 21.3266 27.1807Z" fill="#0F8A5C"/>
<path d="M37.3201 19.2432C36.6551 20.4481 34.8771 22.3566 30.9512 24.3778C26.9423 26.4417 23.866 26.8657 22.1304 26.7805L37.3201 19.2432Z" fill="#7EECC4"/>
<circle cx="41.0593" cy="27.2385" r="1.59026" fill="#25DC96"/>
<circle cx="37.3199" cy="28.2596" r="1.59026" fill="#25DC96"/>
<circle cx="42.1977" cy="31.6983" r="1.59026" fill="#25DC96"/>
<path d="M42.2925 23.7877C41.4822 18.9479 45.2493 16.9144 47.6394 17.562C50.4649 18.3607 55.3428 22.1189 55.9826 24.9177C56.6223 27.7165 53.0238 31.0484 50.6248 31.2617C48.2258 31.4749 43.3054 29.8376 42.2925 23.7877Z" fill="#E5E7EB"/>
<path d="M43.3057 21.8153C42.4954 16.9755 47.073 17.0607 49.4631 17.7083C52.2886 18.5069 55.3006 21.3345 55.9404 24.1333C56.5801 26.9321 53.9945 29.4644 51.5955 29.6776C49.1966 29.8909 44.3186 27.8651 43.3057 21.8153Z" fill="white"/>
<circle cx="51.4235" cy="24.7233" r="2.97207" fill="#FFD52F"/>
<path d="M39.7686 12.1511C48.5027 12.1511 56.3364 14.1454 61.9336 17.2937C67.5777 20.4685 70.6551 24.6201 70.6553 28.8679C70.6553 33.1158 67.5778 37.2673 61.9336 40.4421C56.3364 43.5905 48.5028 45.5857 39.7686 45.5857C31.0343 45.5857 23.2007 43.5905 17.6035 40.4421C11.9595 37.2673 8.88281 33.1158 8.88281 28.8679C8.88295 24.6201 11.9595 20.4685 17.6035 17.2937C23.2007 14.1453 31.0343 12.1512 39.7686 12.1511Z" stroke="#4B5563" stroke-width="3" stroke-linecap="round"/>
</svg>
