<svg width="81" height="80" viewBox="0 0 81 80" fill="none" xmlns="http://www.w3.org/2000/svg">
<path d="M1.26443 40.0704L1.91527 45.7594C1.96992 46.2371 2.19483 46.6791 2.54882 47.0045L26.8959 69.3848C27.4866 69.9277 28.3445 70.0652 29.0752 69.734L75.5693 48.6584C76.1762 48.3834 76.6062 47.8242 76.7162 47.167L77.8989 40.102L27.8701 62.3702L1.26443 40.0704Z" fill="#663722"/>
<path d="M1.51812 40.5005C0.93189 39.9909 1.12512 39.0367 1.86342 38.7953L48.6272 23.5062C48.8913 23.4199 49.1793 23.4473 49.4223 23.5818L77.3329 39.0313C78.0546 39.4308 78.0095 40.4831 77.2563 40.8194L28.0433 62.7921C27.6881 62.9507 27.2731 62.8889 26.9795 62.6337L1.51812 40.5005Z" fill="#7D472E"/>
<path d="M14.6539 39.5326C13.1395 39.1961 12.9712 37.7097 13.0764 37.0086L44.4162 29.0159C44.8369 30.362 44.241 31.0491 43.8904 31.2244C44.8159 32.6547 43.7151 33.8536 43.0491 34.2742C43.4697 36.2934 41.6118 37.0787 40.6302 37.2189C40.7985 38.9857 38.4568 39.6378 37.2649 39.7429C37.1807 40.0795 36.5287 40.0935 36.2132 40.0584L30.1135 42.3721C28.5991 43.8865 26.9585 43.2836 26.3275 42.7928C24.5607 44.7279 22.7167 43.5991 22.0156 42.7928C19.3233 43.7183 18.0894 42.1267 17.8089 41.2153C15.7897 41.7201 14.8642 40.3038 14.6539 39.5326Z" fill="#F9FAFB"/>
<path d="M12.0248 37.2051C10.1949 35.9582 10.1318 35.1169 10.1949 34.1224C10.2581 33.1278 9.71473 30.1136 10.6577 29.4378C17.3346 24.6527 29.4206 22.5655 32.9531 22.1662C37.1308 21.4581 43.949 21.3053 46.3094 22.7072C47.4547 23.3874 46.3094 26.4192 46.3094 27.1242C46.3094 28.9121 47.0455 29.6331 42.8388 29.8434C38.6321 30.0538 27.9051 35.4173 23.5932 38.8878C19.2814 42.3583 13.8547 38.452 12.0248 37.2051Z" fill="#FFD52F"/>
<path d="M12.0248 26.9127C19.092 20.5185 28.9216 18.0085 32.953 17.5528C39.1579 16.5011 43.9956 19.9716 45.5731 21.444C47.1506 22.9163 47.0455 25.0197 42.8388 25.23C38.6321 25.4403 27.905 30.8039 23.5932 34.2744C19.2813 37.7449 15.3901 35.0106 12.0248 32.5917C9.33247 30.6566 10.903 27.9994 12.0248 26.9127Z" fill="#FFE731"/>
<path d="M30.5342 30.1733C31.039 32.7814 30.6394 39.463 30.4291 42.4778L37.0546 40.059C37.896 36.1888 37.3 29.6474 36.9494 26.9131L30.5342 30.1733Z" fill="#1F2933"/>
<path d="M34.7715 18.0028C35.3264 17.997 35.8108 18.0507 36.0879 18.0507C36.42 18.0513 36.6997 18.1095 37.1001 18.2206C37.3775 18.2988 37.7141 18.4046 38.1588 18.5604C38.6721 18.742 39.0125 18.9111 39.2995 19.0549C39.7024 19.2592 39.998 19.4196 40.4663 19.5929C40.9361 19.7675 41.4099 19.9664 41.7914 20.1557C41.8396 20.1794 41.8854 20.203 41.9287 20.2268C42.1254 20.3361 42.3641 20.4677 42.6047 20.6596C42.897 20.8844 43.3457 21.3853 43.2219 22.0145C43.1153 22.4865 42.8515 22.6795 42.6722 22.8212C42.6091 22.8683 42.5566 22.9007 42.5001 22.9366C42.3145 23.0897 42.1196 23.2148 41.9287 23.3236C41.9001 23.3463 41.8691 23.3699 41.8365 23.3948C41.6815 23.5153 41.4783 23.6593 41.2164 23.7905C40.7991 23.9984 40.4119 24.1086 40.0045 24.2124C39.6893 24.2919 39.3569 24.3673 38.9872 24.4673C38.7344 24.5356 38.4474 24.6186 38.1624 24.696C37.7886 24.7977 37.4193 24.8892 37.1284 24.9385C37.094 24.9443 37.0608 24.9497 37.0289 24.9545C36.9272 24.9697 36.8345 24.9667 36.7414 24.9654H36.7211C36.0591 25.1378 35.4067 25.379 34.7671 25.6559C34.7125 25.6839 34.659 25.712 34.6052 25.7401C34.3421 25.8776 34.089 26.0181 33.9335 26.13C33.7627 26.2518 33.3114 26.4885 32.8408 26.7581C32.5334 26.9335 32.2169 27.1219 31.9658 27.286C31.8185 27.3821 31.6618 27.4436 31.5011 27.5075C31.3511 27.5671 31.1962 27.6298 31.0437 27.7253C30.9672 27.7732 30.8876 27.8305 30.8033 27.8923C30.7291 27.9467 30.6506 28.0042 30.5666 28.0615C30.4885 28.1147 30.3029 28.2125 30.0649 28.3403C29.9176 28.4194 29.7509 28.5093 29.5777 28.6075C29.1394 28.9005 28.7062 29.1981 28.2728 29.5013C28.1932 29.5785 28.1285 29.6533 28.0841 29.7235C28.0523 29.7739 28.0299 29.8237 28.0071 29.8746C27.9761 29.9439 27.9442 30.0161 27.8873 30.0946C27.8433 30.1555 27.7778 30.2122 27.7246 30.2354C27.7 30.2461 27.6778 30.2495 27.6578 30.2529C27.6348 30.2567 27.6143 30.2607 27.5954 30.2739C27.5818 30.2834 27.5712 30.2986 27.5584 30.3175C27.5379 30.3477 27.5113 30.3867 27.4567 30.4249C27.2514 30.5685 27.016 30.7251 26.7822 30.8817C26.5251 31.0537 26.2708 31.2261 26.0793 31.3682C25.8594 31.5311 25.5278 31.7356 25.2007 31.9389C24.9658 32.0854 24.7362 32.2292 24.5428 32.3593C24.3507 32.4887 24.1691 32.6364 23.9823 32.787C23.769 32.9599 23.5483 33.136 23.3462 33.248C23.309 33.2682 23.2357 33.285 23.1553 33.2974C23.1118 33.3045 23.0635 33.3116 23.0137 33.3206C22.9942 33.3256 22.9742 33.3312 22.9541 33.3366C22.6723 33.5177 22.3608 33.7027 21.9354 33.826C21.9217 33.8339 21.9076 33.8421 21.8933 33.85L21.8926 33.8507C21.7223 33.94 21.4862 34.0437 21.1418 34.046C20.8006 34.0531 20.3946 33.9069 20.1361 33.6946C20.0035 33.5884 19.9536 33.5076 19.9089 33.4368C19.8672 33.3684 19.8329 33.3078 19.7687 33.2509C19.6952 33.1859 19.6002 33.1355 19.5022 33.0883C19.3654 33.0226 19.2287 32.9693 19.121 32.877C19.1136 32.8707 19.1055 32.8636 19.0971 32.8567C19.0185 32.7908 18.8974 32.7003 18.771 32.5938C18.4256 32.4653 18.0242 32.4076 17.5897 32.4058C17.4487 32.4064 17.3232 32.4029 17.1809 32.3949C16.5981 32.3572 15.9541 32.2512 15.3496 31.867C14.7342 31.4906 14.344 30.7771 14.2322 30.1737C14.1095 29.5732 14.1995 29.0576 14.3222 28.7034C14.4506 28.3496 14.6093 28.1548 14.7884 28.137C14.968 28.1166 15.1592 28.3262 15.3017 28.6787C15.4462 29.0282 15.5405 29.4731 15.6488 29.8252C15.8386 30.411 16.1101 30.5791 16.73 30.6784C16.7608 30.6802 16.7929 30.6814 16.8258 30.6827C17.0575 30.6916 17.2911 30.651 17.5294 30.5949C17.5454 30.592 17.5615 30.5896 17.5773 30.5869C17.6586 30.5731 17.7395 30.5604 17.8191 30.5498C18.424 30.4249 19.7806 30.7703 20.351 31.2237C20.3617 31.2307 20.3726 31.2377 20.383 31.2447C20.5212 31.3388 20.6425 31.4266 20.7729 31.5264C20.924 31.6412 21.0973 31.7871 21.2354 31.8895C21.3023 31.9396 21.347 31.9627 21.3422 31.9686C21.3374 31.9725 21.3154 31.9973 21.417 31.9846C21.5262 31.9516 21.7166 31.8537 21.9042 31.7298C21.9154 31.7224 21.9268 31.7149 21.9383 31.7072C24.342 30.0225 26.8928 28.2033 29.5689 26.6957C29.6022 26.675 29.6363 26.6544 29.6706 26.6332C30.3314 26.2234 31.1711 25.7384 31.7276 25.4831C32.4338 25.157 32.928 24.9643 33.3381 24.8129C34.4672 24.3413 35.6448 23.9256 36.899 23.7136C38.089 23.5166 39.2832 23.2662 40.3864 22.8771C41.0408 22.6453 41.7818 22.299 42.0478 21.939C42.1011 21.8632 42.101 21.8294 42.1 21.8221C42.1004 21.8143 42.0889 21.7657 42.0245 21.6914C41.8956 21.5394 41.6341 21.3715 41.358 21.2375C41.3348 21.2274 41.3109 21.2171 41.2868 21.2071C40.9387 21.0598 40.6074 20.9223 40.3 20.7968C39.835 20.6066 39.4254 20.4457 39.0918 20.3089C38.2902 19.9744 37.4018 19.6265 36.7247 19.4651C36.6143 19.4377 36.5094 19.4138 36.4125 19.394C35.8679 19.3122 35.3203 19.292 34.7751 19.3323C34.7379 19.3269 34.7003 19.3215 34.6626 19.3163C34.5352 19.2987 34.4001 19.291 34.2509 19.2945C33.8683 19.3017 33.3619 19.4037 32.6854 19.5842C32.2795 19.6926 31.8108 19.8297 31.2579 19.9981C30.904 20.1062 30.7077 20.1327 30.5499 20.1527C30.5032 20.1588 30.4589 20.1647 30.4149 20.1724C30.2643 20.1984 30.1244 20.2728 29.956 20.3633C29.7403 20.4798 29.4804 20.621 29.1035 20.7133C27.9032 21.0098 27.431 21.3006 27.0755 21.5149C26.9713 21.5782 26.8782 21.6356 26.7778 21.687C26.456 21.8519 25.9643 22.0187 25.5906 22.1278C25.2902 22.2153 24.7373 22.4906 24.3301 22.7224C24.1766 22.8096 23.957 22.9093 23.7049 23.0267C23.4429 23.1488 23.1376 23.2934 22.8321 23.4681C22.8219 23.474 22.8117 23.4798 22.8016 23.4856C22.8303 23.5466 22.8491 23.5849 22.8532 23.5981C22.8625 23.6292 22.8719 23.6607 22.8801 23.6896C22.8815 23.6931 22.8832 23.6966 22.8844 23.6998C22.8939 23.7234 22.915 23.7692 22.936 23.8152C22.9408 23.8258 22.9458 23.8368 22.9505 23.8472C22.9862 23.9256 22.9635 23.8975 22.9512 23.882V23.8813C22.9485 23.8778 22.9468 23.8769 22.9454 23.8762C22.9418 23.8746 22.9366 23.8721 22.9055 23.8261C22.9046 23.8288 22.9036 23.831 22.9019 23.8319C22.8826 23.8417 22.8303 23.7876 22.7719 23.7208V23.7223C22.7711 23.7327 22.7704 23.7455 22.7523 23.7194C22.7294 23.6863 22.7092 23.655 22.692 23.6279C22.6765 23.6101 22.6606 23.5932 22.6463 23.5778C22.6229 23.5915 22.6003 23.6052 22.578 23.6184C22.5817 23.6291 22.5853 23.6373 22.586 23.6417C22.5888 23.6587 22.575 23.6439 22.5613 23.6279C22.5572 23.6303 22.553 23.6327 22.549 23.6351C22.5496 23.6397 22.5504 23.6443 22.5511 23.6489C22.5491 23.6453 22.5467 23.6418 22.5446 23.638C22.5162 23.655 22.4882 23.6707 22.4618 23.6867C22.4729 23.7182 22.4793 23.7358 22.4843 23.7506C22.486 23.7556 22.4878 23.7604 22.4894 23.7651C22.4947 23.7804 22.4983 23.7941 22.5018 23.8072C22.5059 23.8228 22.5104 23.8386 22.5177 23.8588C22.501 23.8418 22.4817 23.8202 22.4626 23.7985C22.4566 23.7917 22.4414 23.7619 22.4146 23.7143L22.4059 23.7194C21.8883 24.0223 21.5674 24.2149 21.3001 24.3758C21.206 24.4326 21.1158 24.4869 21.0278 24.5406C20.7491 24.7106 20.4016 24.9178 20.0519 25.1309C19.6337 25.3856 19.2135 25.6493 18.9017 25.8607C18.0542 26.3416 17.2132 26.8348 16.4439 27.3753C16.0531 27.6508 15.6664 27.876 15.3896 28.0012C15.1144 28.1287 14.9782 28.0896 14.7884 28.137C14.6994 28.151 14.5923 28.0928 14.5502 27.9402C14.5091 27.7849 14.537 27.5788 14.6206 27.371C14.7928 26.9484 15.1497 26.542 15.5653 26.2099C16.4095 25.5427 17.2788 24.9699 18.1618 24.4157C19.2378 23.7446 20.3328 23.1177 21.4525 22.5322C21.5435 22.4847 21.6336 22.4386 21.7212 22.3935L21.7081 22.4C21.7382 22.384 21.7689 22.3687 21.7989 22.3528C21.7852 22.316 21.7735 22.2839 21.7706 22.2708C21.7679 22.2587 21.7805 22.2788 21.7916 22.2962C21.7993 22.3082 21.806 22.3189 21.8062 22.3165C21.8062 22.3151 21.806 22.3125 21.8054 22.3093C21.803 22.2951 21.799 22.2712 21.825 22.3071C21.8294 22.3131 21.8346 22.322 21.841 22.3318C21.894 22.304 21.9471 22.2768 22 22.2497C21.9955 22.2358 21.9906 22.221 21.9833 22.2025C21.9785 22.1902 21.9903 22.2103 22.0022 22.2309C22.005 22.2357 22.0083 22.2402 22.0109 22.2447C22.0122 22.244 22.0133 22.2431 22.0146 22.2425C22.0111 22.2343 22.0078 22.2254 22.0058 22.22C22.0044 22.2155 22.0115 22.2258 22.0204 22.2388V22.2396C22.0242 22.2376 22.0281 22.2357 22.032 22.2338C22.0312 22.2298 22.0305 22.226 22.0298 22.2221C22.0213 22.2038 22.0097 22.1798 21.9949 22.1495C21.9843 22.1278 21.9717 22.1019 21.9586 22.0755C21.9408 22.0394 21.9222 22.0022 21.9078 21.9724C21.8966 21.9491 21.8924 21.9397 21.8976 21.9491C21.9001 21.9535 21.9046 21.962 21.9085 21.9695C21.913 21.9779 21.9171 21.9855 21.9173 21.9854C21.9173 21.9852 21.9143 21.979 21.9107 21.9716C21.9049 21.9596 21.8975 21.9434 21.8976 21.9426C21.8986 21.9407 21.9024 21.9441 21.9064 21.9477C21.9111 21.952 21.9157 21.9565 21.9151 21.9513C21.9142 21.9452 21.9285 21.9668 21.9427 21.9883C21.9525 22.0032 21.9625 22.018 21.9674 22.0239C21.9721 22.0295 21.9678 22.016 21.963 22.0029C21.9573 21.9871 21.9514 21.9721 21.963 21.9912C21.9654 21.9952 21.9787 22.0199 21.9949 22.0508C22.0065 22.0726 22.0198 22.0975 22.032 22.1205C22.0338 22.1196 22.0365 22.1196 22.0392 22.1205C22.0376 22.1171 22.0358 22.1138 22.0342 22.1103L21.9782 21.9934C21.9646 21.9639 21.9603 21.9524 21.9782 21.984C21.9874 22.0001 22.0032 22.0303 22.0175 22.0573C22.0314 22.0838 22.0441 22.1078 22.0472 22.1125C22.0503 22.117 22.043 22.1006 22.0349 22.0827C22.0232 22.057 22.0102 22.0282 22.0247 22.0537C22.0256 22.0553 22.0266 22.057 22.0276 22.0588C22.038 22.0769 22.0533 22.1043 22.0828 22.159C22.0917 22.1688 22.1016 22.1799 22.1118 22.1924C22.6952 21.8979 23.2732 21.6379 23.8632 21.3806C23.9464 21.3445 24.0286 21.3085 24.113 21.2724C24.778 20.9309 25.444 20.6089 25.9232 20.3982C26.3171 20.2249 26.6194 20.1317 26.8773 20.0525C27.0544 19.9983 27.2131 19.9498 27.3667 19.8884C27.4493 19.8555 27.5619 19.8093 27.6978 19.7541C28.2527 19.528 29.2001 19.1537 30.1004 18.8988C30.4969 18.7861 30.9706 18.6739 31.4227 18.5764C32.0698 18.4353 32.6815 18.328 32.9882 18.2431C33.327 18.1483 33.7034 18.0733 34.1056 18.0354C34.3328 18.0147 34.5562 18.0046 34.7715 18.0028Z" fill="#FFD52F"/>
<path d="M34.1539 20.0527C34.4324 20.0398 34.6387 20.0745 34.8124 20.1086C34.9354 20.1326 35.0385 20.1562 35.1508 20.1689C35.2108 20.1757 35.2925 20.1843 35.3904 20.1979C35.4756 20.2099 35.5726 20.2259 35.6772 20.2473C35.8986 20.2963 36.1267 20.3445 36.4433 20.5087C36.5934 20.5936 36.7861 20.7031 36.9784 20.9719C37.1748 21.2204 37.2416 21.7134 37.1345 21.987C36.9043 22.5932 36.5622 22.745 36.2966 22.9295C35.9014 23.1678 35.5557 23.3004 35.3941 23.4095C35.1126 23.5968 34.7668 23.7429 34.4588 23.8626C34.1648 23.9771 33.9086 24.068 33.777 24.1559C33.6195 24.2608 33.4678 24.3056 33.2404 24.3701C33.0837 24.4142 32.8904 24.4673 32.632 24.5516C32.3366 24.6476 32.115 24.6941 31.9305 24.7303C31.6647 24.7822 31.4745 24.8163 31.1885 24.9357C31.0501 24.9931 30.8993 25.0472 30.7521 25.0868C30.6676 25.117 30.5089 25.1789 30.3912 25.2175C30.2862 25.2521 30.172 25.3036 30.0456 25.3634C29.8843 25.4398 29.7053 25.5299 29.5431 25.5921C29.403 25.6467 29.2799 25.6692 29.1692 25.6909C29.1346 25.6977 29.1012 25.7045 29.069 25.7119C28.9592 25.7695 28.8623 25.8213 28.7553 25.879C28.7408 25.8931 28.7254 25.9082 28.7095 25.924C28.6274 26.0047 28.538 26.098 28.4024 26.1934C28.1916 26.3422 27.981 26.4332 27.7642 26.5259C27.5936 26.599 27.4148 26.676 27.2232 26.7859C27.0909 26.8616 26.9471 26.9548 26.8028 27.048C26.5872 27.1872 26.3768 27.3224 26.2146 27.3922C26.1546 27.4179 26.0941 27.424 26.0346 27.4299H26.0338C26.03 27.4303 26.0261 27.431 26.0222 27.4314C25.6529 27.6428 25.2799 27.8538 24.9048 28.0594C24.8744 28.0807 24.8421 28.1021 24.8111 28.1233C24.6582 28.228 24.5122 28.327 24.4219 28.4109C24.3241 28.5019 24.0481 28.6566 23.7481 28.8139C23.5538 28.9161 23.3452 29.0208 23.1788 29.1108C23.0789 29.1646 22.9716 29.1815 22.8629 29.1965C22.7642 29.2095 22.6515 29.2256 22.5464 29.2677C22.4932 29.289 22.438 29.3177 22.3794 29.3475C22.3248 29.3748 22.266 29.4039 22.2044 29.4289C22.1448 29.4525 22.0197 29.4774 21.8355 29.5087C21.7226 29.5276 21.6079 29.5438 21.4652 29.5632C21.1236 29.6437 20.7379 29.7168 20.2787 29.6743C20.1779 29.6815 20.0956 29.6918 20.0072 29.7048C19.947 29.7148 19.8915 29.7291 19.8329 29.7411C19.7519 29.7564 19.6713 29.7724 19.5483 29.7513C19.4531 29.7353 19.3471 29.6861 19.2883 29.6336C19.2609 29.6094 19.2434 29.585 19.2281 29.5632C19.2107 29.5383 19.1951 29.5156 19.17 29.4957C19.1519 29.4814 19.129 29.4714 19.101 29.4579C19.0564 29.4363 18.9968 29.4061 18.9304 29.3345C18.8941 29.2952 18.8595 29.2529 18.8258 29.2089C18.6312 28.9629 18.4772 28.5873 18.4599 28.2344C18.433 27.7741 18.5698 27.4289 18.6552 27.2164C18.7591 26.9609 18.9614 26.6934 19.1627 26.4823C19.3074 26.3285 19.4474 26.2018 19.5643 26.091C19.6781 25.9831 19.7834 25.8614 19.8866 25.7475C20.0115 25.6098 20.1316 25.4845 20.2577 25.4084C20.283 25.3933 20.3289 25.3914 20.3862 25.3896C20.4268 25.3882 20.4734 25.3864 20.5227 25.3801C20.663 25.267 20.8097 25.1555 20.9518 25.0519C20.9546 25.0451 20.9577 25.0379 20.9606 25.0309L21.0172 24.9031C21.0834 24.7696 21.1864 24.6276 21.3919 24.5509C21.4607 24.5255 21.517 24.5281 21.5676 24.5306C21.6172 24.533 21.6616 24.5353 21.7077 24.511C21.7601 24.4833 21.8063 24.43 21.858 24.3716C21.9304 24.2897 22.0127 24.198 22.1274 24.1588C22.1353 24.1561 22.144 24.1531 22.1528 24.1501C22.2359 24.1214 22.3598 24.0788 22.4984 24.0651C22.8225 23.8816 23.1501 23.7073 23.4801 23.5402C24.0308 23.2613 24.5856 23.0036 25.1495 22.756C25.4203 22.6375 25.7188 22.5821 25.9641 22.6122C26.2069 22.639 26.3801 22.7421 26.4615 22.8961C26.3964 22.7309 26.4404 22.5262 26.5813 22.3261C26.7289 22.1189 26.9751 21.9327 27.2544 21.8128C27.8204 21.5702 28.3941 21.344 28.9782 21.1397C29.6869 20.892 30.4122 20.6761 31.1551 20.5145C31.6746 20.4017 32.2033 20.3097 32.7416 20.2495C32.797 20.2433 32.8521 20.2375 32.9079 20.232C33.3553 20.1343 33.8185 20.0676 34.1539 20.0527ZM35.3708 21.5608C34.9546 21.4125 34.695 21.4795 34.5133 21.526C34.4466 21.5432 34.3877 21.5598 34.3274 21.5688C34.1292 21.5973 33.8507 21.5721 33.6282 21.5419C33.4559 21.5162 33.1082 21.5833 32.8534 21.6632C32.7554 21.6932 32.6227 21.7123 32.4635 21.738C32.3008 21.7642 32.1109 21.7979 31.9124 21.8556C31.4102 22.0029 31.1455 22.0924 30.9329 22.1628C30.8724 22.183 30.8161 22.2022 30.7601 22.2216C30.5825 22.2828 30.3608 22.3549 30.1371 22.4314C29.8697 22.5227 29.5993 22.6207 29.3979 22.7059C28.8513 22.8516 28.3048 23.0079 27.7656 23.1793C27.49 23.2666 27.1994 23.2929 26.9574 23.2454C26.7296 23.1989 26.557 23.0917 26.4797 22.9353C26.5442 23.0937 26.516 23.2885 26.3969 23.4908C26.2764 23.701 26.0647 23.9021 25.8218 24.0506C25.4211 24.2948 25.0251 24.5465 24.6339 24.8021C24.6145 24.8175 24.5947 24.8328 24.5751 24.8479C24.4302 24.9595 24.3091 25.0882 24.191 25.2167C24.1638 25.2463 24.1364 25.2765 24.1089 25.3061C23.8996 25.5294 23.403 25.7952 23.136 25.9479C23.1312 25.9507 23.1263 25.9538 23.1214 25.9566C23.0575 25.9929 22.9988 26.03 22.9312 26.0735C22.771 26.1781 22.5488 26.3173 22.0889 26.5905C21.9683 26.6834 21.8445 26.78 21.7273 26.8744C21.3632 27.1684 21.02 27.4738 20.7761 27.7654C20.7169 27.8349 20.6659 27.9051 20.6273 27.9643C20.6539 27.9664 20.6823 27.9684 20.7122 27.9687C20.972 27.9728 21.3025 27.9197 21.6366 27.8402C21.6555 27.8341 21.6749 27.8278 21.6946 27.8213C22.0786 27.6973 22.5691 27.4938 22.8862 27.3936C23.2933 27.2653 23.5754 27.1754 23.8091 27.1017C25.0947 26.5739 26.3654 25.9485 27.6313 25.2973C28.0308 25.0921 28.4212 24.888 28.8279 24.6802C29.2033 24.4898 29.5758 24.2999 29.9926 24.1283C30.1548 24.0519 30.3263 23.9733 30.5335 23.9185C30.5839 23.9021 30.6498 23.8815 30.7049 23.8618C30.9577 23.7729 31.1961 23.6751 31.3896 23.607C31.8675 23.4391 32.4172 23.2753 32.8265 23.1408C32.8935 23.1189 32.9561 23.0981 33.0139 23.0784C33.3258 22.9409 33.633 22.7958 33.9331 22.6427C33.9563 22.6398 33.9798 22.6374 34.0036 22.6347C34.3023 22.5984 34.6317 22.4448 35.0855 22.1678C35.2782 22.0477 35.5108 21.8917 35.6838 21.7271C35.6855 21.7254 35.6872 21.7236 35.6889 21.722C35.6691 21.711 35.6469 21.6997 35.6242 21.685C35.5401 21.6318 35.464 21.5941 35.3708 21.5608Z" fill="#FFD52F"/>
<path d="M19.1763 21.8659C24.2243 23.2962 28.8517 28.0006 30.5343 30.1741L36.9495 26.9139C33.2476 21.6976 27.6247 19.6223 25.276 19.2367L19.1763 21.8659Z" fill="#374151"/>
<path d="M29.6818 48.3353C27.9257 47.945 27.7306 46.2215 27.8525 45.4085L45.9936 35.4087L64.1933 36.1404C64.6811 37.7013 63.99 38.4981 63.5835 38.7013C64.6567 40.3598 63.3803 41.75 62.6079 42.2378C63.0957 44.5792 60.9413 45.4898 59.8031 45.6524C59.9982 47.7011 57.2828 48.4572 55.9008 48.5792C55.8032 48.9694 54.652 49.7987 53.9203 50.0426C53.1886 50.2865 51.6653 49.9733 51.6653 49.9733C51.6653 49.9733 50.7496 51.2608 49.774 51.6279C48.9824 51.9257 47.6082 51.6279 47.6082 51.6279C45.8522 53.384 43.9498 52.6848 43.2181 52.1157C41.1693 54.3595 39.0312 53.0506 38.2182 52.1157C35.0963 53.1888 33.6654 51.3433 33.3402 50.2865C30.9988 50.8718 29.9257 49.2296 29.6818 48.3353Z" fill="white"/>
<path d="M65.0176 37.3587C66.1883 36.6758 66.3997 34.0661 66.3591 32.8466L45.6278 31.3832L25.7501 40.2854C25.6688 41.4643 25.6525 44.1878 26.2379 45.6512C26.9696 47.4804 32.7012 52.6023 41.7254 44.4317C50.7496 36.2611 56.2193 37.498 57.5788 37.6026C59.1641 37.7245 63.5542 38.2123 65.0176 37.3587Z" fill="#D93A20"/>
<path d="M27.7013 35.5308C32.3354 29.0675 40.6279 26.2626 41.1157 25.8968C56.3593 20.0433 63.0665 28.5797 64.0421 29.3114C65.0177 30.0431 68.4323 33.4576 64.8957 33.9454C61.3592 34.4332 61.7251 31.8723 52.5789 33.9454C43.4327 36.0186 44.0425 39.5551 35.5061 44.6769C26.9697 49.7988 23.0673 41.994 27.7013 35.5308Z" fill="#F2472A"/>
<path d="M26.0625 43.2456C30.0646 41.103 35.2234 41.3813 37.5791 41.8735C32.9337 42.0165 29.1836 43.4788 26.9023 44.7612C26.5409 44.3251 26.2591 43.8137 26.0625 43.2456ZM26.9688 36.688C34.7799 33.3853 41.7671 35.1304 44.4082 36.5083C35.7136 35.1032 28.9368 37.678 25.8916 39.5698C26.0802 38.6287 26.4344 37.6528 26.9688 36.688ZM35.8057 28.52C43.471 28.0256 49.3725 30.9483 51.6035 32.7261C42.4237 29.6662 34.8155 30.7139 30.9033 32.02C32.5195 30.5843 34.2423 29.4264 35.8057 28.52ZM48.9814 23.9614C54.1384 25.2358 58.3084 28.6292 60.0176 30.5317C54.0934 26.7123 46.7368 25.6486 42.0283 25.562C44.5924 24.6531 46.9053 24.1577 48.9814 23.9614Z" fill="#FF7F6B"/>
</svg>
