<svg width="80" height="80" viewBox="0 0 80 80" fill="none" xmlns="http://www.w3.org/2000/svg">
<path d="M67.5926 43.6311C67.5926 51.3099 63.5601 69.0572 40.0492 69.0572C18.3062 69.0572 12.5059 52.0412 12.5059 43.6311C12.5059 35.8304 24.8375 31.3206 40.0492 31.3206C55.261 31.3206 67.5926 35.5866 67.5926 43.6311Z" fill="#1F2933"/>
<path d="M40.0005 30.7032C48.0185 30.7033 54.6344 32.0843 58.9458 34.2501C63.1698 36.3721 64.0542 38.5218 64.0542 40.2462C64.054 41.6487 63.254 43.8386 58.8862 46.0812C54.5461 48.3095 47.928 49.7882 40.0005 49.7882C31.8899 49.7882 25.2791 48.5064 20.9946 46.4015C16.9146 44.397 15.9459 42.2945 15.9458 40.2462C15.9458 38.7366 16.7741 36.5587 21.0942 34.3566C25.4247 32.1492 32.043 30.7032 40.0005 30.7032Z" stroke="#4B5563" stroke-width="15"/>
<path d="M40.0491 16.1212C51.9908 16.1213 61.8505 19.6656 63.3499 26.381L65.7053 31.7042C66.9231 33.5007 67.592 35.5569 67.592 37.8654C67.5919 47.3378 55.238 53.0519 39.9993 53.0519C24.7607 53.0518 12.4076 48.2399 12.4075 37.8654C12.4075 35.6205 13.0796 33.5965 14.304 31.8126L16.7834 26.2804C18.3972 19.8114 28.198 16.1212 40.0491 16.1212Z" fill="#1F2933"/>
<path d="M40 23.2993C46.4066 23.2993 51.5867 24.3261 54.8633 25.8511C58.1784 27.394 57.9951 28.5439 57.9951 28.5571C57.9952 28.6086 58.0188 28.7542 57.6982 29.144C57.3012 29.6268 56.4367 30.3711 54.8057 31.147C51.5042 32.7173 46.3226 33.8149 40 33.8149C33.5079 33.8149 28.3324 32.8582 25.0791 31.3774C21.9106 29.9352 22.0048 28.8274 22.0049 28.5571C22.0049 28.4466 22.0003 28.2845 22.3105 27.9058C22.6996 27.4309 23.5511 26.6951 25.1748 25.9282C28.4677 24.3731 33.6495 23.2993 40 23.2993Z" stroke="#4B5563" stroke-width="15"/>
<path d="M61.7935 27.8967C61.7935 33.9588 52.0582 37.6153 40.0491 37.6153C28.04 37.6153 18.3047 34.5361 18.3047 27.8967C18.3047 21.7383 28.04 18.178 40.0491 18.178C52.0582 18.178 61.7935 21.5458 61.7935 27.8967Z" fill="#1F2933"/>
<path d="M40.0492 20.8082C51.1814 20.8083 60.3581 23.7028 61.639 29.1842C60.359 34.4724 51.182 37.6148 40.0492 37.6149C28.8917 37.6149 19.6976 34.9572 18.4496 29.2555C19.6985 23.8814 28.8925 20.8082 40.0492 20.8082Z" fill="#FF5A3C"/>
<ellipse cx="40.4541" cy="29.1274" rx="16.7223" ry="4.4057" fill="#F2472A"/>
<path d="M45.9595 28.0656L39.8101 25.3495C39.4478 25.1895 39.2141 24.8307 39.2141 24.4347V24.2178C39.2141 23.8835 39.3812 23.5712 39.6594 23.3858L43.6554 20.7218C43.8585 20.5864 44.1042 20.5299 44.3461 20.5631L49.8358 21.3166C50.2855 21.3783 50.6372 21.7351 50.6924 22.1856L50.8754 23.6774C50.9139 23.9914 50.8016 24.3051 50.5725 24.5233L47.0532 27.875C46.7606 28.1537 46.3291 28.2289 45.9595 28.0656Z" fill="#FFD1C9"/>
<path d="M50.5239 31.5491L47.1024 27.5173C46.9491 27.3366 46.8649 27.1072 46.8649 26.8702V26.1385C46.8649 25.4476 47.5488 24.9649 48.1999 25.1963L51.3881 26.3298L57.8041 28.1915C58.3156 28.34 58.6211 28.8633 58.4987 29.3816L58.4902 29.4175C58.4062 29.7734 58.1348 30.055 57.7822 30.152L51.5517 31.8662C51.1766 31.9694 50.7757 31.8457 50.5239 31.5491Z" fill="#FFD1C9"/>
<path d="M54.9703 23.621L58.0562 27.3492C58.5283 27.9196 58.2385 28.7873 57.5184 28.9594L52.0009 30.2784C51.6209 30.3693 51.2229 30.2305 50.9817 29.9232L47.8528 25.9361C47.3903 25.3467 47.7163 24.4768 48.4522 24.3365L54.0127 23.2763C54.3708 23.2081 54.7378 23.3401 54.9703 23.621Z" fill="#FFEDEA"/>
<path d="M44.523 19.3709L49.2732 20.8339C49.9742 21.0498 50.2119 21.9218 49.7176 22.4636L46.6436 25.8329C46.3696 26.1332 45.941 26.2378 45.5595 26.0973L40.7133 24.3138C40.0203 24.0588 39.8333 23.1664 40.3655 22.6546L43.5355 19.6058C43.7975 19.3539 44.1756 19.2639 44.523 19.3709Z" fill="#FFEDEA"/>
<path d="M24.0389 24.8504L29.7467 21.2988C30.1526 20.7914 31.2688 20.7661 31.8269 20.9183C32.385 21.0705 32.2835 21.1466 33.3997 20.9183C34.5159 20.69 35.6068 20.8168 36.0888 21.2988C36.5707 21.7808 36.9005 21.8062 37.5855 21.8062C38.1334 21.8062 38.3381 22.3474 38.3719 22.618C39.5304 22.99 41.6089 24.1451 40.655 25.789C39.7012 27.4328 34.6766 31.4292 32.2835 33.2218C29.3408 31.7589 23.3489 28.549 22.9227 27.4125C22.4965 26.2761 23.4893 25.2309 24.0389 24.8504Z" fill="#FF7F6B"/>
<path d="M24.1208 25.8896C23.3614 26.0132 22.2223 27.1178 21.573 27.8478C21.4181 28.022 21.3187 28.2606 21.4281 28.4665C21.4384 28.4858 21.4489 28.5038 21.4595 28.5204C21.5054 28.5929 21.5738 28.643 21.648 28.6862C25.4173 30.8797 32.7087 34.7492 32.5697 33.1602C32.3942 31.1545 29.7868 27.8201 29.3606 27.8201C28.9344 27.8201 27.6056 26.1403 27.2546 25.8896C26.9036 25.6388 25.1988 25.7141 24.1208 25.8896Z" fill="#F2472A"/>
<path d="M22.3281 29.0349C22.9549 28.0993 24.9424 26.5619 27.2532 28.1751C29.564 29.7883 30.7665 32.2413 31.1571 33.2314" stroke="#FF5A3C" stroke-width="2" stroke-linecap="round"/>
<path d="M23.7321 29.9806C24.4445 29.0675 26.3873 28.2466 28.4585 32.2686" stroke="#FF5A3C" stroke-width="2" stroke-linecap="round"/>
<path opacity="0.6" d="M28.1048 26.133C28.2537 26.3225 32.4988 23.0533 34.6028 21.3949C35.2029 20.9238 33.2321 21.2088 31.6246 22.4441C30.017 23.6794 27.9187 25.8961 28.1048 26.133Z" fill="#FFAB9E"/>
<path d="M30.9788 28.4133C31.3806 28.4133 35.8019 25.0172 37.9623 23.3192C38.5363 22.4343 36.7904 22.6734 36.5513 23.0561C36.3121 23.4388 30.9788 27.0979 30.5962 27.4806C30.2135 27.8632 30.4766 28.4133 30.9788 28.4133Z" fill="#FF654E"/>
<path opacity="0.6" d="M37.2763 24.187C36.789 24.2411 36.182 24.5028 35.9395 24.6269C35.4093 24.8751 34.4876 25.2023 35.0427 24.5254C35.7364 23.6793 36.8533 23.5947 37.4963 23.6286C38.1393 23.6624 37.8855 24.1193 37.2763 24.187Z" fill="#FFAB9E"/>
<path opacity="0.6" d="M32.3692 25.7777C32.8294 25.5611 34.7636 25.6602 35.635 25.5577C36.5064 25.4552 38.2579 24.2717 38.3594 24.6101C38.461 24.9485 36.9042 26.133 35.635 26.2684C34.3659 26.4038 31.7938 26.0484 32.3692 25.7777Z" fill="#FFAB9E"/>
<path d="M52.1947 30.0733C52.1947 29.5982 51.8436 28.3384 51.8436 28.0286L47.5476 28.7515L37.8197 32.9235C37.8541 33.2746 37.956 34.0843 38.0882 34.5139C38.2534 35.0509 38.5426 35.4226 39.0383 35.6705C39.534 35.9183 41.1863 35.8564 43.8299 36.1868C46.4736 36.5173 46.8041 35.9596 47.8574 35.8564C48.9108 35.7531 51.6164 31.7669 51.7403 31.643C51.8643 31.5191 52.1947 30.5483 52.1947 30.0733Z" fill="#D93A20"/>
<path d="M42.9942 26.1441C43.3042 25.5956 43.1234 25.0411 42.9942 24.8325C42.9942 23.0141 49.731 26.1441 51.1618 27.1278C52.5926 28.1115 51.7282 28.6182 50.9531 30.1087C50.1781 31.5991 46.6607 35.355 45.4981 35.4743C44.3356 35.5935 38.7315 33.8944 38.0161 33.3578C37.3007 32.8213 38.5228 31.6587 39.3575 30.7347C40.1921 29.8106 41.5932 29.5125 42.3384 28.0519C43.0836 26.5912 42.6067 26.8297 42.9942 26.1441Z" fill="#FFAB9E"/>
<path d="M41.5273 29.0947C43.4206 29.4499 46.4856 30.5904 48.4258 33.248C48.0979 33.5835 47.7644 33.9047 47.4424 34.1943C47.015 33.1712 46.0537 31.7395 44.5449 31.7188C42.9021 31.6965 40.9782 30.7476 40.0908 30.1172C40.556 29.7963 41.0698 29.507 41.5273 29.0947ZM43.1279 25.8027C45.7273 25.9982 49.8482 26.8431 51.5303 29.124C51.3592 29.4031 51.1535 29.7231 50.9531 30.1084C50.8519 30.3031 50.703 30.536 50.5195 30.7949C49.2151 29.8278 46.5563 28.3967 42.5771 27.5469C42.9696 26.6384 42.6593 26.7372 42.9941 26.1445C43.0588 26.0301 43.1011 25.9145 43.1279 25.8027Z" fill="#FFD1C9"/>
<path d="M48.4628 35.5469C48.2307 35.7263 48.0236 35.8401 47.8573 35.8564C47.733 35.8686 47.6188 35.8875 47.5096 35.9102C47.4846 35.2172 47.453 34.3211 47.453 34.2178L48.4628 33.2666V35.5469ZM51.5409 31.9141C51.3385 32.1933 50.999 32.6553 50.6044 33.1699L50.5302 30.7559L51.5409 29.1533V31.9141Z" fill="#FF7F6B"/>
<path d="M33.791 29.6998C33.9958 29.1975 35.0866 28.9468 36.3386 29.1362C37.5908 29.3257 38.5594 29.8881 38.6063 30.4286L38.6198 30.4306L38.7704 29.4351L38.7627 29.434C38.7628 28.8813 37.7799 28.2947 36.4964 28.1003C35.2126 27.906 34.0994 28.1755 33.9359 28.7034L33.9281 28.7023L33.7775 29.6978L33.791 29.6998Z" fill="#16B77B"/>
<path d="M36.4589 28.3429C37.0972 28.4395 37.6449 28.6367 38.0126 28.8644C38.1966 28.9784 38.3229 29.0922 38.3965 29.1932C38.4691 29.2928 38.4786 29.3616 38.4722 29.4041C38.4657 29.4466 38.4361 29.5088 38.3376 29.5823C38.2374 29.657 38.0832 29.7292 37.8735 29.7837C37.4549 29.8923 36.8735 29.9177 36.2352 29.8211C35.5971 29.7245 35.0499 29.5283 34.6823 29.3007C34.498 29.1865 34.3713 29.0719 34.2977 28.9708C34.2255 28.8717 34.2164 28.8034 34.2228 28.761C34.2292 28.7185 34.2579 28.6553 34.3566 28.5817C34.4567 28.507 34.6117 28.4359 34.8214 28.3814C35.24 28.2728 35.8208 28.2463 36.4589 28.3429Z" stroke="#7EECC4" stroke-width="0.6"/>
<path d="M33.9236 28.8254C33.9706 29.3658 34.9392 29.9283 36.1912 30.1178C37.4431 30.3072 38.5339 30.0564 38.7388 29.5542L38.7523 29.5563L38.6017 30.5518L38.594 30.5506C38.4304 31.0784 37.318 31.348 36.0344 31.1538C34.7507 30.9595 33.7671 30.3727 33.7671 29.82L33.7594 29.8189L33.91 28.8234L33.9236 28.8254Z" fill="#25DC96"/>
<path d="M39.4039 29.2298C39.3891 28.7092 40.1958 28.0947 41.2964 27.814C42.3972 27.5334 43.4005 27.6864 43.6367 28.1506L43.649 28.1474L43.4091 27.2068L43.4016 27.2088C43.1992 26.7171 42.1752 26.5479 41.0469 26.8356C39.9189 27.1233 39.1017 27.7619 39.1594 28.2904L39.1518 28.2923L39.3916 29.2329L39.4039 29.2298Z" fill="#16B77B"/>
<path d="M41.1082 27.0752C41.6637 26.9335 42.1792 26.9133 42.558 26.9827C42.9649 27.0572 43.0989 27.2069 43.1213 27.2946C43.1434 27.3824 43.0969 27.5773 42.7758 27.8372C42.4765 28.0794 42.0143 28.3085 41.4587 28.4501C40.9032 28.5917 40.3877 28.612 40.0089 28.5426C39.6027 28.4682 39.4685 28.3194 39.4459 28.2317C39.4235 28.144 39.4695 27.9483 39.791 27.6881C40.0904 27.4459 40.5526 27.2168 41.1082 27.0752Z" stroke="#7EECC4" stroke-width="0.6"/>
<path d="M39.1935 28.404C39.4298 28.868 40.4322 29.0213 41.5328 28.7408C42.6335 28.4601 43.441 27.8454 43.4262 27.3248L43.4376 27.3219L43.6588 28.1896C43.6596 28.1923 43.6612 28.1952 43.6619 28.1979C43.6624 28.2003 43.6624 28.2034 43.6629 28.2057L43.6774 28.2625L43.6708 28.2642C43.7283 28.7927 42.9104 29.4316 41.7822 29.7192C40.6542 30.0067 39.6311 29.8373 39.4285 29.3458L39.421 29.3477L39.1812 28.4071L39.1935 28.404Z" fill="#25DC96"/>
<g opacity="0.4">
<path d="M38.4183 6.40586C37.9241 4.01254 39.8599 1.76665 40.8897 0.942871C40.6404 1.91841 40.3369 4.30522 41.1173 6.04818C41.8977 7.79113 42.9371 7.46862 43.4261 9.62514C43.9151 11.7817 41.9411 14.9364 40.8897 15.2507C41.0956 14.9906 41.4815 13.9695 41.3774 11.9664C41.2474 9.46255 39.0362 9.39751 38.4183 6.40586Z" fill="#ADD9FF"/>
<path d="M45.1704 8.35372C44.8465 6.78553 46.115 5.31394 46.7897 4.77417C46.6264 5.41338 46.4275 6.9773 46.9389 8.11935C47.4502 9.2614 48.1312 9.05008 48.4516 10.4631C48.7721 11.8761 47.4786 13.9432 46.7897 14.1492C46.9247 13.9787 47.1775 13.3097 47.1093 11.9972C47.0241 10.3566 45.5752 10.314 45.1704 8.35372Z" fill="#ADD9FF"/>
<path d="M33.7072 11.378C33.2938 9.25779 34.9129 7.26822 35.7742 6.53845C35.5657 7.40265 35.3118 9.51707 35.9645 11.0611C36.6173 12.6051 37.4865 12.3194 37.8955 14.2298C38.3045 16.1402 36.6535 18.9349 35.7742 19.2134C35.9464 18.983 36.2691 18.0784 36.1821 16.3039C36.0733 14.0858 34.224 14.0282 33.7072 11.378Z" fill="#ADD9FF"/>
</g>
</svg>
