<svg width="80" height="80" viewBox="0 0 80 80" fill="none" xmlns="http://www.w3.org/2000/svg">
<path d="M40 69.9632C55.2706 69.9632 67.65 62.7927 67.65 53.9475C67.65 45.1023 55.2706 37.9319 40 37.9319C24.7293 37.9319 12.35 45.1023 12.35 53.9475C12.35 62.7927 24.7293 69.9632 40 69.9632Z" fill="#D1D5DB"/>
<path d="M40 64.9792C61.8153 64.9792 79.5 54.7354 79.5 42.0991C79.5 29.4628 61.8153 19.219 40 19.219C18.1848 19.219 0.5 29.4628 0.5 42.0991C0.5 54.7354 18.1848 64.9792 40 64.9792Z" fill="#E5E7EB"/>
<path d="M40 58.1149C55.2707 58.1149 67.65 50.9443 67.65 42.0988C67.65 33.2534 55.2707 26.0828 40 26.0828C24.7293 26.0828 12.35 33.2534 12.35 42.0988C12.35 50.9443 24.7293 58.1149 40 58.1149Z" fill="#D1D5DB"/>
<path d="M65.561 20.6368C64.5932 20.3116 63.5368 20.2758 62.5034 20.4726C61.5988 19.9275 60.5912 19.5942 59.5669 19.5648C56.6071 19.4802 54.5801 22.2848 55.1193 25.3816C55.6021 28.156 58.0065 30.0756 60.6298 30.5075C63.2793 31.0785 66.2875 30.1174 67.7267 27.632C69.3018 24.9115 68.3683 21.5799 65.5614 20.6369L65.561 20.6368Z" fill="#FF5A3C"/>
<path d="M66.1238 20.8753L63.9652 20.7517L64.7515 22.6134L62.3997 21.0229L59.8276 21.7363L61.0242 20.2278L59.0033 19.5791C61.6346 19.4761 63.8872 19.8442 66.1238 20.8753Z" fill="#16B77B"/>
<path d="M62.4758 20.5954C62.1702 20.5409 61.9666 20.2487 62.021 19.9434L62.2353 18.7402C62.2897 18.4349 62.5816 18.2313 62.8873 18.2857C63.193 18.3402 63.3966 18.632 63.3422 18.9373L63.1278 20.1405C63.0735 20.4458 62.7815 20.6498 62.4758 20.5954Z" fill="#16B77B"/>
<path d="M41.1706 23.2564L41.0856 22.9274C40.2885 19.8342 42.2041 16.6938 45.3193 15.9875L50.974 14.7053C53.9625 14.0278 56.9484 15.8492 57.7134 18.8168C58.4785 21.7845 56.7452 24.8221 53.8011 25.6738L48.2311 27.2848C45.1628 28.1722 41.9677 26.3496 41.1706 23.2564Z" fill="#D98D4A"/>
<path d="M49.7051 14.9922C49.9271 16.2067 49.981 17.6098 49.9727 18.6025C49.9706 18.8163 49.6781 18.8682 49.5869 18.6748C48.6304 16.6406 47.5967 15.817 47.0312 15.5986L49.7051 14.9922Z" fill="#FFBB00"/>
<path d="M48.746 23.6211L48.1549 25" stroke="#B57237" stroke-linecap="round"/>
<path d="M44.3622 19.582L45.2981 20.8125" stroke="#B57237" stroke-linecap="round"/>
<path d="M54.4751 18.7266V20.1758" stroke="#B57237" stroke-linecap="round"/>
<path d="M17.3401 33.1211C23.2287 29.0088 33.1183 27.7848 39.4524 30.7852C41.3314 31.6752 42.9582 32.4558 44.4319 33.1211H68.4524V41.9199C68.575 42.5116 68.5824 43.135 68.4524 43.7852C67.4523 48.785 62.9523 49.7852 59.4524 49.7852C55.9524 49.7852 54.9524 49.2852 48.9524 50.2852C42.9524 51.2852 43.4524 52.7852 33.4524 53.7852C23.4525 54.7851 12.4525 51.285 12.4524 41.2852C12.4524 41.2304 12.4553 41.1756 12.4563 41.1211H12.4524V33.1211H17.3401Z" fill="#912416"/>
<path d="M39.4524 22.1212C47.0524 25.7212 50.5217 27.5383 56.4524 27.1212C62.3831 26.7042 69.4524 30.1212 68.4524 35.1212C67.4524 40.1212 62.9524 41.1212 59.4524 41.1212C55.9524 41.1212 54.9524 40.6212 48.9524 41.6212C42.9524 42.6212 43.4524 44.1212 33.4524 45.1212C23.4524 46.1212 12.4524 42.6213 12.4524 32.6213C12.4524 22.6213 29.9524 17.6212 39.4524 22.1212Z" fill="#B82F1A"/>
<path d="M47.1897 25.625C49.4427 26.4968 51.4405 27.0147 53.6848 27.1455L36.0042 44.8262C35.2366 44.928 34.3908 45.0273 33.4524 45.1211C31.5214 45.3142 29.5532 45.3376 27.634 45.1807L47.1897 25.625ZM35.4641 20.8506C36.889 21.1247 38.2362 21.545 39.4524 22.1211C40.1047 22.4301 40.7269 22.7254 41.3225 23.0078L20.6799 43.6504C18.773 42.9027 17.0793 41.888 15.7317 40.583L35.4641 20.8506ZM61.6497 27.665C63.7126 28.235 65.5821 29.2069 66.8538 30.4766L56.3098 41.0205C54.5951 40.9553 52.8039 40.9792 48.9524 41.6211C48.3783 41.7168 47.8637 41.8169 47.3938 41.9209L61.6497 27.665ZM12.7043 35.126C12.5402 34.341 12.4524 33.5066 12.4524 32.6211C12.4525 26.2825 19.4838 21.953 27.052 20.7783L12.7043 35.126Z" fill="#912416"/>
<path d="M44.7417 33.0398C42.9943 32.8715 41.7978 32.614 39.9524 32.1211M30.4524 27.1211C31.8993 28.4776 33.5268 29.57 35.2274 30.4445M39.9524 32.1211C39.3452 31.4776 38.9524 30.1211 39.4524 28.1211M39.9524 32.1211C39.3452 32.3109 36.7524 33.5211 35.9524 35.1211M39.9524 32.1211C38.107 31.6282 37.0367 31.3749 35.2274 30.4445M35.2274 30.4445C34.8024 29.67 34.4524 27.6211 34.9524 26.1211M35.2274 30.4445C34.4691 30.3367 32.2521 31.1545 31.3927 32.1211" stroke="#16B77B" stroke-width="2" stroke-linecap="round"/>
</svg>
