<svg preserveAspectRatio="none" width="100%" height="100%" overflow="visible" style="display: block;" viewBox="0 0 169.96 53.58" fill="none" xmlns="http://www.w3.org/2000/svg">
<g id="&#236;&#154;&#148;&#234;&#184;&#176;&#236;&#158;&#135;">
<path id="Vector" d="M133.48 31.44C130.96 31.44 128.62 31.14 126.46 30.54C124.34 29.94 122.5 29.02 120.94 27.78C119.38 26.5 118.16 24.9 117.28 22.98C116.4 21.02 115.96 18.7 115.96 16.02C115.96 13.34 116.4 11.04 117.28 9.12001C118.16 7.16001 119.38 5.56001 120.94 4.32C122.5 3.04 124.34 2.1 126.46 1.50001C128.62 0.900006 130.96 0.600006 133.48 0.600006C136 0.600006 138.32 0.900006 140.44 1.50001C142.6 2.1 144.46 3.04 146.02 4.32C147.58 5.56001 148.8 7.16001 149.68 9.12001C150.56 11.04 151 13.34 151 16.02C151 18.7 150.56 21.02 149.68 22.98C148.8 24.9 147.58 26.5 146.02 27.78C144.46 29.02 142.6 29.94 140.44 30.54C138.32 31.14 136 31.44 133.48 31.44ZM150.34 36.54C150.34 38.86 149.9 40.9 149.02 42.66C149.9 44.18 151.36 44.94 153.4 44.94C155.44 44.94 157.88 44.12 160.72 42.48C161.4 42.08 162.12 41.78 162.88 41.58C163.68 41.34 164.38 41.22 164.98 41.22C166.46 41.22 167.66 41.7 168.58 42.66C169.5 43.58 169.96 44.8 169.96 46.32C169.96 48.52 169.12 50.28 167.44 51.6C165.76 52.92 163.4 53.58 160.36 53.58C157.12 53.58 154.26 52.88 151.78 51.48C149.34 50.12 147.66 48.26 146.74 45.9C144.42 48.3 141.04 50.06 136.6 51.18C132.2 52.34 126.82 52.92 120.46 52.92C119.82 52.92 119.38 52.8 119.14 52.56C118.9 52.32 118.74 52 118.66 51.6L118.36 50.34C118.28 49.94 118.32 49.6 118.48 49.32C118.68 49.08 119.08 48.92 119.68 48.84C126.16 48.24 130.9 46.96 133.9 45C136.9 43.04 138.4 40.22 138.4 36.54V35.16C138.4 34.28 138.56 33.7 138.88 33.42C139.2 33.14 139.84 33 140.8 33H147.94C148.9 33 149.54 33.14 149.86 33.42C150.18 33.7 150.34 34.28 150.34 35.16V36.54ZM168.52 30.78C168.52 31.98 168.28 32.84 167.8 33.36C167.32 33.88 166.44 34.14 165.16 34.14H159.64C158.36 34.14 157.48 33.88 157 33.36C156.52 32.84 156.28 31.98 156.28 30.78V3.96001C156.28 2.76001 156.52 1.90001 157 1.38001C157.48 0.860006 158.36 0.600006 159.64 0.600006H165.16C166.44 0.600006 167.32 0.860006 167.8 1.38001C168.28 1.90001 168.52 2.76001 168.52 3.96001V30.78ZM133.48 4.80001C132.56 4.80001 131.76 5.00001 131.08 5.40001C130.4 5.76001 129.82 6.38001 129.34 7.26001C128.9 8.14001 128.56 9.30001 128.32 10.74C128.08 12.18 127.96 13.94 127.96 16.02C127.96 18.14 128.08 19.92 128.32 21.36C128.56 22.76 128.9 23.9 129.34 24.78C129.82 25.66 130.4 26.3 131.08 26.7C131.76 27.06 132.56 27.24 133.48 27.24C134.36 27.24 135.14 27.06 135.82 26.7C136.54 26.3 137.12 25.66 137.56 24.78C138.04 23.9 138.4 22.76 138.64 21.36C138.88 19.92 139 18.14 139 16.02C139 13.94 138.88 12.18 138.64 10.74C138.4 9.30001 138.04 8.14001 137.56 7.26001C137.12 6.38001 136.54 5.76001 135.82 5.40001C135.14 5.00001 134.36 4.80001 133.48 4.80001Z" fill="var(--fill-0, white)"/>
<path id="Vector_2" d="M108.508 49.68C108.508 50.88 108.268 51.74 107.788 52.26C107.308 52.78 106.428 53.04 105.148 53.04H99.6281C98.3481 53.04 97.4681 52.78 96.9881 52.26C96.5081 51.74 96.2681 50.88 96.2681 49.68V3.96001C96.2681 2.76001 96.5081 1.90001 96.9881 1.38001C97.4681 0.860006 98.3481 0.600006 99.6281 0.600006H105.148C106.428 0.600006 107.308 0.860006 107.788 1.38001C108.268 1.90001 108.508 2.76001 108.508 3.96001V49.68ZM61.5881 5.40001C61.0281 5.40001 60.6481 5.3 60.4481 5.10001C60.2881 4.90001 60.2081 4.58001 60.2081 4.14001V2.46001C60.2081 2.02001 60.2881 1.70001 60.4481 1.50001C60.6481 1.30001 61.0281 1.20001 61.5881 1.20001H87.1481C88.4681 1.20001 89.3481 1.48001 89.7881 2.04001C90.2281 2.56001 90.4481 3.40001 90.4481 4.56001V13.74C90.4481 19.46 89.7281 24.48 88.2881 28.8C86.8481 33.12 84.8281 36.84 82.2281 39.96C79.6281 43.04 76.5081 45.58 72.8681 47.58C69.2281 49.62 65.1881 51.2 60.7481 52.32C59.8681 52.56 59.2681 52.32 58.9481 51.6L58.4681 50.52C58.1081 49.76 58.4081 49.14 59.3681 48.66C62.1281 47.34 64.6681 45.78 66.9881 43.98C69.3081 42.18 71.3081 39.94 72.9881 37.26C74.7081 34.58 76.0481 31.38 77.0081 27.66C77.9681 23.9 78.4481 19.44 78.4481 14.28V7.26001C78.4481 6.54001 78.3081 6.06001 78.0281 5.82001C77.7881 5.54001 77.3281 5.40001 76.6481 5.40001H61.5881Z" fill="var(--fill-0, white)"/>
<path id="Vector_3" d="M27 33.24C19.12 33.24 13.14 31.9 9.06 29.22C4.98 26.54 2.94 22.34 2.94 16.62C2.94 10.9 4.98 6.7 9.06 4.02C13.14 1.34 19.12 0 27 0C34.84 0 40.8 1.34 44.88 4.02C49 6.7 51.06 10.9 51.06 16.62C51.06 22.34 49 26.54 44.88 29.22C40.8 31.9 34.84 33.24 27 33.24ZM27 4.2C25.12 4.2 23.44 4.42 21.96 4.86C20.48 5.3 19.24 6.02 18.24 7.02C17.24 7.98 16.48 9.26 15.96 10.86C15.44 12.42 15.18 14.34 15.18 16.62C15.18 18.9 15.44 20.84 15.96 22.44C16.48 24 17.24 25.28 18.24 26.28C19.24 27.24 20.48 27.94 21.96 28.38C23.44 28.82 25.12 29.04 27 29.04C28.88 29.04 30.56 28.82 32.04 28.38C33.52 27.94 34.76 27.24 35.76 26.28C36.76 25.28 37.52 24 38.04 22.44C38.56 20.84 38.82 18.9 38.82 16.62C38.82 14.34 38.56 12.42 38.04 10.86C37.52 9.26 36.76 7.98 35.76 7.02C34.76 6.02 33.52 5.3 32.04 4.86C30.56 4.42 28.88 4.2 27 4.2ZM52.8 47.04C53.32 47.04 53.68 47.12 53.88 47.28C54.08 47.48 54.18 47.82 54.18 48.3V49.98C54.18 50.46 54.08 50.78 53.88 50.94C53.68 51.14 53.32 51.24 52.8 51.24H1.38C0.86 51.24 0.5 51.14 0.3 50.94C0.1 50.78 0 50.46 0 49.98V48.3C0 47.82 0.1 47.48 0.3 47.28C0.5 47.12 0.86 47.04 1.38 47.04H9.18V40.32C9.18 39.08 9.42 38.22 9.9 37.74C10.38 37.22 11.24 36.96 12.48 36.96H18.12C19.36 36.96 20.22 37.22 20.7 37.74C21.18 38.22 21.42 39.08 21.42 40.32V47.04H32.82V40.32C32.82 39.08 33.06 38.22 33.54 37.74C34.02 37.22 34.88 36.96 36.12 36.96H41.76C43 36.96 43.86 37.22 44.34 37.74C44.82 38.22 45.06 39.08 45.06 40.32V47.04H52.8Z" fill="var(--fill-0, white)"/>
</g>
</svg>
