<svg preserveAspectRatio="none" width="100%" height="100%" overflow="visible" style="display: block;" viewBox="0 0 246.038 16.326" fill="none" xmlns="http://www.w3.org/2000/svg">
<g id="&#235;&#139;&#164;&#236;&#157;&#184;&#236;&#155;&#144;&#236;&#157;&#132; &#236;&#156;&#132;&#237;&#149;&#156; &#235;&#167;&#155;&#236;&#167;&#145; &#236;&#182;&#148;&#236;&#178;&#156; &#236;&#132;&#156;&#235;&#185;&#132;&#236;&#138;&#164;">
<path id="Vector" d="M239.684 2.592C239.684 3.564 239.588 4.416 239.396 5.148C239.432 5.712 239.534 6.192 239.702 6.588C239.87 6.984 240.098 7.284 240.386 7.488C240.674 7.692 241.004 7.794 241.376 7.794C241.76 7.794 242.174 7.68 242.618 7.452C242.798 7.356 242.978 7.29 243.158 7.254C243.338 7.206 243.536 7.182 243.752 7.182C243.968 7.182 244.172 7.218 244.364 7.29C244.568 7.362 244.748 7.476 244.904 7.632C245.072 7.776 245.204 7.962 245.3 8.19C245.396 8.406 245.444 8.664 245.444 8.964C245.444 9.612 245.204 10.11 244.724 10.458C244.244 10.794 243.62 10.962 242.852 10.962C241.688 10.962 240.722 10.638 239.954 9.99C239.186 9.342 238.718 8.394 238.55 7.146C237.878 8.19 236.924 8.994 235.688 9.558C234.452 10.122 232.946 10.53 231.17 10.782C230.966 10.806 230.828 10.8 230.756 10.764C230.684 10.716 230.636 10.638 230.612 10.53L230.522 10.152C230.498 10.032 230.504 9.942 230.54 9.882C230.588 9.822 230.696 9.768 230.864 9.72C231.68 9.504 232.412 9.198 233.06 8.802C233.708 8.394 234.254 7.896 234.698 7.308C235.154 6.708 235.496 6.018 235.724 5.238C235.964 4.458 236.084 3.576 236.084 2.592V1.44C236.084 1.068 236.156 0.810001 236.3 0.666001C236.444 0.510001 236.702 0.432001 237.074 0.432001H238.694C239.066 0.432001 239.324 0.504001 239.468 0.648C239.612 0.792001 239.684 1.056 239.684 1.44V2.592ZM245.624 14.004C245.78 14.004 245.888 14.028 245.948 14.076C246.008 14.136 246.038 14.238 246.038 14.382V14.886C246.038 15.03 246.008 15.126 245.948 15.174C245.888 15.234 245.78 15.264 245.624 15.264H230.198C230.042 15.264 229.934 15.234 229.874 15.174C229.814 15.126 229.784 15.03 229.784 14.886V14.382C229.784 14.238 229.814 14.136 229.874 14.076C229.934 14.028 230.042 14.004 230.198 14.004H245.624Z" fill="var(--fill-0, white)"/>
<path id="Vector_2" d="M215.96 6.768H218.948V1.44C218.948 1.08 219.02 0.822001 219.164 0.666001C219.308 0.510001 219.572 0.432001 219.956 0.432001H221.612C221.996 0.432001 222.26 0.510001 222.404 0.666001C222.548 0.822001 222.62 1.08 222.62 1.44V14.976C222.62 15.336 222.548 15.594 222.404 15.75C222.26 15.906 221.996 15.984 221.612 15.984H219.956C219.572 15.984 219.308 15.906 219.164 15.75C219.02 15.594 218.948 15.336 218.948 14.976V14.634C218.336 15.03 217.664 15.354 216.932 15.606C216.212 15.858 215.51 15.984 214.826 15.984C214.478 15.984 214.148 15.942 213.836 15.858C213.536 15.786 213.272 15.66 213.044 15.48C212.816 15.3 212.63 15.066 212.486 14.778C212.354 14.502 212.288 14.16 212.288 13.752V1.44C212.288 1.08 212.36 0.822001 212.504 0.666001C212.648 0.510001 212.912 0.432001 213.296 0.432001H214.952C215.336 0.432001 215.6 0.510001 215.744 0.666001C215.888 0.822001 215.96 1.08 215.96 1.44V6.768ZM227.858 15.156C227.858 15.516 227.786 15.774 227.642 15.93C227.498 16.086 227.234 16.164 226.85 16.164H225.194C224.81 16.164 224.546 16.086 224.402 15.93C224.258 15.774 224.186 15.516 224.186 15.156V1.44C224.186 1.08 224.258 0.822001 224.402 0.666001C224.546 0.510001 224.81 0.432001 225.194 0.432001H226.85C227.234 0.432001 227.498 0.510001 227.642 0.666001C227.786 0.822001 227.858 1.08 227.858 1.44V15.156ZM216.788 13.968C217.112 13.968 217.46 13.902 217.832 13.77C218.216 13.638 218.588 13.464 218.948 13.248V8.028H215.96V13.23C215.96 13.506 216.02 13.698 216.14 13.806C216.26 13.914 216.476 13.968 216.788 13.968Z" fill="var(--fill-0, white)"/>
<path id="Vector_3" d="M197.888 1.44C197.888 1.08 197.96 0.822001 198.104 0.666001C198.248 0.510001 198.512 0.432001 198.896 0.432001H200.48C200.864 0.432001 201.128 0.510001 201.272 0.666001C201.416 0.822001 201.488 1.08 201.488 1.44V7.038C201.488 9.066 201.23 10.704 200.714 11.952C200.846 12.408 201.062 12.726 201.362 12.906C201.674 13.074 202.046 13.092 202.478 12.96C202.718 12.876 202.922 12.816 203.09 12.78C203.258 12.732 203.45 12.708 203.666 12.708C204.17 12.708 204.566 12.858 204.854 13.158C205.142 13.446 205.286 13.842 205.286 14.346C205.286 14.778 205.118 15.156 204.782 15.48C204.458 15.804 203.954 15.966 203.27 15.966C202.874 15.966 202.496 15.894 202.136 15.75C201.776 15.618 201.452 15.432 201.164 15.192C200.876 14.964 200.624 14.688 200.408 14.364C200.192 14.052 200.03 13.716 199.922 13.356C199.382 14.064 198.698 14.622 197.87 15.03C197.054 15.438 196.064 15.744 194.9 15.948C194.624 16.008 194.444 15.936 194.36 15.732L194.234 15.408C194.138 15.168 194.228 14.982 194.504 14.85C195.152 14.55 195.692 14.208 196.124 13.824C196.556 13.428 196.898 12.936 197.15 12.348C197.414 11.76 197.6 11.04 197.708 10.188C197.828 9.324 197.888 8.274 197.888 7.038V1.44ZM210.128 15.156C210.128 15.516 210.056 15.774 209.912 15.93C209.768 16.086 209.504 16.164 209.12 16.164H207.464C207.08 16.164 206.816 16.086 206.672 15.93C206.528 15.774 206.456 15.516 206.456 15.156V8.478H202.946C202.778 8.478 202.664 8.448 202.604 8.388C202.556 8.328 202.532 8.232 202.532 8.1V7.596C202.532 7.464 202.556 7.368 202.604 7.308C202.664 7.248 202.778 7.218 202.946 7.218H206.456V1.44C206.456 1.08 206.528 0.822001 206.672 0.666001C206.816 0.510001 207.08 0.432001 207.464 0.432001H209.12C209.504 0.432001 209.768 0.510001 209.912 0.666001C210.056 0.822001 210.128 1.08 210.128 1.44V15.156Z" fill="var(--fill-0, white)"/>
<path id="Vector_4" d="M175.541 1.512V1.098C175.541 0.738 175.613 0.48 175.757 0.324C175.901 0.168 176.165 0.0900002 176.549 0.0900002H178.205C178.589 0.0900002 178.853 0.168 178.997 0.324C179.141 0.48 179.213 0.738 179.213 1.098V1.512H182.057C182.213 1.512 182.321 1.542 182.381 1.602C182.441 1.65 182.471 1.746 182.471 1.89V2.394C182.471 2.538 182.441 2.64 182.381 2.7C182.321 2.748 182.213 2.772 182.057 2.772H179.177V3.24C179.177 4.344 178.955 5.352 178.511 6.264C178.691 6.6 178.925 6.828 179.213 6.948C179.513 7.068 179.831 7.074 180.167 6.966C180.407 6.882 180.611 6.822 180.779 6.786C180.947 6.738 181.139 6.714 181.355 6.714C181.823 6.714 182.207 6.846 182.507 7.11C182.819 7.374 182.975 7.758 182.975 8.262C182.975 8.694 182.807 9.06 182.471 9.36C182.147 9.648 181.643 9.792 180.959 9.792C180.575 9.792 180.209 9.738 179.861 9.63C179.525 9.51 179.213 9.354 178.925 9.162C178.637 8.958 178.379 8.718 178.151 8.442C177.923 8.166 177.743 7.866 177.611 7.542C177.047 8.154 176.345 8.646 175.505 9.018C174.677 9.39 173.711 9.642 172.607 9.774C172.331 9.81 172.151 9.738 172.067 9.558L171.923 9.234C171.815 8.994 171.905 8.808 172.193 8.676C173.345 8.184 174.197 7.512 174.749 6.66C175.301 5.796 175.577 4.668 175.577 3.276V2.772H172.697C172.541 2.772 172.433 2.748 172.373 2.7C172.313 2.64 172.283 2.538 172.283 2.394V1.89C172.283 1.746 172.313 1.65 172.373 1.602C172.433 1.542 172.541 1.512 172.697 1.512H175.541ZM187.817 10.278C187.817 10.638 187.745 10.896 187.601 11.052C187.457 11.208 187.193 11.286 186.809 11.286H185.153C184.769 11.286 184.505 11.208 184.361 11.052C184.217 10.896 184.145 10.638 184.145 10.278V5.58H181.625C181.457 5.58 181.343 5.55 181.283 5.49C181.235 5.43 181.211 5.334 181.211 5.202V4.698C181.211 4.566 181.235 4.47 181.283 4.41C181.343 4.35 181.457 4.32 181.625 4.32H184.145V1.44C184.145 1.08 184.217 0.822001 184.361 0.666C184.505 0.51 184.769 0.432 185.153 0.432H186.809C187.193 0.432 187.457 0.51 187.601 0.666C187.745 0.822001 187.817 1.08 187.817 1.44V10.278ZM176.837 14.238C176.837 14.514 176.897 14.688 177.017 14.76C177.137 14.844 177.317 14.886 177.557 14.886H187.403C187.571 14.886 187.679 14.916 187.727 14.976C187.787 15.036 187.817 15.132 187.817 15.264V15.768C187.817 15.9 187.787 15.996 187.727 16.056C187.679 16.116 187.571 16.146 187.403 16.146H175.433C174.581 16.146 173.987 15.978 173.651 15.642C173.327 15.318 173.165 14.778 173.165 14.022V11.844C173.165 11.484 173.237 11.226 173.381 11.07C173.525 10.914 173.789 10.836 174.173 10.836H175.829C176.213 10.836 176.477 10.914 176.621 11.07C176.765 11.226 176.837 11.484 176.837 11.844V14.238Z" fill="var(--fill-0, white)"/>
<path id="Vector_5" d="M169.394 1.278C169.562 1.278 169.67 1.308 169.718 1.368C169.778 1.428 169.808 1.524 169.808 1.656V2.16C169.808 2.292 169.778 2.388 169.718 2.448C169.67 2.508 169.562 2.538 169.394 2.538H164.642C164.582 3.486 164.414 4.302 164.138 4.986C164.222 5.31 164.354 5.598 164.534 5.85C164.714 6.102 164.936 6.294 165.2 6.426C165.476 6.546 165.794 6.588 166.154 6.552C166.526 6.516 166.946 6.36 167.414 6.084C167.618 5.964 167.834 5.874 168.062 5.814C168.302 5.742 168.512 5.706 168.692 5.706C169.136 5.706 169.496 5.844 169.772 6.12C170.048 6.384 170.186 6.708 170.186 7.092C170.186 7.752 169.94 8.256 169.448 8.604C168.968 8.952 168.314 9.126 167.486 9.126C166.982 9.126 166.508 9.054 166.064 8.91C165.62 8.754 165.224 8.55 164.876 8.298C164.54 8.034 164.252 7.722 164.012 7.362C163.772 7.002 163.598 6.606 163.49 6.174C162.794 7.134 161.822 7.836 160.574 8.28C159.326 8.712 157.82 8.928 156.056 8.928C155.864 8.928 155.732 8.892 155.66 8.82C155.588 8.748 155.54 8.652 155.516 8.532L155.426 8.154C155.402 8.034 155.414 7.938 155.462 7.866C155.522 7.782 155.642 7.728 155.822 7.704C157.574 7.536 158.864 7.038 159.692 6.21C160.532 5.37 160.988 4.146 161.06 2.538H156.164C155.996 2.538 155.882 2.508 155.822 2.448C155.774 2.388 155.75 2.292 155.75 2.16V1.656C155.75 1.524 155.774 1.428 155.822 1.368C155.882 1.308 155.996 1.278 156.164 1.278H161.024V1.098C161.024 0.738 161.096 0.48 161.24 0.324C161.384 0.168 161.648 0.0900002 162.032 0.0900002H163.688C164.072 0.0900002 164.336 0.168 164.48 0.324C164.624 0.48 164.696 0.738 164.696 1.098V1.278H169.394ZM170.474 10.656C170.63 10.656 170.738 10.686 170.798 10.746C170.858 10.794 170.888 10.89 170.888 11.034V11.538C170.888 11.682 170.858 11.784 170.798 11.844C170.738 11.892 170.63 11.916 170.474 11.916H164.606V15.156C164.606 15.528 164.534 15.786 164.39 15.93C164.246 16.086 163.988 16.164 163.616 16.164H161.924C161.552 16.164 161.294 16.086 161.15 15.93C161.006 15.786 160.934 15.528 160.934 15.156V11.916H155.048C154.892 11.916 154.784 11.892 154.724 11.844C154.664 11.784 154.634 11.682 154.634 11.538V11.034C154.634 10.89 154.664 10.794 154.724 10.746C154.784 10.686 154.892 10.656 155.048 10.656H170.474Z" fill="var(--fill-0, white)"/>
<path id="Vector_6" d="M137.147 11.682H144.455V10.656C144.455 10.296 144.527 10.038 144.671 9.882C144.815 9.726 145.079 9.648 145.463 9.648H147.119C147.503 9.648 147.767 9.726 147.911 9.882C148.055 10.038 148.127 10.296 148.127 10.656V14.022C148.127 14.778 147.959 15.318 147.623 15.642C147.299 15.978 146.711 16.146 145.859 16.146H135.743C134.891 16.146 134.297 15.978 133.961 15.642C133.637 15.318 133.475 14.778 133.475 14.022V10.656C133.475 10.296 133.547 10.038 133.691 9.882C133.835 9.726 134.099 9.648 134.483 9.648H136.139C136.523 9.648 136.787 9.726 136.931 9.882C137.075 10.038 137.147 10.296 137.147 10.656V11.682ZM142.367 0.612001C142.523 0.612001 142.631 0.642001 142.691 0.702001C142.751 0.750001 142.781 0.846001 142.781 0.990001V1.494C142.781 1.638 142.751 1.74 142.691 1.8C142.631 1.848 142.523 1.872 142.367 1.872H139.487V2.52C139.487 3.528 139.271 4.434 138.839 5.238C139.031 5.55 139.271 5.76 139.559 5.868C139.847 5.976 140.153 5.982 140.477 5.886C140.717 5.802 140.921 5.742 141.089 5.706C141.257 5.658 141.449 5.634 141.665 5.634C142.133 5.634 142.517 5.766 142.817 6.03C143.129 6.294 143.285 6.678 143.285 7.182C143.285 7.614 143.117 7.98 142.781 8.28C142.457 8.568 141.953 8.712 141.269 8.712C140.885 8.712 140.519 8.658 140.171 8.55C139.835 8.442 139.523 8.292 139.235 8.1C138.947 7.896 138.689 7.662 138.461 7.398C138.245 7.122 138.071 6.822 137.939 6.498C137.375 7.086 136.673 7.566 135.833 7.938C135.005 8.31 134.033 8.562 132.917 8.694C132.641 8.73 132.461 8.658 132.377 8.478L132.233 8.154C132.125 7.914 132.215 7.728 132.503 7.596C133.643 7.116 134.489 6.48 135.041 5.688C135.605 4.896 135.887 3.852 135.887 2.556V1.872H133.007C132.851 1.872 132.743 1.848 132.683 1.8C132.623 1.74 132.593 1.638 132.593 1.494V0.990001C132.593 0.846001 132.623 0.750001 132.683 0.702001C132.743 0.642001 132.851 0.612001 133.007 0.612001H142.367ZM148.127 7.866C148.127 8.226 148.055 8.484 147.911 8.64C147.767 8.796 147.503 8.874 147.119 8.874H145.463C145.079 8.874 144.815 8.796 144.671 8.64C144.527 8.484 144.455 8.226 144.455 7.866V1.44C144.455 1.08 144.527 0.822001 144.671 0.666001C144.815 0.510001 145.079 0.432001 145.463 0.432001H147.119C147.503 0.432001 147.767 0.510001 147.911 0.666001C148.055 0.822001 148.127 1.08 148.127 1.44V7.866ZM143.735 14.886C143.975 14.886 144.155 14.844 144.275 14.76C144.395 14.688 144.455 14.514 144.455 14.238V12.942H137.147V14.238C137.147 14.514 137.207 14.688 137.327 14.76C137.447 14.844 137.627 14.886 137.867 14.886H143.735Z" fill="var(--fill-0, white)"/>
<path id="Vector_7" d="M122.207 9.234C121.823 9.234 121.559 9.156 121.415 9C121.271 8.844 121.199 8.586 121.199 8.226V7.956C120.587 8.34 119.927 8.652 119.219 8.892C118.523 9.12 117.845 9.234 117.185 9.234C116.837 9.234 116.507 9.198 116.195 9.126C115.895 9.042 115.631 8.91 115.403 8.73C115.175 8.55 114.989 8.322 114.845 8.046C114.713 7.758 114.647 7.41 114.647 7.002V1.62C114.647 1.26 114.719 1.002 114.863 0.846001C115.007 0.690001 115.271 0.612001 115.655 0.612001H123.791C124.175 0.612001 124.439 0.690001 124.583 0.846001C124.727 1.002 124.799 1.26 124.799 1.62V8.226C124.799 8.586 124.727 8.844 124.583 9C124.439 9.156 124.175 9.234 123.791 9.234H122.207ZM124.313 11.214C124.313 11.826 124.193 12.39 123.953 12.906C124.169 13.446 124.565 13.728 125.141 13.752C125.717 13.764 126.389 13.512 127.157 12.996C127.349 12.864 127.565 12.768 127.805 12.708C128.045 12.648 128.255 12.618 128.435 12.618C128.879 12.618 129.239 12.762 129.515 13.05C129.791 13.326 129.929 13.692 129.929 14.148C129.929 14.808 129.677 15.336 129.173 15.732C128.669 16.128 127.961 16.326 127.049 16.326C126.593 16.326 126.161 16.266 125.753 16.146C125.357 16.038 124.991 15.876 124.655 15.66C124.331 15.456 124.049 15.204 123.809 14.904C123.569 14.604 123.389 14.268 123.269 13.896C122.909 14.28 122.465 14.61 121.937 14.886C121.421 15.174 120.833 15.408 120.173 15.588C119.525 15.768 118.817 15.9 118.049 15.984C117.281 16.08 116.471 16.128 115.619 16.128C115.427 16.128 115.295 16.092 115.223 16.02C115.151 15.948 115.103 15.852 115.079 15.732L114.989 15.354C114.965 15.234 114.977 15.132 115.025 15.048C115.085 14.976 115.205 14.928 115.385 14.904C117.053 14.724 118.361 14.328 119.309 13.716C120.257 13.104 120.731 12.27 120.731 11.214V10.8C120.731 10.536 120.779 10.362 120.875 10.278C120.971 10.194 121.163 10.152 121.451 10.152H123.593C123.881 10.152 124.073 10.194 124.169 10.278C124.265 10.362 124.313 10.536 124.313 10.8V11.214ZM131.351 4.446C131.519 4.446 131.627 4.476 131.675 4.536C131.735 4.596 131.765 4.692 131.765 4.824V5.328C131.765 5.46 131.735 5.556 131.675 5.616C131.627 5.676 131.519 5.706 131.351 5.706H129.497V9.126C129.497 9.486 129.425 9.744 129.281 9.9C129.137 10.056 128.873 10.134 128.489 10.134H126.833C126.449 10.134 126.185 10.056 126.041 9.9C125.897 9.744 125.825 9.486 125.825 9.126V1.44C125.825 1.08 125.897 0.822001 126.041 0.666001C126.185 0.510001 126.449 0.432001 126.833 0.432001H128.489C128.873 0.432001 129.137 0.510001 129.281 0.666001C129.425 0.822001 129.497 1.08 129.497 1.44V4.446H131.351ZM118.805 1.872C118.589 1.872 118.439 1.908 118.355 1.98C118.283 2.052 118.247 2.202 118.247 2.43V6.48C118.247 6.756 118.307 6.948 118.427 7.056C118.547 7.164 118.763 7.218 119.075 7.218C119.387 7.218 119.729 7.158 120.101 7.038C120.473 6.918 120.839 6.756 121.199 6.552V2.43C121.199 2.202 121.163 2.052 121.091 1.98C121.019 1.908 120.863 1.872 120.623 1.872H118.805Z" fill="var(--fill-0, white)"/>
<path id="Vector_8" d="M97.3031 10.314C96.4991 10.314 95.7791 10.248 95.1431 10.116C94.5071 9.984 93.9671 9.78 93.5231 9.504C93.0791 9.216 92.7371 8.85 92.4971 8.406C92.2571 7.962 92.1371 7.434 92.1371 6.822C92.1371 6.21 92.2571 5.682 92.4971 5.238C92.7371 4.794 93.0791 4.434 93.5231 4.158C93.9671 3.87 94.5071 3.66 95.1431 3.528C95.7791 3.396 96.4991 3.33 97.3031 3.33C98.1071 3.33 98.8271 3.396 99.4631 3.528C100.099 3.66 100.639 3.87 101.083 4.158C101.527 4.434 101.869 4.794 102.109 5.238C102.349 5.682 102.469 6.21 102.469 6.822C102.469 7.434 102.349 7.962 102.109 8.406C101.869 8.85 101.527 9.216 101.083 9.504C100.639 9.78 100.099 9.984 99.4631 10.116C98.8271 10.248 98.1071 10.314 97.3031 10.314ZM107.185 5.472H109.039C109.207 5.472 109.315 5.502 109.363 5.562C109.423 5.622 109.453 5.718 109.453 5.85V6.354C109.453 6.486 109.423 6.582 109.363 6.642C109.315 6.702 109.207 6.732 109.039 6.732H107.185V10.638C107.185 10.998 107.113 11.256 106.969 11.412C106.825 11.568 106.561 11.646 106.177 11.646H104.521C104.137 11.646 103.873 11.568 103.729 11.412C103.585 11.256 103.513 10.998 103.513 10.638V1.44C103.513 1.08 103.585 0.822 103.729 0.666C103.873 0.51 104.137 0.432 104.521 0.432H106.177C106.561 0.432 106.825 0.51 106.969 0.666C107.113 0.822 107.185 1.08 107.185 1.44V5.472ZM96.7451 14.238C96.7451 14.514 96.8051 14.688 96.9251 14.76C97.0451 14.844 97.2251 14.886 97.4651 14.886H106.771C106.939 14.886 107.047 14.916 107.095 14.976C107.155 15.036 107.185 15.132 107.185 15.264V15.768C107.185 15.9 107.155 15.996 107.095 16.056C107.047 16.116 106.939 16.146 106.771 16.146H95.3411C94.4891 16.146 93.8951 15.978 93.5591 15.642C93.2351 15.318 93.0731 14.778 93.0731 14.022V12.204C93.0731 11.844 93.1451 11.586 93.2891 11.43C93.4331 11.274 93.6971 11.196 94.0811 11.196H95.7371C96.1211 11.196 96.3851 11.274 96.5291 11.43C96.6731 11.586 96.7451 11.844 96.7451 12.204V14.238ZM102.595 1.332C102.751 1.332 102.859 1.362 102.919 1.422C102.979 1.47 103.009 1.566 103.009 1.71V2.214C103.009 2.358 102.979 2.46 102.919 2.52C102.859 2.568 102.751 2.592 102.595 2.592H92.0111C91.8551 2.592 91.7471 2.568 91.6871 2.52C91.6271 2.46 91.5971 2.358 91.5971 2.214V1.71C91.5971 1.566 91.6271 1.47 91.6871 1.422C91.7471 1.362 91.8551 1.332 92.0111 1.332H95.4671V1.008C95.4671 0.648 95.5391 0.39 95.6831 0.234C95.8271 0.0780001 96.0911 0 96.4751 0H98.1311C98.5151 0 98.7791 0.0780001 98.9231 0.234C99.0671 0.39 99.1391 0.648 99.1391 1.008V1.332H102.595ZM97.3031 4.59C96.8351 4.59 96.4571 4.764 96.1691 5.112C95.8811 5.448 95.7371 6.018 95.7371 6.822C95.7371 7.626 95.8811 8.202 96.1691 8.55C96.4571 8.886 96.8351 9.054 97.3031 9.054C97.7711 9.054 98.1491 8.886 98.4371 8.55C98.7251 8.202 98.8691 7.626 98.8691 6.822C98.8691 6.018 98.7251 5.448 98.4371 5.112C98.1491 4.764 97.7711 4.59 97.3031 4.59Z" fill="var(--fill-0, white)"/>
<path id="Vector_9" d="M80.1851 0.252001C81.8291 0.252001 83.0831 0.594001 83.9471 1.278C84.8111 1.962 85.2431 3.012 85.2431 4.428C85.2431 5.844 84.8111 6.894 83.9471 7.578C83.0831 8.262 81.8291 8.604 80.1851 8.604C78.5411 8.604 77.2871 8.262 76.4231 7.578C75.5591 6.894 75.1271 5.844 75.1271 4.428C75.1271 3.012 75.5591 1.962 76.4231 1.278C77.2871 0.594001 78.5411 0.252001 80.1851 0.252001ZM90.3551 15.156C90.3551 15.516 90.2831 15.774 90.1391 15.93C89.9951 16.086 89.7311 16.164 89.3471 16.164H87.6911C87.3071 16.164 87.0431 16.086 86.8991 15.93C86.7551 15.774 86.6831 15.516 86.6831 15.156V1.44C86.6831 1.08 86.7551 0.822001 86.8991 0.666001C87.0431 0.510001 87.3071 0.432001 87.6911 0.432001H89.3471C89.7311 0.432001 89.9951 0.510001 90.1391 0.666001C90.2831 0.822001 90.3551 1.08 90.3551 1.44V15.156ZM85.5851 10.044C85.7411 10.044 85.8491 10.074 85.9091 10.134C85.9691 10.182 85.9991 10.278 85.9991 10.422V10.926C85.9991 11.07 85.9691 11.172 85.9091 11.232C85.8491 11.28 85.7411 11.304 85.5851 11.304H82.0211V15.156C82.0211 15.516 81.9491 15.774 81.8051 15.93C81.6611 16.086 81.3971 16.164 81.0131 16.164H79.3571C78.9731 16.164 78.7091 16.086 78.5651 15.93C78.4211 15.774 78.3491 15.516 78.3491 15.156V11.304H74.7851C74.6291 11.304 74.5211 11.28 74.4611 11.232C74.4011 11.172 74.3711 11.07 74.3711 10.926V10.422C74.3711 10.278 74.4011 10.182 74.4611 10.134C74.5211 10.074 74.6291 10.044 74.7851 10.044H85.5851ZM80.1851 7.344C80.6651 7.344 81.0131 7.128 81.2291 6.696C81.4571 6.264 81.5711 5.508 81.5711 4.428C81.5711 3.348 81.4571 2.592 81.2291 2.16C81.0131 1.728 80.6651 1.512 80.1851 1.512C79.7051 1.512 79.3511 1.728 79.1231 2.16C78.9071 2.592 78.7991 3.348 78.7991 4.428C78.7991 5.508 78.9071 6.264 79.1231 6.696C79.3511 7.128 79.7051 7.344 80.1851 7.344Z" fill="var(--fill-0, white)"/>
<path id="Vector_10" d="M60.6911 0.252001C61.9631 0.252001 63.0491 0.318001 63.9491 0.45C64.8611 0.582 65.6111 0.774 66.1991 1.026C66.7871 1.278 67.2191 1.584 67.4951 1.944C67.7711 2.304 67.9091 2.712 67.9091 3.168C67.9091 3.624 67.7711 4.032 67.4951 4.392C67.2191 4.752 66.7871 5.058 66.1991 5.31C65.6111 5.562 64.8611 5.754 63.9491 5.886C63.0491 6.018 61.9631 6.084 60.6911 6.084C59.4191 6.084 58.3271 6.018 57.4151 5.886C56.5031 5.754 55.7531 5.562 55.1651 5.31C54.5891 5.058 54.1631 4.752 53.8871 4.392C53.6111 4.032 53.4731 3.624 53.4731 3.168C53.4731 2.712 53.6111 2.304 53.8871 1.944C54.1631 1.584 54.5891 1.278 55.1651 1.026C55.7531 0.774 56.5031 0.582 57.4151 0.45C58.3271 0.318001 59.4191 0.252001 60.6911 0.252001ZM60.6911 4.824C61.8311 4.824 62.7071 4.686 63.3191 4.41C63.9311 4.122 64.2371 3.708 64.2371 3.168C64.2371 2.628 63.9311 2.22 63.3191 1.944C62.7071 1.656 61.8311 1.512 60.6911 1.512C59.5511 1.512 58.6751 1.656 58.0631 1.944C57.4511 2.22 57.1451 2.628 57.1451 3.168C57.1451 3.708 57.4511 4.122 58.0631 4.41C58.6751 4.686 59.5511 4.824 60.6911 4.824ZM67.4411 14.886C67.6091 14.886 67.7171 14.916 67.7651 14.976C67.8251 15.036 67.8551 15.132 67.8551 15.264V15.768C67.8551 15.9 67.8251 15.996 67.7651 16.056C67.7171 16.116 67.6091 16.146 67.4411 16.146H55.4711C55.0871 16.146 54.7691 16.116 54.5171 16.056C54.2771 15.996 54.0851 15.894 53.9411 15.75C53.7971 15.618 53.6951 15.438 53.6351 15.21C53.5871 14.994 53.5631 14.718 53.5631 14.382V13.266C53.5631 12.906 53.6351 12.648 53.7791 12.492C53.9231 12.336 54.1871 12.258 54.5711 12.258H63.7151C63.9191 12.258 64.0451 12.228 64.0931 12.168C64.1531 12.096 64.1831 11.97 64.1831 11.79V11.376C64.1831 11.196 64.1531 11.076 64.0931 11.016C64.0451 10.944 63.9191 10.908 63.7151 10.908H53.9771C53.8091 10.908 53.6951 10.878 53.6351 10.818C53.5871 10.758 53.5631 10.662 53.5631 10.53V10.026C53.5631 9.894 53.5871 9.798 53.6351 9.738C53.6951 9.678 53.8091 9.648 53.9771 9.648H66.8471C67.2311 9.648 67.4951 9.726 67.6391 9.882C67.7831 10.038 67.8551 10.296 67.8551 10.656V12.51C67.8551 12.87 67.7831 13.128 67.6391 13.284C67.4951 13.44 67.2311 13.518 66.8471 13.518H57.7031C57.4991 13.518 57.3671 13.554 57.3071 13.626C57.2591 13.686 57.2351 13.806 57.2351 13.986V14.418C57.2351 14.598 57.2591 14.718 57.3071 14.778C57.3671 14.85 57.4991 14.886 57.7031 14.886H67.4411ZM68.4311 7.11C68.5871 7.11 68.6951 7.14 68.7551 7.2C68.8151 7.248 68.8451 7.344 68.8451 7.488V7.992C68.8451 8.136 68.8151 8.238 68.7551 8.298C68.6951 8.346 68.5871 8.37 68.4311 8.37H53.0051C52.8491 8.37 52.7411 8.346 52.6811 8.298C52.6211 8.238 52.5911 8.136 52.5911 7.992V7.488C52.5911 7.344 52.6211 7.248 52.6811 7.2C52.7411 7.14 52.8491 7.11 53.0051 7.11H68.4311Z" fill="var(--fill-0, white)"/>
<path id="Vector_11" d="M40.4951 0.252001C42.0551 0.252001 43.2491 0.528001 44.0771 1.08C44.9051 1.62 45.3851 2.382 45.5171 3.366H46.9931V1.44C46.9931 1.08 47.0651 0.822001 47.2091 0.666001C47.3531 0.510001 47.6171 0.432001 48.0011 0.432001H49.6571C50.0411 0.432001 50.3051 0.510001 50.4491 0.666001C50.5931 0.822001 50.6651 1.08 50.6651 1.44V10.998C50.6651 11.358 50.5931 11.616 50.4491 11.772C50.3051 11.928 50.0411 12.006 49.6571 12.006H48.0011C47.6171 12.006 47.3531 11.928 47.2091 11.772C47.0651 11.616 46.9931 11.358 46.9931 10.998V4.626H45.4811C45.3131 5.55 44.8151 6.264 43.9871 6.768C43.1591 7.272 41.9951 7.524 40.4951 7.524C38.8031 7.524 37.5371 7.206 36.6971 6.57C35.8571 5.934 35.4371 5.04 35.4371 3.888C35.4371 2.736 35.8571 1.842 36.6971 1.206C37.5371 0.570001 38.8031 0.252001 40.4951 0.252001ZM39.4151 14.238C39.4151 14.514 39.4751 14.688 39.5951 14.76C39.7151 14.844 39.8951 14.886 40.1351 14.886H50.2511C50.4191 14.886 50.5271 14.916 50.5751 14.976C50.6351 15.036 50.6651 15.132 50.6651 15.264V15.768C50.6651 15.9 50.6351 15.996 50.5751 16.056C50.5271 16.116 50.4191 16.146 50.2511 16.146H38.0111C37.1591 16.146 36.5651 15.978 36.2291 15.642C35.9051 15.318 35.7431 14.778 35.7431 14.022V12.384C35.7431 12.024 35.8151 11.766 35.9591 11.61C36.1031 11.454 36.3671 11.376 36.7511 11.376H38.4071C38.5151 11.376 38.6291 11.388 38.7491 11.412V11.196V9.954H35.0951C34.9391 9.954 34.8311 9.93 34.7711 9.882C34.7111 9.822 34.6811 9.72 34.6811 9.576V9.072C34.6811 8.928 34.7111 8.832 34.7711 8.784C34.8311 8.724 34.9391 8.694 35.0951 8.694H45.8951C46.0511 8.694 46.1591 8.724 46.2191 8.784C46.2791 8.832 46.3091 8.928 46.3091 9.072V9.576C46.3091 9.72 46.2791 9.822 46.2191 9.882C46.1591 9.93 46.0511 9.954 45.8951 9.954H42.4211V11.196C42.4211 11.556 42.3491 11.814 42.2051 11.97C42.0611 12.126 41.7971 12.204 41.4131 12.204H39.7571C39.6851 12.204 39.6191 12.204 39.5591 12.204C39.5111 12.204 39.4571 12.198 39.3971 12.186C39.4091 12.222 39.4151 12.288 39.4151 12.384V14.238ZM40.4951 6.264C40.9511 6.264 41.2931 6.078 41.5211 5.706C41.7611 5.322 41.8811 4.716 41.8811 3.888C41.8811 3.048 41.7611 2.442 41.5211 2.07C41.2931 1.698 40.9511 1.512 40.4951 1.512C40.0391 1.512 39.6911 1.704 39.4511 2.088C39.2231 2.46 39.1091 3.06 39.1091 3.888C39.1091 4.716 39.2231 5.322 39.4511 5.706C39.6911 6.078 40.0391 6.264 40.4951 6.264Z" fill="var(--fill-0, white)"/>
<path id="Vector_12" d="M32.9351 10.278C32.9351 10.638 32.8631 10.896 32.7191 11.052C32.5751 11.208 32.3111 11.286 31.9271 11.286H30.2711C29.8871 11.286 29.6231 11.208 29.4791 11.052C29.3351 10.896 29.2631 10.638 29.2631 10.278V1.44C29.2631 1.08 29.3351 0.822001 29.4791 0.666001C29.6231 0.510001 29.8871 0.432001 30.2711 0.432001H31.9271C32.3111 0.432001 32.5751 0.510001 32.7191 0.666001C32.8631 0.822001 32.9351 1.08 32.9351 1.44V10.278ZM22.1351 14.238C22.1351 14.514 22.1951 14.688 22.3151 14.76C22.4351 14.844 22.6151 14.886 22.8551 14.886H32.5211C32.6891 14.886 32.7971 14.916 32.8451 14.976C32.9051 15.036 32.9351 15.132 32.9351 15.264V15.768C32.9351 15.9 32.9051 15.996 32.8451 16.056C32.7971 16.116 32.6891 16.146 32.5211 16.146H20.7311C19.8791 16.146 19.2851 15.978 18.9491 15.642C18.6251 15.318 18.4631 14.778 18.4631 14.022V11.844C18.4631 11.484 18.5351 11.226 18.6791 11.07C18.8231 10.914 19.0871 10.836 19.4711 10.836H21.1271C21.5111 10.836 21.7751 10.914 21.9191 11.07C22.0631 11.226 22.1351 11.484 22.1351 11.844V14.238ZM27.6611 5.148C27.6611 6 27.5231 6.726 27.2471 7.326C26.9831 7.914 26.6171 8.4 26.1491 8.784C25.6811 9.156 25.1291 9.432 24.4931 9.612C23.8571 9.78 23.1671 9.864 22.4231 9.864C21.6791 9.864 20.9831 9.78 20.3351 9.612C19.6991 9.432 19.1471 9.156 18.6791 8.784C18.2111 8.4 17.8391 7.914 17.5631 7.326C17.2991 6.726 17.1671 6 17.1671 5.148C17.1671 4.296 17.2991 3.576 17.5631 2.988C17.8391 2.388 18.2111 1.902 18.6791 1.53C19.1471 1.146 19.6991 0.870001 20.3351 0.702001C20.9831 0.522001 21.6791 0.432001 22.4231 0.432001C23.1671 0.432001 23.8571 0.522001 24.4931 0.702001C25.1291 0.870001 25.6811 1.146 26.1491 1.53C26.6171 1.902 26.9831 2.388 27.2471 2.988C27.5231 3.576 27.6611 4.296 27.6611 5.148ZM20.7671 5.148C20.7671 5.82 20.8031 6.378 20.8751 6.822C20.9591 7.266 21.0731 7.62 21.2171 7.884C21.3611 8.148 21.5351 8.334 21.7391 8.442C21.9431 8.55 22.1711 8.604 22.4231 8.604C22.6751 8.604 22.9031 8.55 23.1071 8.442C23.3111 8.334 23.4851 8.148 23.6291 7.884C23.7731 7.62 23.8811 7.266 23.9531 6.822C24.0251 6.378 24.0611 5.82 24.0611 5.148C24.0611 4.476 24.0251 3.918 23.9531 3.474C23.8811 3.03 23.7731 2.676 23.6291 2.412C23.4851 2.148 23.3111 1.962 23.1071 1.854C22.9031 1.746 22.6751 1.692 22.4231 1.692C22.1711 1.692 21.9431 1.746 21.7391 1.854C21.5351 1.962 21.3611 2.148 21.2171 2.412C21.0731 2.676 20.9591 3.03 20.8751 3.474C20.8031 3.918 20.7671 4.476 20.7671 5.148Z" fill="var(--fill-0, white)"/>
<path id="Vector_13" d="M3.672 13.23C3.672 13.506 3.732 13.698 3.852 13.806C3.972 13.914 4.188 13.968 4.5 13.968C4.848 13.968 5.22 13.932 5.616 13.86C6.024 13.776 6.426 13.668 6.822 13.536C7.218 13.404 7.584 13.254 7.92 13.086C8.268 12.918 8.562 12.75 8.802 12.582C8.958 12.474 9.072 12.426 9.144 12.438C9.228 12.45 9.306 12.504 9.378 12.6L9.612 12.906C9.732 13.074 9.714 13.23 9.558 13.374C9.138 13.734 8.652 14.07 8.1 14.382C7.548 14.706 6.96 14.982 6.336 15.21C5.724 15.45 5.094 15.636 4.446 15.768C3.81 15.912 3.186 15.984 2.574 15.984C1.734 15.984 1.092 15.792 0.648003 15.408C0.216003 15.036 0 14.484 0 13.752V1.62C0 1.248 0.0719996 0.990001 0.216 0.846001C0.36 0.690001 0.618002 0.612001 0.990002 0.612001H8.352C8.508 0.612001 8.616 0.642001 8.676 0.702001C8.736 0.750001 8.766 0.846001 8.766 0.990001V1.494C8.766 1.638 8.736 1.74 8.676 1.8C8.616 1.848 8.508 1.872 8.352 1.872H4.212C4.008 1.872 3.864 1.914 3.78 1.998C3.708 2.07 3.672 2.214 3.672 2.43V13.23ZM16.164 7.632C16.332 7.632 16.44 7.662 16.488 7.722C16.548 7.782 16.578 7.878 16.578 8.01V8.514C16.578 8.646 16.548 8.742 16.488 8.802C16.44 8.862 16.332 8.892 16.164 8.892H14.31V15.156C14.31 15.516 14.238 15.774 14.094 15.93C13.95 16.086 13.686 16.164 13.302 16.164H11.646C11.262 16.164 10.998 16.086 10.854 15.93C10.71 15.774 10.638 15.516 10.638 15.156V1.44C10.638 1.08 10.71 0.822001 10.854 0.666001C10.998 0.510001 11.262 0.432001 11.646 0.432001H13.302C13.686 0.432001 13.95 0.510001 14.094 0.666001C14.238 0.822001 14.31 1.08 14.31 1.44V7.632H16.164Z" fill="var(--fill-0, white)"/>
</g>
</svg>
